<?xml version="1.0" encoding="UTF-8" standalone="no"?>
<!-- Created with Inkscape (http://www.inkscape.org/) -->

<svg
   xmlns:dc="http://purl.org/dc/elements/1.1/"
   xmlns:cc="http://creativecommons.org/ns#"
   xmlns:rdf="http://www.w3.org/1999/02/22-rdf-syntax-ns#"
   xmlns:svg="http://www.w3.org/2000/svg"
   xmlns="http://www.w3.org/2000/svg"
   xmlns:xlink="http://www.w3.org/1999/xlink"
   xmlns:sodipodi="http://sodipodi.sourceforge.net/DTD/sodipodi-0.dtd"
   xmlns:inkscape="http://www.inkscape.org/namespaces/inkscape"
   width="90mm"
   height="50mm"
   id="svg4988"
   version="1.1"
   inkscape:version="0.91 r13725"
   sodipodi:docname="cartel-colectivos.svg">
  <defs
     id="defs3">
    <radialGradient
       fx="0"
       fy="0"
       cx="0"
       cy="0"
       r="1"
       gradientUnits="userSpaceOnUse"
       gradientTransform="matrix(73.495575,0,0,-73.495575,1176.5801,354.89502)"
       spreadMethod="pad"
       id="radialGradient4220">
      <stop
         style="stop-color:#bc2121;stop-opacity:1;"
         offset="0"
         id="stop4222" />
      <stop
         style="stop-color:#a21c0a;stop-opacity:1;"
         offset="0.85784298"
         id="stop4224" />
      <stop
         style="stop-opacity:1;stop-color:#603813"
         offset="1"
         id="stop4228" />
    </radialGradient>
    <radialGradient
       fx="0"
       fy="0"
       cx="0"
       cy="0"
       r="1"
       gradientUnits="userSpaceOnUse"
       gradientTransform="matrix(73.495575,0,0,-73.495575,1176.5801,354.89502)"
       spreadMethod="pad"
       id="radialGradient5011">
      <stop
         style="stop-color:#bc2121;stop-opacity:1;"
         offset="0"
         id="stop5013" />
      <stop
         style="stop-color:#a21c0a;stop-opacity:1;"
         offset="0.85784298"
         id="stop5015" />
      <stop
         style="stop-opacity:1;stop-color:#603813"
         offset="1"
         id="stop5017" />
    </radialGradient>
    <radialGradient
       fx="0"
       fy="0"
       cx="0"
       cy="0"
       r="1"
       gradientUnits="userSpaceOnUse"
       gradientTransform="matrix(73.495575,0,0,-73.495575,1176.5801,354.89502)"
       spreadMethod="pad"
       id="radialGradient5020">
      <stop
         style="stop-color:#bc2121;stop-opacity:1;"
         offset="0"
         id="stop5022" />
      <stop
         style="stop-color:#a21c0a;stop-opacity:1;"
         offset="0.85784298"
         id="stop5024" />
      <stop
         style="stop-opacity:1;stop-color:#603813"
         offset="1"
         id="stop5026" />
    </radialGradient>
    <linearGradient
       inkscape:collect="always"
       xlink:href="#linearGradient7069"
       id="linearGradient14966"
       gradientUnits="userSpaceOnUse"
       gradientTransform="matrix(0.3575077,0,0,0.3575077,166.89026,504.47032)"
       x1="956.62555"
       y1="-316.11447"
       x2="956.62555"
       y2="-724.24164" />
    <linearGradient
       id="linearGradient7069">
      <stop
         id="stop7071"
         offset="0"
         style="stop-color:#404040;stop-opacity:1" />
      <stop
         id="stop7073"
         offset="1"
         style="stop-color:#fefefe;stop-opacity:1;" />
    </linearGradient>
    <linearGradient
       inkscape:collect="always"
       xlink:href="#linearGradient7069"
       id="linearGradient5032"
       gradientUnits="userSpaceOnUse"
       gradientTransform="matrix(0.3575077,0,0,0.3575077,166.89026,504.47032)"
       x1="956.62555"
       y1="-316.11447"
       x2="956.62555"
       y2="-724.24164" />
    <linearGradient
       id="linearGradient5034">
      <stop
         id="stop5036"
         offset="0"
         style="stop-color:#404040;stop-opacity:1" />
      <stop
         id="stop5038"
         offset="1"
         style="stop-color:#fefefe;stop-opacity:1;" />
    </linearGradient>
    <filter
       inkscape:collect="always"
       id="filter5826"
       x="-0.013488121"
       width="1.0269762"
       y="-0.10876632"
       height="1.2175326">
      <feGaussianBlur
         inkscape:collect="always"
         stdDeviation="1.302711"
         id="feGaussianBlur5828" />
    </filter>
    <clipPath
       clipPathUnits="userSpaceOnUse"
       id="clipPath3734">
      <path
         d="m 0,1080 1920,0 L 1920,0 0,0 0,1080 Z"
         id="path3736"
         inkscape:connector-curvature="0" />
    </clipPath>
  </defs>
  <sodipodi:namedview
     id="base"
     pagecolor="#ffffff"
     bordercolor="#666666"
     borderopacity="1.0"
     inkscape:pageopacity="0.0"
     inkscape:pageshadow="2"
     inkscape:zoom="2.4058203"
     inkscape:cx="229.74007"
     inkscape:cy="95.170221"
     inkscape:document-units="mm"
     inkscape:current-layer="layer1"
     showgrid="false"
     inkscape:snap-page="false"
     showguides="true"
     inkscape:guide-bbox="true"
     inkscape:window-width="1920"
     inkscape:window-height="1021"
     inkscape:window-x="0"
     inkscape:window-y="0"
     inkscape:window-maximized="1" />
  <metadata
     id="metadata4992">
    <rdf:RDF>
      <cc:Work
         rdf:about="">
        <dc:format>image/svg+xml</dc:format>
        <dc:type
           rdf:resource="http://purl.org/dc/dcmitype/StillImage" />
        <dc:title />
      </cc:Work>
    </rdf:RDF>
  </metadata>
  <g
     inkscape:label="Layer 1"
     inkscape:groupmode="layer"
     id="layer1">
    <rect
       ry="7.2015653"
       rx="7.2015653"
       y="110.08543"
       x="52.051865"
       height="28.745171"
       width="231.79703"
       id="rect5820"
       style="color:#000000;display:inline;overflow:visible;visibility:visible;fill:#000000;fill-opacity:1;fill-rule:nonzero;stroke:none;stroke-width:0.70866144;marker:none;filter:url(#filter5826);enable-background:accumulate" />
    <rect
       style="color:#000000;display:inline;overflow:visible;visibility:visible;fill:#782121;fill-opacity:1;fill-rule:nonzero;stroke:none;stroke-width:0.70866144;marker:none;enable-background:accumulate"
       id="rect5290"
       width="231.79703"
       height="28.745171"
       x="50.051865"
       y="108.08543"
       rx="7.2015653"
       ry="7.2015653" />
    <text
       xml:space="preserve"
       style="font-style:normal;font-variant:normal;font-weight:normal;font-stretch:normal;font-size:16.24877739px;line-height:125%;font-family:Ubuntu;-inkscape-font-specification:Ubuntu;text-align:end;letter-spacing:0px;word-spacing:0px;text-anchor:end;fill:#000000;fill-opacity:1;stroke:none"
       x="303.56653"
       y="27.116333"
       id="text14613-8"
       sodipodi:linespacing="125%"><tspan
         sodipodi:role="line"
         x="307.31137"
         y="27.116333"
         id="tspan14660">Internet i més </tspan><tspan
         sodipodi:role="line"
         x="303.56653"
         y="47.427303"
         id="tspan3429">fora de l'oligopoli</tspan></text>
    <text
       sodipodi:linespacing="100%"
       id="text15456"
       y="127.58038"
       x="168.08643"
       style="font-style:normal;font-variant:normal;font-weight:normal;font-stretch:normal;font-size:17.07749748px;line-height:100%;font-family:Ubuntu;-inkscape-font-specification:Ubuntu;text-align:center;letter-spacing:0px;word-spacing:0px;text-anchor:middle;fill:#ffffff;fill-opacity:1;stroke:none"
       xml:space="preserve"
       transform="scale(0.9982689,1.0017341)"><tspan
         y="127.58038"
         x="168.08643"
         sodipodi:role="line"
         id="tspan3251"><tspan
   dx="0 0 0 0 0"
   dy="0 0 0 0 0"
   rotate="0 0 0 0 0 0 0 0 0 0 0 0 0 0 0 0 0"
   id="tspan3253"
   style="text-align:center;text-anchor:middle;fill:#ffffff">Ètica - Local - </tspan>Econòmica</tspan></text>
    <flowRoot
       xml:space="preserve"
       id="flowRoot5812"
       style="fill:black;stroke:none;stroke-opacity:1;stroke-width:1px;stroke-linejoin:miter;stroke-linecap:butt;fill-opacity:1;font-family:Ubuntu;font-style:normal;font-weight:normal;font-size:56px;line-height:125%;letter-spacing:0px;word-spacing:0px;text-anchor:middle;text-align:center;-inkscape-font-specification:Ubuntu;font-stretch:normal;font-variant:normal"><flowRegion
         id="flowRegion5814"><rect
           id="rect5816"
           width="207.5"
           height="102"
           x="171"
           y="-15.334641" /></flowRegion><flowPara
         id="flowPara5818" /></flowRoot>    <g
       style="display:inline"
       id="g3532"
       transform="matrix(0.13952893,0,0,-0.13648968,-44.291114,129.81731)">
      <g
         style="fill:#383838;fill-opacity:1"
         id="g3730">
        <g
           style="fill:#383838;fill-opacity:1"
           clip-path="url(#clipPath3734)"
           id="g3732">
          <path
             sodipodi:nodetypes="cccccccaasccccccccccccccccccccccccccccccccccccc"
             d="m 441.1157,399.919 c 0,0 -0.445,0.658 -1.306,1.934 -0.43,0.637 -0.965,1.429 -1.601,2.37 -0.318,0.471 -0.661,0.979 -1.028,1.523 -0.092,0.136 -0.186,0.275 -0.281,0.415 -0.115,0.192 -0.233,0.386 -0.352,0.584 -0.239,0.399 -0.485,0.811 -0.739,1.235 -11.81765,22.59709 -14.00979,29.5558 -16.43666,45.49719 -2.85408,18.74752 -1.75941,38.36263 2.53207,56.83419 3.71046,15.97072 8.70036,26.11275 19.6987,45.07153 40.05005,69.03773 122.76589,135.38333 204.50889,175.96309 23.134,11.476 46.867,21.588 70.595,30.405 23.754,8.761 47.537,16.132 70.778,22.254 23.244,6.12 45.956,10.958 67.611,14.698 21.656,3.745 42.252,6.392 61.297,8.273 19.048,1.891 36.563,2.791 52.069,3.452 3.879,0.095 7.635,0.187 11.26,0.275 3.623,0.08 7.114,0.208 10.472,0.184 3.356,0.01 6.575,0.019 9.652,0.028 3.075,0.006 6.007,0.038 8.79,-0.042 5.564,-0.105 10.531,-0.198 14.853,-0.28 4.319,-0.132 7.992,-0.312 10.969,-0.424 5.952,-0.242 9.126,-0.371 9.126,-0.371 0,0 -3.177,-0.039 -9.134,-0.112 -2.977,-0.046 -6.649,-0.059 -10.964,-0.156 -4.313,-0.146 -9.27,-0.315 -14.822,-0.504 -2.776,-0.068 -5.697,-0.254 -8.76,-0.422 -3.063,-0.171 -6.267,-0.35 -9.608,-0.536 -3.341,-0.153 -6.811,-0.465 -10.411,-0.735 -3.599,-0.279 -7.328,-0.567 -11.18,-0.866 -15.383,-1.474 -32.715,-3.287 -51.487,-6.159 -18.77,-2.862 -38.997,-6.559 -60.164,-11.384 -21.166,-4.82 -43.269,-10.767 -65.763,-17.981 -22.491,-7.216 -45.385,-15.665 -68.098,-25.434 -22.687,-9.826 -45.229,-20.879 -67.018,-33.162 -53.0419,-30.56623 -100.40536,-65.53609 -140.173,-111.207 -24.03478,-27.60325 -43.37046,-58.36103 -53.594,-93.004 -2.18627,-8.72871 -4.13504,-18.46738 -4.351,-26.727 -0.34868,-17.14078 2.58645,-32.89516 11.111,-46.756 0.695,-1.026 1.301,-1.965 1.832,-2.813 0.131,-0.213 0.259,-0.419 0.383,-0.619 l 0.186,-0.301 c 0.102,-0.135 0.203,-0.268 0.302,-0.399 0.396,-0.525 0.765,-1.014 1.107,-1.467 0.685,-0.906 1.261,-1.669 1.724,-2.283 0.928,-1.228 1.406,-1.861 1.406,-1.861 z"
             style="fill:#383838;fill-opacity:1;fill-rule:nonzero;stroke:none"
             id="path3740-0"
             inkscape:connector-curvature="0" />
          <path
             sodipodi:nodetypes="ccccccccccccccccccccccccc"
             d="m 1168.5483,805.3889 c 3.9152,-0.24305 8.3865,-0.82175 12.344,-1.37 29.9811,-4.65962 62.5959,-19.73648 92.026,-44.752 6.565,-5.445 13.029,-11.194 19.036,-17.397 3.086,-3.008 5.913,-6.283 8.827,-9.419 1.386,-1.638 2.768,-3.272 4.146,-4.902 6.6542,-7.90276 13.2347,-17.48237 18.109,-25.367 1.997,-3.496 4.048,-6.861 5.738,-10.347 9.5332,-20.70247 15.3991,-38.81488 16.439,-59.897 0.038,-0.918 0.074,-1.787 0.108,-2.605 0.027,-0.817 -0.035,-1.588 -0.046,-2.301 -0.045,-1.426 -0.083,-2.638 -0.113,-3.621 -0.062,-1.961 -0.095,-3.007 -0.095,-3.007 0,0 -0.077,1.045 -0.22,3.004 -0.071,0.976 -0.16,2.18 -0.263,3.596 -0.064,0.706 -0.081,1.467 -0.193,2.272 -0.119,0.805 -0.244,1.66 -0.377,2.563 -3.1358,23.41524 -16.4746,48.76897 -28.329,65.398 -4.685,6.066 -9.708,12.174 -15.359,17.881 -5.7552,5.90456 -11.8458,11.69136 -17.84,16.439 -6.223,5.213 -12.829,9.943 -19.444,14.353 -1.67,1.077 -3.334,2.149 -4.99,3.217 -27.376,17.46551 -52.6403,24.27276 -79.855,28.231 -3.6063,0.23444 -6.9671,0.11196 -10.597,0.047 z"
             style="fill:#383838;fill-opacity:1;fill-rule:nonzero;stroke:none"
             id="path3744-5"
             inkscape:connector-curvature="0" />
          <path
             sodipodi:nodetypes="cccccczcccccccccccc"
             d="m 1324.7979,455 c 0,0 -2.054,-2.441 -5.906,-7.018 -1.886,-2.322 -4.39,-5.034 -7.295,-8.267 -2.862,-3.277 -6.362,-6.836 -10.242,-10.871 -7.871,-7.951 -17.698,-17.383 -29.69,-27.407 -49.1374,-40.93781 -101.704,-67.76812 -159.717,-90.557 -64.7931,-24.9783 -116.68245,-38.12037 -203.052,-49.285 -86.36955,-11.16463 -234.51624,-10.91638 -335.257,14.23 -7.02021,1.80276 -13.34644,3.65027 -20.317,5.695 l 13.565,40.804 c 6.21987,-2.24631 12.08653,-4.15343 18.261,-6.173 106.69657,-27.71137 196.97571,-40.04091 321.282,-30.166 68.52913,4.9819 135.979,17.21174 201.008,37.732 40.7149,13.03909 81.8929,30.79928 118.5,52.129 16.407,9.614 30.866,19.428 43.262,28.702 12.389,9.292 22.629,18.133 30.871,25.624 4.065,3.806 7.74,7.168 10.753,10.273 3.058,3.062 5.7,5.637 7.707,7.857 4.087,4.368 6.267,6.698 6.267,6.698"
             style="fill:#383838;fill-opacity:1;fill-rule:nonzero;stroke:none"
             id="path3748-9"
             inkscape:connector-curvature="0" />
        </g>
      </g>
      <path
         inkscape:connector-curvature="0"
         id="path4182-4"
         style="color:#000000;clip-rule:nonzero;display:inline;overflow:visible;visibility:visible;opacity:1;isolation:auto;mix-blend-mode:normal;color-interpolation:sRGB;color-interpolation-filters:linearRGB;solid-color:#000000;solid-opacity:1;fill:#aa3333;fill-opacity:1;fill-rule:nonzero;stroke:none;stroke-width:4.80000019;stroke-linecap:butt;stroke-linejoin:miter;stroke-miterlimit:4;stroke-dasharray:none;stroke-dashoffset:0;stroke-opacity:1;color-rendering:auto;image-rendering:auto;shape-rendering:auto;text-rendering:auto;enable-background:accumulate"
         d="m 1024.151,795.899 c 0,-40.004 32.425,-72.43 72.429,-72.43 l 0,0 c 39.996,0 72.43,32.426 72.43,72.43 l 0,0 c 0,39.996 -32.434,72.422 -72.43,72.422 l 0,0 c -40.004,0 -72.429,-32.426 -72.429,-72.422" />
      <path
         inkscape:connector-curvature="0"
         id="path4206-6"
         style="fill:#aa3333;fill-opacity:1;stroke:none;stroke-width:4.80000019;stroke-miterlimit:4;stroke-dasharray:none;stroke-opacity:1"
         d="m 406.08,348.9 c 0,-48.88 39.62,-88.5 88.5,-88.5 l 0,0 c 48.87,0 88.5,39.62 88.5,88.5 l 0,0 c 0,48.87 -39.63,88.49 -88.5,88.49 l 0,0 c -48.88,0 -88.5,-39.62 -88.5,-88.49" />
      <path
         inkscape:connector-curvature="0"
         id="path4230-9"
         style="color:#000000;clip-rule:nonzero;display:inline;overflow:visible;visibility:visible;opacity:1;isolation:auto;mix-blend-mode:normal;color-interpolation:sRGB;color-interpolation-filters:linearRGB;solid-color:#000000;solid-opacity:1;fill:#aa3333;fill-opacity:1;fill-rule:nonzero;stroke:none;stroke-width:4.80000019;stroke-linecap:butt;stroke-linejoin:miter;stroke-miterlimit:4;stroke-dasharray:none;stroke-dashoffset:0;stroke-opacity:1;color-rendering:auto;image-rendering:auto;shape-rendering:auto;text-rendering:auto;enable-background:accumulate"
         d="m 1103.082,354.899 c 0,-40.594 32.904,-73.498 73.498,-73.498 l 0,0 c 40.585,0 73.498,32.904 73.498,73.498 l 0,0 c 0,40.586 -32.913,73.489 -73.498,73.489 l 0,0 c -40.594,0 -73.498,-32.903 -73.498,-73.489" />
      <text
         transform="scale(0.99344149,-1.0066018)"
         sodipodi:linespacing="125%"
         id="text4232-2"
         y="-486.37177"
         x="529.39191"
         style="font-style:normal;font-variant:normal;font-weight:500;font-stretch:normal;font-size:239.37608337px;line-height:125%;font-family:ubunutu;-inkscape-font-specification:'Ubuntu Medium';text-align:start;letter-spacing:0px;word-spacing:0px;text-anchor:start;display:inline;fill:#383838;fill-opacity:1;stroke:#383838;stroke-width:7.19999981;stroke-miterlimit:4;stroke-dasharray:none;stroke-opacity:1"
         xml:space="preserve"><tspan
           style="font-weight:500;font-family:Ubuntu;-inkscape-font-specification:'Ubuntu Medium';text-align:start;text-anchor:start;fill:#383838;fill-opacity:1;stroke:#383838;stroke-width:7.19999981;stroke-miterlimit:4;stroke-dasharray:none;stroke-opacity:1"
           y="-486.37177"
           x="529.39191"
           id="tspan4234-2"
           sodipodi:role="line">guifibaix</tspan></text>
    </g>
    <text
       xml:space="preserve"
       style="color:#000000;font-style:normal;font-variant:normal;font-weight:normal;font-stretch:normal;font-size:19.64076424px;line-height:125%;font-family:Ubuntu;-inkscape-font-specification:Sans;text-align:center;letter-spacing:0px;word-spacing:0px;text-anchor:middle;clip-rule:nonzero;display:inline;overflow:visible;visibility:visible;opacity:1;isolation:auto;mix-blend-mode:normal;color-interpolation:sRGB;color-interpolation-filters:linearRGB;solid-color:#000000;solid-opacity:1;fill:#383838;fill-opacity:1;fill-rule:nonzero;stroke:none;stroke-width:0.39086476;stroke-linecap:butt;stroke-linejoin:miter;stroke-miterlimit:4;stroke-dasharray:none;stroke-dashoffset:0;stroke-opacity:1;color-rendering:auto;image-rendering:auto;shape-rendering:auto;text-rendering:auto;enable-background:accumulate"
       x="168.71849"
       y="158.57407"
       id="text3976"
       sodipodi:linespacing="125%"><tspan
         sodipodi:role="line"
         id="tspan3978"
         x="168.71849"
         y="158.57407">http://guifibaix.coop</tspan></text>
    <text
       sodipodi:linespacing="125%"
       id="text4034"
       y="74.554581"
       x="237.16287"
       style="color:#000000;font-style:normal;font-variant:normal;font-weight:normal;font-stretch:normal;font-size:10.37474632px;line-height:125%;font-family:Ubuntu;-inkscape-font-specification:Sans;text-align:center;letter-spacing:0px;word-spacing:0px;text-anchor:middle;clip-rule:nonzero;display:inline;overflow:visible;visibility:visible;opacity:1;isolation:auto;mix-blend-mode:normal;color-interpolation:sRGB;color-interpolation-filters:linearRGB;solid-color:#000000;solid-opacity:1;fill:#383838;fill-opacity:1;fill-rule:nonzero;stroke:none;stroke-width:0.39086476;stroke-linecap:butt;stroke-linejoin:miter;stroke-miterlimit:4;stroke-dasharray:none;stroke-dashoffset:0;stroke-opacity:1;color-rendering:auto;image-rendering:auto;shape-rendering:auto;text-rendering:auto;enable-background:accumulate"
       xml:space="preserve"><tspan
         y="74.554581"
         x="237.16287"
         sodipodi:role="line"
         id="tspan4040">contacte@guifibaix.coop</tspan><tspan
         y="87.52301"
         x="237.16287"
         sodipodi:role="line"
         id="tspan3463">694 495 972</tspan></text>
    <flowRoot
       xml:space="preserve"
       id="flowRoot3431"
       style="fill:black;stroke:none;stroke-opacity:1;stroke-width:1px;stroke-linejoin:miter;stroke-linecap:butt;fill-opacity:1;font-family:sans-serif;font-style:normal;font-weight:normal;font-size:40px;line-height:125%;letter-spacing:0px;word-spacing:0px"><flowRegion
         id="flowRegion3433"><rect
           id="rect3435"
           width="167.53157"
           height="79.944893"
           x="158.1263"
           y="-4.4741406" /></flowRegion><flowPara
         id="flowPara3437"></flowPara></flowRoot>    <flowRoot
       xml:space="preserve"
       id="flowRoot3439"
       style="fill:black;stroke:none;stroke-opacity:1;stroke-width:1px;stroke-linejoin:miter;stroke-linecap:butt;fill-opacity:1;font-family:sans-serif;font-style:normal;font-weight:normal;font-size:40px;line-height:125%;letter-spacing:0px;word-spacing:0px"><flowRegion
         id="flowRegion3441"><rect
           id="rect3443"
           width="165.18025"
           height="57.019516"
           x="0"
           y="-72.66243" /></flowRegion><flowPara
         id="flowPara3445"></flowPara></flowRoot>    <flowRoot
       xml:space="preserve"
       id="flowRoot3447"
       style="fill:black;stroke:none;stroke-opacity:1;stroke-width:1px;stroke-linejoin:miter;stroke-linecap:butt;fill-opacity:1;font-family:sans-serif;font-style:normal;font-weight:normal;font-size:40px;line-height:125%;letter-spacing:0px;word-spacing:0px"><flowRegion
         id="flowRegion3449"><rect
           id="rect3451"
           width="251.88913"
           height="62.764454"
           x="39.071911"
           y="134.35251" /></flowRegion><flowPara
         id="flowPara3453"></flowPara></flowRoot>    <flowRoot
       xml:space="preserve"
       id="flowRoot3455"
       style="fill:black;stroke:none;stroke-opacity:1;stroke-width:1px;stroke-linejoin:miter;stroke-linecap:butt;fill-opacity:1;font-family:sans-serif;font-style:normal;font-weight:normal;font-size:40px;line-height:125%;letter-spacing:0px;word-spacing:0px"><flowRegion
         id="flowRegion3457"><rect
           id="rect3459"
           width="6.650538"
           height="64.427086"
           x="224.04001"
           y="95.696259" /></flowRegion><flowPara
         id="flowPara3461"></flowPara></flowRoot>    <flowRoot
       xml:space="preserve"
       id="flowRoot3465"
       style="fill:black;stroke:none;stroke-opacity:1;stroke-width:1px;stroke-linejoin:miter;stroke-linecap:butt;fill-opacity:1;font-family:sans-serif;font-style:normal;font-weight:normal;font-size:40px;line-height:125%;letter-spacing:0px;word-spacing:0px"><flowRegion
         id="flowRegion3467"><rect
           id="rect3469"
           width="116.97819"
           height="43.499428"
           x="15.871412"
           y="-57.966679" /></flowRegion><flowPara
         id="flowPara3471"></flowPara></flowRoot>  </g>
</svg>
