<?xml version="1.0" encoding="UTF-8" standalone="no"?>
<!-- Created with Inkscape (http://www.inkscape.org/) -->

<svg
   xmlns:dc="http://purl.org/dc/elements/1.1/"
   xmlns:cc="http://creativecommons.org/ns#"
   xmlns:rdf="http://www.w3.org/1999/02/22-rdf-syntax-ns#"
   xmlns:svg="http://www.w3.org/2000/svg"
   xmlns="http://www.w3.org/2000/svg"
   xmlns:xlink="http://www.w3.org/1999/xlink"
   xmlns:sodipodi="http://sodipodi.sourceforge.net/DTD/sodipodi-0.dtd"
   xmlns:inkscape="http://www.inkscape.org/namespaces/inkscape"
   width="210mm"
   height="297mm"
   id="svg3521"
   version="1.1"
   inkscape:version="0.48.4 r9939"
   sodipodi:docname="membrete-a4.svg">
  <defs
     id="defs3">
    <clipPath
       clipPathUnits="userSpaceOnUse"
       id="clipPath3734">
      <path
         d="m 0,1080 1920,0 L 1920,0 0,0 0,1080 z"
         id="path3736"
         inkscape:connector-curvature="0" />
    </clipPath>
    <radialGradient
       inkscape:collect="always"
       xlink:href="#radialGradient4220"
       id="radialGradient5096"
       gradientUnits="userSpaceOnUse"
       gradientTransform="matrix(17.119918,0,0,17.119918,636.42721,48.452396)"
       spreadMethod="pad"
       cx="0"
       cy="0"
       fx="0"
       fy="0"
       r="1" />
    <radialGradient
       fx="0"
       fy="0"
       cx="0"
       cy="0"
       r="1"
       gradientUnits="userSpaceOnUse"
       gradientTransform="matrix(73.495575,0,0,-73.495575,1176.5801,354.89502)"
       spreadMethod="pad"
       id="radialGradient4220">
      <stop
         style="stop-color:#bc2121;stop-opacity:1;"
         offset="0"
         id="stop4222" />
      <stop
         style="stop-color:#a21c0a;stop-opacity:1;"
         offset="0.85784298"
         id="stop4224" />
      <stop
         style="stop-opacity:1;stop-color:#603813"
         offset="1"
         id="stop4228" />
    </radialGradient>
    <radialGradient
       inkscape:collect="always"
       xlink:href="#radialGradient4220"
       id="radialGradient5114"
       gradientUnits="userSpaceOnUse"
       gradientTransform="matrix(20.918322,0,0,20.918322,494.13131,154.11064)"
       spreadMethod="pad"
       cx="0"
       cy="0"
       fx="0"
       fy="0"
       r="1" />
    <radialGradient
       fx="0"
       fy="0"
       cx="0"
       cy="0"
       r="1"
       gradientUnits="userSpaceOnUse"
       gradientTransform="matrix(73.495575,0,0,-73.495575,1176.5801,354.89502)"
       spreadMethod="pad"
       id="radialGradient3482">
      <stop
         style="stop-color:#bc2121;stop-opacity:1;"
         offset="0"
         id="stop3484" />
      <stop
         style="stop-color:#a21c0a;stop-opacity:1;"
         offset="0.85784298"
         id="stop3486" />
      <stop
         style="stop-opacity:1;stop-color:#603813"
         offset="1"
         id="stop3488" />
    </radialGradient>
    <radialGradient
       inkscape:collect="always"
       xlink:href="#radialGradient4220"
       id="radialGradient5132"
       gradientUnits="userSpaceOnUse"
       gradientTransform="matrix(17.37229,0,0,17.37229,655.33696,152.69241)"
       spreadMethod="pad"
       cx="0"
       cy="0"
       fx="0"
       fy="0"
       r="1" />
    <radialGradient
       fx="0"
       fy="0"
       cx="0"
       cy="0"
       r="1"
       gradientUnits="userSpaceOnUse"
       gradientTransform="matrix(73.495575,0,0,-73.495575,1176.5801,354.89502)"
       spreadMethod="pad"
       id="radialGradient3491">
      <stop
         style="stop-color:#bc2121;stop-opacity:1;"
         offset="0"
         id="stop3493" />
      <stop
         style="stop-color:#a21c0a;stop-opacity:1;"
         offset="0.85784298"
         id="stop3495" />
      <stop
         style="stop-opacity:1;stop-color:#603813"
         offset="1"
         id="stop3497" />
    </radialGradient>
    <linearGradient
       inkscape:collect="always"
       xlink:href="#linearGradient7069"
       id="linearGradient5143"
       x1="956.62555"
       y1="-316.11447"
       x2="956.62555"
       y2="-724.24164"
       gradientUnits="userSpaceOnUse"
       gradientTransform="matrix(0.23637191,0,0,0.23637191,382.38168,235.02799)" />
    <linearGradient
       id="linearGradient7069">
      <stop
         id="stop7071"
         offset="0"
         style="stop-color:#404040;stop-opacity:1" />
      <stop
         id="stop7073"
         offset="1"
         style="stop-color:#fefefe;stop-opacity:1;" />
    </linearGradient>
    <linearGradient
       inkscape:collect="always"
       xlink:href="#linearGradient7069"
       id="linearGradient3503"
       x1="956.62555"
       y1="-316.11447"
       x2="956.62555"
       y2="-724.24164"
       gradientUnits="userSpaceOnUse"
       gradientTransform="translate(11.273941,0)" />
    <linearGradient
       id="linearGradient3505">
      <stop
         id="stop3507"
         offset="0"
         style="stop-color:#404040;stop-opacity:1" />
      <stop
         id="stop3509"
         offset="1"
         style="stop-color:#fefefe;stop-opacity:1;" />
    </linearGradient>
    <radialGradient
       inkscape:collect="always"
       xlink:href="#radialGradient4220"
       id="radialGradient3690"
       gradientUnits="userSpaceOnUse"
       gradientTransform="matrix(17.119918,0,0,17.119918,636.42721,48.452396)"
       spreadMethod="pad"
       cx="0"
       cy="0"
       fx="0"
       fy="0"
       r="1" />
    <radialGradient
       inkscape:collect="always"
       xlink:href="#radialGradient4220"
       id="radialGradient3692"
       gradientUnits="userSpaceOnUse"
       gradientTransform="matrix(20.918322,0,0,20.918322,494.13131,154.11064)"
       spreadMethod="pad"
       cx="0"
       cy="0"
       fx="0"
       fy="0"
       r="1" />
    <radialGradient
       inkscape:collect="always"
       xlink:href="#radialGradient4220"
       id="radialGradient3694"
       gradientUnits="userSpaceOnUse"
       gradientTransform="matrix(17.37229,0,0,17.37229,655.33696,152.69241)"
       spreadMethod="pad"
       cx="0"
       cy="0"
       fx="0"
       fy="0"
       r="1" />
    <linearGradient
       inkscape:collect="always"
       xlink:href="#linearGradient7069"
       id="linearGradient3696"
       gradientUnits="userSpaceOnUse"
       gradientTransform="matrix(0.23637191,0,0,0.23637191,382.38168,235.02799)"
       x1="956.62555"
       y1="-316.11447"
       x2="956.62555"
       y2="-724.24164" />
  </defs>
  <sodipodi:namedview
     inkscape:document-units="mm"
     id="base"
     pagecolor="#ffffff"
     bordercolor="#666666"
     borderopacity="1.0"
     inkscape:pageopacity="0.0"
     inkscape:pageshadow="2"
     inkscape:zoom="0.7"
     inkscape:cx="259.38035"
     inkscape:cy="844.71849"
     inkscape:current-layer="layer1"
     showgrid="false"
     inkscape:window-width="1680"
     inkscape:window-height="995"
     inkscape:window-x="-2"
     inkscape:window-y="-3"
     inkscape:window-maximized="1" />
  <metadata
     id="metadata4">
    <rdf:RDF>
      <cc:Work
         rdf:about="">
        <dc:format>image/svg+xml</dc:format>
        <dc:type
           rdf:resource="http://purl.org/dc/dcmitype/StillImage" />
        <dc:title />
      </cc:Work>
    </rdf:RDF>
  </metadata>
  <g
     inkscape:label="Layer 1"
     inkscape:groupmode="layer"
     id="layer1">
    <g
       id="g3678"
       transform="matrix(0.64576504,0,0,0.64576504,198.07695,11.063419)">
      <g
         style="fill:#383838;fill-opacity:1;display:inline"
         id="g3730"
         transform="matrix(0.23637191,0,0,-0.23637191,377.22647,236.57959)">
        <g
           style="fill:#383838;fill-opacity:1"
           clip-path="url(#clipPath3734)"
           id="g3732">
          <path
             sodipodi:nodetypes="cccccccaasccccccccccccccccccccccccccccccccccccc"
             d="m 441.1157,399.919 c 0,0 -0.445,0.658 -1.306,1.934 -0.43,0.637 -0.965,1.429 -1.601,2.37 -0.318,0.471 -0.661,0.979 -1.028,1.523 -0.092,0.136 -0.186,0.275 -0.281,0.415 -0.115,0.192 -0.233,0.386 -0.352,0.584 -0.239,0.399 -0.485,0.811 -0.739,1.235 -11.81765,22.59709 -14.00979,29.5558 -16.43666,45.49719 -2.85408,18.74752 -1.75941,38.36263 2.53207,56.83419 3.71046,15.97072 8.70036,26.11275 19.6987,45.07153 40.05005,69.03773 122.76589,135.38333 204.50889,175.96309 23.134,11.476 46.867,21.588 70.595,30.405 23.754,8.761 47.537,16.132 70.778,22.254 23.244,6.12 45.956,10.958 67.611,14.698 21.656,3.745 42.252,6.392 61.297,8.273 19.048,1.891 36.563,2.791 52.069,3.452 3.879,0.095 7.635,0.187 11.26,0.275 3.623,0.08 7.114,0.208 10.472,0.184 3.356,0.01 6.575,0.019 9.652,0.028 3.075,0.006 6.007,0.038 8.79,-0.042 5.564,-0.105 10.531,-0.198 14.853,-0.28 4.319,-0.132 7.992,-0.312 10.969,-0.424 5.952,-0.242 9.126,-0.371 9.126,-0.371 0,0 -3.177,-0.039 -9.134,-0.112 -2.977,-0.046 -6.649,-0.059 -10.964,-0.156 -4.313,-0.146 -9.27,-0.315 -14.822,-0.504 -2.776,-0.068 -5.697,-0.254 -8.76,-0.422 -3.063,-0.171 -6.267,-0.35 -9.608,-0.536 -3.341,-0.153 -6.811,-0.465 -10.411,-0.735 -3.599,-0.279 -7.328,-0.567 -11.18,-0.866 -15.383,-1.474 -32.715,-3.287 -51.487,-6.159 -18.77,-2.862 -38.997,-6.559 -60.164,-11.384 -21.166,-4.82 -43.269,-10.767 -65.763,-17.981 -22.491,-7.216 -45.385,-15.665 -68.098,-25.434 -22.687,-9.826 -45.229,-20.879 -67.018,-33.162 -53.0419,-30.56623 -100.40536,-65.53609 -140.173,-111.207 -24.03478,-27.60325 -43.37046,-58.36103 -53.594,-93.004 -2.18627,-8.72871 -4.13504,-18.46738 -4.351,-26.727 -0.34868,-17.14078 2.58645,-32.89516 11.111,-46.756 0.695,-1.026 1.301,-1.965 1.832,-2.813 0.131,-0.213 0.259,-0.419 0.383,-0.619 l 0.186,-0.301 c 0.102,-0.135 0.203,-0.268 0.302,-0.399 0.396,-0.525 0.765,-1.014 1.107,-1.467 0.685,-0.906 1.261,-1.669 1.724,-2.283 0.928,-1.228 1.406,-1.861 1.406,-1.861 z"
             style="fill:#383838;fill-opacity:1;fill-rule:nonzero;stroke:none"
             id="path3740"
             inkscape:connector-curvature="0" />
          <path
             sodipodi:nodetypes="ccccccccccccccccccccccccc"
             d="m 1168.5483,805.3889 c 3.9152,-0.24305 8.3865,-0.82175 12.344,-1.37 29.9811,-4.65962 62.5959,-19.73648 92.026,-44.752 6.565,-5.445 13.029,-11.194 19.036,-17.397 3.086,-3.008 5.913,-6.283 8.827,-9.419 1.386,-1.638 2.768,-3.272 4.146,-4.902 6.6542,-7.90276 13.2347,-17.48237 18.109,-25.367 1.997,-3.496 4.048,-6.861 5.738,-10.347 9.5332,-20.70247 15.3991,-38.81488 16.439,-59.897 0.038,-0.918 0.074,-1.787 0.108,-2.605 0.027,-0.817 -0.035,-1.588 -0.046,-2.301 -0.045,-1.426 -0.083,-2.638 -0.113,-3.621 -0.062,-1.961 -0.095,-3.007 -0.095,-3.007 0,0 -0.077,1.045 -0.22,3.004 -0.071,0.976 -0.16,2.18 -0.263,3.596 -0.064,0.706 -0.081,1.467 -0.193,2.272 -0.119,0.805 -0.244,1.66 -0.377,2.563 -3.1358,23.41524 -16.4746,48.76897 -28.329,65.398 -4.685,6.066 -9.708,12.174 -15.359,17.881 -5.7552,5.90456 -11.8458,11.69136 -17.84,16.439 -6.223,5.213 -12.829,9.943 -19.444,14.353 -1.67,1.077 -3.334,2.149 -4.99,3.217 -27.376,17.46551 -52.6403,24.27276 -79.855,28.231 -3.6063,0.23444 -6.9671,0.11196 -10.597,0.047 z"
             style="fill:#383838;fill-opacity:1;fill-rule:nonzero;stroke:none"
             id="path3744"
             inkscape:connector-curvature="0" />
          <path
             sodipodi:nodetypes="cccccczcccccccccccc"
             d="m 1324.7979,455 c 0,0 -2.054,-2.441 -5.906,-7.018 -1.886,-2.322 -4.39,-5.034 -7.295,-8.267 -2.862,-3.277 -6.362,-6.836 -10.242,-10.871 -7.871,-7.951 -17.698,-17.383 -29.69,-27.407 -49.1374,-40.93781 -101.704,-67.76812 -159.717,-90.557 -64.7931,-24.9783 -116.68245,-38.12037 -203.052,-49.285 -86.36955,-11.16463 -234.51624,-10.91638 -335.257,14.23 -7.02021,1.80276 -13.34644,3.65027 -20.317,5.695 l 13.565,40.804 c 6.21987,-2.24631 12.08653,-4.15343 18.261,-6.173 106.69657,-27.71137 196.97571,-40.04091 321.282,-30.166 68.52913,4.9819 135.979,17.21174 201.008,37.732 40.7149,13.03909 81.8929,30.79928 118.5,52.129 16.407,9.614 30.866,19.428 43.262,28.702 12.389,9.292 22.629,18.133 30.871,25.624 4.065,3.806 7.74,7.168 10.753,10.273 3.058,3.062 5.7,5.637 7.707,7.857 4.087,4.368 6.267,6.698 6.267,6.698"
             style="fill:#383838;fill-opacity:1;fill-rule:nonzero;stroke:none"
             id="path3748"
             inkscape:connector-curvature="0" />
        </g>
      </g>
      <path
         inkscape:connector-curvature="0"
         id="path4182"
         style="fill:url(#radialGradient3690);fill-opacity:1;stroke:#9c812e;stroke-width:0.33092067;stroke-miterlimit:4;stroke-opacity:1;stroke-dasharray:none;display:inline"
         d="m 619.307,48.451466 c 0,9.45582 7.66436,17.12041 17.12019,17.12041 l 0,0 c 9.45393,0 17.12042,-7.66459 17.12042,-17.12041 l 0,0 c 0,-9.45394 -7.66649,-17.11853 -17.12042,-17.11853 l 0,0 c -9.45583,0 -17.12019,7.66459 -17.12019,17.11853" />
      <path
         inkscape:connector-curvature="0"
         id="path4206"
         style="fill:url(#radialGradient3692);fill-opacity:1;stroke:#9c812e;stroke-width:0.33092067;stroke-miterlimit:4;stroke-opacity:1;stroke-dasharray:none;display:inline"
         d="m 473.21238,154.10947 c 0,11.55386 9.36505,20.91892 20.91891,20.91892 l 0,0 c 11.5515,0 20.91892,-9.36506 20.91892,-20.91892 l 0,0 c 0,-11.55149 -9.36742,-20.91655 -20.91892,-20.91655 l 0,0 c -11.55386,0 -20.91891,9.36506 -20.91891,20.91655" />
      <path
         inkscape:connector-curvature="0"
         id="path4230"
         style="fill:url(#radialGradient3694);fill-opacity:1;stroke:#9c812e;stroke-width:0.33092067;stroke-miterlimit:4;stroke-opacity:1;stroke-dasharray:none;display:inline"
         d="m 637.96408,152.69148 c 0,9.59528 7.77758,17.37286 17.37286,17.37286 l 0,0 c 9.59315,0 17.37287,-7.77758 17.37287,-17.37286 l 0,0 c 0,-9.5934 -7.77972,-17.37074 -17.37287,-17.37074 l 0,0 c -9.59528,0 -17.37286,7.77734 -17.37286,17.37074" />
      <text
         transform="scale(0.99344149,1.0066018)"
         sodipodi:linespacing="125%"
         id="text4232"
         y="120.06338"
         x="504.85025"
         style="font-size:56.58178711px;font-style:normal;font-variant:normal;font-weight:500;font-stretch:normal;text-align:start;line-height:125%;letter-spacing:0px;word-spacing:0px;text-anchor:start;fill:url(#linearGradient3696);fill-opacity:1;stroke:#424242;stroke-width:2.439358;stroke-miterlimit:4;stroke-opacity:1;stroke-dasharray:none;display:inline;font-family:ubunutu;-inkscape-font-specification:Ubuntu Medium"
         xml:space="preserve"><tspan
           style="font-weight:500;text-align:start;text-anchor:start;fill:url(#linearGradient3696);fill-opacity:1;stroke:#424242;stroke-width:2.439358;stroke-miterlimit:4;stroke-opacity:1;stroke-dasharray:none;font-family:Ubuntu;-inkscape-font-specification:Ubuntu Medium"
           y="120.06338"
           x="504.85025"
           id="tspan4234"
           sodipodi:role="line">guifibaix</tspan></text>
    </g>
  </g>
</svg>
