<?xml version="1.0" encoding="utf-8"?>
<!-- Generator: Adobe Illustrator 16.0.0, SVG Export Plug-In . SVG Version: 6.00 Build 0)  -->
<!DOCTYPE svg PUBLIC "-//W3C//DTD SVG 1.1//EN" "http://www.w3.org/Graphics/SVG/1.1/DTD/svg11.dtd">
<svg version="1.1"
	 id="svg4871" xmlns:dc="http://purl.org/dc/elements/1.1/" xmlns:cc="http://creativecommons.org/ns#" xmlns:rdf="http://www.w3.org/1999/02/22-rdf-syntax-ns#" xmlns:svg="http://www.w3.org/2000/svg" xmlns:sodipodi="http://sodipodi.sourceforge.net/DTD/sodipodi-0.dtd" xmlns:inkscape="http://www.inkscape.org/namespaces/inkscape" inkscape:version="0.91 r13725" sodipodi:docname="samarreta-motto.svg"
	 xmlns="http://www.w3.org/2000/svg" xmlns:xlink="http://www.w3.org/1999/xlink" x="0px" y="0px" width="841.891px"
	 height="595.275px" viewBox="0 0 841.891 595.275" enable-background="new 0 0 841.891 595.275" xml:space="preserve">
<rect x="0" fill="#ED7610" stroke="#000000" stroke-miterlimit="10" width="841.891" height="595.275"/>
<g id="Logo" transform="matrix(1.3127596,0,0,1.3127596,5282.0821,3509.7587)">
	<g id="Circulo" transform="matrix(0.53106361,0,0,-0.53106361,-4126.9277,-2205.3826)">
		<g id="g3732">
			<path id="path3740" inkscape:connector-curvature="0" sodipodi:nodetypes="cccccccaasccccccccccccccccccccccccccccccccccccc" d="
				M391.794,468.368c0,0-0.356,0.526-1.045,1.547c-0.342,0.508-0.772,1.142-1.279,1.895c-0.255,0.378-0.528,0.783-0.822,1.219
				c-0.073,0.109-0.15,0.22-0.227,0.332c-0.091,0.153-0.185,0.309-0.282,0.466c-0.192,0.319-0.388,0.649-0.591,0.988
				c-9.454,18.078-11.209,23.644-13.149,36.398c-2.283,14.998-1.408,30.69,2.027,45.467c2.967,12.777,6.959,20.89,15.759,36.057
				c32.04,55.23,98.211,108.306,163.609,140.771c18.507,9.181,37.492,17.27,56.475,24.324c19.001,7.009,38.03,12.906,56.621,17.803
				c18.595,4.896,36.766,8.767,54.088,11.759c17.325,2.996,33.802,5.114,49.038,6.618c15.238,1.514,29.25,2.234,41.655,2.762
				c3.103,0.076,6.109,0.15,9.008,0.221c2.897,0.064,5.69,0.165,8.377,0.146c2.685,0.008,5.261,0.015,7.721,0.022
				c2.461,0.003,4.806,0.03,7.032-0.034c4.453-0.084,8.424-0.158,11.884-0.224c3.453-0.106,6.393-0.249,8.773-0.339
				c4.764-0.194,7.301-0.297,7.301-0.297s-2.541-0.031-7.305-0.09c-2.383-0.037-5.32-0.048-8.772-0.125
				c-3.45-0.117-7.417-0.251-11.859-0.403c-2.22-0.055-4.558-0.202-7.008-0.338c-2.45-0.137-5.012-0.28-7.686-0.429
				c-2.673-0.123-5.449-0.373-8.329-0.588c-2.88-0.223-5.861-0.455-8.944-0.693c-12.306-1.18-26.172-2.63-41.19-4.927
				c-15.016-2.29-31.198-5.247-48.131-9.106c-16.934-3.856-34.616-8.614-52.613-14.385c-17.993-5.773-36.308-12.531-54.478-20.348
				c-18.151-7.86-36.182-16.703-53.616-26.529c-42.434-24.453-80.325-52.429-112.139-88.966
				c-19.227-22.082-34.696-46.688-42.875-74.403c-1.75-6.983-3.309-14.774-3.481-21.381c-0.279-13.713,2.069-26.316,8.889-37.405
				c0.556-0.821,1.041-1.572,1.465-2.25c0.105-0.171,0.207-0.335,0.307-0.495l0.148-0.241c0.08-0.108,0.163-0.214,0.241-0.319
				c0.318-0.419,0.612-0.81,0.887-1.175c0.548-0.724,1.009-1.335,1.378-1.826c0.741-0.983,1.125-1.489,1.125-1.489L391.794,468.368z
				"/>
			<path id="path3744" inkscape:connector-curvature="0" sodipodi:nodetypes="ccccccccccccccccccccccccc" d="M969.436,792.743
				c3.132-0.195,6.71-0.658,9.874-1.098c23.985-3.727,50.076-15.789,73.62-35.801c5.25-4.356,10.423-8.955,15.229-13.918
				c2.468-2.406,4.729-5.026,7.06-7.535c1.108-1.31,2.216-2.618,3.317-3.921c5.323-6.322,10.587-13.986,14.488-20.294
				c1.597-2.797,3.239-5.489,4.589-8.278c7.626-16.562,12.32-31.052,13.152-47.917c0.031-0.735,0.059-1.43,0.084-2.084
				c0.022-0.653-0.028-1.271-0.035-1.841c-0.035-1.141-0.066-2.111-0.091-2.897c-0.049-1.569-0.077-2.406-0.077-2.406
				s-0.062,0.836-0.175,2.402c-0.056,0.782-0.129,1.744-0.209,2.877c-0.053,0.565-0.067,1.173-0.157,1.818
				c-0.095,0.644-0.195,1.328-0.301,2.05c-2.509,18.733-13.18,39.016-22.663,52.32c-3.747,4.852-7.766,9.739-12.288,14.305
				c-4.604,4.723-9.476,9.353-14.271,13.151c-4.978,4.169-10.262,7.954-15.556,11.481c-1.336,0.862-2.667,1.719-3.992,2.575
				c-21.901,13.971-42.111,19.417-63.884,22.585c-2.886,0.188-5.574,0.09-8.478,0.038L969.436,792.743z"/>
			<path id="path3748" inkscape:connector-curvature="0" sodipodi:nodetypes="cccccczcccccccccccc" d="M1098.738,512.43
				c0,0-1.643-1.953-4.725-5.614c-1.51-1.857-3.512-4.027-5.837-6.613c-2.289-2.622-5.089-5.469-8.192-8.697
				c-6.299-6.362-14.16-13.905-23.754-21.926c-39.31-32.749-81.361-54.212-127.772-72.447
				c-51.834-19.981-93.346-30.495-162.442-39.426s-187.613-8.735-268.205,11.383c-5.617,1.443-10.678,2.922-16.255,4.555
				l10.852,32.644c4.977-1.796,9.67-3.323,14.61-4.935c85.355-22.171,157.579-32.033,257.022-24.135
				c54.823,3.988,108.784,13.771,160.806,30.188c32.572,10.429,65.514,24.64,94.8,41.704c13.125,7.689,24.693,15.541,34.609,22.96
				c9.912,7.433,18.104,14.506,24.697,20.499c3.253,3.045,6.193,5.735,8.602,8.218c2.447,2.45,4.561,4.51,6.166,6.286
				C1096.994,510.567,1098.738,512.43,1098.738,512.43"/>
		</g>
	</g>
	
		<radialGradient id="path4182_1_" cx="-9221.5762" cy="-1759.8064" r="0.9989" gradientTransform="matrix(69.6142 0 0 -69.6142 638312.4375 -125129.7266)" gradientUnits="userSpaceOnUse">
		<stop  offset="0" style="stop-color:#BC2121"/>
		<stop  offset="0.8578" style="stop-color:#A21C0A"/>
		<stop  offset="1" style="stop-color:#603813"/>
	</radialGradient>
	
		<path id="path4182" inkscape:connector-curvature="0" display="none" fill="url(#path4182_1_)" stroke="#383838" stroke-width="0.7435" d="
		M-3671.157-2622.348c0,16.996,13.775,30.772,30.771,30.772l0,0c16.992,0,30.772-13.775,30.772-30.772l0,0
		c0-16.992-13.781-30.769-30.772-30.769l0,0C-3657.382-2653.117-3671.157-2639.34-3671.157-2622.348"/>
	
		<radialGradient id="path4206_1_" cx="-9220.8389" cy="-1759.0358" r="1.0009" gradientTransform="matrix(85.0596 0 0 -85.0596 780424.8125 -152055.0938)" gradientUnits="userSpaceOnUse">
		<stop  offset="0" style="stop-color:#BC2121"/>
		<stop  offset="0.8578" style="stop-color:#A21C0A"/>
		<stop  offset="1" style="stop-color:#603813"/>
	</radialGradient>
	
		<path id="path4206" inkscape:connector-curvature="0" display="none" fill="url(#path4206_1_)" stroke="#383838" stroke-width="0.7435" d="
		M-3933.745-2432.44c0,20.768,16.832,37.6,37.599,37.6l0,0c20.763,0,37.601-16.832,37.601-37.6l0,0
		c0-20.761-16.838-37.594-37.601-37.594l0,0C-3916.912-2470.035-3933.745-2453.202-3933.745-2432.44"/>
	
		<radialGradient id="path4230_1_" cx="-9221.5176" cy="-1759.7424" r="1.0013" gradientTransform="matrix(70.6405 0 0 -70.6405 647806.0625 -126744.0781)" gradientUnits="userSpaceOnUse">
		<stop  offset="0" style="stop-color:#BC2121"/>
		<stop  offset="0.8578" style="stop-color:#A21C0A"/>
		<stop  offset="1" style="stop-color:#603813"/>
	</radialGradient>
	
		<path id="path4230" inkscape:connector-curvature="0" display="none" fill="url(#path4230_1_)" stroke="#383838" stroke-width="0.7435" d="
		M-3637.623-2434.989c0,17.247,13.979,31.226,31.226,31.226l0,0c17.243,0,31.226-13.979,31.226-31.226l0,0
		c0-17.242-13.984-31.222-31.226-31.222l0,0C-3623.644-2466.211-3637.623-2452.232-3637.623-2434.989"/>
	<ellipse fill="#D8191C" cx="-3606.291" cy="-2431.489" rx="38.472" ry="39.787"/>
	<ellipse fill="#D8191C" cx="-3895.909" cy="-2424.802" rx="44.891" ry="46.423"/>
	<ellipse fill="#D8191C" cx="-3639.612" cy="-2620.706" rx="37.821" ry="39.112"/>
	
		<text transform="matrix(0.7518 0 0 0.7618 -3882.8306 -2492.2097)" display="none" enable-background="new    " font-family="'Ubuntu-Medium'" font-size="134.4041">guifibaix</text>
	<ellipse fill="#FFFFFF" cx="-3540.105" cy="-2561.494" rx="8.361" ry="8.188"/>
	
		<text transform="matrix(0.7518 0 0 0.7618 -3882.8306 -2492.2097)" fill="#FFFFFF" font-family="'Ubuntu-Medium'" font-size="134.4041">guifibaix</text>
	
		<text transform="matrix(0.7518 0 0 0.7618 -3882.8306 -2492.2097)" fill="#CC6633" font-family="'Ubuntu-Medium'" font-size="134.4041">guifibaix</text>
	
		<text transform="matrix(0.7518 0 0 0.7618 -3882.8306 -2492.2097)" fill="#EB7013" stroke="#000000" stroke-width="6" font-family="'Ubuntu-Medium'" font-size="134.4041">guifibaix</text>
	
		<text transform="matrix(0.7618 0 0 0.7618 -3909.24 -2330.9016)" display="none" enable-background="new    " font-family="'Ubuntu'" font-size="81.5753">La Xarxa Lliure</text>
	
		<text transform="matrix(0.7618 0 0 0.7618 -3909.4827 -2273.5007)" display="none" enable-background="new    " font-family="'Ubuntu'" font-size="66.9563">del Baix Llobregat</text>
	
		<text transform="matrix(0.7618 0 0 0.7618 -3822.5833 -2346.7407)" display="none" enable-background="new    " font-family="'Ubuntu'" font-size="54.7822">guifibaix.coop</text>
	<text transform="matrix(0.7618 0 0 0.7618 -3822.5833 -2346.7407)" font-family="'Ubuntu'" font-size="54.7822">guifibaix.coop</text>
</g>
</svg>
