<?xml version="1.0" encoding="utf-8"?>
<!-- Generator: Adobe Illustrator 16.0.0, SVG Export Plug-In . SVG Version: 6.00 Build 0)  -->
<!DOCTYPE svg PUBLIC "-//W3C//DTD SVG 1.1//EN" "http://www.w3.org/Graphics/SVG/1.1/DTD/svg11.dtd">
<svg version="1.1"
	 id="svg4871" xmlns:dc="http://purl.org/dc/elements/1.1/" xmlns:cc="http://creativecommons.org/ns#" xmlns:rdf="http://www.w3.org/1999/02/22-rdf-syntax-ns#" xmlns:svg="http://www.w3.org/2000/svg" xmlns:sodipodi="http://sodipodi.sourceforge.net/DTD/sodipodi-0.dtd" xmlns:inkscape="http://www.inkscape.org/namespaces/inkscape" inkscape:version="0.91 r13725" sodipodi:docname="samarreta-motto.svg"
	 xmlns="http://www.w3.org/2000/svg" xmlns:xlink="http://www.w3.org/1999/xlink" x="0px" y="0px" width="841.891px"
	 height="595.275px" viewBox="0 0 841.891 595.275" enable-background="new 0 0 841.891 595.275" xml:space="preserve">
<sodipodi:namedview  id="namedview4875" pagecolor="#ffffff" bordercolor="#666666" borderopacity="1" objecttolerance="10" gridtolerance="10" guidetolerance="10" showgrid="false" inkscape:zoom="0.63429568" inkscape:cx="370.47069" inkscape:cy="406.36317" inkscape:pageopacity="0" inkscape:pageshadow="2" inkscape:window-maximized="0" inkscape:window-width="1920" inkscape:current-layer="svg4871" inkscape:window-height="1027" inkscape:window-x="0" inkscape:window-y="0">
	</sodipodi:namedview>
<g id="g4612" transform="matrix(1.3127596,0,0,1.3127596,5282.0821,3509.7587)">
	<g id="Circulo" transform="matrix(0.53106361,0,0,-0.53106361,-4126.9277,-2205.3826)">
		<g>
			<g>
				<defs>
					<rect id="SVGID_1_" x="433.628" y="336.673" width="746.543" height="419.93"/>
				</defs>
				<clipPath id="SVGID_2_">
					<use xlink:href="#SVGID_1_"  overflow="visible"/>
				</clipPath>
				<g id="g3732" clip-path="url(#SVGID_2_)">
					
						<path id="path3740" inkscape:connector-curvature="0" sodipodi:nodetypes="cccccccaasccccccccccccccccccccccccccccccccccccc" fill="#383838" d="
						M391.792,434.573c0,0-0.356,0.527-1.045,1.548c-0.343,0.508-0.772,1.142-1.28,1.895c-0.255,0.378-0.528,0.783-0.822,1.219
						c-0.073,0.109-0.15,0.22-0.226,0.332c-0.092,0.153-0.186,0.31-0.282,0.466c-0.192,0.319-0.388,0.65-0.591,0.989
						c-9.454,18.077-11.209,23.644-13.149,36.397c-2.283,14.998-1.408,30.69,2.026,45.467c2.968,12.777,6.96,20.89,15.759,36.057
						c32.04,55.23,98.212,108.306,163.609,140.771c18.507,9.181,37.492,17.27,56.475,24.324
						c19.003,7.009,38.03,12.906,56.622,17.803c18.595,4.896,36.765,8.767,54.088,11.759c17.325,2.996,33.802,5.114,49.038,6.618
						c15.238,1.514,29.25,2.234,41.655,2.762c3.103,0.076,6.109,0.15,9.008,0.221c2.897,0.064,5.69,0.165,8.377,0.146
						c2.685,0.008,5.261,0.015,7.721,0.022c2.461,0.003,4.806,0.03,7.032-0.034c4.453-0.084,8.424-0.158,11.884-0.224
						c3.453-0.106,6.393-0.249,8.773-0.339c4.764-0.194,7.301-0.297,7.301-0.297s-2.541-0.031-7.305-0.09
						c-2.383-0.037-5.32-0.048-8.772-0.125c-3.45-0.117-7.417-0.251-11.859-0.403c-2.22-0.055-4.558-0.203-7.008-0.338
						c-2.45-0.137-5.012-0.28-7.686-0.429c-2.673-0.123-5.449-0.373-8.329-0.588c-2.88-0.223-5.861-0.454-8.944-0.693
						c-12.306-1.18-26.172-2.63-41.19-4.927c-15.016-2.29-31.198-5.247-48.131-9.107c-16.934-3.856-34.616-8.614-52.612-14.385
						c-17.993-5.773-36.308-12.531-54.478-20.348c-18.151-7.86-36.183-16.703-53.616-26.529
						c-42.434-24.453-80.325-52.429-112.139-88.966c-19.227-22.082-34.696-46.688-42.875-74.403
						c-1.75-6.983-3.309-14.774-3.481-21.381c-0.279-13.713,2.069-26.316,8.889-37.405c0.556-0.821,1.041-1.572,1.465-2.25
						c0.105-0.171,0.207-0.336,0.307-0.495l0.148-0.241c0.081-0.108,0.163-0.214,0.241-0.319c0.318-0.42,0.612-0.811,0.887-1.175
						c0.548-0.723,1.009-1.335,1.378-1.826c0.741-0.983,1.125-1.489,1.125-1.489L391.792,434.573z"/>
					<path id="path3744" inkscape:connector-curvature="0" sodipodi:nodetypes="ccccccccccccccccccccccccc" fill="#383838" d="
						M969.435,758.95c3.132-0.195,6.71-0.658,9.874-1.098c23.985-3.727,50.076-15.789,73.62-35.801
						c5.251-4.356,10.423-8.955,15.229-13.918c2.468-2.406,4.73-5.026,7.061-7.535c1.108-1.31,2.215-2.618,3.317-3.921
						c5.323-6.322,10.587-13.986,14.487-20.294c1.598-2.797,3.239-5.489,4.589-8.278c7.627-16.562,12.321-31.052,13.153-47.917
						c0.03-0.735,0.059-1.43,0.084-2.084c0.022-0.653-0.028-1.271-0.035-1.841c-0.036-1.141-0.067-2.111-0.091-2.897
						c-0.05-1.569-0.077-2.406-0.077-2.406s-0.062,0.836-0.175,2.403c-0.056,0.781-0.129,1.744-0.21,2.876
						c-0.052,0.565-0.066,1.173-0.156,1.818c-0.095,0.644-0.195,1.328-0.301,2.05c-2.509,18.733-13.18,39.016-22.663,52.319
						c-3.748,4.852-7.766,9.739-12.288,14.305c-4.604,4.723-9.476,9.353-14.271,13.15c-4.978,4.17-10.263,7.954-15.556,11.482
						c-1.336,0.862-2.667,1.719-3.992,2.574c-21.901,13.972-42.111,19.418-63.884,22.585c-2.886,0.188-5.574,0.09-8.478,0.038
						L969.435,758.95z"/>
					<path id="path3748" inkscape:connector-curvature="0" sodipodi:nodetypes="cccccczcccccccccccc" fill="#383838" d="
						M1098.736,478.638c0,0-1.643-1.953-4.725-5.614c-1.509-1.857-3.512-4.027-5.836-6.613c-2.29-2.622-5.09-5.469-8.193-8.697
						c-6.298-6.362-14.159-13.907-23.753-21.926c-39.31-32.75-81.362-54.213-127.773-72.447
						c-51.834-19.981-93.346-30.495-162.442-39.428c-69.095-8.93-187.613-8.734-268.205,11.384
						c-5.617,1.443-10.678,2.922-16.255,4.555l10.852,32.644c4.977-1.796,9.67-3.323,14.61-4.938
						c85.356-22.17,157.58-32.033,257.024-24.134c54.823,3.987,108.784,13.77,160.806,30.187c32.572,10.43,65.514,24.64,94.8,41.704
						c13.125,7.69,24.693,15.542,34.609,22.96c9.912,7.434,18.104,14.506,24.697,20.499c3.253,3.045,6.193,5.735,8.602,8.218
						c2.447,2.45,4.561,4.51,6.166,6.286C1096.992,476.774,1098.736,478.638,1098.736,478.638"/>
				</g>
			</g>
		</g>
	</g>
	
		<text transform="matrix(0.7518 0 0 0.7618 -3882.8315 -2474.2632)" display="none" enable-background="new    " font-family="'Ubuntu-Medium'" font-size="134.396">guifibaix</text>
	<ellipse fill="#FFFFFF" cx="-3540.106" cy="-2543.547" rx="8.361" ry="8.188"/>
	
		<text transform="matrix(0.7518 0 0 0.7618 -3882.8315 -2474.2632)" fill="none" stroke="#424242" stroke-width="5.4806" font-family="'Ubuntu-Medium'" font-size="134.396">guifibaix</text>
	
		<text transform="matrix(0.7618 0 0 0.7618 -3909.2412 -2312.9543)" display="none" enable-background="new    " font-family="'Ubuntu'" font-size="81.5704">La Xarxa Lliure</text>
	
		<text transform="matrix(0.7618 0 0 0.7618 -3909.4836 -2255.5535)" display="none" enable-background="new    " font-family="'Ubuntu'" font-size="66.9523">del Baix Llobregat</text>
	
		<text transform="matrix(0.7618 0 0 0.7618 -3822.5842 -2328.7935)" display="none" enable-background="new    " font-family="'Ubuntu'" font-size="54.7789">guifibaix.coop</text>
	<text transform="matrix(0.7618 0 0 0.7618 -3822.5842 -2328.7935)" fill="#383838" font-family="'Ubuntu'" font-size="54.7789">guifibaix.coop</text>
</g>
<ellipse fill="#D8191C" cx="544.886" cy="338.464" rx="50.505" ry="52.231"/>
<ellipse fill="#D8191C" cx="164.687" cy="347.243" rx="58.931" ry="60.942"/>
<ellipse fill="#D8191C" cx="501.144" cy="90.068" rx="49.65" ry="51.345"/>
</svg>
