<?xml version="1.0" encoding="UTF-8" ?>
<!DOCTYPE svg PUBLIC "-//W3C//DTD SVG 1.1//EN" "http://www.w3.org/Graphics/SVG/1.1/DTD/svg11.dtd">
<svg width="1181pt" height="768pt" viewBox="0 0 1181 768" version="1.1" xmlns="http://www.w3.org/2000/svg">
<g id="#ffffffff">
<path fill="#ffffff" opacity="1.00" d=" M 0.00 0.00 L 1181.00 0.00 L 1181.00 768.00 L 0.00 768.00 L 0.00 0.00 M 827.46 33.72 C 814.42 34.84 801.45 36.82 788.69 39.74 C 725.22 53.94 667.25 91.06 627.72 142.70 C 604.41 172.96 587.37 208.00 577.95 245.01 C 566.63 289.40 566.33 336.54 577.05 381.08 C 585.78 417.40 601.82 451.95 623.96 482.04 C 660.66 532.25 714.49 569.60 774.38 586.37 C 839.84 605.05 912.02 598.99 973.35 569.38 C 1032.53 541.28 1081.13 491.73 1108.13 432.04 C 1126.68 391.51 1135.27 346.55 1133.24 302.04 C 1131.15 254.07 1116.51 206.72 1091.13 165.95 C 1061.34 117.75 1016.59 78.99 964.63 56.37 C 921.75 37.51 874.12 29.77 827.46 33.72 M 540.58 484.76 C 522.92 487.44 506.86 498.78 498.48 514.56 C 489.76 530.52 489.22 550.59 496.95 567.04 C 503.13 580.45 514.67 591.26 528.44 596.59 C 538.11 600.50 548.83 601.28 559.10 599.86 C 576.46 597.20 592.30 586.17 600.71 570.74 C 608.41 557.10 610.03 540.30 605.56 525.34 C 601.12 510.40 590.35 497.49 576.44 490.46 C 565.50 484.79 552.74 482.87 540.58 484.76 M 404.25 496.23 C 386.31 498.50 370.51 512.08 365.57 529.47 C 361.13 543.94 364.29 560.42 373.71 572.26 C 382.30 583.27 396.02 590.13 410.01 590.17 C 422.48 590.55 434.96 585.54 443.85 576.82 C 452.85 568.08 458.20 555.59 457.96 543.01 C 458.28 527.74 450.31 512.72 437.74 504.13 C 428.08 497.40 415.88 494.62 404.25 496.23 M 278.47 504.68 C 265.47 507.44 254.12 516.76 248.89 528.98 C 245.59 536.81 244.26 545.68 246.18 554.05 C 248.34 565.70 255.73 576.23 265.93 582.25 C 275.23 587.72 286.67 589.75 297.19 587.10 C 310.44 584.18 321.90 574.38 326.84 561.74 C 329.75 554.89 330.24 547.28 329.45 539.95 C 327.81 527.51 320.20 516.03 309.39 509.66 C 300.21 504.11 288.92 502.46 278.47 504.68 M 166.38 511.61 C 152.04 515.04 140.44 527.45 137.99 542.00 C 134.20 560.13 145.77 579.81 163.41 585.40 C 179.78 591.37 199.52 584.30 208.53 569.44 C 213.81 561.26 215.31 551.06 213.67 541.55 C 211.73 531.26 205.38 521.90 196.48 516.37 C 187.67 510.70 176.51 509.14 166.38 511.61 M 73.43 518.66 C 58.00 520.72 46.27 536.48 48.63 551.83 C 49.93 561.64 56.26 570.67 65.30 574.84 C 76.12 580.16 90.02 577.98 98.67 569.57 C 107.81 561.19 110.30 546.86 105.22 535.67 C 100.03 523.69 86.26 516.39 73.43 518.66 M 157.52 628.01 C 157.98 629.26 158.43 630.53 158.88 631.81 C 163.25 629.98 167.62 628.16 171.96 626.28 C 171.23 624.59 170.50 622.92 169.76 621.26 C 165.65 623.45 161.60 625.76 157.52 628.01 M 954.18 628.14 C 954.61 629.28 955.05 630.43 955.51 631.59 C 959.75 629.80 963.99 628.00 968.24 626.21 C 967.54 624.62 966.85 623.04 966.17 621.46 C 962.16 623.67 958.18 625.92 954.18 628.14 M 63.01 625.02 C 58.43 638.83 53.85 652.64 49.30 666.47 C 51.64 666.48 53.98 666.49 56.32 666.51 C 57.34 663.25 58.40 660.02 59.53 656.81 C 64.59 656.87 69.64 656.84 74.70 656.85 C 75.79 660.05 76.87 663.27 77.92 666.50 C 80.80 666.50 83.67 666.49 86.55 666.47 C 81.99 652.63 77.27 638.85 72.67 625.03 C 69.45 624.99 66.23 624.98 63.01 625.02 M 138.09 625.09 C 138.09 627.61 138.10 630.13 138.10 632.67 C 140.54 632.66 142.97 632.65 145.41 632.65 C 145.41 630.13 145.42 627.61 145.43 625.10 C 142.98 625.09 140.54 625.08 138.09 625.09 M 592.49 625.25 C 592.50 638.92 592.49 652.59 592.50 666.26 C 594.83 666.25 597.16 666.25 599.50 666.26 C 599.51 652.59 599.50 638.92 599.51 625.25 C 597.16 625.24 594.83 625.24 592.49 625.25 M 769.70 626.69 C 767.22 629.06 767.16 632.69 766.86 635.87 C 765.41 635.85 763.97 635.84 762.54 635.84 C 762.53 637.68 762.53 639.52 762.54 641.38 C 764.03 641.38 765.53 641.39 767.04 641.41 C 767.04 649.70 767.03 657.99 767.04 666.29 C 769.31 666.28 771.60 666.28 773.89 666.29 C 773.89 657.99 773.89 649.69 773.89 641.40 C 776.10 641.39 778.31 641.39 780.54 641.40 C 780.52 639.54 780.52 637.69 780.52 635.85 C 778.26 635.84 776.00 635.84 773.76 635.84 C 774.08 634.07 773.50 631.58 775.44 630.60 C 777.04 629.95 778.82 630.12 780.53 629.94 C 780.52 628.11 780.52 626.28 780.54 624.46 C 776.89 624.60 772.69 624.18 769.70 626.69 M 934.49 625.25 C 934.48 627.66 934.49 630.08 934.50 632.51 C 936.82 632.49 939.16 632.49 941.50 632.51 C 941.49 630.08 941.49 627.66 941.51 625.25 C 939.16 625.24 936.82 625.24 934.49 625.25 M 1068.01 625.24 C 1068.00 627.66 1067.99 630.07 1068.01 632.50 C 1070.33 632.49 1072.67 632.49 1075.01 632.49 C 1075.00 630.07 1075.00 627.66 1075.02 625.25 C 1072.67 625.24 1070.34 625.24 1068.01 625.24 M 1110.25 625.24 C 1110.25 638.92 1110.25 652.59 1110.25 666.27 C 1112.58 666.25 1114.90 666.25 1117.25 666.26 C 1117.25 652.59 1117.23 638.91 1117.26 625.24 C 1114.91 625.24 1112.58 625.24 1110.25 625.24 M 436.98 625.25 C 437.01 638.92 436.97 652.59 437.00 666.26 C 439.33 666.25 441.66 666.25 443.99 666.25 C 444.00 652.58 443.99 638.91 444.00 625.25 C 441.66 625.24 439.32 625.24 436.98 625.25 M 193.46 627.89 C 193.26 630.52 193.04 633.15 192.83 635.79 C 191.45 635.77 190.07 635.76 188.69 635.76 C 188.68 637.65 188.68 639.56 188.67 641.47 C 189.92 641.47 191.18 641.47 192.43 641.49 C 192.50 647.32 192.30 653.17 192.51 659.00 C 192.58 661.44 193.36 664.07 195.49 665.50 C 198.52 667.75 202.48 666.98 205.96 666.61 C 206.04 664.69 206.07 662.78 206.11 660.88 C 203.94 660.59 200.55 661.26 199.73 658.54 C 198.92 652.90 199.56 647.15 199.36 641.48 C 201.40 641.47 203.45 641.48 205.50 641.48 C 205.50 639.56 205.50 637.66 205.50 635.77 C 203.45 635.76 201.41 635.76 199.36 635.77 C 199.36 632.96 199.36 630.15 199.37 627.35 C 197.40 627.53 195.43 627.71 193.46 627.89 M 648.53 627.96 C 648.32 630.60 648.10 633.23 647.90 635.87 C 646.51 635.85 645.12 635.84 643.75 635.84 C 643.74 637.68 643.73 639.53 643.74 641.39 C 644.99 641.39 646.24 641.39 647.50 641.41 C 647.53 646.92 647.43 652.44 647.52 657.96 C 647.55 660.68 648.10 663.80 650.55 665.42 C 653.57 667.68 657.51 666.95 660.97 666.47 C 660.99 664.62 661.00 662.77 661.02 660.94 C 658.86 660.63 655.40 661.35 654.66 658.57 C 653.84 652.89 654.49 647.11 654.28 641.40 C 656.34 641.39 658.40 641.39 660.47 641.39 C 660.46 639.54 660.46 637.69 660.46 635.85 C 658.39 635.84 656.34 635.84 654.28 635.85 C 654.28 633.04 654.28 630.23 654.29 627.43 C 652.36 627.60 650.44 627.78 648.53 627.96 M 87.79 640.84 C 83.86 647.12 84.02 655.82 88.06 662.02 C 92.12 668.35 102.38 668.77 107.29 663.25 C 109.29 661.16 109.96 658.26 110.83 655.61 C 108.77 655.37 106.71 655.17 104.65 654.97 C 103.67 656.99 102.88 659.57 100.53 660.40 C 97.88 661.54 94.73 659.97 93.69 657.37 C 92.00 653.18 92.19 648.20 94.14 644.13 C 95.37 641.38 98.96 640.25 101.60 641.67 C 103.54 642.62 103.89 644.96 104.69 646.75 C 106.73 646.45 108.77 646.15 110.82 645.86 C 109.95 642.84 109.05 639.54 106.45 637.53 C 100.80 633.33 91.54 634.68 87.79 640.84 M 113.52 640.52 C 109.38 646.68 109.50 655.37 113.32 661.66 C 117.28 668.40 128.08 668.90 133.00 663.01 C 134.85 660.94 135.51 658.17 136.30 655.59 C 134.24 655.37 132.19 655.17 130.13 654.98 C 129.12 657.14 128.23 659.93 125.60 660.55 C 122.85 661.42 119.89 659.64 119.02 656.97 C 117.50 652.74 117.74 647.78 119.84 643.78 C 121.38 640.72 126.10 640.11 128.36 642.68 C 129.24 643.89 129.62 645.35 130.20 646.73 C 132.24 646.45 134.28 646.16 136.31 645.88 C 135.41 642.51 134.24 638.79 131.06 636.89 C 125.44 633.62 117.18 634.88 113.52 640.52 M 158.42 635.61 C 147.53 638.49 145.17 653.34 151.17 661.69 C 156.20 669.51 169.26 668.54 173.91 660.77 C 178.10 653.82 177.50 643.39 170.99 638.02 C 167.56 635.09 162.67 634.65 158.42 635.61 M 214.95 641.76 C 214.97 639.75 214.97 637.76 214.97 635.77 C 212.79 635.77 210.61 635.76 208.43 635.76 C 208.42 645.97 208.43 656.17 208.42 666.38 C 210.82 666.36 213.22 666.37 215.62 666.39 C 216.13 659.67 214.28 652.47 217.19 646.16 C 218.36 643.31 221.58 642.81 224.24 642.39 C 224.23 639.80 224.23 637.22 224.21 634.65 C 219.79 634.61 216.42 637.81 214.95 641.76 M 228.62 637.62 C 226.29 639.02 225.27 641.63 224.49 644.11 C 226.51 644.41 228.53 644.70 230.56 645.00 C 232.10 640.05 238.58 639.07 242.56 641.54 C 244.29 642.72 243.84 645.09 244.19 646.89 C 238.49 647.06 232.22 646.88 227.31 650.25 C 222.32 653.65 222.65 662.05 227.65 665.30 C 233.02 668.79 241.29 667.14 244.13 661.13 C 244.36 662.87 244.65 664.60 244.95 666.35 C 247.25 666.35 249.55 666.35 251.85 666.37 C 250.15 658.31 251.73 650.03 250.73 641.92 C 250.15 638.17 246.44 635.75 242.87 635.41 C 238.09 634.96 232.77 634.82 228.62 637.62 M 268.43 635.68 C 265.55 636.72 263.94 639.48 262.43 641.95 C 262.48 639.89 262.50 637.82 262.52 635.77 C 260.32 635.76 258.12 635.76 255.92 635.77 C 255.92 645.97 255.93 656.17 255.92 666.37 C 258.32 666.36 260.72 666.36 263.12 666.37 C 263.20 660.54 262.94 654.71 263.24 648.89 C 263.37 645.58 265.51 642.02 269.00 641.51 C 271.63 641.05 274.01 643.51 274.05 646.06 C 274.38 652.82 274.07 659.60 274.18 666.38 C 276.58 666.36 278.98 666.37 281.38 666.38 C 281.35 659.93 281.40 653.49 281.37 647.04 C 281.28 644.16 281.20 641.00 279.37 638.60 C 276.86 635.40 272.19 634.37 268.43 635.68 M 289.22 636.17 C 283.53 638.37 281.66 646.77 286.01 651.07 C 289.82 654.66 295.48 654.01 300.08 655.82 C 302.04 656.56 302.18 659.21 300.52 660.35 C 296.74 662.51 291.29 661.80 288.97 657.85 C 286.70 658.24 284.44 658.66 282.19 659.12 C 283.78 665.08 290.38 667.40 295.97 667.12 C 300.50 666.99 305.94 665.61 308.12 661.21 C 309.58 657.57 309.35 652.62 306.07 650.02 C 301.32 646.47 294.35 648.31 289.98 644.04 C 291.40 638.96 299.26 639.31 301.22 643.82 C 303.41 643.42 305.60 642.95 307.78 642.45 C 305.33 634.83 295.73 633.73 289.22 636.17 M 335.34 641.38 C 331.85 647.17 331.81 655.00 335.12 660.87 C 338.92 667.37 348.11 668.68 354.40 665.28 C 357.48 663.60 359.38 660.52 360.77 657.41 C 358.60 657.04 356.41 656.72 354.23 656.45 C 352.64 659.94 348.80 662.47 344.93 660.97 C 341.12 659.87 340.20 655.60 340.04 652.16 C 347.06 652.06 354.08 652.14 361.10 652.11 C 360.94 648.18 360.57 644.05 358.27 640.72 C 353.36 632.77 339.95 633.45 335.34 641.38 M 370.39 641.85 C 370.45 639.81 370.48 637.79 370.50 635.77 C 368.30 635.76 366.11 635.76 363.92 635.77 C 363.92 645.97 363.93 656.17 363.92 666.37 C 366.32 666.36 368.72 666.36 371.12 666.37 C 371.66 659.60 369.69 652.25 372.82 645.93 C 374.07 642.95 378.25 643.43 379.66 640.62 C 379.78 638.62 379.73 636.62 379.71 634.64 C 375.22 634.58 371.92 637.92 370.39 641.85 M 385.83 635.93 C 383.14 636.72 381.46 639.09 379.74 641.13 C 379.58 644.51 378.98 648.57 381.90 651.05 C 386.08 655.32 393.19 653.15 397.41 657.05 C 398.38 660.77 393.74 661.85 390.98 661.56 C 388.25 661.82 386.18 659.93 384.64 657.93 C 382.37 658.31 380.12 658.83 377.88 659.41 C 381.24 667.61 392.18 668.66 399.35 665.33 C 404.81 663.22 406.18 655.59 402.85 651.16 C 398.38 646.12 390.18 648.84 385.61 643.99 C 387.09 638.90 394.99 639.18 397.05 643.72 C 399.16 643.32 401.26 642.90 403.37 642.46 C 401.12 635.19 392.16 633.98 385.83 635.93 M 405.48 644.10 C 407.49 644.40 409.53 644.71 411.55 645.01 C 413.08 640.06 419.53 639.07 423.53 641.52 C 425.28 642.68 424.84 645.08 425.20 646.88 C 419.48 647.06 413.21 646.88 408.29 650.26 C 403.52 653.55 403.59 661.40 408.09 664.90 C 413.40 668.92 422.12 667.34 425.14 661.19 C 425.38 662.90 425.66 664.63 425.96 666.35 C 428.26 666.35 430.55 666.35 432.85 666.37 C 431.51 660.01 432.24 653.50 432.07 647.06 C 431.97 644.02 432.21 640.46 429.79 638.18 C 426.21 634.55 420.60 635.07 415.95 635.38 C 411.01 635.71 406.40 639.08 405.48 644.10 M 467.98 640.37 C 468.02 638.83 468.07 637.30 468.11 635.78 C 465.80 635.77 463.49 635.76 461.18 635.77 C 461.18 649.38 461.19 662.99 461.18 676.61 C 463.62 676.60 466.06 676.59 468.51 676.60 C 468.48 672.10 468.57 667.60 468.40 663.11 C 471.83 667.46 478.68 668.47 483.09 665.07 C 486.57 662.11 487.92 657.38 488.30 652.99 C 488.72 647.34 487.68 640.85 483.06 637.05 C 478.30 633.32 470.93 635.26 467.98 640.37 M 492.06 641.03 C 488.36 646.74 488.31 654.59 491.43 660.56 C 495.28 667.57 505.35 668.92 511.73 664.76 C 514.43 663.06 515.99 660.19 517.25 657.37 C 515.08 657.02 512.91 656.71 510.75 656.43 C 509.16 660.08 505.01 662.57 501.11 660.85 C 497.48 659.58 496.75 655.48 496.55 652.13 C 503.57 652.09 510.59 652.13 517.61 652.11 C 517.44 648.10 517.03 643.88 514.64 640.51 C 509.69 632.90 496.81 633.48 492.06 641.03 M 526.56 642.35 C 526.63 640.18 526.65 638.01 526.66 635.85 C 524.52 635.84 522.39 635.84 520.25 635.85 C 520.25 646.00 520.25 656.14 520.25 666.30 C 522.59 666.28 524.94 666.28 527.29 666.29 C 527.82 659.56 525.90 652.30 528.92 645.99 C 530.09 643.21 533.29 642.77 535.90 642.32 C 535.89 639.79 535.88 637.26 535.86 634.74 C 531.26 634.71 528.03 638.32 526.56 642.35 M 557.50 635.74 C 553.20 636.47 549.74 639.80 548.79 644.04 C 550.78 644.34 552.78 644.64 554.78 644.93 C 556.28 639.99 562.63 639.10 566.66 641.34 C 568.59 642.50 568.20 645.00 568.51 646.91 C 562.95 647.12 556.94 646.96 552.04 650.02 C 546.98 653.03 546.77 661.10 551.27 664.71 C 556.55 668.99 565.68 667.24 568.41 660.78 C 568.64 662.62 568.94 664.45 569.26 666.29 C 571.51 666.28 573.76 666.28 576.02 666.29 C 574.44 658.60 575.78 650.71 575.06 642.96 C 574.96 640.15 573.06 637.67 570.59 636.48 C 566.48 634.76 561.80 635.02 557.50 635.74 M 603.10 644.06 C 605.08 644.35 607.05 644.64 609.04 644.94 C 610.47 640.04 616.66 639.17 620.69 641.20 C 622.82 642.29 622.48 644.92 622.76 646.91 C 617.13 647.12 611.02 646.95 606.11 650.14 C 601.04 653.34 601.11 661.64 605.94 665.04 C 611.28 668.87 620.00 667.10 622.63 660.80 C 622.89 662.62 623.20 664.46 623.53 666.29 C 625.77 666.28 628.02 666.28 630.27 666.30 C 628.94 659.94 629.70 653.42 629.52 646.98 C 629.46 643.87 629.57 640.20 626.98 637.99 C 623.22 634.55 617.62 635.09 612.94 635.52 C 608.24 635.97 604.00 639.31 603.10 644.06 M 669.81 642.31 C 669.86 640.14 669.89 638.00 669.90 635.85 C 667.76 635.84 665.63 635.84 663.50 635.85 C 663.49 646.00 663.50 656.14 663.50 666.29 C 665.84 666.28 668.18 666.28 670.53 666.29 C 671.06 659.61 669.18 652.42 672.10 646.14 C 673.21 643.26 676.48 642.75 679.15 642.31 C 679.14 639.78 679.14 637.25 679.14 634.73 C 674.57 634.72 671.26 638.26 669.81 642.31 M 679.55 644.04 C 681.53 644.35 683.52 644.64 685.51 644.95 C 687.02 639.93 693.58 639.02 697.59 641.47 C 699.35 642.68 698.92 645.07 699.28 646.92 C 693.56 647.13 687.29 646.94 682.37 650.31 C 677.62 653.54 677.68 661.39 682.17 664.83 C 687.46 668.93 696.34 667.19 699.17 660.90 C 699.40 662.68 699.70 664.49 700.00 666.27 C 702.25 666.28 704.50 666.28 706.76 666.31 C 705.45 659.96 706.17 653.46 706.01 647.04 C 705.90 644.06 706.15 640.58 703.81 638.32 C 700.27 634.64 694.64 635.09 689.99 635.44 C 685.10 635.78 680.55 639.09 679.55 644.04 M 723.65 635.69 C 720.62 636.74 718.94 639.65 717.39 642.25 C 717.44 640.11 717.46 637.97 717.48 635.85 C 715.31 635.84 713.16 635.84 711.01 635.85 C 710.98 646.00 710.98 656.14 711.00 666.29 C 713.34 666.28 715.69 666.28 718.04 666.28 C 718.13 660.47 717.85 654.66 718.16 648.86 C 718.24 645.24 720.91 641.28 724.85 641.39 C 727.61 641.48 729.35 644.34 729.21 646.91 C 729.34 653.37 729.20 659.83 729.25 666.30 C 731.59 666.28 733.94 666.28 736.29 666.29 C 736.27 659.86 736.30 653.42 736.29 646.99 C 736.22 644.15 736.07 641.07 734.32 638.71 C 731.89 635.57 727.35 634.48 723.65 635.69 M 744.17 636.38 C 738.73 638.63 736.81 646.71 741.11 650.90 C 744.96 654.58 750.76 653.85 755.38 655.78 C 757.54 656.73 757.09 660.11 754.99 660.85 C 751.17 662.46 746.11 661.88 743.90 658.01 C 741.70 658.39 739.51 658.81 737.33 659.28 C 738.81 663.56 742.88 666.24 747.28 666.75 C 752.13 667.44 757.62 666.73 761.38 663.34 C 765.20 659.52 764.66 651.67 759.51 649.24 C 755.39 647.25 750.46 647.71 746.43 645.52 C 744.60 644.50 745.11 641.71 746.90 640.98 C 750.23 639.43 754.62 640.19 756.40 643.66 C 758.46 643.24 760.52 642.81 762.59 642.37 C 760.01 634.98 750.58 633.82 744.17 636.38 M 790.42 635.62 C 779.63 638.27 776.96 652.84 782.71 661.23 C 787.39 669.22 800.35 668.69 805.27 661.20 C 809.61 654.69 809.32 644.92 803.85 639.13 C 800.48 635.51 795.09 634.53 790.42 635.62 M 817.55 642.41 C 817.62 640.21 817.65 638.03 817.66 635.85 C 815.51 635.84 813.38 635.84 811.25 635.85 C 811.25 646.00 811.25 656.15 811.25 666.30 C 813.59 666.28 815.93 666.28 818.29 666.29 C 818.82 659.53 816.89 652.23 819.96 645.91 C 821.14 643.17 824.32 642.79 826.90 642.31 C 826.89 639.78 826.88 637.26 826.86 634.74 C 822.25 634.72 818.99 638.35 817.55 642.41 M 835.21 641.87 C 835.27 639.86 835.28 637.85 835.31 635.85 C 833.03 635.84 830.76 635.84 828.49 635.84 C 828.48 645.99 828.49 656.14 828.49 666.29 C 830.90 666.28 833.32 666.28 835.74 666.30 C 835.79 660.85 835.67 655.40 835.77 649.96 C 835.73 646.81 837.14 643.35 840.17 642.02 C 842.78 640.67 846.73 641.81 847.17 645.02 C 847.87 652.07 847.27 659.21 847.47 666.29 C 849.93 666.28 852.41 666.28 854.89 666.30 C 854.94 660.86 854.80 655.43 854.92 650.00 C 854.97 647.38 855.50 644.44 857.75 642.79 C 860.47 640.57 865.91 641.39 866.36 645.40 C 866.80 652.34 866.40 659.33 866.53 666.29 C 869.00 666.28 871.48 666.28 873.96 666.29 C 873.89 658.83 874.08 651.37 873.89 643.92 C 873.82 638.84 868.91 634.76 863.94 635.22 C 859.58 635.05 856.14 638.29 854.09 641.82 C 852.82 638.39 850.02 635.14 846.07 635.24 C 841.34 634.64 837.23 637.83 835.21 641.87 M 885.82 635.91 C 881.77 636.78 878.72 640.07 877.79 644.05 C 879.78 644.35 881.76 644.64 883.77 644.93 C 885.29 639.98 891.64 639.09 895.68 641.35 C 897.60 642.51 897.20 645.00 897.51 646.91 C 891.93 647.12 885.89 646.96 880.99 650.05 C 875.94 653.11 875.79 661.19 880.34 664.77 C 885.63 668.97 894.67 667.22 897.41 660.81 C 897.64 662.64 897.95 664.47 898.29 666.30 C 900.52 666.28 902.77 666.28 905.02 666.29 C 903.44 658.60 904.77 650.72 904.07 642.96 C 903.95 639.89 901.71 637.22 898.90 636.18 C 894.71 634.80 890.08 634.97 885.82 635.91 M 909.88 640.85 C 905.93 647.05 906.07 655.66 910.04 661.84 C 914.01 668.25 924.28 668.74 929.21 663.22 C 931.17 661.14 931.89 658.29 932.75 655.66 C 930.72 655.42 928.71 655.23 926.70 655.02 C 925.69 657.27 924.64 660.16 921.88 660.68 C 919.07 661.43 916.24 659.51 915.39 656.86 C 914.00 652.72 914.18 647.96 916.10 644.02 C 917.52 640.85 922.12 640.00 924.64 642.33 C 925.76 643.52 926.08 645.21 926.74 646.67 C 928.74 646.38 930.74 646.09 932.76 645.81 C 931.88 643.08 931.15 640.09 928.96 638.09 C 923.50 633.24 913.74 634.56 909.88 640.85 M 954.55 635.78 C 942.16 639.57 941.28 658.83 951.68 665.38 C 958.18 668.94 967.36 666.59 970.85 659.89 C 974.36 653.08 973.72 643.52 967.71 638.30 C 964.17 635.16 958.99 634.59 954.55 635.78 M 991.14 636.40 C 985.70 638.66 983.83 646.73 988.12 650.91 C 991.97 654.59 997.77 653.84 1002.39 655.79 C 1004.55 656.75 1004.09 660.14 1001.97 660.86 C 998.16 662.45 993.10 661.88 990.90 658.01 C 988.70 658.39 986.49 658.81 984.32 659.28 C 985.88 663.82 990.35 666.47 994.98 666.84 C 1000.00 667.38 1005.90 666.47 1009.26 662.33 C 1011.79 658.52 1011.42 652.29 1007.31 649.70 C 1003.07 647.15 997.70 647.87 993.41 645.52 C 991.60 644.47 992.13 641.74 993.90 640.98 C 997.21 639.45 1001.65 640.14 1003.41 643.65 C 1005.47 643.24 1007.53 642.81 1009.60 642.37 C 1007.00 634.97 997.55 633.80 991.14 636.40 M 1021.47 635.66 C 1010.60 638.55 1008.19 653.44 1014.31 661.74 C 1019.37 669.42 1032.18 668.42 1036.81 660.77 C 1041.06 653.86 1040.42 643.45 1033.95 638.09 C 1030.53 635.21 1025.70 634.68 1021.47 635.66 M 1043.62 640.51 C 1039.44 646.65 1039.53 655.33 1043.38 661.61 C 1047.32 668.32 1058.04 668.83 1062.95 662.96 C 1064.75 660.90 1065.44 658.19 1066.22 655.64 C 1064.20 655.42 1062.19 655.22 1060.20 655.03 C 1059.25 656.93 1058.57 659.29 1056.51 660.29 C 1053.95 661.54 1050.58 660.48 1049.37 657.88 C 1047.38 653.69 1047.59 648.57 1049.44 644.37 C 1050.58 641.29 1054.60 640.11 1057.38 641.74 C 1059.14 642.75 1059.45 644.98 1060.29 646.68 C 1062.27 646.39 1064.24 646.10 1066.24 645.82 C 1065.34 642.49 1064.15 638.85 1061.02 636.97 C 1055.46 633.65 1047.28 634.97 1043.62 640.51 M 1087.50 635.74 C 1083.20 636.47 1079.74 639.80 1078.79 644.04 C 1080.77 644.34 1082.77 644.64 1084.78 644.92 C 1086.27 640.01 1092.58 639.11 1096.61 641.31 C 1098.58 642.45 1098.20 644.98 1098.51 646.92 C 1092.94 647.12 1086.91 646.96 1082.01 650.04 C 1076.95 653.08 1076.78 661.17 1081.32 664.75 C 1086.61 668.98 1095.69 667.23 1098.41 660.78 C 1098.64 662.62 1098.93 664.45 1099.26 666.28 C 1101.50 666.28 1103.75 666.28 1106.02 666.29 C 1104.44 658.59 1105.78 650.70 1105.06 642.94 C 1104.95 640.15 1103.06 637.67 1100.60 636.48 C 1096.49 634.76 1091.80 635.02 1087.50 635.74 M 138.25 635.92 C 138.25 646.03 138.25 656.15 138.25 666.27 C 140.58 666.25 142.92 666.25 145.25 666.26 C 145.25 656.15 145.26 646.03 145.25 635.92 C 142.92 635.91 140.58 635.92 138.25 635.92 M 307.17 635.78 C 310.69 645.98 314.24 656.16 317.78 666.35 C 319.79 666.33 321.80 666.33 323.81 666.34 C 327.23 656.14 330.73 645.98 334.14 635.80 C 332.23 635.77 330.32 635.76 328.42 635.76 C 326.17 642.34 324.02 648.96 321.73 655.54 C 319.03 649.08 317.10 642.34 314.70 635.78 C 312.18 635.77 309.67 635.77 307.17 635.78 M 934.50 635.92 C 934.50 646.03 934.49 656.15 934.50 666.26 C 936.82 666.25 939.16 666.25 941.50 666.26 C 941.50 656.15 941.50 646.03 941.50 635.92 C 939.16 635.91 936.82 635.92 934.50 635.92 M 1068.01 635.92 C 1068.00 646.03 1068.01 656.14 1068.01 666.25 C 1070.33 666.25 1072.67 666.25 1075.01 666.26 C 1074.99 656.14 1075.03 646.03 1074.99 635.92 C 1072.66 635.92 1070.33 635.92 1068.01 635.92 Z" />
<path fill="#ffffff" opacity="1.00" d=" M 845.13 158.05 C 856.11 156.98 867.09 155.86 878.08 154.78 C 882.89 172.15 886.68 189.82 889.10 207.69 C 903.23 207.71 917.37 207.67 931.50 207.66 C 934.03 218.88 935.83 230.26 936.96 241.70 C 922.19 241.79 907.41 241.56 892.64 241.58 C 894.44 269.98 894.00 298.49 892.03 326.88 C 891.50 336.20 889.82 345.64 891.56 354.94 C 892.52 360.16 895.43 365.47 900.64 367.44 C 910.89 371.71 922.30 370.72 933.14 370.38 C 931.06 381.41 928.32 392.31 925.21 403.09 C 910.36 406.23 894.91 409.59 879.79 406.22 C 865.43 403.43 852.40 393.31 847.31 379.45 C 844.03 371.38 843.46 362.57 842.90 353.98 C 843.22 316.55 844.15 279.13 843.49 241.70 C 834.02 241.69 824.54 241.71 815.06 241.70 C 815.09 230.48 815.24 219.27 815.45 208.05 C 825.36 207.97 835.28 207.95 845.20 207.92 C 845.69 191.30 846.20 174.66 845.13 158.05 Z" />
<path fill="#ffffff" opacity="1.00" d=" M 976.06 217.14 C 984.60 208.04 996.53 202.41 1008.93 201.25 C 1028.38 199.26 1048.79 205.46 1063.26 218.77 C 1073.88 228.89 1081.01 242.50 1083.58 256.93 C 1086.26 270.28 1085.67 284.59 1080.05 297.13 C 1073.79 310.36 1063.88 321.51 1052.68 330.78 C 1043.67 338.12 1034.47 345.26 1024.90 351.87 C 1015.92 358.35 1006.44 364.13 997.69 370.92 C 1025.43 371.04 1053.17 370.48 1080.92 370.11 C 1078.42 381.87 1075.10 393.44 1071.30 404.85 C 1026.79 405.06 982.28 404.91 937.78 405.83 C 940.25 397.59 942.73 389.36 944.80 381.02 C 946.12 376.66 946.47 371.89 949.08 368.03 C 955.75 357.54 965.76 349.85 975.76 342.73 C 989.34 333.02 1002.54 322.79 1015.86 312.73 C 1024.41 306.10 1033.00 299.35 1039.86 290.90 C 1045.75 283.67 1051.20 275.47 1052.75 266.11 C 1053.26 257.22 1050.57 247.37 1043.26 241.72 C 1036.90 236.39 1028.07 235.29 1020.11 236.49 C 1014.29 237.38 1008.63 240.42 1005.36 245.42 C 1000.62 252.20 998.36 260.29 997.07 268.37 C 983.94 265.28 970.72 262.59 957.56 259.66 C 959.65 244.19 964.70 228.36 976.06 217.14 Z" />
<path fill="#ffffff" opacity="1.00" d=" M 696.87 206.54 C 713.23 204.76 729.85 204.63 746.18 206.82 C 758.63 208.52 771.01 212.93 780.56 221.32 C 788.34 227.90 794.54 236.84 796.29 247.02 C 798.02 256.23 798.23 265.65 798.26 275.00 C 798.12 298.35 798.54 321.69 799.60 345.01 C 800.37 359.60 800.58 374.40 804.53 388.57 C 806.09 394.02 807.31 399.58 809.53 404.82 C 795.90 405.11 782.28 405.23 768.66 405.58 C 762.19 392.73 757.81 378.95 754.75 364.92 C 750.64 377.16 745.45 389.76 735.31 398.30 C 723.24 408.79 706.52 411.71 690.98 410.95 C 671.81 410.11 652.84 402.43 639.11 388.90 C 629.17 379.44 622.54 366.63 620.56 353.05 C 618.03 338.09 621.02 321.67 630.74 309.72 C 640.35 297.90 654.78 291.41 669.16 287.45 C 695.11 280.60 722.21 279.94 748.89 280.44 C 748.28 270.84 750.86 260.56 746.46 251.57 C 743.18 244.63 736.28 240.21 729.11 238.13 C 718.70 235.11 707.68 235.00 696.95 235.86 C 686.34 236.92 675.34 239.96 667.35 247.37 C 661.85 252.31 658.63 259.21 656.61 266.21 C 645.79 264.70 634.97 263.21 624.16 261.63 C 626.97 247.40 635.21 234.61 646.55 225.66 C 660.68 213.95 678.94 208.73 696.87 206.54 M 693.04 309.99 C 683.84 312.61 674.51 316.65 668.14 324.06 C 658.49 335.24 660.79 353.10 670.28 363.65 C 676.91 371.50 686.99 375.68 697.10 376.35 C 707.80 377.08 719.09 375.93 728.57 370.56 C 739.06 364.51 745.33 353.17 748.58 341.84 C 752.18 329.47 749.38 316.61 749.27 304.02 C 730.42 304.13 711.32 304.99 693.04 309.99 Z" />
<path fill="#ffffff" opacity="1.00" d=" M 67.00 633.49 C 68.92 639.07 70.65 644.71 72.54 650.31 C 68.86 650.30 65.18 650.30 61.51 650.30 C 63.33 644.69 65.20 639.10 67.00 633.49 Z" />
<path fill="#ffffff" opacity="1.00" d=" M 339.99 647.35 C 340.66 643.90 343.02 640.07 347.00 640.29 C 350.91 640.17 353.23 643.90 353.78 647.35 C 349.18 647.42 344.58 647.41 339.99 647.35 Z" />
<path fill="#ffffff" opacity="1.00" d=" M 496.49 647.35 C 497.18 644.04 499.26 640.33 503.10 640.30 C 507.14 639.94 509.78 643.75 510.28 647.36 C 505.68 647.41 501.08 647.42 496.49 647.35 Z" />
<path fill="#ffffff" opacity="1.00" d=" M 159.51 641.74 C 162.61 640.07 166.92 641.59 167.94 645.05 C 169.40 649.27 169.47 654.31 167.34 658.33 C 165.09 662.39 158.28 661.75 156.74 657.37 C 154.89 652.39 154.65 645.08 159.51 641.74 Z" />
<path fill="#ffffff" opacity="1.00" d=" M 472.51 641.67 C 474.84 640.33 478.03 641.38 479.16 643.80 C 481.04 647.39 481.08 651.70 480.33 655.61 C 479.79 658.24 478.08 661.23 475.05 661.29 C 471.23 661.48 468.42 657.55 468.51 653.99 C 468.30 649.69 468.08 644.00 472.51 641.67 Z" />
<path fill="#ffffff" opacity="1.00" d=" M 792.24 641.28 C 795.01 640.37 798.37 641.64 799.50 644.42 C 801.23 648.54 801.21 653.45 799.57 657.60 C 798.12 661.48 792.33 662.36 789.67 659.28 C 787.25 656.48 787.08 652.46 787.37 648.94 C 787.69 645.88 788.93 642.18 792.24 641.28 Z" />
<path fill="#ffffff" opacity="1.00" d=" M 956.36 641.49 C 959.11 640.31 962.78 641.28 964.09 644.11 C 966.03 648.28 965.95 653.33 964.34 657.59 C 962.89 661.40 957.29 662.36 954.55 659.43 C 951.99 656.62 951.82 652.47 952.13 648.88 C 952.44 646.03 953.48 642.70 956.36 641.49 Z" />
<path fill="#ffffff" opacity="1.00" d=" M 1022.44 641.68 C 1025.31 640.19 1029.42 641.20 1030.71 644.34 C 1032.51 648.52 1032.48 653.56 1030.75 657.76 C 1029.19 661.58 1023.40 662.31 1020.83 659.18 C 1018.70 656.68 1018.43 653.18 1018.52 650.04 C 1018.73 646.97 1019.50 643.29 1022.44 641.68 Z" />
<path fill="#ffffff" opacity="1.00" d=" M 231.08 657.02 C 232.02 651.09 239.53 651.25 244.13 650.91 C 244.06 653.93 244.03 657.36 241.63 659.60 C 238.65 662.76 231.17 662.31 231.08 657.02 Z" />
<path fill="#ffffff" opacity="1.00" d=" M 412.22 656.16 C 414.02 650.98 420.67 651.29 425.14 650.92 C 425.33 654.88 424.34 659.96 419.92 661.19 C 416.48 662.64 411.20 660.48 412.22 656.16 Z" />
<path fill="#ffffff" opacity="1.00" d=" M 555.28 656.95 C 556.20 650.98 563.83 651.19 568.45 650.87 C 568.46 654.20 568.21 658.10 565.25 660.25 C 562.02 662.78 555.17 662.00 555.28 656.95 Z" />
<path fill="#ffffff" opacity="1.00" d=" M 609.68 655.97 C 611.63 650.88 618.20 651.24 622.69 650.88 C 623.02 655.06 621.70 660.49 616.91 661.40 C 613.42 662.64 608.49 660.15 609.68 655.97 Z" />
<path fill="#ffffff" opacity="1.00" d=" M 686.03 657.00 C 686.91 650.97 694.57 651.18 699.21 650.87 C 699.17 654.13 699.02 657.93 696.18 660.12 C 692.99 662.78 685.99 662.13 686.03 657.00 Z" />
<path fill="#ffffff" opacity="1.00" d=" M 884.38 656.21 C 886.09 650.89 892.94 651.23 897.45 650.87 C 897.71 654.93 896.58 660.20 892.00 661.32 C 888.55 662.67 883.42 660.46 884.38 656.21 Z" />
<path fill="#ffffff" opacity="1.00" d=" M 1085.28 657.06 C 1086.07 651.00 1093.81 651.18 1098.45 650.87 C 1098.40 653.99 1098.32 657.56 1095.78 659.80 C 1092.72 662.82 1085.34 662.31 1085.28 657.06 Z" />
</g>
<g id="#962213ff">
<path fill="#962213" opacity="1.00" d=" M 827.46 33.72 C 874.12 29.77 921.75 37.51 964.63 56.37 C 1016.59 78.99 1061.34 117.75 1091.13 165.95 C 1116.51 206.72 1131.15 254.07 1133.24 302.04 C 1135.27 346.55 1126.68 391.51 1108.13 432.04 C 1081.13 491.73 1032.53 541.28 973.35 569.38 C 912.02 598.99 839.84 605.05 774.38 586.37 C 714.49 569.60 660.66 532.25 623.96 482.04 C 601.82 451.95 585.78 417.40 577.05 381.08 C 566.33 336.54 566.63 289.40 577.95 245.01 C 587.37 208.00 604.41 172.96 627.72 142.70 C 667.25 91.06 725.22 53.94 788.69 39.74 C 801.45 36.82 814.42 34.84 827.46 33.72 M 845.13 158.05 C 846.20 174.66 845.69 191.30 845.20 207.92 C 835.28 207.95 825.36 207.97 815.45 208.05 C 815.24 219.27 815.09 230.48 815.06 241.70 C 824.54 241.71 834.02 241.69 843.49 241.70 C 844.15 279.13 843.22 316.55 842.90 353.98 C 843.46 362.57 844.03 371.38 847.31 379.45 C 852.40 393.31 865.43 403.43 879.79 406.22 C 894.91 409.59 910.36 406.23 925.21 403.09 C 928.32 392.31 931.06 381.41 933.14 370.38 C 922.30 370.72 910.89 371.71 900.64 367.44 C 895.43 365.47 892.52 360.16 891.56 354.94 C 889.82 345.64 891.50 336.20 892.03 326.88 C 894.00 298.49 894.44 269.98 892.64 241.58 C 907.41 241.56 922.19 241.79 936.96 241.70 C 935.83 230.26 934.03 218.88 931.50 207.66 C 917.37 207.67 903.23 207.71 889.10 207.69 C 886.68 189.82 882.89 172.15 878.08 154.78 C 867.09 155.86 856.11 156.98 845.13 158.05 M 976.06 217.14 C 964.70 228.36 959.65 244.19 957.56 259.66 C 970.72 262.59 983.94 265.28 997.07 268.37 C 998.36 260.29 1000.62 252.20 1005.36 245.42 C 1008.63 240.42 1014.29 237.38 1020.11 236.49 C 1028.07 235.29 1036.90 236.39 1043.26 241.72 C 1050.57 247.37 1053.26 257.22 1052.75 266.11 C 1051.20 275.47 1045.75 283.67 1039.86 290.90 C 1033.00 299.35 1024.41 306.10 1015.86 312.73 C 1002.54 322.79 989.34 333.02 975.76 342.73 C 965.76 349.85 955.75 357.54 949.08 368.03 C 946.47 371.89 946.12 376.66 944.80 381.02 C 942.73 389.36 940.25 397.59 937.78 405.83 C 982.28 404.91 1026.79 405.06 1071.30 404.85 C 1075.10 393.44 1078.42 381.87 1080.92 370.11 C 1053.17 370.48 1025.43 371.04 997.69 370.92 C 1006.44 364.13 1015.92 358.35 1024.90 351.87 C 1034.47 345.26 1043.67 338.12 1052.68 330.78 C 1063.88 321.51 1073.79 310.36 1080.05 297.13 C 1085.67 284.59 1086.26 270.28 1083.58 256.93 C 1081.01 242.50 1073.88 228.89 1063.26 218.77 C 1048.79 205.46 1028.38 199.26 1008.93 201.25 C 996.53 202.41 984.60 208.04 976.06 217.14 M 696.87 206.54 C 678.94 208.73 660.68 213.95 646.55 225.66 C 635.21 234.61 626.97 247.40 624.16 261.63 C 634.97 263.21 645.79 264.70 656.61 266.21 C 658.63 259.21 661.85 252.31 667.35 247.37 C 675.34 239.96 686.34 236.92 696.95 235.86 C 707.68 235.00 718.70 235.11 729.11 238.13 C 736.28 240.21 743.18 244.63 746.46 251.57 C 750.86 260.56 748.28 270.84 748.89 280.44 C 722.21 279.94 695.11 280.60 669.16 287.45 C 654.78 291.41 640.35 297.90 630.74 309.72 C 621.02 321.67 618.03 338.09 620.56 353.05 C 622.54 366.63 629.17 379.44 639.11 388.90 C 652.84 402.43 671.81 410.11 690.98 410.95 C 706.52 411.71 723.24 408.79 735.31 398.30 C 745.45 389.76 750.64 377.16 754.75 364.92 C 757.81 378.95 762.19 392.73 768.66 405.58 C 782.28 405.23 795.90 405.11 809.53 404.82 C 807.31 399.58 806.09 394.02 804.53 388.57 C 800.58 374.40 800.37 359.60 799.60 345.01 C 798.54 321.69 798.12 298.35 798.26 275.00 C 798.23 265.65 798.02 256.23 796.29 247.02 C 794.54 236.84 788.34 227.90 780.56 221.32 C 771.01 212.93 758.63 208.52 746.18 206.82 C 729.85 204.63 713.23 204.76 696.87 206.54 Z" />
<path fill="#962213" opacity="1.00" d=" M 693.04 309.99 C 711.32 304.99 730.42 304.13 749.27 304.02 C 749.38 316.61 752.18 329.47 748.58 341.84 C 745.33 353.17 739.06 364.51 728.57 370.56 C 719.09 375.93 707.80 377.08 697.10 376.35 C 686.99 375.68 676.91 371.50 670.28 363.65 C 660.79 353.10 658.49 335.24 668.14 324.06 C 674.51 316.65 683.84 312.61 693.04 309.99 Z" />
<path fill="#962213" opacity="1.00" d=" M 540.58 484.76 C 552.74 482.87 565.50 484.79 576.44 490.46 C 590.35 497.49 601.12 510.40 605.56 525.34 C 610.03 540.30 608.41 557.10 600.71 570.74 C 592.30 586.17 576.46 597.20 559.10 599.86 C 548.83 601.28 538.11 600.50 528.44 596.59 C 514.67 591.26 503.13 580.45 496.95 567.04 C 489.22 550.59 489.76 530.52 498.48 514.56 C 506.86 498.78 522.92 487.44 540.58 484.76 Z" />
<path fill="#962213" opacity="1.00" d=" M 404.25 496.23 C 415.88 494.62 428.08 497.40 437.74 504.13 C 450.31 512.72 458.28 527.74 457.96 543.01 C 458.20 555.59 452.85 568.08 443.85 576.82 C 434.96 585.54 422.48 590.55 410.01 590.17 C 396.02 590.13 382.30 583.27 373.71 572.26 C 364.29 560.42 361.13 543.94 365.57 529.47 C 370.51 512.08 386.31 498.50 404.25 496.23 Z" />
<path fill="#962213" opacity="1.00" d=" M 278.47 504.68 C 288.92 502.46 300.21 504.11 309.39 509.66 C 320.20 516.03 327.81 527.51 329.45 539.95 C 330.24 547.28 329.75 554.89 326.84 561.74 C 321.90 574.38 310.44 584.18 297.19 587.10 C 286.67 589.75 275.23 587.72 265.93 582.25 C 255.73 576.23 248.34 565.70 246.18 554.05 C 244.26 545.68 245.59 536.81 248.89 528.98 C 254.12 516.76 265.47 507.44 278.47 504.68 Z" />
<path fill="#962213" opacity="1.00" d=" M 166.38 511.61 C 176.51 509.14 187.67 510.70 196.48 516.37 C 205.38 521.90 211.73 531.26 213.67 541.55 C 215.31 551.06 213.81 561.26 208.53 569.44 C 199.52 584.30 179.78 591.37 163.41 585.40 C 145.77 579.81 134.20 560.13 137.99 542.00 C 140.44 527.45 152.04 515.04 166.38 511.61 Z" />
<path fill="#962213" opacity="1.00" d=" M 73.43 518.66 C 86.26 516.39 100.03 523.69 105.22 535.67 C 110.30 546.86 107.81 561.19 98.67 569.57 C 90.02 577.98 76.12 580.16 65.30 574.84 C 56.26 570.67 49.93 561.64 48.63 551.83 C 46.27 536.48 58.00 520.72 73.43 518.66 Z" />
<path fill="#962213" opacity="1.00" d=" M 157.52 628.01 C 161.60 625.76 165.65 623.45 169.76 621.26 C 170.50 622.92 171.23 624.59 171.96 626.28 C 167.62 628.16 163.25 629.98 158.88 631.81 C 158.43 630.53 157.98 629.26 157.52 628.01 Z" />
<path fill="#962213" opacity="1.00" d=" M 954.18 628.14 C 958.18 625.92 962.16 623.67 966.17 621.46 C 966.85 623.04 967.54 624.62 968.24 626.21 C 963.99 628.00 959.75 629.80 955.51 631.59 C 955.05 630.43 954.61 629.28 954.18 628.14 Z" />
<path fill="#962213" opacity="1.00" d=" M 63.01 625.02 C 66.23 624.98 69.45 624.99 72.67 625.03 C 77.27 638.85 81.99 652.63 86.55 666.47 C 83.67 666.49 80.80 666.50 77.92 666.50 C 76.87 663.27 75.79 660.05 74.70 656.85 C 69.64 656.84 64.59 656.87 59.53 656.81 C 58.40 660.02 57.34 663.25 56.32 666.51 C 53.98 666.49 51.64 666.48 49.30 666.47 C 53.85 652.64 58.43 638.83 63.01 625.02 M 67.00 633.49 C 65.20 639.10 63.33 644.69 61.51 650.30 C 65.18 650.30 68.86 650.30 72.54 650.31 C 70.65 644.71 68.92 639.07 67.00 633.49 Z" />
<path fill="#962213" opacity="1.00" d=" M 138.09 625.09 C 140.54 625.08 142.98 625.09 145.43 625.10 C 145.42 627.61 145.41 630.13 145.41 632.65 C 142.97 632.65 140.54 632.66 138.10 632.67 C 138.10 630.13 138.09 627.61 138.09 625.09 Z" />
<path fill="#962213" opacity="1.00" d=" M 592.49 625.25 C 594.83 625.24 597.16 625.24 599.51 625.25 C 599.50 638.92 599.51 652.59 599.50 666.26 C 597.16 666.25 594.83 666.25 592.50 666.26 C 592.49 652.59 592.50 638.92 592.49 625.25 Z" />
<path fill="#962213" opacity="1.00" d=" M 769.70 626.69 C 772.69 624.18 776.89 624.60 780.54 624.46 C 780.52 626.28 780.52 628.11 780.53 629.94 C 778.82 630.12 777.04 629.95 775.44 630.60 C 773.50 631.58 774.08 634.07 773.76 635.84 C 776.00 635.84 778.26 635.84 780.52 635.85 C 780.52 637.69 780.52 639.54 780.54 641.40 C 778.31 641.39 776.10 641.39 773.89 641.40 C 773.89 649.69 773.89 657.99 773.89 666.29 C 771.60 666.28 769.31 666.28 767.04 666.29 C 767.03 657.99 767.04 649.70 767.04 641.41 C 765.53 641.39 764.03 641.38 762.54 641.38 C 762.53 639.52 762.53 637.68 762.54 635.84 C 763.97 635.84 765.41 635.85 766.86 635.87 C 767.16 632.69 767.22 629.06 769.70 626.69 Z" />
<path fill="#962213" opacity="1.00" d=" M 934.49 625.25 C 936.82 625.24 939.16 625.24 941.51 625.25 C 941.49 627.66 941.49 630.08 941.50 632.51 C 939.16 632.49 936.82 632.49 934.50 632.51 C 934.49 630.08 934.48 627.66 934.49 625.25 Z" />
<path fill="#962213" opacity="1.00" d=" M 1068.01 625.24 C 1070.34 625.24 1072.67 625.24 1075.02 625.25 C 1075.00 627.66 1075.00 630.07 1075.01 632.49 C 1072.67 632.49 1070.33 632.49 1068.01 632.50 C 1067.99 630.07 1068.00 627.66 1068.01 625.24 Z" />
<path fill="#962213" opacity="1.00" d=" M 1110.25 625.24 C 1112.58 625.24 1114.91 625.24 1117.26 625.24 C 1117.23 638.91 1117.25 652.59 1117.25 666.26 C 1114.90 666.25 1112.58 666.25 1110.25 666.27 C 1110.25 652.59 1110.25 638.92 1110.25 625.24 Z" />
<path fill="#962213" opacity="1.00" d=" M 436.98 625.25 C 439.32 625.24 441.66 625.24 444.00 625.25 C 443.99 638.91 444.00 652.58 443.99 666.25 C 441.66 666.25 439.33 666.25 437.00 666.26 C 436.97 652.59 437.01 638.92 436.98 625.25 Z" />
<path fill="#962213" opacity="1.00" d=" M 193.46 627.89 C 195.43 627.71 197.40 627.53 199.37 627.35 C 199.36 630.15 199.36 632.96 199.36 635.77 C 201.41 635.76 203.45 635.76 205.50 635.77 C 205.50 637.66 205.50 639.56 205.50 641.48 C 203.45 641.48 201.40 641.47 199.36 641.48 C 199.56 647.15 198.92 652.90 199.73 658.54 C 200.55 661.26 203.94 660.59 206.11 660.88 C 206.07 662.78 206.04 664.69 205.96 666.61 C 202.48 666.98 198.52 667.75 195.49 665.50 C 193.36 664.07 192.58 661.44 192.51 659.00 C 192.30 653.17 192.50 647.32 192.43 641.49 C 191.18 641.47 189.92 641.47 188.67 641.47 C 188.68 639.56 188.68 637.65 188.69 635.76 C 190.07 635.76 191.45 635.77 192.83 635.79 C 193.04 633.15 193.26 630.52 193.46 627.89 Z" />
<path fill="#962213" opacity="1.00" d=" M 648.53 627.96 C 650.44 627.78 652.36 627.60 654.29 627.43 C 654.28 630.23 654.28 633.04 654.28 635.85 C 656.34 635.84 658.39 635.84 660.46 635.85 C 660.46 637.69 660.46 639.54 660.47 641.39 C 658.40 641.39 656.34 641.39 654.28 641.40 C 654.49 647.11 653.84 652.89 654.66 658.57 C 655.40 661.35 658.86 660.63 661.02 660.94 C 661.00 662.77 660.99 664.62 660.97 666.47 C 657.51 666.95 653.57 667.68 650.55 665.42 C 648.10 663.80 647.55 660.68 647.52 657.96 C 647.43 652.44 647.53 646.92 647.50 641.41 C 646.24 641.39 644.99 641.39 643.74 641.39 C 643.73 639.53 643.74 637.68 643.75 635.84 C 645.12 635.84 646.51 635.85 647.90 635.87 C 648.10 633.23 648.32 630.60 648.53 627.96 Z" />
<path fill="#962213" opacity="1.00" d=" M 87.79 640.84 C 91.54 634.68 100.80 633.33 106.45 637.53 C 109.05 639.54 109.95 642.84 110.82 645.86 C 108.77 646.15 106.73 646.45 104.69 646.75 C 103.89 644.96 103.54 642.62 101.60 641.67 C 98.96 640.25 95.37 641.38 94.14 644.13 C 92.19 648.20 92.00 653.18 93.69 657.37 C 94.73 659.97 97.88 661.54 100.53 660.40 C 102.88 659.57 103.67 656.99 104.65 654.97 C 106.71 655.17 108.77 655.37 110.83 655.61 C 109.96 658.26 109.29 661.16 107.29 663.25 C 102.38 668.77 92.12 668.35 88.06 662.02 C 84.02 655.82 83.86 647.12 87.79 640.84 Z" />
<path fill="#962213" opacity="1.00" d=" M 113.52 640.52 C 117.18 634.88 125.44 633.62 131.06 636.89 C 134.24 638.79 135.41 642.51 136.31 645.88 C 134.28 646.16 132.24 646.45 130.20 646.73 C 129.62 645.35 129.24 643.89 128.36 642.68 C 126.10 640.11 121.38 640.72 119.84 643.78 C 117.74 647.78 117.50 652.74 119.02 656.97 C 119.89 659.64 122.85 661.42 125.60 660.55 C 128.23 659.93 129.12 657.14 130.13 654.98 C 132.19 655.17 134.24 655.37 136.30 655.59 C 135.51 658.17 134.85 660.94 133.00 663.01 C 128.08 668.90 117.28 668.40 113.32 661.66 C 109.50 655.37 109.38 646.68 113.52 640.52 Z" />
<path fill="#962213" opacity="1.00" d=" M 158.42 635.61 C 162.67 634.65 167.56 635.09 170.99 638.02 C 177.50 643.39 178.10 653.82 173.91 660.77 C 169.26 668.54 156.20 669.51 151.17 661.69 C 145.17 653.34 147.53 638.49 158.42 635.61 M 159.51 641.74 C 154.65 645.08 154.89 652.39 156.74 657.37 C 158.28 661.75 165.09 662.39 167.34 658.33 C 169.47 654.31 169.40 649.27 167.94 645.05 C 166.92 641.59 162.61 640.07 159.51 641.74 Z" />
<path fill="#962213" opacity="1.00" d=" M 214.95 641.76 C 216.42 637.81 219.79 634.61 224.21 634.65 C 224.23 637.22 224.23 639.80 224.24 642.39 C 221.58 642.81 218.36 643.31 217.19 646.16 C 214.28 652.47 216.13 659.67 215.62 666.39 C 213.22 666.37 210.82 666.36 208.42 666.38 C 208.43 656.17 208.42 645.97 208.43 635.76 C 210.61 635.76 212.79 635.77 214.97 635.77 C 214.97 637.76 214.97 639.75 214.95 641.76 Z" />
<path fill="#962213" opacity="1.00" d=" M 228.62 637.62 C 232.77 634.82 238.09 634.96 242.87 635.41 C 246.44 635.75 250.15 638.17 250.73 641.92 C 251.73 650.03 250.15 658.31 251.85 666.37 C 249.55 666.35 247.25 666.35 244.95 666.35 C 244.65 664.60 244.36 662.87 244.13 661.13 C 241.29 667.14 233.02 668.79 227.65 665.30 C 222.65 662.05 222.32 653.65 227.31 650.25 C 232.22 646.88 238.49 647.06 244.19 646.89 C 243.84 645.09 244.29 642.72 242.56 641.54 C 238.58 639.07 232.10 640.05 230.56 645.00 C 228.53 644.70 226.51 644.41 224.49 644.11 C 225.27 641.63 226.29 639.02 228.62 637.62 M 231.08 657.02 C 231.17 662.31 238.65 662.76 241.63 659.60 C 244.03 657.36 244.06 653.93 244.13 650.91 C 239.53 651.25 232.02 651.09 231.08 657.02 Z" />
<path fill="#962213" opacity="1.00" d=" M 268.43 635.68 C 272.19 634.37 276.86 635.40 279.37 638.60 C 281.20 641.00 281.28 644.16 281.37 647.04 C 281.40 653.49 281.35 659.93 281.38 666.38 C 278.98 666.37 276.58 666.36 274.18 666.38 C 274.07 659.60 274.38 652.82 274.05 646.06 C 274.01 643.51 271.63 641.05 269.00 641.51 C 265.51 642.02 263.37 645.58 263.24 648.89 C 262.94 654.71 263.20 660.54 263.12 666.37 C 260.72 666.36 258.32 666.36 255.92 666.37 C 255.93 656.17 255.92 645.97 255.92 635.77 C 258.12 635.76 260.32 635.76 262.52 635.77 C 262.50 637.82 262.48 639.89 262.43 641.95 C 263.94 639.48 265.55 636.72 268.43 635.68 Z" />
<path fill="#962213" opacity="1.00" d=" M 289.22 636.17 C 295.73 633.73 305.33 634.83 307.78 642.45 C 305.60 642.95 303.41 643.42 301.22 643.82 C 299.26 639.31 291.40 638.96 289.98 644.04 C 294.35 648.31 301.32 646.47 306.07 650.02 C 309.35 652.62 309.58 657.57 308.12 661.21 C 305.94 665.61 300.50 666.99 295.97 667.12 C 290.38 667.40 283.78 665.08 282.19 659.12 C 284.44 658.66 286.70 658.24 288.97 657.85 C 291.29 661.80 296.74 662.51 300.52 660.35 C 302.18 659.21 302.04 656.56 300.08 655.82 C 295.48 654.01 289.82 654.66 286.01 651.07 C 281.66 646.77 283.53 638.37 289.22 636.17 Z" />
<path fill="#962213" opacity="1.00" d=" M 335.34 641.38 C 339.95 633.45 353.36 632.77 358.27 640.72 C 360.57 644.05 360.94 648.18 361.10 652.11 C 354.08 652.14 347.06 652.06 340.04 652.16 C 340.20 655.60 341.12 659.87 344.93 660.97 C 348.80 662.47 352.64 659.94 354.23 656.45 C 356.41 656.72 358.60 657.04 360.77 657.41 C 359.38 660.52 357.48 663.60 354.40 665.28 C 348.11 668.68 338.92 667.37 335.12 660.87 C 331.81 655.00 331.85 647.17 335.34 641.38 M 339.99 647.35 C 344.58 647.41 349.18 647.42 353.78 647.35 C 353.23 643.90 350.91 640.17 347.00 640.29 C 343.02 640.07 340.66 643.90 339.99 647.35 Z" />
<path fill="#962213" opacity="1.00" d=" M 370.39 641.85 C 371.92 637.92 375.22 634.58 379.71 634.64 C 379.73 636.62 379.78 638.62 379.66 640.62 C 378.25 643.43 374.07 642.95 372.82 645.93 C 369.69 652.25 371.66 659.60 371.12 666.37 C 368.72 666.36 366.32 666.36 363.92 666.37 C 363.93 656.17 363.92 645.97 363.92 635.77 C 366.11 635.76 368.30 635.76 370.50 635.77 C 370.48 637.79 370.45 639.81 370.39 641.85 Z" />
<path fill="#962213" opacity="1.00" d=" M 385.83 635.93 C 392.16 633.98 401.12 635.19 403.37 642.46 C 401.26 642.90 399.16 643.32 397.05 643.72 C 394.99 639.18 387.09 638.90 385.61 643.99 C 390.18 648.84 398.38 646.12 402.85 651.16 C 406.18 655.59 404.81 663.22 399.35 665.33 C 392.18 668.66 381.24 667.61 377.88 659.41 C 380.12 658.83 382.37 658.31 384.64 657.93 C 386.18 659.93 388.25 661.82 390.98 661.56 C 393.74 661.85 398.38 660.77 397.41 657.05 C 393.19 653.15 386.08 655.32 381.90 651.05 C 378.98 648.57 379.58 644.51 379.74 641.13 C 381.46 639.09 383.14 636.72 385.83 635.93 Z" />
<path fill="#962213" opacity="1.00" d=" M 405.48 644.10 C 406.40 639.08 411.01 635.71 415.95 635.38 C 420.60 635.07 426.21 634.55 429.79 638.18 C 432.21 640.46 431.97 644.02 432.07 647.06 C 432.24 653.50 431.51 660.01 432.85 666.37 C 430.55 666.35 428.26 666.35 425.96 666.35 C 425.66 664.63 425.38 662.90 425.14 661.19 C 422.12 667.34 413.40 668.92 408.09 664.90 C 403.59 661.40 403.52 653.55 408.29 650.26 C 413.21 646.88 419.48 647.06 425.20 646.88 C 424.84 645.08 425.28 642.68 423.53 641.52 C 419.53 639.07 413.08 640.06 411.55 645.01 C 409.53 644.71 407.49 644.40 405.48 644.10 M 412.22 656.16 C 411.20 660.48 416.48 662.64 419.92 661.19 C 424.34 659.96 425.33 654.88 425.14 650.92 C 420.67 651.29 414.02 650.98 412.22 656.16 Z" />
<path fill="#962213" opacity="1.00" d=" M 467.98 640.37 C 470.93 635.26 478.30 633.32 483.06 637.05 C 487.68 640.85 488.72 647.34 488.30 652.99 C 487.92 657.38 486.57 662.11 483.09 665.07 C 478.68 668.47 471.83 667.46 468.40 663.11 C 468.57 667.60 468.48 672.10 468.51 676.60 C 466.06 676.59 463.62 676.60 461.18 676.61 C 461.19 662.99 461.18 649.38 461.18 635.77 C 463.49 635.76 465.80 635.77 468.11 635.78 C 468.07 637.30 468.02 638.83 467.98 640.37 M 472.51 641.67 C 468.08 644.00 468.30 649.69 468.51 653.99 C 468.42 657.55 471.23 661.48 475.05 661.29 C 478.08 661.23 479.79 658.24 480.33 655.61 C 481.08 651.70 481.04 647.39 479.16 643.80 C 478.03 641.38 474.84 640.33 472.51 641.67 Z" />
<path fill="#962213" opacity="1.00" d=" M 492.06 641.03 C 496.81 633.48 509.69 632.90 514.64 640.51 C 517.03 643.88 517.44 648.10 517.61 652.11 C 510.59 652.13 503.57 652.09 496.55 652.13 C 496.75 655.48 497.48 659.58 501.11 660.85 C 505.01 662.57 509.16 660.08 510.75 656.43 C 512.91 656.71 515.08 657.02 517.25 657.37 C 515.99 660.19 514.43 663.06 511.73 664.76 C 505.35 668.92 495.28 667.57 491.43 660.56 C 488.31 654.59 488.36 646.74 492.06 641.03 M 496.49 647.35 C 501.08 647.42 505.68 647.41 510.28 647.36 C 509.78 643.75 507.14 639.94 503.10 640.30 C 499.26 640.33 497.18 644.04 496.49 647.35 Z" />
<path fill="#962213" opacity="1.00" d=" M 526.56 642.35 C 528.03 638.32 531.26 634.71 535.86 634.74 C 535.88 637.26 535.89 639.79 535.90 642.32 C 533.29 642.77 530.09 643.21 528.92 645.99 C 525.90 652.30 527.82 659.56 527.29 666.29 C 524.94 666.28 522.59 666.28 520.25 666.30 C 520.25 656.14 520.25 646.00 520.25 635.85 C 522.39 635.84 524.52 635.84 526.66 635.85 C 526.65 638.01 526.63 640.18 526.56 642.35 Z" />
<path fill="#962213" opacity="1.00" d=" M 557.50 635.74 C 561.80 635.02 566.48 634.76 570.59 636.48 C 573.06 637.67 574.96 640.15 575.06 642.96 C 575.78 650.71 574.44 658.60 576.02 666.29 C 573.76 666.28 571.51 666.28 569.26 666.29 C 568.94 664.45 568.64 662.62 568.41 660.78 C 565.68 667.24 556.55 668.99 551.27 664.71 C 546.77 661.10 546.98 653.03 552.04 650.02 C 556.94 646.96 562.95 647.12 568.51 646.91 C 568.20 645.00 568.59 642.50 566.66 641.34 C 562.63 639.10 556.28 639.99 554.78 644.93 C 552.78 644.64 550.78 644.34 548.79 644.04 C 549.74 639.80 553.20 636.47 557.50 635.74 M 555.28 656.95 C 555.17 662.00 562.02 662.78 565.25 660.25 C 568.21 658.10 568.46 654.20 568.45 650.87 C 563.83 651.19 556.20 650.98 555.28 656.95 Z" />
<path fill="#962213" opacity="1.00" d=" M 603.10 644.06 C 604.00 639.31 608.24 635.97 612.94 635.52 C 617.62 635.09 623.22 634.55 626.98 637.99 C 629.57 640.20 629.46 643.87 629.52 646.98 C 629.70 653.42 628.94 659.94 630.27 666.30 C 628.02 666.28 625.77 666.28 623.53 666.29 C 623.20 664.46 622.89 662.62 622.63 660.80 C 620.00 667.10 611.28 668.87 605.94 665.04 C 601.11 661.64 601.04 653.34 606.11 650.14 C 611.02 646.95 617.13 647.12 622.76 646.91 C 622.48 644.92 622.82 642.29 620.69 641.20 C 616.66 639.17 610.47 640.04 609.04 644.94 C 607.05 644.64 605.08 644.35 603.10 644.06 M 609.68 655.97 C 608.49 660.15 613.42 662.64 616.91 661.40 C 621.70 660.49 623.02 655.06 622.69 650.88 C 618.20 651.24 611.63 650.88 609.68 655.97 Z" />
<path fill="#962213" opacity="1.00" d=" M 669.81 642.31 C 671.26 638.26 674.57 634.72 679.14 634.73 C 679.14 637.25 679.14 639.78 679.15 642.31 C 676.48 642.75 673.21 643.26 672.10 646.14 C 669.18 652.42 671.06 659.61 670.53 666.29 C 668.18 666.28 665.84 666.28 663.50 666.29 C 663.50 656.14 663.49 646.00 663.50 635.85 C 665.63 635.84 667.76 635.84 669.90 635.85 C 669.89 638.00 669.86 640.14 669.81 642.31 Z" />
<path fill="#962213" opacity="1.00" d=" M 679.55 644.04 C 680.55 639.09 685.10 635.78 689.99 635.44 C 694.64 635.09 700.27 634.64 703.81 638.32 C 706.15 640.58 705.90 644.06 706.01 647.04 C 706.17 653.46 705.45 659.96 706.76 666.31 C 704.50 666.28 702.25 666.28 700.00 666.27 C 699.70 664.49 699.40 662.68 699.17 660.90 C 696.34 667.19 687.46 668.93 682.17 664.83 C 677.68 661.39 677.62 653.54 682.37 650.31 C 687.29 646.94 693.56 647.13 699.28 646.92 C 698.92 645.07 699.35 642.68 697.59 641.47 C 693.58 639.02 687.02 639.93 685.51 644.95 C 683.52 644.64 681.53 644.35 679.55 644.04 M 686.03 657.00 C 685.99 662.13 692.99 662.78 696.18 660.12 C 699.02 657.93 699.17 654.13 699.21 650.87 C 694.57 651.18 686.91 650.97 686.03 657.00 Z" />
<path fill="#962213" opacity="1.00" d=" M 723.65 635.69 C 727.35 634.48 731.89 635.57 734.32 638.71 C 736.07 641.07 736.22 644.15 736.29 646.99 C 736.30 653.42 736.27 659.86 736.29 666.29 C 733.94 666.28 731.59 666.28 729.25 666.30 C 729.20 659.83 729.34 653.37 729.21 646.91 C 729.35 644.34 727.61 641.48 724.85 641.39 C 720.91 641.28 718.24 645.24 718.16 648.86 C 717.85 654.66 718.13 660.47 718.04 666.28 C 715.69 666.28 713.34 666.28 711.00 666.29 C 710.98 656.14 710.98 646.00 711.01 635.85 C 713.16 635.84 715.31 635.84 717.48 635.85 C 717.46 637.97 717.44 640.11 717.39 642.25 C 718.94 639.65 720.62 636.74 723.65 635.69 Z" />
<path fill="#962213" opacity="1.00" d=" M 744.17 636.38 C 750.58 633.82 760.01 634.98 762.59 642.37 C 760.52 642.81 758.46 643.24 756.40 643.66 C 754.62 640.19 750.23 639.43 746.90 640.98 C 745.11 641.71 744.60 644.50 746.43 645.52 C 750.46 647.71 755.39 647.25 759.51 649.24 C 764.66 651.67 765.20 659.52 761.38 663.34 C 757.62 666.73 752.13 667.44 747.28 666.75 C 742.88 666.24 738.81 663.56 737.33 659.28 C 739.51 658.81 741.70 658.39 743.90 658.01 C 746.11 661.88 751.17 662.46 754.99 660.85 C 757.09 660.11 757.54 656.73 755.38 655.78 C 750.76 653.85 744.96 654.58 741.11 650.90 C 736.81 646.71 738.73 638.63 744.17 636.38 Z" />
<path fill="#962213" opacity="1.00" d=" M 790.42 635.62 C 795.09 634.53 800.48 635.51 803.85 639.13 C 809.32 644.92 809.61 654.69 805.27 661.20 C 800.35 668.69 787.39 669.22 782.71 661.23 C 776.96 652.84 779.63 638.27 790.42 635.62 M 792.24 641.28 C 788.93 642.18 787.69 645.88 787.37 648.94 C 787.08 652.46 787.25 656.48 789.67 659.28 C 792.33 662.36 798.12 661.48 799.57 657.60 C 801.21 653.45 801.23 648.54 799.50 644.42 C 798.37 641.64 795.01 640.37 792.24 641.28 Z" />
<path fill="#962213" opacity="1.00" d=" M 817.55 642.41 C 818.99 638.35 822.25 634.72 826.86 634.74 C 826.88 637.26 826.89 639.78 826.90 642.31 C 824.32 642.79 821.14 643.17 819.96 645.91 C 816.89 652.23 818.82 659.53 818.29 666.29 C 815.93 666.28 813.59 666.28 811.25 666.30 C 811.25 656.15 811.25 646.00 811.25 635.85 C 813.38 635.84 815.51 635.84 817.66 635.85 C 817.65 638.03 817.62 640.21 817.55 642.41 Z" />
<path fill="#962213" opacity="1.00" d=" M 835.21 641.87 C 837.23 637.83 841.34 634.64 846.07 635.24 C 850.02 635.14 852.82 638.39 854.09 641.82 C 856.14 638.29 859.58 635.05 863.94 635.22 C 868.91 634.76 873.82 638.84 873.89 643.92 C 874.08 651.37 873.89 658.83 873.96 666.29 C 871.48 666.28 869.00 666.28 866.53 666.29 C 866.40 659.33 866.80 652.34 866.36 645.40 C 865.91 641.39 860.47 640.57 857.75 642.79 C 855.50 644.44 854.97 647.38 854.92 650.00 C 854.80 655.43 854.94 660.86 854.89 666.30 C 852.41 666.28 849.93 666.28 847.47 666.29 C 847.27 659.21 847.87 652.07 847.17 645.02 C 846.73 641.81 842.78 640.67 840.17 642.02 C 837.14 643.35 835.73 646.81 835.77 649.96 C 835.67 655.40 835.79 660.85 835.74 666.30 C 833.32 666.28 830.90 666.28 828.49 666.29 C 828.49 656.14 828.48 645.99 828.49 635.84 C 830.76 635.84 833.03 635.84 835.31 635.85 C 835.28 637.85 835.27 639.86 835.21 641.87 Z" />
<path fill="#962213" opacity="1.00" d=" M 885.82 635.91 C 890.08 634.97 894.71 634.80 898.90 636.18 C 901.71 637.22 903.95 639.89 904.07 642.96 C 904.77 650.72 903.44 658.60 905.02 666.29 C 902.77 666.28 900.52 666.28 898.29 666.30 C 897.95 664.47 897.64 662.64 897.41 660.81 C 894.67 667.22 885.63 668.97 880.34 664.77 C 875.79 661.19 875.94 653.11 880.99 650.05 C 885.89 646.96 891.93 647.12 897.51 646.91 C 897.20 645.00 897.60 642.51 895.68 641.35 C 891.64 639.09 885.29 639.98 883.77 644.93 C 881.76 644.64 879.78 644.35 877.79 644.05 C 878.72 640.07 881.77 636.78 885.82 635.91 M 884.38 656.21 C 883.42 660.46 888.55 662.67 892.00 661.32 C 896.58 660.20 897.71 654.93 897.45 650.87 C 892.94 651.23 886.09 650.89 884.38 656.21 Z" />
<path fill="#962213" opacity="1.00" d=" M 909.88 640.85 C 913.74 634.56 923.50 633.24 928.96 638.09 C 931.15 640.09 931.88 643.08 932.76 645.81 C 930.74 646.09 928.74 646.38 926.74 646.67 C 926.08 645.21 925.76 643.52 924.64 642.33 C 922.12 640.00 917.52 640.85 916.10 644.02 C 914.18 647.96 914.00 652.72 915.39 656.86 C 916.24 659.51 919.07 661.43 921.88 660.68 C 924.64 660.16 925.69 657.27 926.70 655.02 C 928.71 655.23 930.72 655.42 932.75 655.66 C 931.89 658.29 931.17 661.14 929.21 663.22 C 924.28 668.74 914.01 668.25 910.04 661.84 C 906.07 655.66 905.93 647.05 909.88 640.85 Z" />
<path fill="#962213" opacity="1.00" d=" M 954.55 635.78 C 958.99 634.59 964.17 635.16 967.71 638.30 C 973.72 643.52 974.36 653.08 970.85 659.89 C 967.36 666.59 958.18 668.94 951.68 665.38 C 941.28 658.83 942.16 639.57 954.55 635.78 M 956.36 641.49 C 953.48 642.70 952.44 646.03 952.13 648.88 C 951.82 652.47 951.99 656.62 954.55 659.43 C 957.29 662.36 962.89 661.40 964.34 657.59 C 965.95 653.33 966.03 648.28 964.09 644.11 C 962.78 641.28 959.11 640.31 956.36 641.49 Z" />
<path fill="#962213" opacity="1.00" d=" M 991.14 636.40 C 997.55 633.80 1007.00 634.97 1009.60 642.37 C 1007.53 642.81 1005.47 643.24 1003.41 643.65 C 1001.65 640.14 997.21 639.45 993.90 640.98 C 992.13 641.74 991.60 644.47 993.41 645.52 C 997.70 647.87 1003.07 647.15 1007.31 649.70 C 1011.42 652.29 1011.79 658.52 1009.26 662.33 C 1005.90 666.47 1000.00 667.38 994.98 666.84 C 990.35 666.47 985.88 663.82 984.32 659.28 C 986.49 658.81 988.70 658.39 990.90 658.01 C 993.10 661.88 998.16 662.45 1001.97 660.86 C 1004.09 660.14 1004.55 656.75 1002.39 655.79 C 997.77 653.84 991.97 654.59 988.12 650.91 C 983.83 646.73 985.70 638.66 991.14 636.40 Z" />
<path fill="#962213" opacity="1.00" d=" M 1021.47 635.66 C 1025.70 634.68 1030.53 635.21 1033.95 638.09 C 1040.42 643.45 1041.06 653.86 1036.81 660.77 C 1032.18 668.42 1019.37 669.42 1014.31 661.74 C 1008.19 653.44 1010.60 638.55 1021.47 635.66 M 1022.44 641.68 C 1019.50 643.29 1018.73 646.97 1018.52 650.04 C 1018.43 653.18 1018.70 656.68 1020.83 659.18 C 1023.40 662.31 1029.19 661.58 1030.75 657.76 C 1032.48 653.56 1032.51 648.52 1030.71 644.34 C 1029.42 641.20 1025.31 640.19 1022.44 641.68 Z" />
<path fill="#962213" opacity="1.00" d=" M 1043.62 640.51 C 1047.28 634.97 1055.46 633.65 1061.02 636.97 C 1064.15 638.85 1065.34 642.49 1066.24 645.82 C 1064.24 646.10 1062.27 646.39 1060.29 646.68 C 1059.45 644.98 1059.14 642.75 1057.38 641.74 C 1054.60 640.11 1050.58 641.29 1049.44 644.37 C 1047.59 648.57 1047.38 653.69 1049.37 657.88 C 1050.58 660.48 1053.95 661.54 1056.51 660.29 C 1058.57 659.29 1059.25 656.93 1060.20 655.03 C 1062.19 655.22 1064.20 655.42 1066.22 655.64 C 1065.44 658.19 1064.75 660.90 1062.95 662.96 C 1058.04 668.83 1047.32 668.32 1043.38 661.61 C 1039.53 655.33 1039.44 646.65 1043.62 640.51 Z" />
<path fill="#962213" opacity="1.00" d=" M 1087.50 635.74 C 1091.80 635.02 1096.49 634.76 1100.60 636.48 C 1103.06 637.67 1104.95 640.15 1105.06 642.94 C 1105.78 650.70 1104.44 658.59 1106.02 666.29 C 1103.75 666.28 1101.50 666.28 1099.26 666.28 C 1098.93 664.45 1098.64 662.62 1098.41 660.78 C 1095.69 667.23 1086.61 668.98 1081.32 664.75 C 1076.78 661.17 1076.95 653.08 1082.01 650.04 C 1086.91 646.96 1092.94 647.12 1098.51 646.92 C 1098.20 644.98 1098.58 642.45 1096.61 641.31 C 1092.58 639.11 1086.27 640.01 1084.78 644.92 C 1082.77 644.64 1080.77 644.34 1078.79 644.04 C 1079.74 639.80 1083.20 636.47 1087.50 635.74 M 1085.28 657.06 C 1085.34 662.31 1092.72 662.82 1095.78 659.80 C 1098.32 657.56 1098.40 653.99 1098.45 650.87 C 1093.81 651.18 1086.07 651.00 1085.28 657.06 Z" />
<path fill="#962213" opacity="1.00" d=" M 138.25 635.92 C 140.58 635.92 142.92 635.91 145.25 635.92 C 145.26 646.03 145.25 656.15 145.25 666.26 C 142.92 666.25 140.58 666.25 138.25 666.27 C 138.25 656.15 138.25 646.03 138.25 635.92 Z" />
<path fill="#962213" opacity="1.00" d=" M 307.17 635.78 C 309.67 635.77 312.18 635.77 314.70 635.78 C 317.10 642.34 319.03 649.08 321.73 655.54 C 324.02 648.96 326.17 642.34 328.42 635.76 C 330.32 635.76 332.23 635.77 334.14 635.80 C 330.73 645.98 327.23 656.14 323.81 666.34 C 321.80 666.33 319.79 666.33 317.78 666.35 C 314.24 656.16 310.69 645.98 307.17 635.78 Z" />
<path fill="#962213" opacity="1.00" d=" M 934.50 635.92 C 936.82 635.92 939.16 635.91 941.50 635.92 C 941.50 646.03 941.50 656.15 941.50 666.26 C 939.16 666.25 936.82 666.25 934.50 666.26 C 934.49 656.15 934.50 646.03 934.50 635.92 Z" />
<path fill="#962213" opacity="1.00" d=" M 1068.01 635.92 C 1070.33 635.92 1072.66 635.92 1074.99 635.92 C 1075.03 646.03 1074.99 656.14 1075.01 666.26 C 1072.67 666.25 1070.33 666.25 1068.01 666.25 C 1068.01 656.14 1068.00 646.03 1068.01 635.92 Z" />
</g>
</svg>
