<?xml version="1.0" encoding="UTF-8" ?>
<!DOCTYPE svg PUBLIC "-//W3C//DTD SVG 1.1//EN" "http://www.w3.org/Graphics/SVG/1.1/DTD/svg11.dtd">
<svg width="970pt" height="721pt" viewBox="0 0 970 721" version="1.1" xmlns="http://www.w3.org/2000/svg">
<g id="#ffffffff">
<path fill="#ffffff" opacity="1.00" d=" M 0.00 0.00 L 970.00 0.00 L 970.00 721.00 L 938.70 721.00 C 940.78 720.05 942.71 718.81 944.59 717.50 C 944.90 718.51 945.22 719.53 945.57 720.56 C 948.20 720.51 950.85 720.49 953.50 720.51 C 950.33 712.42 953.10 703.66 951.46 695.36 C 950.60 691.57 946.55 689.75 943.01 689.42 C 938.75 689.06 934.05 688.90 930.26 691.20 C 927.71 692.69 926.67 695.58 925.49 698.11 C 927.89 698.56 930.30 699.01 932.73 699.45 C 934.33 696.39 937.54 694.87 940.92 695.90 C 943.37 696.06 943.52 698.77 944.06 700.58 C 939.25 702.10 934.08 702.42 929.44 704.46 C 924.51 706.78 923.51 713.99 926.93 717.99 C 928.14 719.33 929.81 720.14 931.39 721.00 L 900.79 721.00 C 906.35 720.02 909.93 715.24 911.25 710.04 C 908.56 709.56 905.85 709.11 903.16 708.69 C 902.45 710.17 901.91 711.76 900.92 713.08 C 897.78 715.98 892.01 714.04 891.22 709.85 C 890.09 705.20 889.66 698.05 895.16 696.06 C 898.64 694.62 901.61 697.51 902.90 700.48 C 905.52 700.02 908.14 699.55 910.77 699.07 C 909.50 695.16 907.01 691.29 902.86 690.05 C 897.33 688.45 890.49 688.89 886.29 693.25 C 881.89 697.75 881.49 704.72 882.69 710.58 C 883.75 715.77 888.07 719.88 893.21 721.00 L 868.66 721.00 C 878.89 718.85 883.74 706.11 878.85 697.23 C 874.22 687.89 859.88 686.50 853.05 694.07 C 848.02 699.72 847.71 708.77 851.76 715.04 C 853.86 718.32 857.59 719.99 861.23 721.00 L 837.63 721.00 C 840.53 720.15 843.56 718.93 845.31 716.32 C 847.96 712.78 847.66 706.80 843.72 704.32 C 838.44 700.95 831.71 701.39 826.40 698.04 C 829.34 694.05 836.28 694.22 838.48 698.88 C 841.05 698.43 843.61 697.96 846.19 697.50 C 845.02 694.66 843.46 691.66 840.38 690.56 C 835.45 688.70 829.68 688.67 824.78 690.60 C 819.51 692.66 817.62 700.25 821.57 704.38 C 825.98 708.41 832.38 708.24 837.67 710.41 C 838.73 710.65 839.01 712.47 838.36 713.21 C 836.68 715.40 833.46 715.49 830.99 715.01 C 828.53 714.70 827.49 712.22 826.18 710.49 C 823.48 710.91 820.79 711.35 818.11 711.84 C 819.71 716.50 823.53 720.04 828.40 721.00 L 792.65 721.00 C 803.40 718.71 807.91 704.78 802.02 695.99 C 796.77 687.72 783.63 686.96 777.00 693.92 C 772.49 698.85 771.94 706.42 774.24 712.49 C 776.03 717.12 780.57 719.95 785.26 721.00 L 748.69 721.00 C 754.17 719.92 757.71 715.23 759.04 710.07 C 756.38 709.56 753.71 709.11 751.05 708.68 C 749.95 710.59 749.40 713.29 747.06 714.09 C 743.48 715.65 739.21 712.78 738.80 709.01 C 738.08 704.57 737.68 697.85 742.93 696.07 C 746.52 694.57 749.39 697.56 750.82 700.51 C 753.42 700.00 756.03 699.51 758.64 699.02 C 757.39 696.24 756.11 693.26 753.49 691.51 C 749.92 689.05 745.28 688.89 741.14 689.53 C 735.52 690.44 731.03 695.33 730.26 700.92 C 729.64 705.80 729.61 711.26 732.60 715.43 C 734.52 718.40 737.74 720.25 741.15 721.00 L 713.50 721.00 C 715.38 720.10 717.16 719.01 719.06 718.13 C 719.70 718.91 720.35 719.70 721.02 720.50 C 723.45 720.53 725.88 720.46 728.32 720.50 C 725.33 712.44 727.68 703.75 726.34 695.47 C 725.60 691.52 721.33 689.80 717.77 689.41 C 713.33 689.02 708.39 688.92 704.59 691.61 C 702.37 693.15 701.43 695.78 700.37 698.14 C 702.80 698.60 705.25 699.02 707.70 699.45 C 709.29 695.23 716.74 693.81 718.48 698.43 C 719.99 701.27 715.79 701.25 714.08 701.85 C 709.27 703.03 702.70 703.21 700.48 708.51 C 698.21 713.47 701.19 719.32 706.24 721.00 L 617.61 721.00 C 621.21 719.91 624.69 717.93 626.77 714.70 C 631.48 707.71 630.29 696.82 623.06 691.96 C 616.02 687.14 604.75 688.63 600.27 696.25 C 597.22 701.28 597.23 707.86 599.55 713.17 C 601.46 717.46 605.80 719.97 610.22 721.00 L 569.77 721.00 C 572.66 720.18 575.60 718.87 577.42 716.37 C 580.21 712.80 579.87 706.64 575.76 704.21 C 571.16 701.34 565.49 701.34 560.60 699.20 C 558.99 698.85 559.13 696.09 560.86 695.93 C 564.36 694.36 568.87 695.24 570.70 698.87 C 573.25 698.45 575.81 697.99 578.36 697.52 C 577.12 694.13 574.81 690.83 571.08 689.99 C 565.93 688.84 560.03 688.59 555.39 691.49 C 550.61 694.58 550.33 702.71 555.36 705.71 C 560.18 708.33 565.78 708.87 570.94 710.63 C 571.29 714.92 566.24 715.94 562.97 714.95 C 560.69 714.46 559.69 712.10 558.15 710.63 C 555.46 710.80 552.83 711.34 550.19 711.82 C 552.01 716.54 555.99 720.42 561.18 721.00 L 501.85 721.00 C 504.11 720.22 506.19 719.02 508.24 717.80 C 508.46 718.46 508.90 719.79 509.12 720.45 C 511.78 720.47 514.45 720.49 517.12 720.51 C 514.18 712.66 516.37 704.28 515.31 696.21 C 514.96 692.32 511.12 690.07 507.60 689.56 C 503.34 688.99 498.74 688.90 494.76 690.74 C 491.86 692.06 490.59 695.17 489.09 697.76 C 491.53 698.55 494.05 699.03 496.58 699.49 C 497.98 697.16 500.07 694.99 503.07 695.71 C 506.06 695.22 507.27 698.01 508.08 700.32 C 502.87 702.37 496.91 702.22 492.05 705.13 C 486.16 709.19 488.34 719.36 495.26 721.00 L 465.68 721.00 C 466.47 720.85 468.05 720.54 468.84 720.39 C 468.68 718.17 468.47 715.95 468.28 713.74 C 466.50 713.92 464.73 714.09 462.95 714.20 C 462.61 708.32 462.78 702.43 462.75 696.54 C 464.57 696.51 466.41 696.48 468.25 696.46 C 468.26 694.34 468.28 692.23 468.32 690.12 C 466.46 690.05 464.60 689.98 462.75 689.94 C 462.75 686.29 462.75 682.65 462.75 679.01 C 459.97 680.63 457.20 682.25 454.45 683.91 C 454.49 685.87 454.54 687.84 454.61 689.81 C 453.30 689.89 452.00 689.99 450.70 690.12 C 450.75 692.25 450.80 694.40 450.88 696.56 C 451.78 696.54 453.59 696.51 454.49 696.49 C 454.73 702.98 454.03 709.52 454.87 715.98 C 455.02 718.48 457.11 719.97 459.16 721.00 L 0.00 721.00 L 0.00 0.00 M 69.20 4.12 C 65.33 7.13 63.24 11.74 60.82 15.88 C 51.89 32.01 44.58 50.01 29.96 61.99 C 27.24 64.57 26.03 68.35 25.79 72.01 C 25.07 83.15 29.20 94.37 26.21 105.40 C 24.71 111.96 18.71 116.28 17.38 122.91 C 13.70 138.18 20.06 153.73 17.54 169.10 C 16.84 173.55 14.91 177.70 12.41 181.42 C 9.27 185.99 8.88 191.76 9.36 197.13 C 10.71 210.31 16.33 222.71 16.98 236.00 C 17.34 242.41 15.93 248.97 12.39 254.38 C 6.95 262.76 6.24 273.24 7.78 282.87 C 10.21 298.05 16.40 312.25 20.70 326.93 C 22.33 332.51 23.38 338.24 25.18 343.78 C 27.86 352.66 31.90 361.57 30.89 371.07 C 29.95 381.22 23.20 389.34 19.80 398.67 C 7.26 430.18 2.64 464.28 1.31 497.98 C 0.70 525.42 3.15 552.84 6.99 579.99 C 9.91 599.22 13.18 618.49 19.04 637.07 C 23.20 650.63 27.34 664.21 32.39 677.47 C 35.59 686.13 39.42 694.64 45.05 702.01 C 50.83 709.49 57.66 717.17 67.03 719.90 C 71.70 720.41 77.76 721.16 80.94 716.86 C 83.75 712.88 83.29 707.70 83.20 703.09 C 82.10 688.95 78.18 675.17 77.41 660.99 C 76.69 648.72 76.78 636.38 77.80 624.13 C 79.43 603.90 85.09 584.29 91.35 565.07 C 94.49 555.31 98.97 546.02 104.26 537.24 C 112.72 523.46 122.10 509.92 134.39 499.26 C 148.31 487.22 166.22 478.75 184.92 479.22 C 198.48 479.29 211.61 484.52 222.51 492.40 C 238.41 503.24 252.86 516.91 261.99 534.04 C 272.38 553.20 276.74 574.80 280.96 595.98 C 285.60 619.34 286.42 643.23 286.51 666.98 C 286.73 672.31 286.94 678.16 290.26 682.62 C 292.63 685.90 297.31 686.46 300.77 684.67 C 308.28 681.09 313.10 673.71 316.55 666.42 C 326.75 645.16 332.14 622.01 336.27 598.91 C 340.05 576.67 342.39 554.21 344.23 531.74 C 346.02 508.18 346.68 484.43 344.18 460.90 C 343.80 458.25 345.46 455.95 346.27 453.55 C 352.26 438.05 357.03 422.12 362.68 406.50 C 372.33 383.95 384.71 362.26 390.15 338.16 C 391.31 332.35 391.88 326.26 390.43 320.46 C 388.55 313.17 381.70 307.10 373.99 307.27 C 366.98 307.50 360.68 311.13 354.98 314.91 C 339.31 325.61 326.20 339.51 311.40 351.29 C 308.01 344.58 304.09 338.15 300.28 331.68 C 288.44 311.86 271.96 294.67 252.04 282.89 C 227.77 268.44 199.05 261.72 170.89 263.48 C 154.54 264.95 138.46 268.85 122.94 274.11 C 115.01 276.85 107.21 280.12 100.24 284.83 C 102.33 272.16 107.26 259.99 107.74 247.05 C 107.94 241.70 106.89 236.25 104.21 231.57 C 102.03 227.75 101.04 223.36 101.03 218.99 C 101.51 202.85 111.39 188.37 110.23 172.04 C 110.27 165.98 106.18 160.93 105.88 154.93 C 104.58 139.76 110.58 125.16 110.38 110.04 C 110.31 105.47 109.30 100.91 107.06 96.90 C 104.46 92.02 103.71 86.43 103.62 80.97 C 103.53 68.24 106.68 55.65 105.56 42.90 C 105.09 37.34 103.08 32.07 101.08 26.91 C 97.68 18.71 93.05 10.54 85.63 5.35 C 80.93 2.07 74.22 0.94 69.20 4.12 M 765.76 338.84 C 765.77 348.88 765.70 358.92 765.79 368.95 C 759.60 369.06 753.40 368.94 747.21 369.04 C 747.27 373.94 747.26 378.84 747.23 383.73 C 741.06 377.58 733.39 372.83 724.90 370.73 C 712.89 367.60 700.37 367.55 688.05 367.83 C 675.62 368.53 662.54 370.69 652.25 378.18 C 642.10 385.49 636.05 397.09 632.82 408.92 C 644.28 411.07 655.75 413.18 667.23 415.29 C 669.06 410.30 671.37 405.19 675.56 401.72 C 681.30 397.15 689.07 396.71 696.11 397.04 C 701.94 397.46 708.39 398.03 712.99 402.05 C 718.00 406.98 718.15 414.57 718.00 421.14 C 696.65 429.49 672.95 429.50 651.91 438.78 C 640.03 443.88 631.64 455.31 629.37 467.93 C 629.57 462.79 629.49 457.64 629.48 452.50 C 598.65 452.52 567.82 452.47 536.99 452.52 C 537.01 464.51 537.00 476.49 536.99 488.48 C 553.34 488.56 569.68 488.41 586.03 488.55 C 585.88 497.41 586.16 506.29 585.91 515.15 C 576.62 522.56 565.50 527.56 554.12 530.83 C 535.15 535.97 513.12 533.25 497.98 520.00 C 484.61 508.94 478.41 491.67 476.52 474.87 C 474.52 456.41 475.03 436.93 482.65 419.69 C 489.44 404.09 504.24 392.53 520.88 389.22 C 533.18 386.82 546.43 386.78 558.18 391.61 C 570.86 396.71 580.40 408.18 583.99 421.28 C 598.29 418.90 612.50 415.97 626.77 413.44 C 623.15 395.71 613.61 378.98 599.04 368.03 C 583.40 356.00 563.30 351.72 543.95 350.97 C 527.53 350.22 510.77 351.66 495.19 357.16 C 482.03 362.13 469.92 369.99 460.12 380.10 C 444.87 395.88 435.91 416.99 432.72 438.54 C 429.69 459.68 431.09 481.59 437.82 501.92 C 443.07 517.69 451.51 532.70 463.93 543.93 C 477.40 556.29 494.60 564.22 512.49 567.63 C 537.25 572.36 563.25 570.16 586.93 561.53 C 601.35 556.18 615.62 549.51 627.32 539.33 C 628.18 538.35 629.80 537.54 629.50 535.98 C 629.46 518.60 629.58 501.21 629.42 483.83 C 631.47 491.43 634.68 498.97 640.55 504.43 C 650.79 515.24 666.57 518.46 680.93 517.51 C 696.06 516.77 710.35 509.53 721.00 498.94 C 722.59 504.14 724.01 509.40 725.96 514.49 C 738.58 514.50 751.20 514.51 763.83 514.48 C 760.21 506.70 757.01 498.57 756.08 489.97 C 754.80 478.37 754.83 466.66 755.26 455.01 C 754.99 437.10 756.78 419.09 754.28 401.28 C 758.10 401.24 761.93 401.22 765.76 401.26 C 765.77 427.19 765.71 453.12 765.79 479.05 C 766.23 490.45 766.29 503.07 773.58 512.55 C 780.63 520.51 791.64 523.81 801.99 524.24 C 813.87 524.67 825.97 523.06 836.92 518.29 C 836.25 512.09 835.42 505.91 835.00 499.69 C 839.78 507.76 846.38 514.74 854.34 519.74 C 867.00 527.71 882.26 530.24 896.99 530.51 C 913.15 530.79 930.11 528.86 944.13 520.21 C 955.00 513.18 963.81 502.06 965.95 489.06 C 967.70 477.63 965.98 464.90 958.15 455.94 C 951.38 448.29 941.59 444.32 932.21 440.91 C 914.52 434.69 895.62 432.68 878.14 425.82 C 873.78 424.36 869.89 419.86 871.37 415.05 C 872.59 410.00 877.92 407.75 882.49 406.67 C 891.31 404.85 900.66 404.45 909.45 406.71 C 917.15 408.66 922.87 415.30 924.93 422.81 C 937.23 420.76 949.48 418.37 961.76 416.17 C 958.59 404.35 951.54 393.29 941.11 386.64 C 930.42 379.82 917.44 378.05 905.03 377.31 C 891.28 376.76 877.15 377.24 864.08 381.97 C 851.48 386.43 840.80 396.67 836.70 409.50 C 834.35 417.63 834.31 426.46 836.59 434.61 C 839.87 446.22 849.47 455.27 860.51 459.62 C 875.41 465.76 891.17 469.43 906.81 473.13 C 912.48 474.55 918.54 475.33 923.56 478.54 C 929.19 482.67 928.14 491.96 923.04 496.11 C 917.96 500.22 911.28 501.58 904.93 502.08 C 897.01 502.65 888.64 502.14 881.54 498.27 C 874.55 494.37 870.21 486.92 868.74 479.21 C 855.61 480.81 842.58 483.13 829.48 484.95 C 829.63 485.73 829.92 487.27 830.07 488.05 C 825.51 489.48 820.81 491.00 815.97 490.71 C 811.74 490.44 807.37 487.38 806.85 482.97 C 806.12 477.35 806.25 471.68 806.25 466.03 C 806.25 444.44 806.25 422.85 806.24 401.26 C 815.32 401.24 824.40 401.25 833.48 401.25 C 833.51 390.50 833.50 379.75 833.48 369.00 C 824.39 368.98 815.30 369.06 806.21 368.95 C 806.24 351.01 806.34 333.06 806.16 315.13 C 792.70 323.05 779.17 330.85 765.76 338.84 M 432.51 616.50 C 432.51 625.00 432.48 633.49 432.51 641.99 C 432.72 645.99 432.71 650.35 435.12 653.77 C 437.57 657.30 441.85 659.10 446.05 659.35 C 451.66 659.84 458.18 659.59 462.38 655.30 C 465.63 652.11 465.93 647.28 466.00 643.02 C 466.01 634.18 465.99 625.35 466.00 616.53 C 463.13 616.51 460.27 616.49 457.41 616.42 C 456.94 626.27 457.56 636.15 457.10 645.99 C 456.95 652.13 448.72 653.50 444.44 650.71 C 441.80 649.11 441.28 645.86 441.27 643.04 C 441.20 634.20 441.27 625.36 441.25 616.52 C 438.33 616.50 435.42 616.49 432.51 616.50 M 604.00 616.51 C 603.99 619.08 604.00 621.66 604.00 624.25 C 606.74 624.24 609.49 624.24 612.24 624.24 C 612.24 621.66 612.24 619.08 612.25 616.51 C 609.49 616.50 606.74 616.50 604.00 616.51 M 677.26 622.20 C 677.27 624.26 677.19 626.32 676.91 628.37 C 676.12 628.34 674.54 628.27 673.74 628.24 C 673.74 630.38 673.75 632.52 673.76 634.67 C 674.91 634.71 676.07 634.76 677.24 634.82 C 677.53 641.81 676.55 648.99 678.17 655.86 C 680.77 660.76 687.43 659.77 691.86 658.39 C 691.60 656.27 691.36 654.16 691.15 652.06 C 689.40 652.26 687.65 652.38 685.91 652.36 C 685.61 646.49 685.79 640.61 685.75 634.74 C 687.48 634.75 689.22 634.76 690.96 634.79 C 690.97 632.59 690.98 630.40 690.97 628.21 C 689.22 628.23 687.48 628.23 685.76 628.26 C 685.75 624.58 685.77 620.91 685.67 617.24 C 682.84 618.86 680.03 620.50 677.26 622.20 M 876.00 616.51 C 876.04 630.60 875.93 644.69 876.05 658.78 C 878.82 658.74 881.60 658.74 884.39 658.80 C 884.64 644.70 884.43 630.60 884.49 616.50 C 881.65 616.49 878.82 616.50 876.00 616.51 M 471.83 628.21 C 471.68 638.39 471.73 648.58 471.81 658.77 C 474.52 658.74 477.23 658.75 479.95 658.79 C 480.22 652.21 479.55 645.58 480.46 639.05 C 480.85 635.06 485.86 632.63 489.26 634.68 C 491.39 636.02 491.22 638.85 491.46 641.05 C 491.59 646.93 491.46 652.82 491.49 658.71 C 494.24 658.74 497.00 658.75 499.77 658.77 C 499.72 652.17 499.77 645.57 499.76 638.97 C 499.76 635.83 499.28 632.39 496.97 630.07 C 491.86 625.67 484.02 627.25 479.48 631.73 C 479.49 630.87 479.49 629.14 479.50 628.28 C 476.94 628.25 474.38 628.24 471.83 628.21 M 518.03 628.22 C 517.96 642.23 518.02 656.24 518.00 670.25 C 520.74 670.24 523.49 670.24 526.24 670.23 C 526.25 665.40 526.26 660.57 526.23 655.74 C 528.86 657.54 531.61 659.72 535.01 659.53 C 541.32 659.67 546.59 654.22 547.45 648.18 C 548.64 641.58 547.77 633.27 541.58 629.36 C 536.57 625.95 529.67 627.43 525.74 631.79 C 525.74 630.90 525.75 629.12 525.76 628.23 C 523.18 628.24 520.60 628.24 518.03 628.22 M 562.24 628.17 C 560.76 629.19 559.59 630.59 558.34 631.87 C 558.39 630.97 558.51 629.18 558.56 628.28 C 555.95 628.25 553.35 628.24 550.75 628.26 C 550.75 638.42 550.76 648.57 550.75 658.73 C 553.58 658.75 556.41 658.75 559.25 658.74 C 559.30 653.49 559.14 648.25 559.29 643.01 C 559.44 640.29 559.84 637.01 562.34 635.41 C 564.31 634.40 566.49 635.59 568.49 635.95 C 569.26 633.62 570.22 631.33 570.64 628.91 C 568.11 627.59 564.89 626.76 562.24 628.17 M 578.49 628.65 C 568.18 632.59 566.24 647.82 573.67 655.29 C 579.54 660.61 589.59 661.11 595.60 655.74 C 601.74 650.54 602.53 640.52 598.16 633.99 C 593.99 627.71 585.25 626.00 578.49 628.65 M 604.06 628.20 C 603.91 637.79 604.06 647.38 604.00 656.97 C 603.90 658.73 603.91 660.56 603.36 662.27 C 602.01 663.50 600.10 663.16 598.44 663.38 C 598.02 665.71 597.57 668.05 597.20 670.40 C 601.34 671.01 606.49 672.01 609.78 668.70 C 612.51 665.88 611.93 661.58 612.24 657.99 C 612.21 648.07 612.34 638.14 612.16 628.22 C 609.46 628.24 606.76 628.24 604.06 628.20 M 618.06 633.14 C 614.36 638.86 614.26 646.68 617.23 652.73 C 620.23 658.73 627.86 660.47 633.97 659.13 C 638.57 658.31 642.08 654.50 643.52 650.19 C 640.80 649.74 638.08 649.30 635.36 648.92 C 634.28 651.43 632.03 654.06 628.97 653.15 C 625.51 652.59 623.97 649.12 623.52 646.03 C 630.31 645.93 637.09 646.09 643.88 645.92 C 643.72 641.53 643.53 636.84 640.93 633.09 C 635.88 625.56 623.06 625.52 618.06 633.14 M 647.15 635.12 C 644.48 641.39 644.68 649.49 649.14 654.92 C 653.67 660.09 661.81 660.69 667.79 657.89 C 671.57 656.07 673.64 652.13 674.44 648.17 C 671.77 647.74 669.10 647.31 666.43 646.93 C 665.64 648.82 665.22 651.28 663.09 652.15 C 659.58 654.00 655.09 651.40 654.48 647.60 C 653.71 643.43 653.21 637.82 657.03 634.97 C 660.47 632.66 665.25 634.59 665.97 638.69 C 668.66 638.28 671.34 637.82 674.04 637.40 C 671.83 624.87 651.90 624.08 647.15 635.12 M 695.09 632.03 C 691.51 636.02 690.95 641.78 691.56 646.90 C 692.05 651.73 694.90 656.58 699.58 658.38 C 704.56 660.16 710.59 660.05 715.03 656.93 C 717.38 655.34 718.54 652.65 719.70 650.18 C 716.93 649.76 714.19 649.32 711.42 648.96 C 710.46 650.78 709.39 653.08 707.01 653.19 C 702.83 653.90 699.95 649.76 699.64 646.03 C 706.45 645.96 713.27 646.02 720.09 646.00 C 719.89 641.75 719.65 637.28 717.37 633.56 C 712.83 626.07 700.64 625.30 695.09 632.03 M 744.15 631.98 C 744.18 631.06 744.26 629.20 744.30 628.27 C 741.69 628.25 739.09 628.25 736.50 628.27 C 736.51 642.26 736.48 656.25 736.52 670.25 C 739.34 670.24 742.17 670.24 745.00 670.24 C 745.00 665.40 745.00 660.55 744.99 655.71 C 748.81 659.54 755.04 660.86 759.75 657.85 C 766.06 654.04 767.33 645.67 766.12 638.97 C 765.39 632.64 759.63 626.85 753.02 627.48 C 749.46 627.42 746.63 629.73 744.15 631.98 M 769.78 633.98 C 766.32 640.38 766.49 649.11 770.99 655.00 C 777.70 662.55 793.10 660.70 795.72 650.12 C 792.98 649.69 790.23 649.28 787.48 649.01 C 786.56 651.68 784.01 654.08 780.98 653.10 C 777.62 652.47 776.22 649.02 775.76 646.02 C 782.52 645.97 789.29 646.01 796.06 646.00 C 796.06 641.33 795.71 636.25 792.70 632.44 C 787.13 625.26 774.21 625.84 769.78 633.98 M 799.23 628.25 C 799.27 638.42 799.25 648.60 799.24 658.77 C 801.99 658.75 804.75 658.74 807.52 658.70 C 807.82 651.75 806.60 644.55 808.60 637.79 C 809.74 634.08 814.01 634.97 816.78 635.97 C 817.57 633.59 818.39 631.22 819.19 628.84 C 816.90 628.04 814.49 627.02 812.04 627.65 C 809.87 628.07 808.54 629.99 807.01 631.40 C 806.99 630.60 806.94 629.01 806.91 628.21 C 804.34 628.24 801.78 628.25 799.23 628.25 M 831.37 636.32 C 833.86 636.84 836.37 637.30 838.90 637.68 C 840.20 633.72 844.94 633.11 848.31 634.66 C 849.41 635.69 849.47 637.36 850.00 638.72 C 845.10 640.52 839.66 640.53 834.97 642.89 C 829.57 645.68 829.36 654.31 834.35 657.64 C 839.37 661.11 846.03 659.39 850.58 655.93 C 850.76 656.64 851.12 658.05 851.30 658.76 C 854.05 658.75 856.81 658.74 859.58 658.72 C 855.84 650.57 859.10 641.35 857.15 632.88 C 854.47 626.86 846.52 627.17 840.99 627.76 C 836.19 628.06 832.74 631.96 831.37 636.32 M 888.09 636.40 C 890.44 636.84 892.79 637.35 895.18 637.65 C 896.60 636.30 897.60 633.96 899.89 634.00 C 901.79 633.94 904.17 633.68 905.57 635.30 C 906.12 636.43 907.15 638.87 905.14 639.17 C 900.57 640.71 895.48 640.70 891.23 643.11 C 886.08 646.22 886.19 654.79 891.32 657.87 C 896.06 660.82 902.20 659.53 906.48 656.35 C 906.90 656.89 907.74 657.99 908.16 658.54 C 910.76 658.95 913.42 658.71 916.05 658.79 C 912.48 650.38 916.02 641.10 913.62 632.51 C 910.47 626.69 902.67 627.15 897.03 627.85 C 892.44 628.32 889.23 632.16 888.09 636.40 M 789.33 677.57 C 787.32 680.12 786.41 683.38 784.94 686.26 C 786.62 686.25 788.32 686.30 790.01 686.17 C 793.12 683.69 795.62 680.52 798.22 677.52 C 795.25 677.50 792.28 677.35 789.33 677.57 M 586.68 679.70 C 583.51 682.11 584.39 686.54 583.91 690.00 C 582.52 689.99 581.13 690.00 579.75 690.01 C 579.75 692.17 579.75 694.34 579.76 696.52 C 581.13 696.48 582.50 696.44 583.88 696.40 C 584.14 704.30 583.93 712.21 584.01 720.11 C 586.82 720.17 589.64 720.19 592.46 720.17 C 592.54 712.28 592.48 704.39 592.49 696.50 C 594.49 696.49 596.49 696.48 598.50 696.49 C 598.49 694.31 598.49 692.15 598.49 690.00 C 596.46 689.99 594.44 689.99 592.43 690.00 C 592.66 688.09 591.89 685.44 593.96 684.32 C 595.75 683.76 597.66 684.32 599.51 684.35 C 599.83 682.40 600.14 680.44 600.47 678.50 C 595.94 677.76 590.62 676.66 586.68 679.70 M 761.51 678.51 C 761.49 680.96 761.48 683.43 761.43 685.90 C 764.21 686.00 767.00 686.01 769.79 685.97 C 769.75 683.47 769.73 680.97 769.70 678.48 C 766.96 678.49 764.23 678.50 761.51 678.51 M 956.73 678.57 C 956.79 692.43 956.72 706.28 956.76 720.13 C 959.49 720.25 962.24 720.29 964.98 720.21 C 964.97 706.29 965.09 692.36 964.92 678.44 C 962.18 678.48 959.45 678.51 956.73 678.57 M 913.74 678.53 C 913.74 681.01 913.75 683.50 913.76 686.00 C 916.50 685.99 919.25 685.99 922.00 686.00 C 921.99 683.50 921.99 681.00 922.00 678.51 C 919.24 678.50 916.49 678.50 913.74 678.53 M 478.20 693.14 C 478.21 692.36 478.23 690.79 478.24 690.00 C 475.66 689.99 473.09 689.99 470.52 689.99 C 470.50 700.06 470.47 710.12 470.54 720.18 C 473.27 720.15 476.02 720.09 478.76 720.01 C 479.16 713.06 477.65 705.70 480.14 699.04 C 481.54 695.81 485.42 696.71 487.96 697.89 C 488.78 695.49 489.60 693.09 490.44 690.71 C 488.37 689.85 486.17 688.90 483.88 689.31 C 481.42 689.49 479.89 691.63 478.20 693.14 M 528.03 694.03 C 528.00 692.68 527.99 691.33 527.97 690.00 C 525.48 689.99 523.00 689.99 520.52 690.00 C 520.49 700.02 520.48 710.05 520.52 720.08 C 523.27 720.24 526.02 720.23 528.78 720.06 C 528.89 713.70 528.40 707.32 529.02 701.00 C 529.24 697.58 532.76 695.18 536.04 695.75 C 538.53 695.95 539.91 698.62 539.91 700.90 C 540.15 707.26 539.92 713.64 540.00 720.01 C 542.74 720.07 545.48 720.09 548.23 720.07 C 548.12 712.37 548.53 704.65 548.04 696.97 C 547.66 692.02 542.59 689.00 537.98 689.21 C 534.05 689.03 530.59 691.24 528.03 694.03 M 644.46 689.65 C 642.57 690.41 641.38 692.17 639.99 693.57 C 639.99 692.68 639.99 690.89 639.99 690.00 C 637.49 689.99 635.00 689.99 632.51 690.00 C 632.51 700.05 632.46 710.10 632.54 720.16 C 635.27 720.23 638.01 720.22 640.76 720.10 C 641.17 713.12 639.64 705.77 642.10 699.07 C 643.48 695.84 647.38 696.67 649.90 697.93 C 650.48 696.15 651.08 694.38 651.76 692.65 C 652.29 701.78 651.86 710.93 652.00 720.07 C 654.82 720.22 657.63 720.26 660.46 720.19 C 660.80 713.42 659.93 706.55 660.93 699.84 C 661.52 695.76 668.45 693.73 669.98 698.09 C 671.13 705.37 670.19 712.79 670.53 720.13 C 673.27 720.19 676.01 720.17 678.76 720.05 C 678.92 713.67 678.35 707.25 679.09 700.90 C 679.35 697.60 682.66 694.90 685.97 695.84 C 688.55 696.67 688.57 699.78 688.71 702.00 C 688.85 708.08 688.68 714.15 688.77 720.23 C 691.51 720.20 694.25 720.12 696.99 720.01 C 696.84 712.28 697.35 704.53 696.72 696.82 C 696.34 692.53 692.29 689.35 688.12 689.25 C 684.11 688.72 680.41 690.87 677.74 693.67 C 675.93 691.72 673.94 689.56 671.11 689.37 C 666.77 688.47 662.66 690.62 659.69 693.62 C 659.71 692.40 659.73 691.18 659.76 689.97 C 657.10 689.98 654.45 690.13 651.81 690.00 C 649.37 689.80 646.86 688.72 644.46 689.65 M 761.51 689.99 C 761.50 700.04 761.46 710.08 761.54 720.13 C 764.27 720.17 767.01 720.15 769.76 720.06 C 769.75 710.05 769.71 700.05 769.78 690.04 C 767.02 690.00 764.26 689.99 761.51 689.99 M 913.76 690.00 C 913.76 700.05 913.72 710.10 913.78 720.15 C 916.51 720.18 919.24 720.17 921.99 720.14 C 922.01 710.09 921.99 700.05 922.00 690.00 C 919.25 689.99 916.50 689.99 913.76 690.00 Z" />
<path fill="#ffffff" opacity="1.00" d=" M 75.57 38.67 C 77.38 43.55 77.23 48.86 77.66 53.98 C 78.90 78.63 78.76 103.32 78.76 128.00 C 78.40 151.02 78.51 174.05 76.92 197.03 C 74.66 235.77 70.98 274.41 68.40 313.12 C 67.91 318.75 67.34 324.57 64.80 329.70 C 63.94 331.62 61.62 333.79 59.44 332.37 C 55.74 329.73 54.17 325.18 52.58 321.11 C 47.70 306.51 45.85 291.15 44.09 275.92 C 39.21 234.12 40.71 191.74 46.56 150.12 C 49.18 132.09 53.36 114.26 54.64 96.05 C 55.16 88.95 54.62 81.50 57.60 74.84 C 59.21 70.63 62.88 67.75 64.93 63.80 C 69.39 55.85 72.97 47.40 75.57 38.67 Z" />
<path fill="#ffffff" opacity="1.00" d=" M 121.80 306.83 C 139.16 296.22 159.66 290.99 179.98 291.74 C 193.78 292.30 207.96 293.67 220.65 299.55 C 230.96 304.22 240.71 310.27 249.15 317.84 C 260.29 328.20 269.13 340.85 276.24 354.24 C 265.49 347.98 255.31 340.26 243.24 336.67 C 237.96 335.03 231.50 335.27 227.44 339.47 C 222.84 344.00 222.37 350.89 222.80 356.97 C 223.81 369.02 227.89 380.54 232.26 391.73 C 237.68 405.21 244.09 418.28 251.12 430.99 C 255.06 438.38 260.51 444.81 266.06 451.03 C 273.14 458.92 280.81 466.29 289.04 472.98 C 296.04 478.40 303.35 483.82 311.90 486.48 C 313.10 515.04 311.52 543.66 307.97 572.01 C 307.29 577.06 306.79 582.15 305.59 587.12 C 300.64 566.79 296.49 546.18 289.36 526.47 C 282.38 509.08 271.88 492.79 257.37 480.74 C 241.82 467.66 223.63 456.39 203.16 453.57 C 191.51 451.67 179.48 451.68 167.97 454.46 C 144.11 460.33 122.55 473.94 105.61 491.59 C 79.61 518.75 63.79 554.37 56.19 590.89 C 51.26 614.90 49.94 639.68 52.69 664.05 C 45.85 640.90 40.77 617.25 36.78 593.45 C 30.99 556.97 27.20 519.87 30.15 482.95 C 30.96 473.82 32.19 464.68 34.69 455.85 C 37.85 444.68 40.13 433.22 44.41 422.40 C 45.66 419.76 46.64 416.73 48.98 414.83 C 52.93 417.57 55.68 421.93 60.28 423.76 C 64.00 425.51 68.50 424.20 71.19 421.23 C 79.00 413.45 82.46 402.48 84.24 391.86 C 86.38 377.94 86.30 363.72 89.37 349.93 C 91.17 341.27 94.46 332.82 99.77 325.69 C 105.55 317.81 113.44 311.76 121.80 306.83 Z" />
<path fill="#ffffff" opacity="1.00" d=" M 311.42 381.35 C 330.99 366.90 347.50 348.68 367.35 334.60 C 361.42 356.54 350.42 376.61 341.49 397.39 C 335.23 414.28 330.19 431.62 323.46 448.34 C 321.21 453.39 319.38 458.77 315.98 463.20 C 312.69 462.06 310.00 459.76 307.21 457.78 C 296.71 449.76 286.99 440.66 278.66 430.39 C 271.31 421.55 265.99 411.25 261.22 400.86 C 255.78 388.90 251.04 376.62 247.37 364.01 C 257.65 369.28 266.95 376.25 276.83 382.20 C 282.40 385.52 288.25 389.77 295.09 388.98 C 301.19 388.27 306.49 384.77 311.42 381.35 Z" />
<path fill="#ffffff" opacity="1.00" d=" M 687.06 453.80 C 697.36 451.22 707.84 449.41 718.00 446.28 C 717.96 453.88 718.26 461.53 717.11 469.07 C 716.10 475.75 711.73 481.57 706.08 485.11 C 699.31 489.57 690.87 491.96 682.81 490.23 C 675.34 488.65 668.99 482.46 667.56 474.91 C 666.49 469.90 668.03 464.37 671.79 460.82 C 675.82 456.65 681.68 455.34 687.06 453.80 Z" />
<path fill="#ffffff" opacity="1.00" d=" M 530.48 634.59 C 533.95 632.84 538.14 635.52 538.87 639.13 C 539.83 643.41 540.01 649.30 535.92 652.05 C 532.25 654.49 527.53 651.31 526.71 647.41 C 525.69 643.02 525.70 636.77 530.48 634.59 Z" />
<path fill="#ffffff" opacity="1.00" d=" M 583.38 634.49 C 587.91 633.17 592.37 637.50 592.25 642.00 C 593.12 646.73 590.45 652.73 585.03 652.73 C 575.91 652.33 575.03 636.92 583.38 634.49 Z" />
<path fill="#ffffff" opacity="1.00" d=" M 625.66 635.68 C 627.76 633.19 632.14 633.40 634.09 635.98 C 635.00 637.39 635.34 639.07 635.84 640.66 C 631.80 640.79 627.75 640.75 623.71 640.76 C 624.13 639.00 624.22 636.97 625.66 635.68 Z" />
<path fill="#ffffff" opacity="1.00" d=" M 699.80 640.76 C 700.05 637.48 702.15 633.49 705.99 633.96 C 709.70 633.76 711.43 637.63 711.96 640.71 C 707.90 640.77 703.85 640.75 699.80 640.76 Z" />
<path fill="#ffffff" opacity="1.00" d=" M 749.40 634.47 C 753.12 632.88 757.03 636.13 757.64 639.78 C 758.33 643.83 758.45 649.09 754.88 651.89 C 751.22 654.52 746.07 651.57 745.33 647.44 C 744.14 642.97 744.38 636.43 749.40 634.47 Z" />
<path fill="#ffffff" opacity="1.00" d=" M 775.90 640.78 C 776.12 637.50 778.24 633.70 782.00 633.96 C 785.78 633.66 787.60 637.52 788.03 640.69 C 783.98 640.78 779.94 640.74 775.90 640.78 Z" />
<path fill="#ffffff" opacity="1.00" d=" M 839.05 649.08 C 840.77 644.97 846.23 645.67 849.82 644.36 C 849.67 647.33 849.88 651.12 846.71 652.64 C 843.82 654.84 838.71 653.04 839.05 649.08 Z" />
<path fill="#ffffff" opacity="1.00" d=" M 896.07 648.15 C 898.50 645.19 902.95 645.50 906.35 644.46 C 906.34 647.50 906.37 651.58 902.94 652.85 C 899.81 655.07 894.18 652.17 896.07 648.15 Z" />
<path fill="#ffffff" opacity="1.00" d=" M 611.37 696.47 C 615.15 694.87 619.49 697.60 620.48 701.39 C 621.63 705.47 621.21 710.80 617.38 713.36 C 613.90 715.86 608.67 713.89 607.23 709.99 C 605.53 705.36 606.11 698.49 611.37 696.47 Z" />
<path fill="#ffffff" opacity="1.00" d=" M 786.30 696.50 C 790.36 694.69 794.93 697.98 795.71 702.06 C 796.52 705.97 796.07 710.90 792.45 713.31 C 788.94 715.92 783.73 713.85 782.22 709.97 C 780.60 705.34 781.12 698.61 786.30 696.50 Z" />
<path fill="#ffffff" opacity="1.00" d=" M 862.36 696.55 C 866.44 694.65 871.16 697.95 871.82 702.16 C 873.19 707.08 871.02 714.25 865.04 714.49 C 856.08 714.42 854.73 699.68 862.36 696.55 Z" />
<path fill="#ffffff" opacity="1.00" d=" M 708.66 709.57 C 711.37 707.03 715.50 707.16 718.91 706.13 C 718.70 709.36 718.63 713.59 714.91 714.82 C 711.61 716.90 706.32 713.28 708.66 709.57 Z" />
<path fill="#ffffff" opacity="1.00" d=" M 933.35 710.35 C 935.48 706.83 940.33 707.33 943.83 706.18 C 943.74 709.02 944.10 712.66 941.15 714.29 C 938.15 716.78 932.24 714.71 933.35 710.35 Z" />
<path fill="#ffffff" opacity="1.00" d=" M 498.54 708.64 C 501.38 707.21 504.60 706.87 507.66 706.19 C 507.32 708.65 507.81 711.80 505.64 713.57 C 503.67 715.41 500.02 716.18 498.04 713.98 C 496.47 712.55 496.54 709.63 498.54 708.64 Z" />
</g>
<g id="#e2001aff">
<path fill="#e2001a" opacity="1.00" d=" M 69.20 4.12 C 74.22 0.94 80.93 2.07 85.63 5.35 C 93.05 10.54 97.68 18.71 101.08 26.91 C 103.08 32.07 105.09 37.34 105.56 42.90 C 106.68 55.65 103.53 68.24 103.62 80.97 C 103.71 86.43 104.46 92.02 107.06 96.90 C 109.30 100.91 110.31 105.47 110.38 110.04 C 110.58 125.16 104.58 139.76 105.88 154.93 C 106.18 160.93 110.27 165.98 110.23 172.04 C 111.39 188.37 101.51 202.85 101.03 218.99 C 101.04 223.36 102.03 227.75 104.21 231.57 C 106.89 236.25 107.94 241.70 107.74 247.05 C 107.26 259.99 102.33 272.16 100.24 284.83 C 107.21 280.12 115.01 276.85 122.94 274.11 C 138.46 268.85 154.54 264.95 170.89 263.48 C 199.05 261.72 227.77 268.44 252.04 282.89 C 271.96 294.67 288.44 311.86 300.28 331.68 C 304.09 338.15 308.01 344.58 311.40 351.29 C 326.20 339.51 339.31 325.61 354.98 314.91 C 360.68 311.13 366.98 307.50 373.99 307.27 C 381.70 307.10 388.55 313.17 390.43 320.46 C 391.88 326.26 391.31 332.35 390.15 338.16 C 384.71 362.26 372.33 383.95 362.68 406.50 C 357.03 422.12 352.26 438.05 346.27 453.55 C 345.46 455.95 343.80 458.25 344.18 460.90 C 346.68 484.43 346.02 508.18 344.23 531.74 C 342.39 554.21 340.05 576.67 336.27 598.91 C 332.14 622.01 326.75 645.16 316.55 666.42 C 313.10 673.71 308.28 681.09 300.77 684.67 C 297.31 686.46 292.63 685.90 290.26 682.62 C 286.94 678.16 286.73 672.31 286.51 666.98 C 286.42 643.23 285.60 619.34 280.96 595.98 C 276.74 574.80 272.38 553.20 261.99 534.04 C 252.86 516.91 238.41 503.24 222.51 492.40 C 211.61 484.52 198.48 479.29 184.92 479.22 C 166.22 478.75 148.31 487.22 134.39 499.26 C 122.10 509.92 112.72 523.46 104.26 537.24 C 98.97 546.02 94.49 555.31 91.35 565.07 C 85.09 584.29 79.43 603.90 77.80 624.13 C 76.78 636.38 76.69 648.72 77.41 660.99 C 78.18 675.17 82.10 688.95 83.20 703.09 C 83.29 707.70 83.75 712.88 80.94 716.86 C 77.76 721.16 71.70 720.41 67.03 719.90 C 57.66 717.17 50.83 709.49 45.05 702.01 C 39.42 694.64 35.59 686.13 32.39 677.47 C 27.34 664.21 23.20 650.63 19.04 637.07 C 13.18 618.49 9.91 599.22 6.99 579.99 C 3.15 552.84 0.70 525.42 1.31 497.98 C 2.64 464.28 7.26 430.18 19.80 398.67 C 23.20 389.34 29.95 381.22 30.89 371.07 C 31.90 361.57 27.86 352.66 25.18 343.78 C 23.38 338.24 22.33 332.51 20.70 326.93 C 16.40 312.25 10.21 298.05 7.78 282.87 C 6.24 273.24 6.95 262.76 12.39 254.38 C 15.93 248.97 17.34 242.41 16.98 236.00 C 16.33 222.71 10.71 210.31 9.36 197.13 C 8.88 191.76 9.27 185.99 12.41 181.42 C 14.91 177.70 16.84 173.55 17.54 169.10 C 20.06 153.73 13.70 138.18 17.38 122.91 C 18.71 116.28 24.71 111.96 26.21 105.40 C 29.20 94.37 25.07 83.15 25.79 72.01 C 26.03 68.35 27.24 64.57 29.96 61.99 C 44.58 50.01 51.89 32.01 60.82 15.88 C 63.24 11.74 65.33 7.13 69.20 4.12 M 75.57 38.67 C 72.97 47.40 69.39 55.85 64.93 63.80 C 62.88 67.75 59.21 70.63 57.60 74.84 C 54.62 81.50 55.16 88.95 54.64 96.05 C 53.36 114.26 49.18 132.09 46.56 150.12 C 40.71 191.74 39.21 234.12 44.09 275.92 C 45.85 291.15 47.70 306.51 52.58 321.11 C 54.17 325.18 55.74 329.73 59.44 332.37 C 61.62 333.79 63.94 331.62 64.80 329.70 C 67.34 324.57 67.91 318.75 68.40 313.12 C 70.98 274.41 74.66 235.77 76.92 197.03 C 78.51 174.05 78.40 151.02 78.76 128.00 C 78.76 103.32 78.90 78.63 77.66 53.98 C 77.23 48.86 77.38 43.55 75.57 38.67 M 121.80 306.83 C 113.44 311.76 105.55 317.81 99.77 325.69 C 94.46 332.82 91.17 341.27 89.37 349.93 C 86.30 363.72 86.38 377.94 84.24 391.86 C 82.46 402.48 79.00 413.45 71.19 421.23 C 68.50 424.20 64.00 425.51 60.28 423.76 C 55.68 421.93 52.93 417.57 48.98 414.83 C 46.64 416.73 45.66 419.76 44.41 422.40 C 40.13 433.22 37.85 444.68 34.69 455.85 C 32.19 464.68 30.96 473.82 30.15 482.95 C 27.20 519.87 30.99 556.97 36.78 593.45 C 40.77 617.25 45.85 640.90 52.69 664.05 C 49.94 639.68 51.26 614.90 56.19 590.89 C 63.79 554.37 79.61 518.75 105.61 491.59 C 122.55 473.94 144.11 460.33 167.97 454.46 C 179.48 451.68 191.51 451.67 203.16 453.57 C 223.63 456.39 241.82 467.66 257.37 480.74 C 271.88 492.79 282.38 509.08 289.36 526.47 C 296.49 546.18 300.64 566.79 305.59 587.12 C 306.79 582.15 307.29 577.06 307.97 572.01 C 311.52 543.66 313.10 515.04 311.90 486.48 C 303.35 483.82 296.04 478.40 289.04 472.98 C 280.81 466.29 273.14 458.92 266.06 451.03 C 260.51 444.81 255.06 438.38 251.12 430.99 C 244.09 418.28 237.68 405.21 232.26 391.73 C 227.89 380.54 223.81 369.02 222.80 356.97 C 222.37 350.89 222.84 344.00 227.44 339.47 C 231.50 335.27 237.96 335.03 243.24 336.67 C 255.31 340.26 265.49 347.98 276.24 354.24 C 269.13 340.85 260.29 328.20 249.15 317.84 C 240.71 310.27 230.96 304.22 220.65 299.55 C 207.96 293.67 193.78 292.30 179.98 291.74 C 159.66 290.99 139.16 296.22 121.80 306.83 M 311.42 381.35 C 306.49 384.77 301.19 388.27 295.09 388.98 C 288.25 389.77 282.40 385.52 276.83 382.20 C 266.95 376.25 257.65 369.28 247.37 364.01 C 251.04 376.62 255.78 388.90 261.22 400.86 C 265.99 411.25 271.31 421.55 278.66 430.39 C 286.99 440.66 296.71 449.76 307.21 457.78 C 310.00 459.76 312.69 462.06 315.98 463.20 C 319.38 458.77 321.21 453.39 323.46 448.34 C 330.19 431.62 335.23 414.28 341.49 397.39 C 350.42 376.61 361.42 356.54 367.35 334.60 C 347.50 348.68 330.99 366.90 311.42 381.35 Z" />
<path fill="#e2001a" opacity="1.00" d=" M 765.76 338.84 C 779.17 330.85 792.70 323.05 806.16 315.13 C 806.34 333.06 806.24 351.01 806.21 368.95 C 815.30 369.06 824.39 368.98 833.48 369.00 C 833.50 379.75 833.51 390.50 833.48 401.25 C 824.40 401.25 815.32 401.24 806.24 401.26 C 806.25 422.85 806.25 444.44 806.25 466.03 C 806.25 471.68 806.12 477.35 806.85 482.97 C 807.37 487.38 811.74 490.44 815.97 490.71 C 820.81 491.00 825.51 489.48 830.07 488.05 C 829.92 487.27 829.63 485.73 829.48 484.95 C 842.58 483.13 855.61 480.81 868.74 479.21 C 870.21 486.92 874.55 494.37 881.54 498.27 C 888.64 502.14 897.01 502.65 904.93 502.08 C 911.28 501.58 917.96 500.22 923.04 496.11 C 928.14 491.96 929.19 482.67 923.56 478.54 C 918.54 475.33 912.48 474.55 906.81 473.13 C 891.17 469.43 875.41 465.76 860.51 459.62 C 849.47 455.27 839.87 446.22 836.59 434.61 C 834.31 426.46 834.35 417.63 836.70 409.50 C 840.80 396.67 851.48 386.43 864.08 381.97 C 877.15 377.24 891.28 376.76 905.03 377.31 C 917.44 378.05 930.42 379.82 941.11 386.64 C 951.54 393.29 958.59 404.35 961.76 416.17 C 949.48 418.37 937.23 420.76 924.93 422.81 C 922.87 415.30 917.15 408.66 909.45 406.71 C 900.66 404.45 891.31 404.85 882.49 406.67 C 877.92 407.75 872.59 410.00 871.37 415.05 C 869.89 419.86 873.78 424.36 878.14 425.82 C 895.62 432.68 914.52 434.69 932.21 440.91 C 941.59 444.32 951.38 448.29 958.15 455.94 C 965.98 464.90 967.70 477.63 965.95 489.06 C 963.81 502.06 955.00 513.18 944.13 520.21 C 930.11 528.86 913.15 530.79 896.99 530.51 C 882.26 530.24 867.00 527.71 854.34 519.74 C 846.38 514.74 839.78 507.76 835.00 499.69 C 835.42 505.91 836.25 512.09 836.92 518.29 C 825.97 523.06 813.87 524.67 801.99 524.24 C 791.64 523.81 780.63 520.51 773.58 512.55 C 766.29 503.07 766.23 490.45 765.79 479.05 C 765.71 453.12 765.77 427.19 765.76 401.26 C 761.93 401.22 758.10 401.24 754.28 401.28 C 756.78 419.09 754.99 437.10 755.26 455.01 C 754.83 466.66 754.80 478.37 756.08 489.97 C 757.01 498.57 760.21 506.70 763.83 514.48 C 751.20 514.51 738.58 514.50 725.96 514.49 C 724.01 509.40 722.59 504.14 721.00 498.94 C 710.35 509.53 696.06 516.77 680.93 517.51 C 666.57 518.46 650.79 515.24 640.55 504.43 C 634.68 498.97 631.47 491.43 629.42 483.83 C 629.58 501.21 629.46 518.60 629.50 535.98 C 629.80 537.54 628.18 538.35 627.32 539.33 C 615.62 549.51 601.35 556.18 586.93 561.53 C 563.25 570.16 537.25 572.36 512.49 567.63 C 494.60 564.22 477.40 556.29 463.93 543.93 C 451.51 532.70 443.07 517.69 437.82 501.92 C 431.09 481.59 429.69 459.68 432.72 438.54 C 435.91 416.99 444.87 395.88 460.12 380.10 C 469.92 369.99 482.03 362.13 495.19 357.16 C 510.77 351.66 527.53 350.22 543.95 350.97 C 563.30 351.72 583.40 356.00 599.04 368.03 C 613.61 378.98 623.15 395.71 626.77 413.44 C 612.50 415.97 598.29 418.90 583.99 421.28 C 580.40 408.18 570.86 396.71 558.18 391.61 C 546.43 386.78 533.18 386.82 520.88 389.22 C 504.24 392.53 489.44 404.09 482.65 419.69 C 475.03 436.93 474.52 456.41 476.52 474.87 C 478.41 491.67 484.61 508.94 497.98 520.00 C 513.12 533.25 535.15 535.97 554.12 530.83 C 565.50 527.56 576.62 522.56 585.91 515.15 C 586.16 506.29 585.88 497.41 586.03 488.55 C 569.68 488.41 553.34 488.56 536.99 488.48 C 537.00 476.49 537.01 464.51 536.99 452.52 C 567.82 452.47 598.65 452.52 629.48 452.50 C 629.49 457.64 629.57 462.79 629.37 467.93 C 631.64 455.31 640.03 443.88 651.91 438.78 C 672.95 429.50 696.65 429.49 718.00 421.14 C 718.15 414.57 718.00 406.98 712.99 402.05 C 708.39 398.03 701.94 397.46 696.11 397.04 C 689.07 396.71 681.30 397.15 675.56 401.72 C 671.37 405.19 669.06 410.30 667.23 415.29 C 655.75 413.18 644.28 411.07 632.82 408.92 C 636.05 397.09 642.10 385.49 652.25 378.18 C 662.54 370.69 675.62 368.53 688.05 367.83 C 700.37 367.55 712.89 367.60 724.90 370.73 C 733.39 372.83 741.06 377.58 747.23 383.73 C 747.26 378.84 747.27 373.94 747.21 369.04 C 753.40 368.94 759.60 369.06 765.79 368.95 C 765.70 358.92 765.77 348.88 765.76 338.84 M 687.06 453.80 C 681.68 455.34 675.82 456.65 671.79 460.82 C 668.03 464.37 666.49 469.90 667.56 474.91 C 668.99 482.46 675.34 488.65 682.81 490.23 C 690.87 491.96 699.31 489.57 706.08 485.11 C 711.73 481.57 716.10 475.75 717.11 469.07 C 718.26 461.53 717.96 453.88 718.00 446.28 C 707.84 449.41 697.36 451.22 687.06 453.80 Z" />
<path fill="#e2001a" opacity="1.00" d=" M 432.51 616.50 C 435.42 616.49 438.33 616.50 441.25 616.52 C 441.27 625.36 441.20 634.20 441.27 643.04 C 441.28 645.86 441.80 649.11 444.44 650.71 C 448.72 653.50 456.95 652.13 457.10 645.99 C 457.56 636.15 456.94 626.27 457.41 616.42 C 460.27 616.49 463.13 616.51 466.00 616.53 C 465.99 625.35 466.01 634.18 466.00 643.02 C 465.93 647.28 465.63 652.11 462.38 655.30 C 458.18 659.59 451.66 659.84 446.05 659.35 C 441.85 659.10 437.57 657.30 435.12 653.77 C 432.71 650.35 432.72 645.99 432.51 641.99 C 432.48 633.49 432.51 625.00 432.51 616.50 Z" />
<path fill="#e2001a" opacity="1.00" d=" M 604.00 616.51 C 606.74 616.50 609.49 616.50 612.25 616.51 C 612.24 619.08 612.24 621.66 612.24 624.24 C 609.49 624.24 606.74 624.24 604.00 624.25 C 604.00 621.66 603.99 619.08 604.00 616.51 Z" />
<path fill="#e2001a" opacity="1.00" d=" M 677.26 622.20 C 680.03 620.50 682.84 618.86 685.67 617.24 C 685.77 620.91 685.75 624.58 685.76 628.26 C 687.48 628.23 689.22 628.23 690.97 628.21 C 690.98 630.40 690.97 632.59 690.96 634.79 C 689.22 634.76 687.48 634.75 685.75 634.74 C 685.79 640.61 685.61 646.49 685.91 652.36 C 687.65 652.38 689.40 652.26 691.15 652.06 C 691.36 654.16 691.60 656.27 691.86 658.39 C 687.43 659.77 680.77 660.76 678.17 655.86 C 676.55 648.99 677.53 641.81 677.24 634.82 C 676.07 634.76 674.91 634.71 673.76 634.67 C 673.75 632.52 673.74 630.38 673.74 628.24 C 674.54 628.27 676.12 628.34 676.91 628.37 C 677.19 626.32 677.27 624.26 677.26 622.20 Z" />
<path fill="#e2001a" opacity="1.00" d=" M 876.00 616.51 C 878.82 616.50 881.65 616.49 884.49 616.50 C 884.43 630.60 884.64 644.70 884.39 658.80 C 881.60 658.74 878.82 658.74 876.05 658.78 C 875.93 644.69 876.04 630.60 876.00 616.51 Z" />
<path fill="#e2001a" opacity="1.00" d=" M 471.83 628.21 C 474.38 628.24 476.94 628.25 479.50 628.28 C 479.49 629.14 479.49 630.87 479.48 631.73 C 484.02 627.25 491.86 625.67 496.97 630.07 C 499.28 632.39 499.76 635.83 499.76 638.97 C 499.77 645.57 499.72 652.17 499.77 658.77 C 497.00 658.75 494.24 658.74 491.49 658.71 C 491.46 652.82 491.59 646.93 491.46 641.05 C 491.22 638.85 491.39 636.02 489.26 634.68 C 485.86 632.63 480.85 635.06 480.46 639.05 C 479.55 645.58 480.22 652.21 479.95 658.79 C 477.23 658.75 474.52 658.74 471.81 658.77 C 471.73 648.58 471.68 638.39 471.83 628.21 Z" />
<path fill="#e2001a" opacity="1.00" d=" M 518.03 628.22 C 520.60 628.24 523.18 628.24 525.76 628.23 C 525.75 629.12 525.74 630.90 525.74 631.79 C 529.67 627.43 536.57 625.95 541.58 629.36 C 547.77 633.27 548.64 641.58 547.45 648.18 C 546.59 654.22 541.32 659.67 535.01 659.53 C 531.61 659.72 528.86 657.54 526.23 655.74 C 526.26 660.57 526.25 665.40 526.24 670.23 C 523.49 670.24 520.74 670.24 518.00 670.25 C 518.02 656.24 517.96 642.23 518.03 628.22 M 530.48 634.59 C 525.70 636.77 525.69 643.02 526.71 647.41 C 527.53 651.31 532.25 654.49 535.92 652.05 C 540.01 649.30 539.83 643.41 538.87 639.13 C 538.14 635.52 533.95 632.84 530.48 634.59 Z" />
<path fill="#e2001a" opacity="1.00" d=" M 562.24 628.17 C 564.89 626.76 568.11 627.59 570.64 628.91 C 570.22 631.33 569.26 633.62 568.49 635.95 C 566.49 635.59 564.31 634.40 562.34 635.41 C 559.84 637.01 559.44 640.29 559.29 643.01 C 559.14 648.25 559.30 653.49 559.25 658.74 C 556.41 658.75 553.58 658.75 550.75 658.73 C 550.76 648.57 550.75 638.42 550.75 628.26 C 553.35 628.24 555.95 628.25 558.56 628.28 C 558.51 629.18 558.39 630.97 558.34 631.87 C 559.59 630.59 560.76 629.19 562.24 628.17 Z" />
<path fill="#e2001a" opacity="1.00" d=" M 578.49 628.65 C 585.25 626.00 593.99 627.71 598.16 633.99 C 602.53 640.52 601.74 650.54 595.60 655.74 C 589.59 661.11 579.54 660.61 573.67 655.29 C 566.24 647.82 568.18 632.59 578.49 628.65 M 583.38 634.49 C 575.03 636.92 575.91 652.33 585.03 652.73 C 590.45 652.73 593.12 646.73 592.25 642.00 C 592.37 637.50 587.91 633.17 583.38 634.49 Z" />
<path fill="#e2001a" opacity="1.00" d=" M 604.06 628.20 C 606.76 628.24 609.46 628.24 612.16 628.22 C 612.34 638.14 612.21 648.07 612.24 657.99 C 611.93 661.58 612.51 665.88 609.78 668.70 C 606.49 672.01 601.34 671.01 597.20 670.40 C 597.57 668.05 598.02 665.71 598.44 663.38 C 600.10 663.16 602.01 663.50 603.36 662.27 C 603.91 660.56 603.90 658.73 604.00 656.97 C 604.06 647.38 603.91 637.79 604.06 628.20 Z" />
<path fill="#e2001a" opacity="1.00" d=" M 618.06 633.14 C 623.06 625.52 635.88 625.56 640.93 633.09 C 643.53 636.84 643.72 641.53 643.88 645.92 C 637.09 646.09 630.31 645.93 623.52 646.03 C 623.97 649.12 625.51 652.59 628.97 653.15 C 632.03 654.06 634.28 651.43 635.36 648.92 C 638.08 649.30 640.80 649.74 643.52 650.19 C 642.08 654.50 638.57 658.31 633.97 659.13 C 627.86 660.47 620.23 658.73 617.23 652.73 C 614.26 646.68 614.36 638.86 618.06 633.14 M 625.66 635.68 C 624.22 636.97 624.13 639.00 623.71 640.76 C 627.75 640.75 631.80 640.79 635.84 640.66 C 635.34 639.07 635.00 637.39 634.09 635.98 C 632.14 633.40 627.76 633.19 625.66 635.68 Z" />
<path fill="#e2001a" opacity="1.00" d=" M 647.15 635.12 C 651.90 624.08 671.83 624.87 674.04 637.40 C 671.34 637.82 668.66 638.28 665.97 638.69 C 665.25 634.59 660.47 632.66 657.03 634.97 C 653.21 637.82 653.71 643.43 654.48 647.60 C 655.09 651.40 659.58 654.00 663.09 652.15 C 665.22 651.28 665.64 648.82 666.43 646.93 C 669.10 647.31 671.77 647.74 674.44 648.17 C 673.64 652.13 671.57 656.07 667.79 657.89 C 661.81 660.69 653.67 660.09 649.14 654.92 C 644.68 649.49 644.48 641.39 647.15 635.12 Z" />
<path fill="#e2001a" opacity="1.00" d=" M 695.09 632.03 C 700.64 625.30 712.83 626.07 717.37 633.56 C 719.65 637.28 719.89 641.75 720.09 646.00 C 713.27 646.02 706.45 645.96 699.64 646.03 C 699.95 649.76 702.83 653.90 707.01 653.19 C 709.39 653.08 710.46 650.78 711.42 648.96 C 714.19 649.32 716.93 649.76 719.70 650.18 C 718.54 652.65 717.38 655.34 715.03 656.93 C 710.59 660.05 704.56 660.16 699.58 658.38 C 694.90 656.58 692.05 651.73 691.56 646.90 C 690.95 641.78 691.51 636.02 695.09 632.03 M 699.80 640.76 C 703.85 640.75 707.90 640.77 711.96 640.71 C 711.43 637.63 709.70 633.76 705.99 633.96 C 702.15 633.49 700.05 637.48 699.80 640.76 Z" />
<path fill="#e2001a" opacity="1.00" d=" M 744.15 631.98 C 746.63 629.73 749.46 627.42 753.02 627.48 C 759.63 626.85 765.39 632.64 766.12 638.97 C 767.33 645.67 766.06 654.04 759.75 657.85 C 755.04 660.86 748.81 659.54 744.99 655.71 C 745.00 660.55 745.00 665.40 745.00 670.24 C 742.17 670.24 739.34 670.24 736.52 670.25 C 736.48 656.25 736.51 642.26 736.50 628.27 C 739.09 628.25 741.69 628.25 744.30 628.27 C 744.26 629.20 744.18 631.06 744.15 631.98 M 749.40 634.47 C 744.38 636.43 744.14 642.97 745.33 647.44 C 746.07 651.57 751.22 654.52 754.88 651.89 C 758.45 649.09 758.33 643.83 757.64 639.78 C 757.03 636.13 753.12 632.88 749.40 634.47 Z" />
<path fill="#e2001a" opacity="1.00" d=" M 769.78 633.98 C 774.21 625.84 787.13 625.26 792.70 632.44 C 795.71 636.25 796.06 641.33 796.06 646.00 C 789.29 646.01 782.52 645.97 775.76 646.02 C 776.22 649.02 777.62 652.47 780.98 653.10 C 784.01 654.08 786.56 651.68 787.48 649.01 C 790.23 649.28 792.98 649.69 795.72 650.12 C 793.10 660.70 777.70 662.55 770.99 655.00 C 766.49 649.11 766.32 640.38 769.78 633.98 M 775.90 640.78 C 779.94 640.74 783.98 640.78 788.03 640.69 C 787.60 637.52 785.78 633.66 782.00 633.96 C 778.24 633.70 776.12 637.50 775.90 640.78 Z" />
<path fill="#e2001a" opacity="1.00" d=" M 799.23 628.25 C 801.78 628.25 804.34 628.24 806.91 628.21 C 806.94 629.01 806.99 630.60 807.01 631.40 C 808.54 629.99 809.87 628.07 812.04 627.65 C 814.49 627.02 816.90 628.04 819.19 628.84 C 818.39 631.22 817.57 633.59 816.78 635.97 C 814.01 634.97 809.74 634.08 808.60 637.79 C 806.60 644.55 807.82 651.75 807.52 658.70 C 804.75 658.74 801.99 658.75 799.24 658.77 C 799.25 648.60 799.27 638.42 799.23 628.25 Z" />
<path fill="#e2001a" opacity="1.00" d=" M 831.37 636.32 C 832.74 631.96 836.19 628.06 840.99 627.76 C 846.52 627.17 854.47 626.86 857.15 632.88 C 859.10 641.35 855.84 650.57 859.58 658.72 C 856.81 658.74 854.05 658.75 851.30 658.76 C 851.12 658.05 850.76 656.64 850.58 655.93 C 846.03 659.39 839.37 661.11 834.35 657.64 C 829.36 654.31 829.57 645.68 834.97 642.89 C 839.66 640.53 845.10 640.52 850.00 638.72 C 849.47 637.36 849.41 635.69 848.31 634.66 C 844.94 633.11 840.20 633.72 838.90 637.68 C 836.37 637.30 833.86 636.84 831.37 636.32 M 839.05 649.08 C 838.71 653.04 843.82 654.84 846.71 652.64 C 849.88 651.12 849.67 647.33 849.82 644.36 C 846.23 645.67 840.77 644.97 839.05 649.08 Z" />
<path fill="#e2001a" opacity="1.00" d=" M 888.09 636.40 C 889.23 632.16 892.44 628.32 897.03 627.85 C 902.67 627.15 910.47 626.69 913.62 632.51 C 916.02 641.10 912.48 650.38 916.05 658.79 C 913.42 658.71 910.76 658.95 908.16 658.54 C 907.74 657.99 906.90 656.89 906.48 656.35 C 902.20 659.53 896.06 660.82 891.32 657.87 C 886.19 654.79 886.08 646.22 891.23 643.11 C 895.48 640.70 900.57 640.71 905.14 639.17 C 907.15 638.87 906.12 636.43 905.57 635.30 C 904.17 633.68 901.79 633.94 899.89 634.00 C 897.60 633.96 896.60 636.30 895.18 637.65 C 892.79 637.35 890.44 636.84 888.09 636.40 M 896.07 648.15 C 894.18 652.17 899.81 655.07 902.94 652.85 C 906.37 651.58 906.34 647.50 906.35 644.46 C 902.95 645.50 898.50 645.19 896.07 648.15 Z" />
<path fill="#e2001a" opacity="1.00" d=" M 789.33 677.57 C 792.28 677.35 795.25 677.50 798.22 677.52 C 795.62 680.52 793.12 683.69 790.01 686.17 C 788.32 686.30 786.62 686.25 784.94 686.26 C 786.41 683.38 787.32 680.12 789.33 677.57 Z" />
<path fill="#e2001a" opacity="1.00" d=" M 586.68 679.70 C 590.62 676.66 595.94 677.76 600.47 678.50 C 600.14 680.44 599.83 682.40 599.51 684.35 C 597.66 684.32 595.75 683.76 593.96 684.32 C 591.89 685.44 592.66 688.09 592.43 690.00 C 594.44 689.99 596.46 689.99 598.49 690.00 C 598.49 692.15 598.49 694.31 598.50 696.49 C 596.49 696.48 594.49 696.49 592.49 696.50 C 592.48 704.39 592.54 712.28 592.46 720.17 C 589.64 720.19 586.82 720.17 584.01 720.11 C 583.93 712.21 584.14 704.30 583.88 696.40 C 582.50 696.44 581.13 696.48 579.76 696.52 C 579.75 694.34 579.75 692.17 579.75 690.01 C 581.13 690.00 582.52 689.99 583.91 690.00 C 584.39 686.54 583.51 682.11 586.68 679.70 Z" />
<path fill="#e2001a" opacity="1.00" d=" M 761.51 678.51 C 764.23 678.50 766.96 678.49 769.70 678.48 C 769.73 680.97 769.75 683.47 769.79 685.97 C 767.00 686.01 764.21 686.00 761.43 685.90 C 761.48 683.43 761.49 680.96 761.51 678.51 Z" />
<path fill="#e2001a" opacity="1.00" d=" M 956.73 678.57 C 959.45 678.51 962.18 678.48 964.92 678.44 C 965.09 692.36 964.97 706.29 964.98 720.21 C 962.24 720.29 959.49 720.25 956.76 720.13 C 956.72 706.28 956.79 692.43 956.73 678.57 Z" />
<path fill="#e2001a" opacity="1.00" d=" M 454.45 683.91 C 457.20 682.25 459.97 680.63 462.75 679.01 C 462.75 682.65 462.75 686.29 462.75 689.94 C 464.60 689.98 466.46 690.05 468.32 690.12 C 468.28 692.23 468.26 694.34 468.25 696.46 C 466.41 696.48 464.57 696.51 462.75 696.54 C 462.78 702.43 462.61 708.32 462.95 714.20 C 464.73 714.09 466.50 713.92 468.28 713.74 C 468.47 715.95 468.68 718.17 468.84 720.39 C 468.05 720.54 466.47 720.85 465.68 721.00 L 459.16 721.00 C 457.11 719.97 455.02 718.48 454.87 715.98 C 454.03 709.52 454.73 702.98 454.49 696.49 C 453.59 696.51 451.78 696.54 450.88 696.56 C 450.80 694.40 450.75 692.25 450.70 690.12 C 452.00 689.99 453.30 689.89 454.61 689.81 C 454.54 687.84 454.49 685.87 454.45 683.91 Z" />
<path fill="#e2001a" opacity="1.00" d=" M 913.74 678.53 C 916.49 678.50 919.24 678.50 922.00 678.51 C 921.99 681.00 921.99 683.50 922.00 686.00 C 919.25 685.99 916.50 685.99 913.76 686.00 C 913.75 683.50 913.74 681.01 913.74 678.53 Z" />
<path fill="#e2001a" opacity="1.00" d=" M 478.20 693.14 C 479.89 691.63 481.42 689.49 483.88 689.31 C 486.17 688.90 488.37 689.85 490.44 690.71 C 489.60 693.09 488.78 695.49 487.96 697.89 C 485.42 696.71 481.54 695.81 480.14 699.04 C 477.65 705.70 479.16 713.06 478.76 720.01 C 476.02 720.09 473.27 720.15 470.54 720.18 C 470.47 710.12 470.50 700.06 470.52 689.99 C 473.09 689.99 475.66 689.99 478.24 690.00 C 478.23 690.79 478.21 692.36 478.20 693.14 Z" />
<path fill="#e2001a" opacity="1.00" d=" M 494.76 690.74 C 498.74 688.90 503.34 688.99 507.60 689.56 C 511.12 690.07 514.96 692.32 515.31 696.21 C 516.37 704.28 514.18 712.66 517.12 720.51 C 514.45 720.49 511.78 720.47 509.12 720.45 C 508.90 719.79 508.46 718.46 508.24 717.80 C 506.19 719.02 504.11 720.22 501.85 721.00 L 495.26 721.00 C 488.34 719.36 486.16 709.19 492.05 705.13 C 496.91 702.22 502.87 702.37 508.08 700.32 C 507.27 698.01 506.06 695.22 503.07 695.71 C 500.07 694.99 497.98 697.16 496.58 699.49 C 494.05 699.03 491.53 698.55 489.09 697.76 C 490.59 695.17 491.86 692.06 494.76 690.74 M 498.54 708.64 C 496.54 709.63 496.47 712.55 498.04 713.98 C 500.02 716.18 503.67 715.41 505.64 713.57 C 507.81 711.80 507.32 708.65 507.66 706.19 C 504.60 706.87 501.38 707.21 498.54 708.64 Z" />
<path fill="#e2001a" opacity="1.00" d=" M 528.03 694.03 C 530.59 691.24 534.05 689.03 537.98 689.21 C 542.59 689.00 547.66 692.02 548.04 696.97 C 548.53 704.65 548.12 712.37 548.23 720.07 C 545.48 720.09 542.74 720.07 540.00 720.01 C 539.92 713.64 540.15 707.26 539.91 700.90 C 539.91 698.62 538.53 695.95 536.04 695.75 C 532.76 695.18 529.24 697.58 529.02 701.00 C 528.40 707.32 528.89 713.70 528.78 720.06 C 526.02 720.23 523.27 720.24 520.52 720.08 C 520.48 710.05 520.49 700.02 520.52 690.00 C 523.00 689.99 525.48 689.99 527.97 690.00 C 527.99 691.33 528.00 692.68 528.03 694.03 Z" />
<path fill="#e2001a" opacity="1.00" d=" M 555.39 691.49 C 560.03 688.59 565.93 688.84 571.08 689.99 C 574.81 690.83 577.12 694.13 578.36 697.52 C 575.81 697.99 573.25 698.45 570.70 698.87 C 568.87 695.24 564.36 694.36 560.86 695.93 C 559.13 696.09 558.99 698.85 560.60 699.20 C 565.49 701.34 571.16 701.34 575.76 704.21 C 579.87 706.64 580.21 712.80 577.42 716.37 C 575.60 718.87 572.66 720.18 569.77 721.00 L 561.18 721.00 C 555.99 720.42 552.01 716.54 550.19 711.82 C 552.83 711.34 555.46 710.80 558.15 710.63 C 559.69 712.10 560.69 714.46 562.97 714.95 C 566.24 715.94 571.29 714.92 570.94 710.63 C 565.78 708.87 560.18 708.33 555.36 705.71 C 550.33 702.71 550.61 694.58 555.39 691.49 Z" />
<path fill="#e2001a" opacity="1.00" d=" M 600.27 696.25 C 604.75 688.63 616.02 687.14 623.06 691.96 C 630.29 696.82 631.48 707.71 626.77 714.70 C 624.69 717.93 621.21 719.91 617.61 721.00 L 610.22 721.00 C 605.80 719.97 601.46 717.46 599.55 713.17 C 597.23 707.86 597.22 701.28 600.27 696.25 M 611.37 696.47 C 606.11 698.49 605.53 705.36 607.23 709.99 C 608.67 713.89 613.90 715.86 617.38 713.36 C 621.21 710.80 621.63 705.47 620.48 701.39 C 619.49 697.60 615.15 694.87 611.37 696.47 Z" />
<path fill="#e2001a" opacity="1.00" d=" M 644.46 689.65 C 646.86 688.72 649.37 689.80 651.81 690.00 C 654.45 690.13 657.10 689.98 659.76 689.97 C 659.73 691.18 659.71 692.40 659.69 693.62 C 662.66 690.62 666.77 688.47 671.11 689.37 C 673.94 689.56 675.93 691.72 677.74 693.67 C 680.41 690.87 684.11 688.72 688.12 689.25 C 692.29 689.35 696.34 692.53 696.72 696.82 C 697.35 704.53 696.84 712.28 696.99 720.01 C 694.25 720.12 691.51 720.20 688.77 720.23 C 688.68 714.15 688.85 708.08 688.71 702.00 C 688.57 699.78 688.55 696.67 685.97 695.84 C 682.66 694.90 679.35 697.60 679.09 700.90 C 678.35 707.25 678.92 713.67 678.76 720.05 C 676.01 720.17 673.27 720.19 670.53 720.13 C 670.19 712.79 671.13 705.37 669.98 698.09 C 668.45 693.73 661.52 695.76 660.93 699.84 C 659.93 706.55 660.80 713.42 660.46 720.19 C 657.63 720.26 654.82 720.22 652.00 720.07 C 651.86 710.93 652.29 701.78 651.76 692.65 C 651.08 694.38 650.48 696.15 649.90 697.93 C 647.38 696.67 643.48 695.84 642.10 699.07 C 639.64 705.77 641.17 713.12 640.76 720.10 C 638.01 720.22 635.27 720.23 632.54 720.16 C 632.46 710.10 632.51 700.05 632.51 690.00 C 635.00 689.99 637.49 689.99 639.99 690.00 C 639.99 690.89 639.99 692.68 639.99 693.57 C 641.38 692.17 642.57 690.41 644.46 689.65 Z" />
<path fill="#e2001a" opacity="1.00" d=" M 704.59 691.61 C 708.39 688.92 713.33 689.02 717.77 689.41 C 721.33 689.80 725.60 691.52 726.34 695.47 C 727.68 703.75 725.33 712.44 728.32 720.50 C 725.88 720.46 723.45 720.53 721.02 720.50 C 720.35 719.70 719.70 718.91 719.06 718.13 C 717.16 719.01 715.38 720.10 713.50 721.00 L 706.24 721.00 C 701.19 719.32 698.21 713.47 700.48 708.51 C 702.70 703.21 709.27 703.03 714.08 701.85 C 715.79 701.25 719.99 701.27 718.48 698.43 C 716.74 693.81 709.29 695.23 707.70 699.45 C 705.25 699.02 702.80 698.60 700.37 698.14 C 701.43 695.78 702.37 693.15 704.59 691.61 M 708.66 709.57 C 706.32 713.28 711.61 716.90 714.91 714.82 C 718.63 713.59 718.70 709.36 718.91 706.13 C 715.50 707.16 711.37 707.03 708.66 709.57 Z" />
<path fill="#e2001a" opacity="1.00" d=" M 730.26 700.92 C 731.03 695.33 735.52 690.44 741.14 689.53 C 745.28 688.89 749.92 689.05 753.49 691.51 C 756.11 693.26 757.39 696.24 758.64 699.02 C 756.03 699.51 753.42 700.00 750.82 700.51 C 749.39 697.56 746.52 694.57 742.93 696.07 C 737.68 697.85 738.08 704.57 738.80 709.01 C 739.21 712.78 743.48 715.65 747.06 714.09 C 749.40 713.29 749.95 710.59 751.05 708.68 C 753.71 709.11 756.38 709.56 759.04 710.07 C 757.71 715.23 754.17 719.92 748.69 721.00 L 741.15 721.00 C 737.74 720.25 734.52 718.40 732.60 715.43 C 729.61 711.26 729.64 705.80 730.26 700.92 Z" />
<path fill="#e2001a" opacity="1.00" d=" M 777.00 693.92 C 783.63 686.96 796.77 687.72 802.02 695.99 C 807.91 704.78 803.40 718.71 792.65 721.00 L 785.26 721.00 C 780.57 719.95 776.03 717.12 774.24 712.49 C 771.94 706.42 772.49 698.85 777.00 693.92 M 786.30 696.50 C 781.12 698.61 780.60 705.34 782.22 709.97 C 783.73 713.85 788.94 715.92 792.45 713.31 C 796.07 710.90 796.52 705.97 795.71 702.06 C 794.93 697.98 790.36 694.69 786.30 696.50 Z" />
<path fill="#e2001a" opacity="1.00" d=" M 824.78 690.60 C 829.68 688.67 835.45 688.70 840.38 690.56 C 843.46 691.66 845.02 694.66 846.19 697.50 C 843.61 697.96 841.05 698.43 838.48 698.88 C 836.28 694.22 829.34 694.05 826.40 698.04 C 831.71 701.39 838.44 700.95 843.72 704.32 C 847.66 706.80 847.96 712.78 845.31 716.32 C 843.56 718.93 840.53 720.15 837.63 721.00 L 828.40 721.00 C 823.53 720.04 819.71 716.50 818.11 711.84 C 820.79 711.35 823.48 710.91 826.18 710.49 C 827.49 712.22 828.53 714.70 830.99 715.01 C 833.46 715.49 836.68 715.40 838.36 713.21 C 839.01 712.47 838.73 710.65 837.67 710.41 C 832.38 708.24 825.98 708.41 821.57 704.38 C 817.62 700.25 819.51 692.66 824.78 690.60 Z" />
<path fill="#e2001a" opacity="1.00" d=" M 853.05 694.07 C 859.88 686.50 874.22 687.89 878.85 697.23 C 883.74 706.11 878.89 718.85 868.66 721.00 L 861.23 721.00 C 857.59 719.99 853.86 718.32 851.76 715.04 C 847.71 708.77 848.02 699.72 853.05 694.07 M 862.36 696.55 C 854.73 699.68 856.08 714.42 865.04 714.49 C 871.02 714.25 873.19 707.08 871.82 702.16 C 871.16 697.95 866.44 694.65 862.36 696.55 Z" />
<path fill="#e2001a" opacity="1.00" d=" M 886.29 693.25 C 890.49 688.89 897.33 688.45 902.86 690.05 C 907.01 691.29 909.50 695.16 910.77 699.07 C 908.14 699.55 905.52 700.02 902.90 700.48 C 901.61 697.51 898.64 694.62 895.16 696.06 C 889.66 698.05 890.09 705.20 891.22 709.85 C 892.01 714.04 897.78 715.98 900.92 713.08 C 901.91 711.76 902.45 710.17 903.16 708.69 C 905.85 709.11 908.56 709.56 911.25 710.04 C 909.93 715.24 906.35 720.02 900.79 721.00 L 893.21 721.00 C 888.07 719.88 883.75 715.77 882.69 710.58 C 881.49 704.72 881.89 697.75 886.29 693.25 Z" />
<path fill="#e2001a" opacity="1.00" d=" M 930.26 691.20 C 934.05 688.90 938.75 689.06 943.01 689.42 C 946.55 689.75 950.60 691.57 951.46 695.36 C 953.10 703.66 950.33 712.42 953.50 720.51 C 950.85 720.49 948.20 720.51 945.57 720.56 C 945.22 719.53 944.90 718.51 944.59 717.50 C 942.71 718.81 940.78 720.05 938.70 721.00 L 931.39 721.00 C 929.81 720.14 928.14 719.33 926.93 717.99 C 923.51 713.99 924.51 706.78 929.44 704.46 C 934.08 702.42 939.25 702.10 944.06 700.58 C 943.52 698.77 943.37 696.06 940.92 695.90 C 937.54 694.87 934.33 696.39 932.73 699.45 C 930.30 699.01 927.89 698.56 925.49 698.11 C 926.67 695.58 927.71 692.69 930.26 691.20 M 933.35 710.35 C 932.24 714.71 938.15 716.78 941.15 714.29 C 944.10 712.66 943.74 709.02 943.83 706.18 C 940.33 707.33 935.48 706.83 933.35 710.35 Z" />
<path fill="#e2001a" opacity="1.00" d=" M 761.51 689.99 C 764.26 689.99 767.02 690.00 769.78 690.04 C 769.71 700.05 769.75 710.05 769.76 720.06 C 767.01 720.15 764.27 720.17 761.54 720.13 C 761.46 710.08 761.50 700.04 761.51 689.99 Z" />
<path fill="#e2001a" opacity="1.00" d=" M 913.76 690.00 C 916.50 689.99 919.25 689.99 922.00 690.00 C 921.99 700.05 922.01 710.09 921.99 720.14 C 919.24 720.17 916.51 720.18 913.78 720.15 C 913.72 710.10 913.76 700.05 913.76 690.00 Z" />
</g>
</svg>
