<?xml version="1.0" encoding="UTF-8" standalone="no"?>
<!-- Created with Inkscape (http://www.inkscape.org/) -->

<svg
   xmlns:dc="http://purl.org/dc/elements/1.1/"
   xmlns:cc="http://creativecommons.org/ns#"
   xmlns:rdf="http://www.w3.org/1999/02/22-rdf-syntax-ns#"
   xmlns:svg="http://www.w3.org/2000/svg"
   xmlns="http://www.w3.org/2000/svg"
   xmlns:xlink="http://www.w3.org/1999/xlink"
   xmlns:sodipodi="http://sodipodi.sourceforge.net/DTD/sodipodi-0.dtd"
   xmlns:inkscape="http://www.inkscape.org/namespaces/inkscape"
   width="1052.3622"
   height="744.09448"
   id="svg2"
   version="1.1"
   inkscape:version="0.48.4 r9939"
   sodipodi:docname="telefoniaip.svg">
  <defs
     id="defs4" />
  <sodipodi:namedview
     id="base"
     pagecolor="#ffffff"
     bordercolor="#666666"
     borderopacity="1.0"
     inkscape:pageopacity="0.0"
     inkscape:pageshadow="2"
     inkscape:zoom="1"
     inkscape:cx="497.27945"
     inkscape:cy="341.26852"
     inkscape:document-units="px"
     inkscape:current-layer="g3069"
     showgrid="false"
     fit-margin-top="10"
     fit-margin-left="10"
     fit-margin-right="10"
     fit-margin-bottom="10"
     inkscape:window-width="1680"
     inkscape:window-height="983"
     inkscape:window-x="-2"
     inkscape:window-y="-3"
     inkscape:window-maximized="1"
     showguides="true"
     inkscape:guide-bbox="true" />
  <metadata
     id="metadata7">
    <rdf:RDF>
      <cc:Work
         rdf:about="">
        <dc:format>image/svg+xml</dc:format>
        <dc:type
           rdf:resource="http://purl.org/dc/dcmitype/StillImage" />
        <dc:title></dc:title>
      </cc:Work>
    </rdf:RDF>
  </metadata>
  <g
     inkscape:label="Layer 1"
     inkscape:groupmode="layer"
     id="layer1"
     transform="translate(195.25476,156.02842)">
    <g
       id="g3015"
       transform="translate(-6.8657417,-151.02238)">
      <rect
         ry="0"
         y="248.44385"
         x="44.644798"
         height="41.671745"
         width="293.51407"
         id="rect3006"
         style="color:#000000;fill:#ffffff;fill-opacity:1;fill-rule:nonzero;stroke:#000000;stroke-width:7.22914267;stroke-linecap:butt;stroke-linejoin:miter;stroke-miterlimit:4;stroke-opacity:1;stroke-dasharray:none;stroke-dashoffset:0;marker:none;visibility:visible;display:inline;overflow:visible;enable-background:accumulate" />
      <path
         sodipodi:nodetypes="csscszczcsc"
         inkscape:connector-curvature="0"
         id="path3028"
         d="m -80.370446,143.35856 c -65.225354,32.61267 -77.908064,52.54264 -76.096244,81.53168 1.81181,28.98905 10.87089,43.48357 34.42448,43.48357 23.553614,0 476.50741,0 476.50741,0 0,0 76.18968,3.23845 132.26251,0 31.05579,-1.79361 22.76201,-24.36696 23.97344,-56.70413 1.21143,-32.33718 26.61171,-43.51021 58.89661,-93.73116 1.79361,17.93605 19.14416,39.7871 39.98738,39.7871 20.84321,0 30.68905,-10.71963 34.53375,-30.80086 0,0 1.93931,52.32412 30.92836,50.51231 28.98905,-1.81182 45.16794,-3.84215 45.16794,-3.84215"
         style="fill:none;stroke:#008000;stroke-width:6.34135342;stroke-linecap:butt;stroke-linejoin:miter;stroke-miterlimit:4;stroke-opacity:1;stroke-dasharray:none" />
      <path
         inkscape:connector-curvature="0"
         id="path2985"
         d="m 172.38343,195.90932 c -17.51116,0 -31.70676,12.57042 -31.70676,28.08031 0,1.73486 0.17524,3.42518 0.51523,5.07308 -1.62525,-0.35566 -3.31578,-0.55487 -5.05326,-0.55487 -12.50797,0 -22.65052,9.7313 -22.65052,21.73895 0,9.25091 6.02283,17.15185 14.50584,20.29233 -0.002,0.11214 6.4e-4,0.22458 0,0.33689 -12.50441,2.41293 -21.73895,10.9139 -21.73895,21.04536 0,11.84258 12.61206,21.47639 28.31811,21.73896 -0.0387,0.6024 -0.0594,1.20826 -0.0594,1.82313 0,12.40772 8.02801,22.47218 17.93414,22.47218 3.47106,0 6.70687,-1.25042 9.45258,-3.38867 4.09099,3.88311 9.70527,6.28191 15.91283,6.28191 8.77045,0 16.37134,-4.79113 20.1338,-11.79096 3.27584,5.40045 8.45521,8.89772 14.28786,8.89772 8.48212,0 15.59056,-7.39063 17.45854,-17.30001 4.81739,2.42347 10.66085,3.84445 16.96312,3.84445 16.48351,0 29.84399,-9.71868 29.84399,-21.69932 0,-8.49474 -6.72239,-15.84008 -16.50733,-19.40058 0.38854,-1.13589 0.72914,-2.28257 1.01065,-3.44811 9.03224,-2.85838 15.55613,-11.0009 15.55613,-20.62922 0,-12.00765 -10.14254,-21.75876 -22.65052,-21.75876 -2.7206,0 -5.3318,0.46363 -7.74834,1.3079 -1.10408,-0.96694 -2.24933,-1.91258 -3.44811,-2.81398 0.79987,-2.36791 1.22863,-4.9123 1.22863,-7.55017 0,-13.00829 -10.53398,-23.54227 -23.54227,-23.54227 -7.46413,0 -14.134,3.46084 -18.44937,8.87789 -4.59083,-10.49931 -16.09157,-17.93414 -29.56656,-17.93414 z"
         style="color:#000000;fill:#ffffff;fill-opacity:1;fill-rule:nonzero;stroke:#000000;stroke-width:7.22914267;stroke-linecap:butt;stroke-linejoin:miter;stroke-miterlimit:4;stroke-opacity:1;stroke-dasharray:none;stroke-dashoffset:0;marker:none;visibility:visible;display:inline;overflow:visible;enable-background:accumulate" />
      <rect
         y="218.98254"
         x="-86.278152"
         height="98.782524"
         width="135.01883"
         id="rect3014"
         style="color:#000000;fill:#ffffff;fill-opacity:1;fill-rule:nonzero;stroke:#000000;stroke-width:6.28464079;stroke-linecap:butt;stroke-linejoin:miter;stroke-miterlimit:4;stroke-opacity:1;stroke-dasharray:none;stroke-dashoffset:0;marker:none;visibility:visible;display:inline;overflow:visible;enable-background:accumulate" />
      <text
         sodipodi:linespacing="125%"
         id="text3016"
         y="264.75018"
         x="-20.580547"
         style="font-size:22.82887268px;font-style:normal;font-variant:normal;font-weight:bold;font-stretch:normal;text-align:center;line-height:125%;letter-spacing:0px;word-spacing:0px;text-anchor:middle;fill:#000000;fill-opacity:1;stroke:none;font-family:Sawasdee;-inkscape-font-specification:Sawasdee Bold"
         xml:space="preserve"><tspan
           y="264.75018"
           x="-20.580545"
           id="tspan3018"
           sodipodi:role="line">Adaptador</tspan><tspan
           id="tspan3020"
           y="293.28629"
           x="-20.580547"
           sodipodi:role="line">Telefonia IP</tspan></text>
      <rect
         style="color:#000000;fill:#ffffff;fill-opacity:1;fill-rule:nonzero;stroke:#000000;stroke-width:6.28464079;stroke-linecap:butt;stroke-linejoin:miter;stroke-miterlimit:4;stroke-opacity:1;stroke-dasharray:none;stroke-dashoffset:0;marker:none;visibility:visible;display:inline;overflow:visible;enable-background:accumulate"
         id="rect3798"
         width="135.01883"
         height="98.782524"
         x="337.68665"
         y="218.98254" />
      <text
         xml:space="preserve"
         style="font-size:22.82887268px;font-style:normal;font-variant:normal;font-weight:bold;font-stretch:normal;text-align:center;line-height:125%;letter-spacing:0px;word-spacing:0px;text-anchor:middle;fill:#000000;fill-opacity:1;stroke:none;font-family:Sawasdee;-inkscape-font-specification:Sawasdee Bold"
         x="403.38419"
         y="264.75018"
         id="text3800"
         sodipodi:linespacing="125%"><tspan
           sodipodi:role="line"
           id="tspan3802"
           x="403.38419"
           y="264.75018">Proveïdor</tspan><tspan
           sodipodi:role="line"
           x="403.38419"
           y="293.28629"
           id="tspan3804">Telefonia IP</tspan></text>
      <g
         transform="matrix(0.48194283,0,0,0.48194283,93.455126,9.8851404)"
         id="g3817">
        <rect
           style="color:#000000;fill:#550000;fill-opacity:1;fill-rule:nonzero;stroke:#550000;stroke-width:10;stroke-linecap:butt;stroke-linejoin:miter;stroke-miterlimit:4;stroke-opacity:1;stroke-dasharray:none;stroke-dashoffset:0;marker:none;visibility:visible;display:inline;overflow:visible;enable-background:accumulate"
           id="rect3806"
           width="5.7142859"
           height="322.85715"
           x="942.85718"
           y="226.6479" />
        <rect
           style="color:#000000;fill:#550000;fill-opacity:1;fill-rule:nonzero;stroke:#550000;stroke-width:10;stroke-linecap:butt;stroke-linejoin:miter;stroke-miterlimit:4;stroke-opacity:1;stroke-dasharray:none;stroke-dashoffset:0;marker:none;visibility:visible;display:inline;overflow:visible;enable-background:accumulate"
           id="rect3808"
           width="97.142845"
           height="14.285716"
           x="897.14288"
           y="215.21933" />
      </g>
      <use
         height="1052.3622"
         width="744.09448"
         transform="matrix(0.75438593,0,0,0.75438593,215.61675,41.660845)"
         id="use3825"
         xlink:href="#g3817"
         y="0"
         x="0" />
      <g
         transform="matrix(0.63413533,0,0,0.63413533,-40.528723,-40.04472)"
         id="g3929">
        <path
           style="color:#000000;fill:#ffffff;fill-opacity:1;fill-rule:nonzero;stroke:#000000;stroke-width:10;stroke-linecap:round;stroke-linejoin:round;stroke-miterlimit:4;stroke-opacity:1;stroke-dasharray:none;stroke-dashoffset:0;marker:none;visibility:visible;display:inline;overflow:visible;enable-background:accumulate"
           d="m 1263.1433,213.8387 -127.2837,104.65625 37.9376,0 0,122.91976 166.8785,0 0,-122.91976 35.5938,0 z"
           id="path3829"
           inkscape:connector-curvature="0"
           sodipodi:nodetypes="cccccccc" />
        <text
           xml:space="preserve"
           style="font-size:36px;font-style:normal;font-variant:normal;font-weight:bold;font-stretch:normal;text-align:center;line-height:125%;letter-spacing:0px;word-spacing:0px;text-anchor:middle;fill:#000000;fill-opacity:1;stroke:none;font-family:Sawasdee;-inkscape-font-specification:Sawasdee Bold"
           x="1256.0734"
           y="345.11325"
           id="text3872"
           sodipodi:linespacing="125%"><tspan
             sodipodi:role="line"
             id="tspan3874"
             x="1256.0734"
             y="345.11325">Casa de</tspan><tspan
             sodipodi:role="line"
             x="1256.0734"
             y="390.11325"
             id="tspan3878">l'àvia</tspan></text>
      </g>
      <text
         sodipodi:linespacing="125%"
         id="text3892"
         y="254.53311"
         x="187.2592"
         style="font-size:22.82887268px;font-style:normal;font-variant:normal;font-weight:bold;font-stretch:normal;text-align:center;line-height:125%;letter-spacing:0px;word-spacing:0px;text-anchor:middle;fill:#000000;fill-opacity:1;stroke:none;font-family:Sawasdee;-inkscape-font-specification:Sawasdee Bold"
         xml:space="preserve"><tspan
           id="tspan3896"
           y="254.53311"
           x="187.2592"
           sodipodi:role="line">guifi.net</tspan><tspan
           id="tspan3902"
           y="283.06921"
           x="187.2592"
           sodipodi:role="line">+</tspan><tspan
           id="tspan3900"
           y="311.60529"
           x="187.2592"
           sodipodi:role="line">Internet</tspan></text>
      <g
         transform="matrix(0.63413533,0,0,0.63413533,-51.290357,-22.108664)"
         id="g3913">
        <path
           sodipodi:nodetypes="ccsccsccc"
           style="color:#000000;fill:#ffffff;fill-opacity:1;fill-rule:nonzero;stroke:#000000;stroke-width:10;stroke-linecap:butt;stroke-linejoin:miter;stroke-miterlimit:4;stroke-opacity:1;stroke-dasharray:none;stroke-dashoffset:0;marker:none;visibility:visible;display:inline;overflow:visible;enable-background:accumulate"
           d="m -25.41048,99.1875 c -22.57821,4.69099 -50.48339,29.83864 -50.96875,50.1875 0,18.35464 14.270157,20.52208 31.84375,20.52208 12.45275,0 23.211247,5.23779 28.4375,-5.64708 l 115.625,0 c 5.22625,10.88487 16.016,11.30393 28.46875,11.30393 17.57359,0 31.8125,-7.82429 31.8125,-26.17893 -5.3974,-23.55042 -33.74689,-49.725462 -55.125,-50.1875 z"
           id="rect3890"
           inkscape:connector-curvature="0" />
        <path
           sodipodi:type="arc"
           id="path3024"
           style="fill:#000000;stroke:none"
           sodipodi:cx="-60"
           sodipodi:cy="249.50504"
           sodipodi:rx="1.5"
           sodipodi:ry="1.5"
           d="m -58.5,249.50504 c 0,0.82842 -0.671573,1.5 -1.5,1.5 -0.828427,0 -1.5,-0.67158 -1.5,-1.5 0,-0.82843 0.671573,-1.5 1.5,-1.5 0.828427,0 1.5,0.67157 1.5,1.5 z"
           transform="translate(99.63225,-5.6568542)" />
        <path
           style="color:#000000;fill:#ffffff;fill-opacity:1;fill-rule:nonzero;stroke:#000000;stroke-width:10;stroke-linecap:butt;stroke-linejoin:miter;stroke-miterlimit:4;stroke-opacity:1;stroke-dasharray:none;stroke-dashoffset:0;marker:none;visibility:visible;display:inline;overflow:visible;enable-background:accumulate"
           d="m 5.6791223,124.6244 c -17.2364313,0 -31.1250003,1.16065 -31.1250003,31.125 0,0 -26.274354,33.92254 -26.84375,56.5625 l 0,39.59375 c 0,20.37033 16.379667,36.78125 36.75,36.78125 l 110.312508,0 c 20.37033,0 36.78125,-16.41092 36.78125,-36.78125 l 0,-39.59375 c -7.61497,-30.30933 -26.875,-56.5625 -26.875,-56.5625 0,-25.72171 -13.88857,-31.125 -31.125,-31.125 z"
           id="rect3880"
           inkscape:connector-curvature="0"
           sodipodi:nodetypes="sccsssscsss" />
        <path
           sodipodi:type="arc"
           style="color:#000000;fill:#ffffff;fill-opacity:1;fill-rule:nonzero;stroke:#000000;stroke-width:10;stroke-linecap:butt;stroke-linejoin:miter;stroke-miterlimit:4;stroke-opacity:1;stroke-dasharray:none;stroke-dashoffset:0;marker:none;visibility:visible;display:inline;overflow:visible;enable-background:accumulate"
           id="path3904"
           sodipodi:cx="96.873627"
           sodipodi:cy="225.75435"
           sodipodi:rx="37.476658"
           sodipodi:ry="32.484623"
           d="m 134.35028,225.75435 c 0,17.94076 -16.77887,32.48462 -37.476653,32.48462 -20.697787,0 -37.476658,-14.54386 -37.476658,-32.48462 0,-17.94076 16.778871,-32.48462 37.476658,-32.48462 20.697783,0 37.476653,14.54386 37.476653,32.48462 z"
           transform="matrix(1.1331756,0,0,1.1331756,-70.883959,-64.006095)" />
      </g>
      <text
         sodipodi:linespacing="125%"
         id="text3921"
         y="268.57422"
         x="615.93091"
         style="font-size:22.82887268px;font-style:normal;font-variant:normal;font-weight:bold;font-stretch:normal;text-align:center;line-height:125%;letter-spacing:0px;word-spacing:0px;text-anchor:middle;fill:#000000;fill-opacity:1;stroke:none;font-family:Sawasdee;-inkscape-font-specification:Sawasdee Bold"
         xml:space="preserve"><tspan
           y="268.57422"
           x="615.93091"
           id="tspan3923"
           sodipodi:role="line">xarxa de</tspan><tspan
           id="tspan3925"
           y="297.11032"
           x="615.93091"
           sodipodi:role="line">telefonia</tspan><tspan
           id="tspan3927"
           y="325.64639"
           x="615.93091"
           sodipodi:role="line">convencional</tspan></text>
    </g>
    <g
       transform="translate(-6.8657417,176.97762)"
       id="g3069">
      <rect
         style="color:#000000;fill:#ffffff;fill-opacity:1;fill-rule:nonzero;stroke:#000000;stroke-width:7.22914267;stroke-linecap:butt;stroke-linejoin:miter;stroke-miterlimit:4;stroke-opacity:1;stroke-dasharray:none;stroke-dashoffset:0;marker:none;visibility:visible;display:inline;overflow:visible;enable-background:accumulate"
         id="rect3071"
         width="293.51407"
         height="41.671745"
         x="121.6448"
         y="252.44385"
         ry="0" />
      <path
         style="fill:none;stroke:#008000;stroke-width:6.34135342;stroke-linecap:butt;stroke-linejoin:miter;stroke-miterlimit:4;stroke-opacity:1;stroke-dasharray:none"
         d="m -74.37045,144.35856 c -63.22535,-3.38733 -48.90806,73.54264 -47.09624,102.53168 1.81181,28.98905 52.87089,25.48357 76.42448,25.48357 23.553614,0 476.50741,0 476.50741,0 0,0 76.18968,3.23845 132.26251,0 31.05579,-1.79361 46.76201,-3.36696 47.97344,-35.70413 1.21143,-32.33718 6.61171,-66.51021 51.89661,-69.73116"
         id="path3073"
         inkscape:connector-curvature="0"
         sodipodi:nodetypes="csscszc" />
      <path
         style="color:#000000;fill:#ffffff;fill-opacity:1;fill-rule:nonzero;stroke:#000000;stroke-width:7.22914267;stroke-linecap:butt;stroke-linejoin:miter;stroke-miterlimit:4;stroke-opacity:1;stroke-dasharray:none;stroke-dashoffset:0;marker:none;visibility:visible;display:inline;overflow:visible;enable-background:accumulate"
         d="m 249.38343,199.90932 c -17.51116,0 -31.70676,12.57042 -31.70676,28.08031 0,1.73486 0.17524,3.42518 0.51523,5.07308 -1.62525,-0.35566 -3.31578,-0.55487 -5.05326,-0.55487 -12.50797,0 -22.65052,9.7313 -22.65052,21.73895 0,9.25091 6.02283,17.15185 14.50584,20.29233 -0.002,0.11214 6.4e-4,0.22458 0,0.33689 -12.50441,2.41293 -21.73895,10.9139 -21.73895,21.04536 0,11.84258 12.61206,21.47639 28.31811,21.73896 -0.0387,0.6024 -0.0594,1.20826 -0.0594,1.82313 0,12.40772 8.02801,22.47218 17.93414,22.47218 3.47106,0 6.70687,-1.25042 9.45258,-3.38867 4.09099,3.88311 9.70527,6.28191 15.91283,6.28191 8.77045,0 16.37134,-4.79113 20.1338,-11.79096 3.27584,5.40045 8.45521,8.89772 14.28786,8.89772 8.48212,0 15.59056,-7.39063 17.45854,-17.30001 4.81739,2.42347 10.66085,3.84445 16.96312,3.84445 16.48351,0 29.84399,-9.71868 29.84399,-21.69932 0,-8.49474 -6.72239,-15.84008 -16.50733,-19.40058 0.38854,-1.13589 0.72914,-2.28257 1.01065,-3.44811 9.03224,-2.85838 15.55613,-11.0009 15.55613,-20.62922 0,-12.00765 -10.14254,-21.75876 -22.65052,-21.75876 -2.7206,0 -5.3318,0.46363 -7.74834,1.3079 -1.10408,-0.96694 -2.24933,-1.91258 -3.44811,-2.81398 0.79987,-2.36791 1.22863,-4.9123 1.22863,-7.55017 0,-13.00829 -10.53398,-23.54227 -23.54227,-23.54227 -7.46413,0 -14.134,3.46084 -18.44937,8.87789 -4.59083,-10.49931 -16.09157,-17.93414 -29.56656,-17.93414 z"
         id="path3075"
         inkscape:connector-curvature="0" />
      <rect
         style="color:#000000;fill:#ffffff;fill-opacity:1;fill-rule:nonzero;stroke:#000000;stroke-width:6.28464079;stroke-linecap:butt;stroke-linejoin:miter;stroke-miterlimit:4;stroke-opacity:1;stroke-dasharray:none;stroke-dashoffset:0;marker:none;visibility:visible;display:inline;overflow:visible;enable-background:accumulate"
         id="rect3077"
         width="135.01883"
         height="98.782524"
         x="-9.2781525"
         y="222.98254" />
      <text
         xml:space="preserve"
         style="font-size:22.82887268px;font-style:normal;font-variant:normal;font-weight:bold;font-stretch:normal;text-align:center;line-height:125%;letter-spacing:0px;word-spacing:0px;text-anchor:middle;fill:#000000;fill-opacity:1;stroke:none;font-family:Sawasdee;-inkscape-font-specification:Sawasdee Bold"
         x="56.419453"
         y="268.75018"
         id="text3079"
         sodipodi:linespacing="125%"><tspan
           sodipodi:role="line"
           id="tspan3081"
           x="56.419456"
           y="268.75018">Adaptador</tspan><tspan
           sodipodi:role="line"
           x="56.419453"
           y="297.28629"
           id="tspan3083">Telefonia IP</tspan></text>
      <rect
         y="222.98254"
         x="414.68665"
         height="98.782524"
         width="135.01883"
         id="rect3085"
         style="color:#000000;fill:#ffffff;fill-opacity:1;fill-rule:nonzero;stroke:#000000;stroke-width:6.28464079;stroke-linecap:butt;stroke-linejoin:miter;stroke-miterlimit:4;stroke-opacity:1;stroke-dasharray:none;stroke-dashoffset:0;marker:none;visibility:visible;display:inline;overflow:visible;enable-background:accumulate" />
      <text
         sodipodi:linespacing="125%"
         id="text3087"
         y="268.75018"
         x="480.38419"
         style="font-size:22.82887268px;font-style:normal;font-variant:normal;font-weight:bold;font-stretch:normal;text-align:center;line-height:125%;letter-spacing:0px;word-spacing:0px;text-anchor:middle;fill:#000000;fill-opacity:1;stroke:none;font-family:Sawasdee;-inkscape-font-specification:Sawasdee Bold"
         xml:space="preserve"><tspan
           y="268.75018"
           x="480.38419"
           id="tspan3089"
           sodipodi:role="line">Adaptador</tspan><tspan
           id="tspan3091"
           y="297.28629"
           x="480.38419"
           sodipodi:role="line">Telefonia IP</tspan></text>
      <text
         xml:space="preserve"
         style="font-size:22.82887268px;font-style:normal;font-variant:normal;font-weight:bold;font-stretch:normal;text-align:center;line-height:125%;letter-spacing:0px;word-spacing:0px;text-anchor:middle;fill:#000000;fill-opacity:1;stroke:none;font-family:Sawasdee;-inkscape-font-specification:Sawasdee Bold"
         x="264.25922"
         y="258.53311"
         id="text3111"
         sodipodi:linespacing="125%"><tspan
           sodipodi:role="line"
           x="264.25922"
           y="258.53311"
           id="tspan3113">guifi.net</tspan><tspan
           sodipodi:role="line"
           x="264.25922"
           y="287.06921"
           id="tspan3115">+</tspan><tspan
           sodipodi:role="line"
           x="264.25922"
           y="315.60529"
           id="tspan3117">Internet</tspan></text>
      <g
         id="g3119"
         transform="matrix(0.63413533,0,0,0.63413533,-51.290357,-10.108664)">
        <path
           inkscape:connector-curvature="0"
           id="path3121"
           d="m -25.41048,99.1875 c -22.57821,4.69099 -50.48339,29.83864 -50.96875,50.1875 0,18.35464 14.270157,20.52208 31.84375,20.52208 12.45275,0 23.211247,5.23779 28.4375,-5.64708 l 115.625,0 c 5.22625,10.88487 16.016,11.30393 28.46875,11.30393 17.57359,0 31.8125,-7.82429 31.8125,-26.17893 -5.3974,-23.55042 -33.74689,-49.725462 -55.125,-50.1875 z"
           style="color:#000000;fill:#ffffff;fill-opacity:1;fill-rule:nonzero;stroke:#000000;stroke-width:10;stroke-linecap:butt;stroke-linejoin:miter;stroke-miterlimit:4;stroke-opacity:1;stroke-dasharray:none;stroke-dashoffset:0;marker:none;visibility:visible;display:inline;overflow:visible;enable-background:accumulate"
           sodipodi:nodetypes="ccsccsccc" />
        <path
           transform="translate(99.63225,-5.6568542)"
           d="m -58.5,249.50504 c 0,0.82842 -0.671573,1.5 -1.5,1.5 -0.828427,0 -1.5,-0.67158 -1.5,-1.5 0,-0.82843 0.671573,-1.5 1.5,-1.5 0.828427,0 1.5,0.67157 1.5,1.5 z"
           sodipodi:ry="1.5"
           sodipodi:rx="1.5"
           sodipodi:cy="249.50504"
           sodipodi:cx="-60"
           style="fill:#000000;stroke:none"
           id="path3123"
           sodipodi:type="arc" />
        <path
           sodipodi:nodetypes="sccsssscsss"
           inkscape:connector-curvature="0"
           id="path3125"
           d="m 5.6791223,124.6244 c -17.2364313,0 -31.1250003,1.16065 -31.1250003,31.125 0,0 -26.274354,33.92254 -26.84375,56.5625 l 0,39.59375 c 0,20.37033 16.379667,36.78125 36.75,36.78125 l 110.312508,0 c 20.37033,0 36.78125,-16.41092 36.78125,-36.78125 l 0,-39.59375 c -7.61497,-30.30933 -26.875,-56.5625 -26.875,-56.5625 0,-25.72171 -13.88857,-31.125 -31.125,-31.125 z"
           style="color:#000000;fill:#ffffff;fill-opacity:1;fill-rule:nonzero;stroke:#000000;stroke-width:10;stroke-linecap:butt;stroke-linejoin:miter;stroke-miterlimit:4;stroke-opacity:1;stroke-dasharray:none;stroke-dashoffset:0;marker:none;visibility:visible;display:inline;overflow:visible;enable-background:accumulate" />
        <path
           transform="matrix(1.1331756,0,0,1.1331756,-70.883959,-64.006095)"
           d="m 134.35028,225.75435 c 0,17.94076 -16.77887,32.48462 -37.476653,32.48462 -20.697787,0 -37.476658,-14.54386 -37.476658,-32.48462 0,-17.94076 16.778871,-32.48462 37.476658,-32.48462 20.697783,0 37.476653,14.54386 37.476653,32.48462 z"
           sodipodi:ry="32.484623"
           sodipodi:rx="37.476658"
           sodipodi:cy="225.75435"
           sodipodi:cx="96.873627"
           id="path3127"
           style="color:#000000;fill:#ffffff;fill-opacity:1;fill-rule:nonzero;stroke:#000000;stroke-width:10;stroke-linecap:butt;stroke-linejoin:miter;stroke-miterlimit:4;stroke-opacity:1;stroke-dasharray:none;stroke-dashoffset:0;marker:none;visibility:visible;display:inline;overflow:visible;enable-background:accumulate"
           sodipodi:type="arc" />
      </g>
      <g
         transform="matrix(0.63413533,0,0,0.63413533,693.70964,14.891336)"
         id="g3137">
        <path
           sodipodi:nodetypes="ccsccsccc"
           style="color:#000000;fill:#ffffff;fill-opacity:1;fill-rule:nonzero;stroke:#000000;stroke-width:10;stroke-linecap:butt;stroke-linejoin:miter;stroke-miterlimit:4;stroke-opacity:1;stroke-dasharray:none;stroke-dashoffset:0;marker:none;visibility:visible;display:inline;overflow:visible;enable-background:accumulate"
           d="m -25.41048,99.1875 c -22.57821,4.69099 -50.48339,29.83864 -50.96875,50.1875 0,18.35464 14.270157,20.52208 31.84375,20.52208 12.45275,0 23.211247,5.23779 28.4375,-5.64708 l 115.625,0 c 5.22625,10.88487 16.016,11.30393 28.46875,11.30393 17.57359,0 31.8125,-7.82429 31.8125,-26.17893 -5.3974,-23.55042 -33.74689,-49.725462 -55.125,-50.1875 z"
           id="path3139"
           inkscape:connector-curvature="0" />
        <path
           sodipodi:type="arc"
           id="path3141"
           style="fill:#000000;stroke:none"
           sodipodi:cx="-60"
           sodipodi:cy="249.50504"
           sodipodi:rx="1.5"
           sodipodi:ry="1.5"
           d="m -58.5,249.50504 c 0,0.82842 -0.671573,1.5 -1.5,1.5 -0.828427,0 -1.5,-0.67158 -1.5,-1.5 0,-0.82843 0.671573,-1.5 1.5,-1.5 0.828427,0 1.5,0.67157 1.5,1.5 z"
           transform="translate(99.63225,-5.6568542)" />
        <path
           style="color:#000000;fill:#ffffff;fill-opacity:1;fill-rule:nonzero;stroke:#000000;stroke-width:10;stroke-linecap:butt;stroke-linejoin:miter;stroke-miterlimit:4;stroke-opacity:1;stroke-dasharray:none;stroke-dashoffset:0;marker:none;visibility:visible;display:inline;overflow:visible;enable-background:accumulate"
           d="m 5.6791223,124.6244 c -17.2364313,0 -31.1250003,1.16065 -31.1250003,31.125 0,0 -26.274354,33.92254 -26.84375,56.5625 l 0,39.59375 c 0,20.37033 16.379667,36.78125 36.75,36.78125 l 110.312508,0 c 20.37033,0 36.78125,-16.41092 36.78125,-36.78125 l 0,-39.59375 c -7.61497,-30.30933 -26.875,-56.5625 -26.875,-56.5625 0,-25.72171 -13.88857,-31.125 -31.125,-31.125 z"
           id="path3143"
           inkscape:connector-curvature="0"
           sodipodi:nodetypes="sccsssscsss" />
        <path
           sodipodi:type="arc"
           style="color:#000000;fill:#ffffff;fill-opacity:1;fill-rule:nonzero;stroke:#000000;stroke-width:10;stroke-linecap:butt;stroke-linejoin:miter;stroke-miterlimit:4;stroke-opacity:1;stroke-dasharray:none;stroke-dashoffset:0;marker:none;visibility:visible;display:inline;overflow:visible;enable-background:accumulate"
           id="path3145"
           sodipodi:cx="96.873627"
           sodipodi:cy="225.75435"
           sodipodi:rx="37.476658"
           sodipodi:ry="32.484623"
           d="m 134.35028,225.75435 c 0,17.94076 -16.77887,32.48462 -37.476653,32.48462 -20.697787,0 -37.476658,-14.54386 -37.476658,-32.48462 0,-17.94076 16.778871,-32.48462 37.476658,-32.48462 20.697783,0 37.476653,14.54386 37.476653,32.48462 z"
           transform="matrix(1.1331756,0,0,1.1331756,-70.883959,-64.006095)" />
      </g>
    </g>
  </g>
</svg>
