<?xml version="1.0" encoding="UTF-8" standalone="no"?>
<!-- Created with Inkscape (http://www.inkscape.org/) -->

<svg
   xmlns:dc="http://purl.org/dc/elements/1.1/"
   xmlns:cc="http://creativecommons.org/ns#"
   xmlns:rdf="http://www.w3.org/1999/02/22-rdf-syntax-ns#"
   xmlns:svg="http://www.w3.org/2000/svg"
   xmlns="http://www.w3.org/2000/svg"
   xmlns:xlink="http://www.w3.org/1999/xlink"
   xmlns:sodipodi="http://sodipodi.sourceforge.net/DTD/sodipodi-0.dtd"
   xmlns:inkscape="http://www.inkscape.org/namespaces/inkscape"
   width="1589.3527"
   height="503.87857"
   id="svg2"
   version="1.1"
   inkscape:version="0.48.4 r9939"
   sodipodi:docname="New document 1">
  <defs
     id="defs4" />
  <sodipodi:namedview
     id="base"
     pagecolor="#ffffff"
     bordercolor="#666666"
     borderopacity="1.0"
     inkscape:pageopacity="0.0"
     inkscape:pageshadow="2"
     inkscape:zoom="0.35355339"
     inkscape:cx="794.95408"
     inkscape:cy="11.713028"
     inkscape:document-units="px"
     inkscape:current-layer="layer1"
     showgrid="false"
     fit-margin-top="10"
     fit-margin-left="10"
     fit-margin-right="10"
     fit-margin-bottom="10"
     inkscape:window-width="1024"
     inkscape:window-height="701"
     inkscape:window-x="-2"
     inkscape:window-y="-3"
     inkscape:window-maximized="1" />
  <metadata
     id="metadata7">
    <rdf:RDF>
      <cc:Work
         rdf:about="">
        <dc:format>image/svg+xml</dc:format>
        <dc:type
           rdf:resource="http://purl.org/dc/dcmitype/StillImage" />
        <dc:title></dc:title>
      </cc:Work>
    </rdf:RDF>
  </metadata>
  <g
     inkscape:label="Layer 1"
     inkscape:groupmode="layer"
     id="layer1"
     transform="translate(195.25476,-84.1875)">
    <rect
       style="color:#000000;fill:#ffffff;fill-opacity:1;fill-rule:nonzero;stroke:#000000;stroke-width:11.39999962;stroke-linecap:butt;stroke-linejoin:miter;stroke-miterlimit:4;stroke-opacity:1;stroke-dasharray:none;stroke-dashoffset:0;marker:none;visibility:visible;display:inline;overflow:visible;enable-background:accumulate"
       id="rect3006"
       width="462.85715"
       height="65.714279"
       x="137.14285"
       y="426.64789"
       ry="0" />
    <path
       style="fill:none;stroke:#008000;stroke-width:10;stroke-linecap:butt;stroke-linejoin:miter;stroke-miterlimit:4;stroke-opacity:1;stroke-dasharray:none"
       d="m -60,260.93361 c -102.85714,51.42857 -122.85714,82.85714 -120,128.57143 2.85714,45.71429 17.14286,68.57143 54.28571,68.57143 37.142861,0 751.42858,0 751.42858,0 0,0 120.14735,5.10687 208.57142,0 48.97345,-2.82843 35.89456,-38.42549 37.80493,-89.41961 1.91037,-50.99412 41.96535,-68.61344 92.87704,-147.8094 2.82843,28.28427 30.18939,62.74229 63.05812,62.74229 32.8687,0 48.3951,-16.90432 54.458,-48.57143 0,0 3.0582,82.51255 48.7725,79.65541 45.7143,-2.85714 71.2276,-6.05888 71.2276,-6.05888"
       id="path3028"
       inkscape:connector-curvature="0"
       sodipodi:nodetypes="csscszczcsc" />
    <path
       style="color:#000000;fill:#ffffff;fill-opacity:1;fill-rule:nonzero;stroke:#000000;stroke-width:11.39999962;stroke-linecap:butt;stroke-linejoin:miter;stroke-miterlimit:4;stroke-opacity:1;stroke-dasharray:none;stroke-dashoffset:0;marker:none;visibility:visible;display:inline;overflow:visible;enable-background:accumulate"
       d="m 338.58036,343.80356 c -27.61424,0 -50,19.82293 -50,44.28125 0,2.7358 0.27634,5.40135 0.8125,8 -2.56295,-0.56086 -5.22882,-0.875 -7.96875,-0.875 -19.72446,0 -35.71875,15.34577 -35.71875,34.28125 0,14.58822 9.49771,27.04761 22.875,32 -0.003,0.17683 0.001,0.35414 0,0.53125 -19.71884,3.80507 -34.28125,17.21069 -34.28125,33.1875 0,18.67516 19.88859,33.86719 44.65625,34.28125 -0.061,0.94996 -0.0937,1.90537 -0.0937,2.875 0,19.56636 12.65978,35.4375 28.28125,35.4375 5.4737,0 10.5764,-1.97185 14.90625,-5.34375 6.45129,6.12347 15.30474,9.90625 25.09375,9.90625 13.83056,0 25.81679,-7.55537 31.75,-18.59375 5.16584,8.51624 13.33345,14.03125 22.53125,14.03125 13.37588,0 24.58554,-11.65465 27.53125,-27.28125 7.59679,3.82169 16.81164,6.0625 26.75,6.0625 25.99368,0 47.0625,-15.32587 47.0625,-34.21875 0,-13.39578 -10.60087,-24.97902 -26.03125,-30.59375 0.61272,-1.79125 1.14983,-3.5995 1.59375,-5.4375 14.2434,-4.50752 24.53125,-17.34787 24.53125,-32.53125 0,-18.93548 -15.99429,-34.3125 -35.71875,-34.3125 -4.29025,0 -8.40798,0.73112 -12.21875,2.0625 -1.74108,-1.52481 -3.54708,-3.01605 -5.4375,-4.4375 1.26136,-3.73408 1.9375,-7.74646 1.9375,-11.90625 0,-20.51343 -16.61157,-37.125 -37.125,-37.125 -11.77057,0 -22.28862,5.45758 -29.09375,14 -7.2395,-16.5569 -25.37561,-28.28125 -46.625,-28.28125 z"
       id="path2985"
       inkscape:connector-curvature="0" />
    <rect
       style="color:#000000;fill:#ffffff;fill-opacity:1;fill-rule:nonzero;stroke:#000000;stroke-width:9.91056728;stroke-linecap:butt;stroke-linejoin:miter;stroke-miterlimit:4;stroke-opacity:1;stroke-dasharray:none;stroke-dashoffset:0;marker:none;visibility:visible;display:inline;overflow:visible;enable-background:accumulate"
       id="rect3014"
       width="212.91801"
       height="155.77515"
       x="-69.316139"
       y="380.18887" />
    <text
       xml:space="preserve"
       style="font-size:36px;font-style:normal;font-variant:normal;font-weight:bold;font-stretch:normal;text-align:center;line-height:125%;letter-spacing:0px;word-spacing:0px;text-anchor:middle;fill:#000000;fill-opacity:1;stroke:none;font-family:Sawasdee;-inkscape-font-specification:Sawasdee Bold"
       x="34.285713"
       y="452.36218"
       id="text3016"
       sodipodi:linespacing="125%"><tspan
         sodipodi:role="line"
         id="tspan3018"
         x="34.285713"
         y="452.36218">Adaptador</tspan><tspan
         sodipodi:role="line"
         x="34.285713"
         y="497.36218"
         id="tspan3020">Telefonia IP</tspan></text>
    <rect
       y="380.18887"
       x="599.25531"
       height="155.77515"
       width="212.91801"
       id="rect3798"
       style="color:#000000;fill:#ffffff;fill-opacity:1;fill-rule:nonzero;stroke:#000000;stroke-width:9.91056728;stroke-linecap:butt;stroke-linejoin:miter;stroke-miterlimit:4;stroke-opacity:1;stroke-dasharray:none;stroke-dashoffset:0;marker:none;visibility:visible;display:inline;overflow:visible;enable-background:accumulate" />
    <text
       sodipodi:linespacing="125%"
       id="text3800"
       y="452.36218"
       x="702.85712"
       style="font-size:36px;font-style:normal;font-variant:normal;font-weight:bold;font-stretch:normal;text-align:center;line-height:125%;letter-spacing:0px;word-spacing:0px;text-anchor:middle;fill:#000000;fill-opacity:1;stroke:none;font-family:Sawasdee;-inkscape-font-specification:Sawasdee Bold"
       xml:space="preserve"><tspan
         y="452.36218"
         x="702.85712"
         id="tspan3802"
         sodipodi:role="line">Proveïdor</tspan><tspan
         id="tspan3804"
         y="497.36218"
         x="702.85712"
         sodipodi:role="line">Telefonia IP</tspan></text>
    <g
       id="g3817"
       transform="matrix(0.75999997,0,0,0.75999997,214.11432,50.452645)">
      <rect
         y="226.6479"
         x="942.85718"
         height="322.85715"
         width="5.7142859"
         id="rect3806"
         style="color:#000000;fill:#550000;fill-opacity:1;fill-rule:nonzero;stroke:#550000;stroke-width:10;stroke-linecap:butt;stroke-linejoin:miter;stroke-miterlimit:4;stroke-opacity:1;stroke-dasharray:none;stroke-dashoffset:0;marker:none;visibility:visible;display:inline;overflow:visible;enable-background:accumulate" />
      <rect
         y="215.21933"
         x="897.14288"
         height="14.285716"
         width="97.142845"
         id="rect3808"
         style="color:#000000;fill:#550000;fill-opacity:1;fill-rule:nonzero;stroke:#550000;stroke-width:10;stroke-linecap:butt;stroke-linejoin:miter;stroke-miterlimit:4;stroke-opacity:1;stroke-dasharray:none;stroke-dashoffset:0;marker:none;visibility:visible;display:inline;overflow:visible;enable-background:accumulate" />
    </g>
    <use
       x="0"
       y="0"
       xlink:href="#g3817"
       id="use3825"
       transform="matrix(0.75438593,0,0,0.75438593,356.40928,74.260243)"
       width="744.09448"
       height="1052.3622" />
    <g
       id="g3929"
       transform="translate(2.8284271,-28.284271)">
      <path
         sodipodi:nodetypes="cccccccc"
         inkscape:connector-curvature="0"
         id="path3829"
         d="m 1263.1433,213.8387 -127.2837,104.65625 37.9376,0 0,122.91976 166.8785,0 0,-122.91976 35.5938,0 z"
         style="color:#000000;fill:#ffffff;fill-opacity:1;fill-rule:nonzero;stroke:#000000;stroke-width:10;stroke-linecap:round;stroke-linejoin:round;stroke-miterlimit:4;stroke-opacity:1;stroke-dasharray:none;stroke-dashoffset:0;marker:none;visibility:visible;display:inline;overflow:visible;enable-background:accumulate" />
      <text
         sodipodi:linespacing="125%"
         id="text3872"
         y="345.11325"
         x="1256.0734"
         style="font-size:36px;font-style:normal;font-variant:normal;font-weight:bold;font-stretch:normal;text-align:center;line-height:125%;letter-spacing:0px;word-spacing:0px;text-anchor:middle;fill:#000000;fill-opacity:1;stroke:none;font-family:Sawasdee;-inkscape-font-specification:Sawasdee Bold"
         xml:space="preserve"><tspan
           y="345.11325"
           x="1256.0734"
           id="tspan3874"
           sodipodi:role="line">Casa de</tspan><tspan
           id="tspan3878"
           y="390.11325"
           x="1256.0734"
           sodipodi:role="line">l'àvia</tspan></text>
    </g>
    <text
       xml:space="preserve"
       style="font-size:36px;font-style:normal;font-variant:normal;font-weight:bold;font-stretch:normal;text-align:center;line-height:125%;letter-spacing:0px;word-spacing:0px;text-anchor:middle;fill:#000000;fill-opacity:1;stroke:none;font-family:Sawasdee;-inkscape-font-specification:Sawasdee Bold"
       x="362.0387"
       y="436.25037"
       id="text3892"
       sodipodi:linespacing="125%"><tspan
         sodipodi:role="line"
         x="362.0387"
         y="436.25037"
         id="tspan3896">guifi.net</tspan><tspan
         sodipodi:role="line"
         x="362.0387"
         y="481.25037"
         id="tspan3902">+</tspan><tspan
         sodipodi:role="line"
         x="362.0387"
         y="526.25037"
         id="tspan3900">Internet</tspan></text>
    <g
       id="g3913"
       transform="translate(-14.142136,0)">
      <path
         inkscape:connector-curvature="0"
         id="rect3890"
         d="m -25.41048,99.1875 c -22.57821,4.69099 -50.48339,29.83864 -50.96875,50.1875 0,18.35464 14.270157,20.52208 31.84375,20.52208 12.45275,0 23.211247,5.23779 28.4375,-5.64708 l 115.625,0 c 5.22625,10.88487 16.016,11.30393 28.46875,11.30393 17.57359,0 31.8125,-7.82429 31.8125,-26.17893 -5.3974,-23.55042 -33.74689,-49.725462 -55.125,-50.1875 z"
         style="color:#000000;fill:#ffffff;fill-opacity:1;fill-rule:nonzero;stroke:#000000;stroke-width:10;stroke-linecap:butt;stroke-linejoin:miter;stroke-miterlimit:4;stroke-opacity:1;stroke-dasharray:none;stroke-dashoffset:0;marker:none;visibility:visible;display:inline;overflow:visible;enable-background:accumulate"
         sodipodi:nodetypes="ccsccsccc" />
      <path
         transform="translate(99.63225,-5.6568542)"
         d="m -58.5,249.50504 a 1.5,1.5 0 1 1 -3,0 1.5,1.5 0 1 1 3,0 z"
         sodipodi:ry="1.5"
         sodipodi:rx="1.5"
         sodipodi:cy="249.50504"
         sodipodi:cx="-60"
         style="fill:#000000;stroke:none"
         id="path3024"
         sodipodi:type="arc" />
      <path
         sodipodi:nodetypes="sccsssscsss"
         inkscape:connector-curvature="0"
         id="rect3880"
         d="m 5.6791223,124.6244 c -17.2364313,0 -31.1250003,1.16065 -31.1250003,31.125 0,0 -26.274354,33.92254 -26.84375,56.5625 l 0,39.59375 c 0,20.37033 16.379667,36.78125 36.75,36.78125 l 110.312508,0 c 20.37033,0 36.78125,-16.41092 36.78125,-36.78125 l 0,-39.59375 c -7.61497,-30.30933 -26.875,-56.5625 -26.875,-56.5625 0,-25.72171 -13.88857,-31.125 -31.125,-31.125 z"
         style="color:#000000;fill:#ffffff;fill-opacity:1;fill-rule:nonzero;stroke:#000000;stroke-width:10;stroke-linecap:butt;stroke-linejoin:miter;stroke-miterlimit:4;stroke-opacity:1;stroke-dasharray:none;stroke-dashoffset:0;marker:none;visibility:visible;display:inline;overflow:visible;enable-background:accumulate" />
      <path
         transform="matrix(1.1331756,0,0,1.1331756,-70.883959,-64.006095)"
         d="m 134.35028,225.75435 a 37.476658,32.484623 0 1 1 -74.953311,0 37.476658,32.484623 0 1 1 74.953311,0 z"
         sodipodi:ry="32.484623"
         sodipodi:rx="37.476658"
         sodipodi:cy="225.75435"
         sodipodi:cx="96.873627"
         id="path3904"
         style="color:#000000;fill:#ffffff;fill-opacity:1;fill-rule:nonzero;stroke:#000000;stroke-width:10;stroke-linecap:butt;stroke-linejoin:miter;stroke-miterlimit:4;stroke-opacity:1;stroke-dasharray:none;stroke-dashoffset:0;marker:none;visibility:visible;display:inline;overflow:visible;enable-background:accumulate"
         sodipodi:type="arc" />
    </g>
    <text
       xml:space="preserve"
       style="font-size:36px;font-style:normal;font-variant:normal;font-weight:bold;font-stretch:normal;text-align:center;line-height:125%;letter-spacing:0px;word-spacing:0px;text-anchor:middle;fill:#000000;fill-opacity:1;stroke:none;font-family:Sawasdee;-inkscape-font-specification:Sawasdee Bold"
       x="1038.0327"
       y="458.39249"
       id="text3921"
       sodipodi:linespacing="125%"><tspan
         sodipodi:role="line"
         id="tspan3923"
         x="1038.0327"
         y="458.39249">xarxa de</tspan><tspan
         sodipodi:role="line"
         x="1038.0327"
         y="503.39249"
         id="tspan3925">telefonia</tspan><tspan
         sodipodi:role="line"
         x="1038.0327"
         y="548.39246"
         id="tspan3927">convencional</tspan></text>
  </g>
</svg>
