<?xml version="1.0" encoding="UTF-8" standalone="no"?>
<!-- Created with Inkscape (http://www.inkscape.org/) -->

<svg
   xmlns:dc="http://purl.org/dc/elements/1.1/"
   xmlns:cc="http://creativecommons.org/ns#"
   xmlns:rdf="http://www.w3.org/1999/02/22-rdf-syntax-ns#"
   xmlns:svg="http://www.w3.org/2000/svg"
   xmlns="http://www.w3.org/2000/svg"
   xmlns:xlink="http://www.w3.org/1999/xlink"
   xmlns:sodipodi="http://sodipodi.sourceforge.net/DTD/sodipodi-0.dtd"
   xmlns:inkscape="http://www.inkscape.org/namespaces/inkscape"
   width="1052.3622"
   height="744.09448"
   id="svg7075"
   version="1.1"
   inkscape:version="0.48.4 r9939"
   sodipodi:docname="figura-xarxaciutadana.svg"
   inkscape:export-filename="/home/vokimon/Documents/guifibaix/web/content/media/images/figura-xarxaciutadana.png"
   inkscape:export-xdpi="19.715239"
   inkscape:export-ydpi="19.715239">
  <defs
     id="defs7077" />
  <sodipodi:namedview
     id="base"
     pagecolor="#ffffff"
     bordercolor="#666666"
     borderopacity="1.0"
     inkscape:pageopacity="0.0"
     inkscape:pageshadow="2"
     inkscape:zoom="0.57109616"
     inkscape:cx="619.55154"
     inkscape:cy="487.0546"
     inkscape:document-units="px"
     inkscape:current-layer="layer1"
     showgrid="false"
     inkscape:window-width="1680"
     inkscape:window-height="983"
     inkscape:window-x="-2"
     inkscape:window-y="-3"
     inkscape:window-maximized="1" />
  <metadata
     id="metadata7080">
    <rdf:RDF>
      <cc:Work
         rdf:about="">
        <dc:format>image/svg+xml</dc:format>
        <dc:type
           rdf:resource="http://purl.org/dc/dcmitype/StillImage" />
        <dc:title></dc:title>
      </cc:Work>
    </rdf:RDF>
  </metadata>
  <g
     inkscape:label="Layer 1"
     inkscape:groupmode="layer"
     id="layer1"
     transform="translate(0,-308.2677)">
    <path
       inkscape:connector-curvature="0"
       inkscape:connector-type="polyline"
       id="path9816"
       d="m 622.43764,624.58792 55.53035,291.23909"
       style="fill:none;stroke:#ff6600;stroke-width:15;stroke-linecap:round;stroke-linejoin:miter;stroke-miterlimit:4;stroke-opacity:1;stroke-dasharray:none;display:inline;color:#000000;stroke-dashoffset:0;marker:none;visibility:visible;overflow:visible;enable-background:accumulate"
       inkscape:connection-end="#use7128"
       inkscape:connection-end-point="d4"
       inkscape:connection-start="#use7116"
       inkscape:connection-start-point="d4"
       inkscape:export-filename="/home/vokimon/Documents/guifibaix/web/content/media/images/path7150.png"
       inkscape:export-xdpi="19"
       inkscape:export-ydpi="19" />
    <path
       inkscape:connection-start-point="d4"
       inkscape:connection-start="#use7124"
       inkscape:connector-curvature="0"
       inkscape:connector-type="polyline"
       id="path9812"
       d="M 60.43877,653.92193 430.15549,436.77631"
       style="fill:none;stroke:#4ace5d;stroke-width:15;stroke-linecap:round;stroke-linejoin:miter;stroke-miterlimit:4;stroke-opacity:1;stroke-dasharray:none;display:inline"
       sodipodi:nodetypes="cc"
       inkscape:connection-end="#use7120"
       inkscape:connection-end-point="d4"
       inkscape:export-filename="/home/vokimon/Documents/guifibaix/web/content/media/images/path7150.png"
       inkscape:export-xdpi="19"
       inkscape:export-ydpi="19" />
    <path
       style="fill:none;stroke:#ff6600;stroke-width:15;stroke-linecap:round;stroke-linejoin:miter;stroke-miterlimit:4;stroke-opacity:1;stroke-dasharray:none;display:inline"
       d="m 143.58572,410.68488 286.56977,26.09143"
       id="path7132"
       inkscape:connector-type="polyline"
       inkscape:connector-curvature="0"
       inkscape:connection-end="#use7120"
       inkscape:connection-end-point="d4"
       inkscape:connection-start="#use7112"
       inkscape:connection-start-point="d4"
       inkscape:export-filename="/home/vokimon/Documents/guifibaix/web/content/media/images/path7150.png"
       inkscape:export-xdpi="19"
       inkscape:export-ydpi="19" />
    <path
       style="fill:none;stroke:#4ace5d;stroke-width:15;stroke-linecap:round;stroke-linejoin:miter;stroke-miterlimit:4;stroke-opacity:1;stroke-dasharray:none;display:inline"
       d="M 143.58572,410.68488 60.43877,653.92193"
       id="path7134"
       inkscape:connector-type="polyline"
       inkscape:connector-curvature="0"
       inkscape:connection-end="#use7124"
       inkscape:connection-end-point="d4"
       inkscape:connection-start="#use7112"
       inkscape:connection-start-point="d4"
       inkscape:export-filename="/home/vokimon/Documents/guifibaix/web/content/media/images/path7150.png"
       inkscape:export-xdpi="19"
       inkscape:export-ydpi="19" />
    <path
       style="fill:none;stroke:#4ace5d;stroke-width:15;stroke-linecap:round;stroke-linejoin:miter;stroke-miterlimit:4;stroke-opacity:1;stroke-dasharray:none;display:inline"
       d="M 60.43877,653.92193 347.29556,779.82941"
       id="path7136"
       inkscape:connector-type="polyline"
       inkscape:connector-curvature="0"
       inkscape:connection-start="#use7124"
       inkscape:connection-start-point="d4"
       inkscape:connection-end="#use7118"
       inkscape:connection-end-point="d4"
       inkscape:export-filename="/home/vokimon/Documents/guifibaix/web/content/media/images/path7150.png"
       inkscape:export-xdpi="19"
       inkscape:export-ydpi="19" />
    <path
       style="fill:none;stroke:#4ace5d;stroke-width:15;stroke-linecap:round;stroke-linejoin:miter;stroke-miterlimit:4;stroke-opacity:1;stroke-dasharray:none;display:inline"
       d="m 60.43877,653.92193 58.14416,283.6699"
       id="path7138"
       inkscape:connector-type="polyline"
       inkscape:connector-curvature="0"
       inkscape:connection-start="#use7124"
       inkscape:connection-start-point="d4"
       inkscape:connection-end="#use7126"
       inkscape:connection-end-point="d4"
       inkscape:export-filename="/home/vokimon/Documents/guifibaix/web/content/media/images/path7150.png"
       inkscape:export-xdpi="19"
       inkscape:export-ydpi="19" />
    <path
       style="fill:none;stroke:#4ace5d;stroke-width:15;stroke-linecap:round;stroke-linejoin:miter;stroke-miterlimit:4;stroke-opacity:1;stroke-dasharray:none;display:inline"
       d="M 118.58293,937.59183 347.29556,779.82941"
       id="path7140"
       inkscape:connector-type="polyline"
       inkscape:connector-curvature="0"
       inkscape:connection-start="#use7126"
       inkscape:connection-start-point="d4"
       sodipodi:nodetypes="cc"
       inkscape:connection-end="#use7118"
       inkscape:connection-end-point="d4"
       inkscape:export-filename="/home/vokimon/Documents/guifibaix/web/content/media/images/path7150.png"
       inkscape:export-xdpi="19"
       inkscape:export-ydpi="19" />
    <path
       style="fill:none;stroke:#4ace5d;stroke-width:15;stroke-linecap:round;stroke-linejoin:miter;stroke-miterlimit:4;stroke-opacity:1;stroke-dasharray:none;display:inline"
       d="m 347.29556,779.82941 330.67243,135.9976"
       id="path7142"
       inkscape:connector-type="polyline"
       inkscape:connector-curvature="0"
       inkscape:connection-start="#use7118"
       inkscape:connection-start-point="d4"
       inkscape:connection-end="#use7128"
       inkscape:connection-end-point="d4"
       inkscape:export-filename="/home/vokimon/Documents/guifibaix/web/content/media/images/path7150.png"
       inkscape:export-xdpi="19"
       inkscape:export-ydpi="19" />
    <path
       style="fill:none;stroke:#4ace5d;stroke-width:15;stroke-linecap:round;stroke-linejoin:miter;stroke-miterlimit:4;stroke-opacity:1;stroke-dasharray:none;display:inline"
       d="M 347.29556,779.82941 622.43764,624.58792"
       id="path7144"
       inkscape:connector-type="polyline"
       inkscape:connector-curvature="0"
       inkscape:connection-start-point="d4"
       inkscape:connection-start="#use7118"
       inkscape:connection-end="#use7116"
       inkscape:connection-end-point="d4"
       inkscape:export-filename="/home/vokimon/Documents/guifibaix/web/content/media/images/path7150.png"
       inkscape:export-xdpi="19"
       inkscape:export-ydpi="19" />
    <path
       style="fill:none;stroke:#ff6600;stroke-width:15;stroke-linecap:round;stroke-linejoin:miter;stroke-miterlimit:4;stroke-opacity:1;stroke-dasharray:none;display:inline;color:#000000;stroke-dashoffset:0;marker:none;visibility:visible;overflow:visible;enable-background:accumulate"
       d="M 430.15549,436.77631 622.43764,624.58792"
       id="path7146"
       inkscape:connector-type="polyline"
       inkscape:connector-curvature="0"
       inkscape:connection-start="#use7120"
       inkscape:connection-start-point="d4"
       inkscape:connection-end="#use7116"
       inkscape:connection-end-point="d4"
       inkscape:export-filename="/home/vokimon/Documents/guifibaix/web/content/media/images/path7150.png"
       inkscape:export-xdpi="19"
       inkscape:export-ydpi="19" />
    <path
       style="fill:none;stroke:#4ace5d;stroke-width:15;stroke-linecap:round;stroke-linejoin:miter;stroke-miterlimit:4;stroke-opacity:1;stroke-dasharray:none;display:inline"
       d="M 622.43764,624.58792 744.6353,406.68432"
       id="path7148"
       inkscape:connector-type="polyline"
       inkscape:connector-curvature="0"
       inkscape:connection-end-point="d4"
       inkscape:connection-end="#use7114"
       inkscape:connection-start-point="d4"
       inkscape:connection-start="#use7116"
       inkscape:export-filename="/home/vokimon/Documents/guifibaix/web/content/media/images/path7150.png"
       inkscape:export-xdpi="19"
       inkscape:export-ydpi="19" />
    <path
       style="fill:none;stroke:#4ace5d;stroke-width:15;stroke-linecap:round;stroke-linejoin:miter;stroke-miterlimit:4;stroke-opacity:1;stroke-dasharray:none;display:inline"
       d="m 744.6353,406.68432 228.09309,61.66639"
       id="path7150"
       inkscape:connector-type="polyline"
       inkscape:connector-curvature="0"
       inkscape:connection-start="#use7114"
       inkscape:connection-start-point="d4"
       inkscape:connection-end="#use7122"
       inkscape:connection-end-point="d4"
       inkscape:export-xdpi="19"
       inkscape:export-ydpi="19" />
    <path
       style="fill:none;stroke:#4ace5d;stroke-width:15;stroke-linecap:round;stroke-linejoin:miter;stroke-miterlimit:4;stroke-opacity:1;stroke-dasharray:none;display:inline"
       d="M 994.58514,701.20782 972.72838,468.35071"
       id="path7152"
       inkscape:connector-type="polyline"
       inkscape:connector-curvature="0"
       inkscape:connection-end="#use7122"
       inkscape:connection-end-point="d4"
       inkscape:connection-start="#use7130"
       inkscape:connection-start-point="d4"
       inkscape:export-filename="/home/vokimon/Documents/guifibaix/web/content/media/images/path7150.png"
       inkscape:export-xdpi="19"
       inkscape:export-ydpi="19" />
    <path
       style="fill:none;stroke:#4ace5d;stroke-width:15;stroke-linecap:round;stroke-linejoin:miter;stroke-miterlimit:4;stroke-opacity:1;stroke-dasharray:none;display:inline"
       d="m 622.43764,624.58792 372.1475,76.6199"
       id="path7154"
       inkscape:connector-type="polyline"
       inkscape:connector-curvature="0"
       inkscape:connection-end-point="d4"
       inkscape:connection-end="#use7130"
       inkscape:connection-start-point="d4"
       inkscape:connection-start="#use7116"
       inkscape:export-filename="/home/vokimon/Documents/guifibaix/web/content/media/images/path7150.png"
       inkscape:export-xdpi="19"
       inkscape:export-ydpi="19" />
    <path
       style="fill:none;stroke:#4ace5d;stroke-width:15;stroke-linecap:round;stroke-linejoin:miter;stroke-miterlimit:4;stroke-opacity:1;stroke-dasharray:none"
       d="M 677.96799,915.82701 994.58514,701.20782"
       id="path7156"
       inkscape:connector-type="polyline"
       inkscape:connector-curvature="0"
       inkscape:connection-start="#use7128"
       inkscape:connection-start-point="d4"
       inkscape:connection-end="#use7130"
       inkscape:connection-end-point="d4"
       inkscape:export-filename="/home/vokimon/Documents/guifibaix/web/content/media/images/path7150.png"
       inkscape:export-xdpi="19"
       inkscape:export-ydpi="19" />
    <path
       style="fill:none;stroke:#4ace5d;stroke-width:15;stroke-linecap:round;stroke-linejoin:miter;stroke-miterlimit:4;stroke-opacity:1;stroke-dasharray:none"
       d="M 430.15549,436.77631 744.6353,406.68432"
       id="path7158"
       inkscape:connector-type="polyline"
       inkscape:connector-curvature="0"
       inkscape:connection-start="#use7120"
       inkscape:connection-start-point="d4"
       inkscape:connection-end="#use7114"
       inkscape:connection-end-point="d4"
       inkscape:export-filename="/home/vokimon/Documents/guifibaix/web/content/media/images/path7150.png"
       inkscape:export-xdpi="19"
       inkscape:export-ydpi="19" />
    <path
       style="fill:none;stroke:#4ace5d;stroke-width:15;stroke-linecap:round;stroke-linejoin:miter;stroke-miterlimit:4;stroke-opacity:1;stroke-dasharray:none"
       d="m 677.96799,915.82701 236.56794,32.19114"
       id="path7164"
       inkscape:connector-type="polyline"
       inkscape:connector-curvature="0"
       inkscape:connection-start="#use7128"
       inkscape:connection-start-point="d4"
       inkscape:connection-end="#g7104"
       inkscape:connection-end-point="d4"
       inkscape:export-filename="/home/vokimon/Documents/guifibaix/web/content/media/images/path7150.png"
       inkscape:export-xdpi="19"
       inkscape:export-ydpi="19" />
    <path
       style="fill:none;stroke:#4ace5d;stroke-width:15;stroke-linecap:round;stroke-linejoin:miter;stroke-miterlimit:4;stroke-opacity:1;stroke-dasharray:none;display:inline"
       d="M 994.58514,701.20782 914.53593,948.01815"
       id="path7166"
       inkscape:connector-type="polyline"
       inkscape:connector-curvature="0"
       inkscape:connection-end-point="d4"
       inkscape:connection-end="#g7104"
       inkscape:connection-start-point="d4"
       inkscape:connection-start="#use7130"
       inkscape:export-filename="/home/vokimon/Documents/guifibaix/web/content/media/images/path7150.png"
       inkscape:export-xdpi="19"
       inkscape:export-ydpi="19" />
    <g
       id="g7104"
       transform="matrix(0.40393196,0,0,0.40393196,703.16285,688.71729)">
      <path
         style="color:#000000;fill:#404040;fill-opacity:1;fill-rule:nonzero;stroke:#424242;stroke-width:4.83719301;stroke-linecap:butt;stroke-linejoin:miter;stroke-miterlimit:4;stroke-opacity:1;stroke-dasharray:none;stroke-dashoffset:0;marker:none;visibility:visible;display:inline;overflow:visible;enable-background:accumulate"
         d="m 978.375,531.1875 c -5.59745,0 -10.125,4.52755 -10.125,10.125 0,5.59745 4.52755,10.125 10.125,10.125 5.59745,0 10.15625,-4.52755 10.15625,-10.125 0,-5.59745 -4.5588,-10.125 -10.15625,-10.125 z m -8.4375,28.09375 c -2.33965,0 -4.47212,0.85446 -6.09375,2.28125 -0.93486,0.2976 -1.7712,0.92914 -2.3125,1.84375 l -25.34375,42.8125 c -1.1699,1.97672 -0.50797,4.5176 1.46875,5.6875 1.97672,1.1699 4.5176,0.50797 5.6875,-1.46875 l 17.375,-29.34375 0,30.6875 0,60.5625 c 0,3.31785 2.68215,5.96875 6,5.96875 3.31785,0 6,-2.6509 6,-5.96875 l 0,-51.34375 8.75,0 0,51.34375 c 0,3.31785 2.6509,5.96875 5.96875,5.96875 3.31785,0 6,-2.6509 6,-5.96875 l 0,-60.5625 0,-31.96875 18.125,30.625 c 1.1699,1.97672 3.7108,2.63865 5.6875,1.46875 1.9767,-1.1699 2.6387,-3.71078 1.4688,-5.6875 l -25.3438,-42.8125 c -0.71978,-1.21618 -1.97646,-1.93448 -3.28125,-2.03125 -1.59146,-1.31231 -3.64183,-2.09375 -5.875,-2.09375 l -14.28125,0 z"
         transform="matrix(3.100972,0,0,3.100972,-2507.766,-1233.3709)"
         id="path7083"
         inkscape:connector-curvature="0" />
    </g>
    <use
       x="0"
       y="0"
       xlink:href="#g7104"
       id="use7112"
       style="fill:#d35f5f"
       transform="translate(-770.95021,-537.33327)"
       width="1052.3622"
       height="744.09448" />
    <use
       x="0"
       y="0"
       xlink:href="#use7112"
       id="use7114"
       transform="translate(601.04958,-4.0005578)"
       width="1052.3622"
       height="744.09448" />
    <use
       x="0"
       y="0"
       xlink:href="#use7114"
       id="use7116"
       transform="translate(-122.19766,217.9036)"
       width="1052.3622"
       height="744.09448" />
    <use
       x="0"
       y="0"
       xlink:href="#use7116"
       id="use7118"
       transform="translate(-275.14208,155.24149)"
       width="1052.3622"
       height="744.09448" />
    <use
       x="0"
       y="0"
       xlink:href="#use7118"
       id="use7120"
       transform="translate(82.859932,-343.0531)"
       width="1052.3622"
       height="744.09448" />
    <use
       x="0"
       y="0"
       xlink:href="#use7120"
       id="use7122"
       transform="translate(542.57289,31.574401)"
       width="1052.3622"
       height="744.09448" />
    <use
       x="0"
       y="0"
       xlink:href="#use7116"
       id="use7124"
       transform="translate(-561.99887,29.334012)"
       width="1052.3622"
       height="744.09448"
       style="fill:#d35f5f" />
    <use
       x="0"
       y="0"
       xlink:href="#use7124"
       id="use7126"
       transform="translate(58.144162,283.6699)"
       width="1052.3622"
       height="744.09448"
       style="fill:#f4d7d7" />
    <use
       x="0"
       y="0"
       xlink:href="#use7126"
       id="use7128"
       transform="translate(559.38506,-21.764824)"
       width="1052.3622"
       height="744.09448" />
    <use
       x="0"
       y="0"
       xlink:href="#use7128"
       id="use7130"
       transform="translate(316.61715,-214.61919)"
       width="1052.3622"
       height="744.09448" />
    <g
       transform="matrix(0.40393196,0,0,0.40393196,467.43668,656.5252)"
       id="g9818"
       style="fill:#ffcc00">
      <path
         inkscape:connector-curvature="0"
         id="path9820"
         transform="matrix(3.100972,0,0,3.100972,-2507.766,-1233.3709)"
         d="m 978.375,531.1875 c -5.59745,0 -10.125,4.52755 -10.125,10.125 0,5.59745 4.52755,10.125 10.125,10.125 5.59745,0 10.15625,-4.52755 10.15625,-10.125 0,-5.59745 -4.5588,-10.125 -10.15625,-10.125 z m -8.4375,28.09375 c -2.33965,0 -4.47212,0.85446 -6.09375,2.28125 -0.93486,0.2976 -1.7712,0.92914 -2.3125,1.84375 l -25.34375,42.8125 c -1.1699,1.97672 -0.50797,4.5176 1.46875,5.6875 1.97672,1.1699 4.5176,0.50797 5.6875,-1.46875 l 17.375,-29.34375 0,30.6875 0,60.5625 c 0,3.31785 2.68215,5.96875 6,5.96875 3.31785,0 6,-2.6509 6,-5.96875 l 0,-51.34375 8.75,0 0,51.34375 c 0,3.31785 2.6509,5.96875 5.96875,5.96875 3.31785,0 6,-2.6509 6,-5.96875 l 0,-60.5625 0,-31.96875 18.125,30.625 c 1.1699,1.97672 3.7108,2.63865 5.6875,1.46875 1.9767,-1.1699 2.6387,-3.71078 1.4688,-5.6875 l -25.3438,-42.8125 c -0.71978,-1.21618 -1.97646,-1.93448 -3.28125,-2.03125 -1.59146,-1.31231 -3.64183,-2.09375 -5.875,-2.09375 l -14.28125,0 z"
         style="color:#000000;fill:#ffcc00;fill-opacity:1;fill-rule:nonzero;stroke:#424242;stroke-width:4.83719301000000002;stroke-linecap:butt;stroke-linejoin:miter;stroke-miterlimit:4;stroke-opacity:1;stroke-dasharray:none;stroke-dashoffset:0;marker:none;visibility:visible;display:inline;overflow:visible;enable-background:accumulate" />
    </g>
    <g
       style="fill:#d4aa00"
       id="g9822"
       transform="matrix(0.40393196,0,0,0.40393196,-67.256415,152.11893)">
      <path
         style="color:#000000;fill:#d4aa00;fill-opacity:1;fill-rule:nonzero;stroke:#424242;stroke-width:4.83719301000000002;stroke-linecap:butt;stroke-linejoin:miter;stroke-miterlimit:4;stroke-opacity:1;stroke-dasharray:none;stroke-dashoffset:0;marker:none;visibility:visible;display:inline;overflow:visible;enable-background:accumulate"
         d="m 978.375,531.1875 c -5.59745,0 -10.125,4.52755 -10.125,10.125 0,5.59745 4.52755,10.125 10.125,10.125 5.59745,0 10.15625,-4.52755 10.15625,-10.125 0,-5.59745 -4.5588,-10.125 -10.15625,-10.125 z m -8.4375,28.09375 c -2.33965,0 -4.47212,0.85446 -6.09375,2.28125 -0.93486,0.2976 -1.7712,0.92914 -2.3125,1.84375 l -25.34375,42.8125 c -1.1699,1.97672 -0.50797,4.5176 1.46875,5.6875 1.97672,1.1699 4.5176,0.50797 5.6875,-1.46875 l 17.375,-29.34375 0,30.6875 0,60.5625 c 0,3.31785 2.68215,5.96875 6,5.96875 3.31785,0 6,-2.6509 6,-5.96875 l 0,-51.34375 8.75,0 0,51.34375 c 0,3.31785 2.6509,5.96875 5.96875,5.96875 3.31785,0 6,-2.6509 6,-5.96875 l 0,-60.5625 0,-31.96875 18.125,30.625 c 1.1699,1.97672 3.7108,2.63865 5.6875,1.46875 1.9767,-1.1699 2.6387,-3.71078 1.4688,-5.6875 l -25.3438,-42.8125 c -0.71978,-1.21618 -1.97646,-1.93448 -3.28125,-2.03125 -1.59146,-1.31231 -3.64183,-2.09375 -5.875,-2.09375 l -14.28125,0 z"
         transform="matrix(3.100972,0,0,3.100972,-2507.766,-1233.3709)"
         id="path9824"
         inkscape:connector-curvature="0" />
    </g>
  </g>
</svg>
