<?xml version="1.0" encoding="UTF-8" standalone="no"?>
<!-- Generator: Adobe Illustrator 16.0.0, SVG Export Plug-In . SVG Version: 6.00 Build 0)  -->

<svg
   xmlns:dc="http://purl.org/dc/elements/1.1/"
   xmlns:cc="http://creativecommons.org/ns#"
   xmlns:rdf="http://www.w3.org/1999/02/22-rdf-syntax-ns#"
   xmlns:svg="http://www.w3.org/2000/svg"
   xmlns="http://www.w3.org/2000/svg"
   xmlns:xlink="http://www.w3.org/1999/xlink"
   xmlns:sodipodi="http://sodipodi.sourceforge.net/DTD/sodipodi-0.dtd"
   xmlns:inkscape="http://www.inkscape.org/namespaces/inkscape"
   version="1.1"
   id="Capa_1"
   x="0px"
   y="0px"
   width="1920px"
   height="1080px"
   viewBox="0 0 1920 1080"
   enable-background="new 0 0 1920 1080"
   xml:space="preserve"
   inkscape:version="0.91 r13725"
   sodipodi:docname="logo-guifibaix-darkbg.svg"><metadata
     id="metadata485"><rdf:RDF><cc:Work
         rdf:about=""><dc:format>image/svg+xml</dc:format><dc:type
           rdf:resource="http://purl.org/dc/dcmitype/StillImage" /><dc:title></dc:title></cc:Work></rdf:RDF></metadata><defs
     id="defs483" /><sodipodi:namedview
     pagecolor="#0f0f0f"
     bordercolor="#666666"
     borderopacity="1"
     objecttolerance="10"
     gridtolerance="10"
     guidetolerance="10"
     inkscape:pageopacity="0"
     inkscape:pageshadow="2"
     inkscape:window-width="1764"
     inkscape:window-height="886"
     id="namedview481"
     showgrid="false"
     inkscape:zoom="0.21851852"
     inkscape:cx="960"
     inkscape:cy="558.30508"
     inkscape:window-x="0"
     inkscape:window-y="0"
     inkscape:window-maximized="0"
     inkscape:current-layer="Capa_1" /><g
     id="g3"><defs
       id="defs5"><rect
         id="SVGID_1_"
         x="357.547"
         y="161.316"
         width="1204.905"
         height="757.368" /></defs><clipPath
       id="SVGID_2_"><use
         xlink:href="#SVGID_1_"
         overflow="visible"
         id="use9" /></clipPath></g><g
     id="g11"><defs
       id="defs13"><rect
         id="SVGID_3_"
         x="-17.731"
         y="-1"
         width="1920"
         height="1080" /></defs><clipPath
       id="SVGID_4_"><use
         xlink:href="#SVGID_3_"
         overflow="visible"
         id="use17" /></clipPath><path
       clip-path="url(#SVGID_4_)"
       fill="#8E8080"
       d="M423.384,679.081c0,0-0.445-0.658-1.306-1.934   c-0.43-0.638-0.965-1.43-1.601-2.37c-0.318-0.472-0.661-0.979-1.028-1.523c-0.092-0.136-0.186-0.275-0.281-0.415   c-0.115-0.191-0.233-0.386-0.352-0.584c-0.239-0.398-0.485-0.811-0.739-1.235c-1.012-1.698-2.127-3.604-3.328-5.71   c-0.651-1.075-1.084-2.093-1.632-3.199c-0.526-1.1-1.073-2.244-1.642-3.433c-1.199-2.346-2.151-5.021-3.25-7.831   c-1.165-2.788-2.006-5.88-2.987-9.108c-3.812-12.947-5.565-29.344-3.827-47.175c0.892-8.914,2.751-18.121,5.356-27.496   c0.703-2.319,1.416-4.668,2.137-7.045c0.801-2.335,1.661-4.674,2.51-7.048c0.81-2.395,1.842-4.696,2.804-7.067   c0.49-1.181,0.983-2.367,1.478-3.561c0.501-1.188,1.077-2.339,1.616-3.519c1.117-2.336,2.168-4.747,3.378-7.08   c1.215-2.328,2.442-4.679,3.68-7.052c2.62-4.639,5.254-9.388,8.226-13.985c2.852-4.69,6.037-9.223,9.22-13.856   c1.655-2.26,3.322-4.538,5.002-6.832c1.67-2.3,3.486-4.494,5.242-6.767c7.145-8.976,14.804-17.875,23.103-26.435   c8.28-8.575,16.973-17.059,26.234-25.146c9.233-8.117,18.83-16.085,28.889-23.646c1.25-0.955,2.501-1.912,3.755-2.87   c1.274-0.927,2.55-1.857,3.828-2.787c2.561-1.851,5.107-3.738,7.698-5.571c5.229-3.599,10.43-7.285,15.808-10.743   c21.327-14.114,43.911-26.856,67.005-38.404c23.134-11.476,46.867-21.588,70.595-30.405c23.754-8.761,47.537-16.132,70.778-22.254   c23.244-6.12,45.956-10.958,67.611-14.698c21.656-3.745,42.252-6.392,61.297-8.273c19.048-1.891,36.563-2.791,52.069-3.452   c3.879-0.095,7.635-0.188,11.26-0.275c3.623-0.08,7.114-0.208,10.472-0.184c3.356-0.01,6.575-0.02,9.652-0.028   c3.075-0.006,6.007-0.038,8.79,0.042c5.563,0.105,10.531,0.198,14.853,0.28c4.319,0.132,7.992,0.312,10.97,0.424   c5.952,0.242,9.126,0.371,9.126,0.371s-3.178,0.039-9.135,0.112c-2.977,0.046-6.648,0.059-10.964,0.156   c-4.313,0.146-9.27,0.315-14.821,0.504c-2.776,0.068-5.697,0.254-8.761,0.422c-3.063,0.171-6.267,0.35-9.607,0.536   c-3.341,0.153-6.812,0.465-10.411,0.735c-3.6,0.279-7.328,0.567-11.18,0.866c-15.383,1.474-32.715,3.287-51.487,6.159   c-18.77,2.862-38.997,6.559-60.164,11.384c-21.166,4.82-43.269,10.767-65.763,17.981c-22.491,7.216-45.385,15.665-68.098,25.434   c-22.687,9.826-45.229,20.879-67.018,33.162c-21.744,12.353-42.831,25.774-62.495,40.343c-4.966,3.575-9.737,7.356-14.535,11.043   c-2.373,1.876-4.697,3.798-7.037,5.685l-3.495,2.837c-1.14,0.971-2.277,1.941-3.413,2.91c-9.156,7.666-17.797,15.661-26.044,23.72   c-8.279,8.034-15.934,16.358-23.154,24.669c-7.242,8.3-13.789,16.799-19.807,25.236c-1.469,2.132-3.013,4.198-4.392,6.334   c-1.391,2.127-2.772,4.239-4.143,6.335c-2.594,4.26-5.214,8.421-7.474,12.644c-2.399,4.164-4.431,8.38-6.482,12.48   c-0.946,2.076-1.883,4.133-2.811,6.168c-0.927,2.034-1.679,4.094-2.518,6.101c-0.397,1.01-0.838,2.002-1.197,3.008   c-0.354,1.006-0.705,2.006-1.055,3.001c-0.683,1.992-1.455,3.942-1.989,5.907c-0.582,1.953-1.158,3.883-1.726,5.79   c-0.469,1.913-0.931,3.803-1.388,5.668c-1.635,7.461-2.667,14.525-2.963,21.059c-0.51,13.061,1.323,23.903,4.27,32.123   c0.772,2.044,1.366,4.025,2.25,5.754c0.819,1.753,1.466,3.445,2.354,4.889c0.404,0.737,0.793,1.448,1.167,2.132   c0.373,0.662,0.715,1.401,1.07,1.858c0.695,1.026,1.301,1.966,1.832,2.813c0.131,0.213,0.259,0.419,0.383,0.619l0.186,0.301   c0.102,0.135,0.203,0.268,0.302,0.398c0.396,0.525,0.765,1.015,1.107,1.468c0.685,0.905,1.261,1.669,1.724,2.282   c0.928,1.229,1.406,1.861,1.406,1.861L423.384,679.081z"
       id="path19" /><path
       clip-path="url(#SVGID_4_)"
       fill="#8E8080"
       d="M1140.817,273.611c0,0,1.043,0.091,2.997,0.261   c0.979,0.085,2.185,0.19,3.602,0.314c1.672,0.231,3.594,0.497,5.745,0.795c2.221,0.27,4.363,0.757,6.753,1.254   c1.189,0.256,2.438,0.495,3.71,0.797c1.257,0.334,2.56,0.681,3.906,1.039c1.339,0.371,2.74,0.703,4.14,1.142   c1.394,0.448,2.828,0.91,4.299,1.383c2.965,0.891,5.95,2.102,9.099,3.269c1.584,0.563,3.136,1.269,4.735,1.945   c1.593,0.686,3.215,1.386,4.865,2.098c1.614,0.773,3.254,1.559,4.921,2.357c0.831,0.4,1.668,0.802,2.512,1.207   c0.825,0.436,1.657,0.876,2.494,1.318c1.669,0.887,3.361,1.785,5.074,2.695c1.673,0.97,3.366,1.952,5.078,2.944   c0.853,0.498,1.711,0.998,2.572,1.5c0.845,0.532,1.691,1.066,2.543,1.603c1.697,1.078,3.41,2.165,5.138,3.262   c1.683,1.158,3.379,2.325,5.088,3.501c0.851,0.59,1.705,1.183,2.561,1.777c0.837,0.622,1.676,1.247,2.518,1.873   c1.676,1.26,3.384,2.492,5.052,3.794c1.649,1.325,3.305,2.657,4.969,3.994c6.565,5.445,13.029,11.194,19.036,17.397   c3.086,3.008,5.913,6.283,8.827,9.419c1.386,1.638,2.768,3.272,4.146,4.902c0.683,0.819,1.383,1.618,2.047,2.448l1.951,2.517   c5.291,6.605,9.898,13.568,14.11,20.402c1.997,3.496,4.048,6.861,5.738,10.347c0.864,1.728,1.783,3.398,2.569,5.113   c0.77,1.722,1.529,3.422,2.279,5.1c0.369,0.84,0.758,1.662,1.102,2.499c0.322,0.846,0.645,1.686,0.963,2.519   c0.635,1.663,1.26,3.301,1.875,4.911c0.581,1.622,1.05,3.256,1.563,4.835c0.483,1.59,1.031,3.121,1.431,4.667   c0.387,1.547,0.766,3.062,1.136,4.543c0.344,1.485,0.787,2.904,1.004,4.344c0.497,2.862,1.066,5.546,1.417,8.099   c0.288,2.558,0.558,4.952,0.807,7.166c0.167,2.218,0.2,4.265,0.293,6.101c0.038,0.918,0.074,1.787,0.108,2.605   c0.027,0.817-0.035,1.588-0.046,2.301c-0.045,1.426-0.083,2.638-0.113,3.621c-0.062,1.961-0.095,3.007-0.095,3.007   s-0.077-1.045-0.22-3.004c-0.071-0.976-0.16-2.18-0.264-3.596c-0.063-0.706-0.081-1.467-0.192-2.272   c-0.119-0.805-0.244-1.66-0.377-2.563c-0.282-1.802-0.523-3.802-0.914-5.955c-0.472-2.138-0.98-4.449-1.524-6.918   c-0.603-2.451-1.435-5.013-2.202-7.725c-0.352-1.365-0.932-2.706-1.415-4.104c-0.506-1.39-1.023-2.812-1.552-4.264   c-0.539-1.446-1.228-2.874-1.852-4.352c-0.654-1.467-1.264-2.981-1.984-4.478c-0.752-1.482-1.517-2.989-2.293-4.52   c-0.387-0.763-0.777-1.532-1.169-2.306c-0.412-0.766-0.87-1.516-1.306-2.282c-0.884-1.523-1.777-3.068-2.683-4.632   c-0.919-1.553-1.969-3.059-2.961-4.614c-1.943-3.136-4.245-6.142-6.475-9.248c-4.686-6.066-9.708-12.174-15.359-17.881   l-2.081-2.174c-0.707-0.716-1.45-1.401-2.173-2.104c-1.455-1.395-2.914-2.794-4.376-4.196c-3.063-2.664-6.012-5.449-9.21-7.965   c-6.223-5.213-12.829-9.943-19.444-14.354c-1.67-1.077-3.334-2.149-4.989-3.217c-1.67-1.042-3.372-2.013-5.037-3.013   c-0.835-0.496-1.667-0.99-2.497-1.483c-0.847-0.463-1.689-0.925-2.529-1.386c-1.68-0.914-3.347-1.821-5.001-2.721   c-1.683-0.836-3.354-1.664-5.007-2.484c-0.825-0.408-1.647-0.814-2.465-1.218c-0.831-0.373-1.658-0.744-2.48-1.113   c-1.642-0.736-3.266-1.464-4.871-2.183c-1.626-0.655-3.231-1.301-4.816-1.94c-0.79-0.318-1.576-0.634-2.355-0.948   c-0.79-0.28-1.574-0.559-2.353-0.836c-1.553-0.554-3.081-1.099-4.585-1.635c-1.518-0.472-3.009-0.936-4.473-1.391   c-1.464-0.444-2.887-0.927-4.31-1.263c-2.833-0.715-5.523-1.506-8.113-1.983c-1.289-0.271-2.544-0.535-3.763-0.792   c-1.22-0.247-2.408-0.389-3.554-0.582c-1.145-0.18-2.252-0.355-3.321-0.524c-1.067-0.136-2.093-0.214-3.078-0.32   c-1.966-0.196-3.814-0.421-5.247-0.416c-1.489-0.061-2.818-0.116-3.974-0.164c-1.423,0.025-2.634,0.046-3.614,0.064   c-1.963,0.034-3.009,0.053-3.009,0.053L1140.817,273.611z"
       id="path21" /><path
       clip-path="url(#SVGID_4_)"
       fill="#8E8080"
       d="M1307.066,624c0,0-2.054,2.441-5.906,7.018   c-1.886,2.322-4.39,5.034-7.295,8.268c-2.862,3.277-6.362,6.836-10.242,10.871c-7.871,7.951-17.698,17.383-29.689,27.407   c-12,10.003-26.081,20.687-42.174,31.293c-16.094,10.602-34.167,21.147-53.88,31.18c-2.448,1.29-4.957,2.495-7.476,3.722   c-2.52,1.227-5.057,2.461-7.608,3.703c-2.577,1.188-5.17,2.384-7.777,3.587c-1.305,0.603-2.612,1.205-3.924,1.811   c-1.323,0.58-2.649,1.16-3.979,1.743c-2.663,1.162-5.34,2.33-8.031,3.505c-2.712,1.124-5.437,2.255-8.176,3.39   c-5.465,2.312-11.069,4.412-16.692,6.624c-11.305,4.24-22.861,8.423-34.701,12.222c-5.897,1.983-11.895,3.753-17.9,5.624   c-3.018,0.881-6.044,1.763-9.077,2.648c-3.032,0.889-6.077,1.764-9.143,2.579c-3.063,0.833-6.13,1.668-9.204,2.505   c-3.086,0.788-6.177,1.577-9.273,2.368l-4.65,1.182l-4.672,1.114c-3.119,0.738-6.241,1.479-9.367,2.221   c-12.531,2.831-25.158,5.497-37.848,7.851c-12.688,2.334-25.417,4.516-38.146,6.34c-6.357,0.979-12.725,1.765-19.069,2.632   c-3.177,0.384-6.35,0.768-9.517,1.15c-3.167,0.396-6.332,0.752-9.494,1.077c-12.639,1.422-25.215,2.477-37.653,3.429   c-12.442,0.884-24.752,1.583-36.874,2.039c-24.246,0.925-47.739,0.975-70.029,0.339c-22.289-0.684-43.379-2-62.832-3.877   c-19.452-1.879-37.272-4.238-53.042-6.812c-15.772-2.566-29.493-5.351-40.773-7.933c-5.643-1.258-10.667-2.553-15.043-3.644   c-4.37-1.145-8.083-2.169-11.096-2.992c-6.014-1.762-9.221-2.702-9.221-2.702l13.565-40.805c0,0,2.867,1.007,8.242,2.896   c2.72,0.889,6.075,1.986,10.019,3.276c3.982,1.216,8.544,2.656,13.732,4.102c10.348,2.949,23.061,6.239,37.845,9.453   c14.78,3.218,31.627,6.362,50.162,9.144c18.535,2.781,38.767,5.12,60.261,6.915c21.497,1.749,44.263,2.903,67.854,3.247   c11.796,0.177,23.796,0.127,35.947-0.093c12.147-0.291,24.451-0.669,36.836-1.407c3.099-0.154,6.202-0.339,9.308-0.562   c3.107-0.21,6.22-0.422,9.337-0.633c6.225-0.52,12.482-0.957,18.731-1.587c12.515-1.125,25.044-2.599,37.559-4.225   c12.512-1.646,24.981-3.601,37.378-5.721c3.092-0.563,6.183-1.126,9.269-1.688l4.627-0.849l4.604-0.915   c3.069-0.614,6.133-1.227,9.192-1.838c3.049-0.66,6.092-1.318,9.129-1.976c3.043-0.639,6.064-1.339,9.076-2.052   c3.013-0.709,6.02-1.416,9.019-2.122c5.968-1.521,11.938-2.945,17.807-4.581c11.791-3.108,23.316-6.606,34.617-10.179   c5.617-1.876,11.228-3.646,16.699-5.628c2.744-0.973,5.475-1.94,8.192-2.902c2.7-1.012,5.385-2.019,8.056-3.02   c1.335-0.505,2.667-1.006,3.994-1.507c1.318-0.524,2.632-1.049,3.941-1.571c2.621-1.046,5.229-2.085,7.819-3.118   c2.568-1.087,5.12-2.167,7.657-3.241c2.536-1.074,5.064-2.128,7.532-3.267c19.876-8.831,38.2-18.266,54.608-27.875   c16.407-9.614,30.866-19.429,43.263-28.702c12.389-9.292,22.629-18.133,30.87-25.624c4.065-3.806,7.74-7.168,10.754-10.273   c3.058-3.062,5.699-5.637,7.707-7.856C1304.887,626.33,1307.066,624,1307.066,624"
       id="path23" /></g><g
     id="g25"><defs
       id="defs27"><rect
         id="SVGID_5_"
         width="1920"
         height="1080" /></defs><clipPath
       id="SVGID_6_"><use
         xlink:href="#SVGID_5_"
         overflow="visible"
         id="use31" /></clipPath></g><g
     id="g33"><defs
       id="defs35"><path
         id="SVGID_7_"
         d="M553.965,522.038c0-9.2,2.22-16.791,6.669-22.77c4.446-5.981,11.191-8.97,20.241-8.97    c3.065,0,5.75,0.115,8.049,0.345c2.3,0.23,4.291,0.499,5.981,0.805v54.739c-2.15,1.229-4.755,2.3-7.82,3.22    c-3.07,0.921-6.365,1.38-9.891,1.38C561.706,550.787,553.965,541.207,553.965,522.038 M554.654,466.953    c-7.669,2.839-14.144,6.864-19.435,12.075c-5.29,5.214-9.315,11.464-12.075,18.745c-2.759,7.284-4.14,15.374-4.14,24.265    c0,17.788,4.446,31.624,13.34,41.515c8.891,9.89,21.695,14.835,38.41,14.835c4.601,0,8.855-0.422,12.766-1.266    c3.909-0.84,7.704-2.106,11.385-3.795v4.37c0,6.75-2.035,12.266-6.096,16.56c-4.064,4.292-11.003,6.44-20.815,6.44    c-7.514,0-14.224-0.614-20.125-1.84c-5.904-1.229-11.539-2.914-16.905-5.06l-5.979,28.75c6.284,2.146,13.109,3.87,20.469,5.175    c7.36,1.301,14.721,1.955,22.08,1.955c21.006,0,36.531-4.794,46.576-14.375c10.04-9.585,15.064-24.266,15.064-44.045v-101.66    c-3.068-0.919-6.555-1.801-10.464-2.645c-3.911-0.841-8.015-1.571-12.306-2.185c-4.294-0.611-8.625-1.11-12.995-1.495    c-4.37-0.38-8.625-0.575-12.765-0.575C570.984,462.698,562.32,464.117,554.654,466.953" /></defs><clipPath
       id="SVGID_8_"><use
         xlink:href="#SVGID_7_"
         overflow="visible"
         id="use39" /></clipPath><linearGradient
       id="SVGID_9_"
       gradientUnits="userSpaceOnUse"
       x1="-9.765625e-004"
       y1="1080.0117"
       x2="0.999"
       y2="1080.0117"
       gradientTransform="matrix(0 166.98 166.98 0 -179766.1406 462.875)"><stop
         offset="0"
         style="stop-color:#FFFFFF"
         id="stop42" /><stop
         offset="0.2649"
         style="stop-color:#FDFDFD"
         id="stop44" /><stop
         offset="0.4177"
         style="stop-color:#F4F4F4"
         id="stop46" /><stop
         offset="0.542"
         style="stop-color:#E6E6E6"
         id="stop48" /><stop
         offset="0.651"
         style="stop-color:#D2D2D2"
         id="stop50" /><stop
         offset="0.75"
         style="stop-color:#B9B9B9"
         id="stop52" /><stop
         offset="0.8417"
         style="stop-color:#999999"
         id="stop54" /><stop
         offset="0.9261"
         style="stop-color:#747474"
         id="stop56" /><stop
         offset="1"
         style="stop-color:#4D4D4D"
         id="stop58" /></linearGradient><rect
       x="519.004"
       y="462.698"
       clip-path="url(#SVGID_8_)"
       fill="url(#SVGID_9_)"
       width="110.17"
       height="166.979"
       id="rect60" /></g><g
     id="g62"><defs
       id="defs64"><rect
         id="SVGID_10_"
         x="2"
         width="1920"
         height="1080" /></defs><clipPath
       id="SVGID_11_"><use
         xlink:href="#SVGID_10_"
         overflow="visible"
         id="use68" /></clipPath><linearGradient
       id="SVGID_12_"
       gradientUnits="userSpaceOnUse"
       x1="0"
       y1="1079.9893"
       x2="1"
       y2="1079.9893"
       gradientTransform="matrix(0 -174.98 -174.98 0 189550.5156 633.625)"><stop
         offset="0"
         style="stop-color:#333333"
         id="stop71" /><stop
         offset="0.1127"
         style="stop-color:#333333"
         id="stop73" /><stop
         offset="0.137"
         style="stop-color:#353535"
         id="stop75" /><stop
         offset="0.6544"
         style="stop-color:#585858"
         id="stop77" /><stop
         offset="0.9314"
         style="stop-color:#666666"
         id="stop79" /><stop
         offset="1"
         style="stop-color:#666666"
         id="stop81" /></linearGradient><path
       clip-path="url(#SVGID_11_)"
       fill="url(#SVGID_12_)"
       d="M629.174,571.258h3.5c0.015,20.322-5.19,36.113-16.148,46.576   c-10.982,10.453-27.5,15.344-48.992,15.344c-7.567,0-15.133-0.673-22.689-2.009c-7.517-1.333-14.516-3.098-20.992-5.31   l-2.925-0.998l7.459-35.864l3.876,1.551c5.167,2.066,10.603,3.693,16.318,4.883c5.61,1.166,12.089,1.768,19.412,1.767   c9.36,0.013,15.264-2.107,18.274-5.347l0,0l-0.002,0.002c3.4-3.631,5.11-8.092,5.138-14.155v-4.37h3.5l1.46,3.182   c-3.907,1.793-7.949,3.141-12.11,4.035l0.004-0.001c-4.188,0.904-8.691,1.345-13.504,1.345   c-17.365,0.035-31.375-5.237-41.013-15.995c-9.624-10.694-14.25-25.516-14.237-43.855c-0.001-9.251,1.438-17.777,4.367-25.505   c2.921-7.715,7.234-14.425,12.891-19.998c5.667-5.585,12.601-9.878,20.677-12.864c8.116-3.003,17.204-4.474,27.205-4.474   c4.249,0,8.605,0.199,13.069,0.588l0,0h0.003c4.433,0.391,8.826,0.897,13.18,1.516l0,0l0.004,0.001   c4.365,0.625,8.549,1.368,12.545,2.229c3.983,0.86,7.555,1.761,10.733,2.714l2.495,0.748v104.264H629.174h-3.5V469.599h3.5   l-1.005,3.353c-2.959-0.887-6.36-1.748-10.199-2.576c-3.822-0.823-7.846-1.539-12.063-2.143l0.004,0   c-4.233-0.602-8.502-1.094-12.81-1.474l0,0h0.003c-4.277-0.373-8.431-0.562-12.461-0.562c-9.319,0-17.562,1.369-24.776,4.039   c-7.261,2.69-13.279,6.447-18.193,11.285c-4.922,4.857-8.659,10.645-11.258,17.492c-2.591,6.841-3.912,14.494-3.913,23.024   c0.013,17.239,4.277,30.089,12.442,39.174c8.145,9.022,19.743,13.64,35.808,13.676c4.387,0,8.394-0.402,12.026-1.188l0.004-0.001   c3.659-0.786,7.207-1.968,10.66-3.553l4.96-2.276v9.827c0.028,7.436-2.33,14.007-7.052,18.965l0,0l-0.002,0.003   c-5.119,5.343-13.093,7.521-23.356,7.532c-7.705,0-14.646-0.628-20.836-1.913c-6.097-1.269-11.931-3.012-17.494-5.237l1.3-3.249   l3.427,0.713l-5.98,28.75l-3.427-0.713l1.131-3.313c6.094,2.081,12.746,3.764,19.95,5.041c7.162,1.266,14.316,1.901,21.469,1.901   c20.518,0,35.053-4.697,44.159-13.407c9.123-8.706,13.966-22.274,13.981-41.513H629.174z M553.964,522.038h3.5   c0.527,18.408,6.07,24.842,19.73,25.25c3.221,0,6.169-0.418,8.885-1.232c2.872-0.86,5.236-1.846,7.087-2.905l1.737,3.038h-3.5   v-54.74h3.5l-0.624,3.444c-1.568-0.284-3.475-0.543-5.704-0.766c-2.146-0.215-4.723-0.327-7.702-0.327   c-8.325,0.062-13.665,2.571-17.431,7.557c-3.918,5.278-5.969,12.03-5.979,20.682H553.964h-3.5   c-0.01-9.746,2.381-18.175,7.362-24.859c5.123-6.973,13.274-10.441,23.048-10.38c3.153,0,5.944,0.116,8.398,0.361   c2.37,0.237,4.446,0.516,6.256,0.844l2.876,0.521v59.693l-1.762,1.008c-2.447,1.398-5.293,2.556-8.552,3.534   c-3.423,1.027-7.067,1.528-10.896,1.528c-8.418,0.047-15.542-2.736-20.146-8.487c-4.598-5.725-6.576-13.738-6.584-23.763H553.964z"
       id="path83" /></g><g
     id="g85"><defs
       id="defs87"><path
         id="SVGID_13_"
         d="M730.373,465.458v93.38c-2.149,0.309-4.6,0.574-7.36,0.805c-2.76,0.229-5.369,0.345-7.82,0.345    c-7.975,0-13.419-2.451-16.33-7.359c-2.914-4.906-4.37-12.88-4.37-23.92v-63.25h-34.27v67.391c0,8.279,0.841,15.868,2.53,22.768    c1.686,6.9,4.521,12.845,8.51,17.825c3.986,4.983,9.39,8.855,16.215,11.615c6.821,2.76,15.371,4.141,25.645,4.141    c10.12,0,19.78-0.73,28.98-2.187c9.2-1.455,16.711-3.024,22.54-4.714v-116.84H730.373z" /></defs><clipPath
       id="SVGID_14_"><use
         xlink:href="#SVGID_13_"
         overflow="visible"
         id="use91" /></clipPath><linearGradient
       id="SVGID_15_"
       gradientUnits="userSpaceOnUse"
       x1="-0.002"
       y1="1080.0146"
       x2="0.998"
       y2="1080.0146"
       gradientTransform="matrix(0 123.7393 123.7393 0 -132927.8125 465.625)"><stop
         offset="0"
         style="stop-color:#FFFFFF"
         id="stop94" /><stop
         offset="0.2649"
         style="stop-color:#FDFDFD"
         id="stop96" /><stop
         offset="0.4177"
         style="stop-color:#F4F4F4"
         id="stop98" /><stop
         offset="0.542"
         style="stop-color:#E6E6E6"
         id="stop100" /><stop
         offset="0.651"
         style="stop-color:#D2D2D2"
         id="stop102" /><stop
         offset="0.75"
         style="stop-color:#B9B9B9"
         id="stop104" /><stop
         offset="0.8417"
         style="stop-color:#999999"
         id="stop106" /><stop
         offset="0.9261"
         style="stop-color:#747474"
         id="stop108" /><stop
         offset="1"
         style="stop-color:#4D4D4D"
         id="stop110" /></linearGradient><rect
       x="660.223"
       y="465.458"
       clip-path="url(#SVGID_14_)"
       fill="url(#SVGID_15_)"
       width="104.42"
       height="123.74"
       id="rect112" /></g><g
     id="g114"><defs
       id="defs116"><rect
         id="SVGID_16_"
         width="1920"
         height="1080" /></defs><clipPath
       id="SVGID_17_"><use
         xlink:href="#SVGID_16_"
         overflow="visible"
         id="use120" /></clipPath><linearGradient
       id="SVGID_18_"
       gradientUnits="userSpaceOnUse"
       x1="0"
       y1="1079.999"
       x2="1"
       y2="1079.999"
       gradientTransform="matrix(0 -131.739 -131.739 0 142988.3906 593.125)"><stop
         offset="0"
         style="stop-color:#333333"
         id="stop123" /><stop
         offset="0.1127"
         style="stop-color:#333333"
         id="stop125" /><stop
         offset="0.137"
         style="stop-color:#353535"
         id="stop127" /><stop
         offset="0.6544"
         style="stop-color:#585858"
         id="stop129" /><stop
         offset="0.9314"
         style="stop-color:#666666"
         id="stop131" /><stop
         offset="1"
         style="stop-color:#666666"
         id="stop133" /></linearGradient><path
       clip-path="url(#SVGID_17_)"
       fill="url(#SVGID_18_)"
       d="M762.643,582.298l0.974,3.362c-6.042,1.748-13.671,3.338-22.966,4.81   c-9.396,1.486-19.239,2.228-29.527,2.228c-10.584-0.004-19.564-1.408-26.958-4.395c-7.279-2.939-13.237-7.167-17.636-12.674l0,0   l0.002,0.002c-4.336-5.411-7.392-11.855-9.178-19.184l0,0.002c-1.766-7.215-2.63-15.085-2.63-23.601v-70.89h41.27v66.75   c-0.031,10.733,1.511,18.238,3.879,22.132l0.046,0.077l-0.044-0.074c2.149,3.557,5.959,5.572,13.32,5.645   c2.341,0,4.855-0.11,7.53-0.332c2.707-0.227,5.094-0.485,7.151-0.781l0.498,3.464h-3.5v-96.88h41.27v122.97l-2.526,0.732   L762.643,582.298h-3.5v-113.34h-27.27v92.913l-3.002,0.432c-2.241,0.321-4.756,0.593-7.566,0.828   c-2.848,0.236-5.552,0.356-8.112,0.356c-8.59,0.072-15.668-2.814-19.341-9.074l0.001,0.003c-3.461-5.918-4.83-14.361-4.861-25.708   v-59.75h-27.27v63.89c0,8.043,0.817,15.353,2.43,21.937l0,0l0,0.002c1.583,6.474,4.2,11.917,7.842,16.468l0,0l0.001,0.002   c3.572,4.461,8.424,7.976,14.793,10.557c6.25,2.534,14.369,3.887,24.333,3.884c9.952,0,19.429-0.717,28.433-2.142   c9.105-1.439,16.497-2.992,22.113-4.619L762.643,582.298h-3.5H762.643z"
       id="path135" /></g><g
     id="g137"><defs
       id="defs139"><path
         id="SVGID_19_"
         d="M796.84,586.438h34.27V465.458h-34.27V586.438z M799.485,415.663c-4.064,3.605-6.095,8.549-6.095,14.835    c0,6.289,2.031,11.234,6.095,14.835c4.061,3.604,8.856,5.405,14.375,5.405c5.52,0,10.311-1.801,14.375-5.405    c4.062-3.601,6.095-8.546,6.095-14.835c0-6.286-2.033-11.23-6.095-14.835c-4.064-3.601-8.855-5.405-14.375-5.405    C808.341,410.258,803.546,412.062,799.485,415.663" /></defs><clipPath
       id="SVGID_20_"><use
         xlink:href="#SVGID_19_"
         overflow="visible"
         id="use143" /></clipPath><linearGradient
       id="SVGID_21_"
       gradientUnits="userSpaceOnUse"
       x1="4.882813e-004"
       y1="1080.0107"
       x2="1.0005"
       y2="1080.0107"
       gradientTransform="matrix(0 176.1797 176.1797 0 -189462.0781 410.25)"><stop
         offset="0"
         style="stop-color:#FFFFFF"
         id="stop146" /><stop
         offset="0.2649"
         style="stop-color:#FDFDFD"
         id="stop148" /><stop
         offset="0.4177"
         style="stop-color:#F4F4F4"
         id="stop150" /><stop
         offset="0.542"
         style="stop-color:#E6E6E6"
         id="stop152" /><stop
         offset="0.651"
         style="stop-color:#D2D2D2"
         id="stop154" /><stop
         offset="0.75"
         style="stop-color:#B9B9B9"
         id="stop156" /><stop
         offset="0.8417"
         style="stop-color:#999999"
         id="stop158" /><stop
         offset="0.9261"
         style="stop-color:#747474"
         id="stop160" /><stop
         offset="1"
         style="stop-color:#4D4D4D"
         id="stop162" /></linearGradient><rect
       x="793.39"
       y="410.258"
       clip-path="url(#SVGID_20_)"
       fill="url(#SVGID_21_)"
       width="40.94"
       height="176.18"
       id="rect164" /></g><g
     id="g166"><defs
       id="defs168"><rect
         id="SVGID_22_"
         x="2"
         width="1920"
         height="1080" /></defs><clipPath
       id="SVGID_23_"><use
         xlink:href="#SVGID_22_"
         overflow="visible"
         id="use172" /></clipPath><linearGradient
       id="SVGID_24_"
       gradientUnits="userSpaceOnUse"
       x1="9.765625e-004"
       y1="1079.9893"
       x2="1.001"
       y2="1079.9893"
       gradientTransform="matrix(0 -184.18 -184.18 0 199726.2656 590.625)"><stop
         offset="0"
         style="stop-color:#333333"
         id="stop175" /><stop
         offset="0.1127"
         style="stop-color:#333333"
         id="stop177" /><stop
         offset="0.137"
         style="stop-color:#353535"
         id="stop179" /><stop
         offset="0.6544"
         style="stop-color:#585858"
         id="stop181" /><stop
         offset="0.9314"
         style="stop-color:#666666"
         id="stop183" /><stop
         offset="1"
         style="stop-color:#666666"
         id="stop185" /></linearGradient><path
       clip-path="url(#SVGID_23_)"
       fill="url(#SVGID_24_)"
       d="M834.33,430.498h3.5c0.043,7.018-2.403,13.186-7.273,17.454   c-4.639,4.149-10.417,6.312-16.697,6.287c-6.28,0.025-12.061-2.137-16.698-6.288c-4.872-4.267-7.315-10.437-7.271-17.453   c-0.044-7.014,2.4-13.182,7.272-17.453c4.637-4.146,10.416-6.313,16.698-6.287c6.283-0.025,12.058,2.143,16.696,6.286   c4.87,4.273,7.317,10.439,7.274,17.455H834.33h-3.5c-0.044-5.557-1.664-9.279-4.918-12.218c-3.488-3.057-7.294-4.497-12.052-4.522   c-4.757,0.025-8.567,1.467-12.053,4.524c-3.255,2.938-4.874,6.658-4.917,12.216c0.043,5.562,1.662,9.282,4.916,12.215   c3.487,3.062,7.294,4.499,12.054,4.524c4.76-0.025,8.564-1.462,12.052-4.523c3.253-2.935,4.874-6.656,4.918-12.217H834.33z    M831.11,586.438v3.501h-37.77V461.959h41.27v127.979h-3.5V586.438h-3.5V468.959h-27.27v113.979h30.77V586.438h-3.5H831.11z"
       id="path187" /></g><g
     id="g189"><defs
       id="defs191"><path
         id="SVGID_25_"
         d="M959.677,586.438h34.271V465.458h-34.271V586.438z M962.323,415.663    c-4.065,3.605-6.096,8.549-6.096,14.835c0,6.289,2.031,11.234,6.096,14.835c4.059,3.604,8.854,5.405,14.374,5.405    c5.52,0,10.311-1.801,14.375-5.405c4.061-3.601,6.095-8.546,6.095-14.835c0-6.286-2.034-11.23-6.095-14.835    c-4.064-3.601-8.855-5.405-14.375-5.405C971.177,410.258,966.382,412.062,962.323,415.663 M876.532,421.758    c-8.819,9.2-13.225,21.62-13.225,37.26v127.419h34.27v-92.459h42.32v-28.52h-42.32v-5.98c0-3.22,0.345-6.21,1.035-8.97    c0.69-2.76,1.84-5.136,3.45-7.13c1.61-1.991,3.831-3.565,6.67-4.715c2.835-1.15,6.324-1.725,10.465-1.725    c3.066,0,6.095,0.23,9.085,0.69c2.991,0.46,5.71,1.229,8.166,2.3l5.979-26.91c-2.914-1.226-6.479-2.375-10.695-3.45    c-4.22-1.071-9.544-1.61-15.985-1.61C898.418,407.958,885.347,412.558,876.532,421.758" /></defs><clipPath
       id="SVGID_26_"><use
         xlink:href="#SVGID_25_"
         overflow="visible"
         id="use195" /></clipPath><linearGradient
       id="SVGID_27_"
       gradientUnits="userSpaceOnUse"
       x1="9.765625e-004"
       y1="1080.0107"
       x2="1.001"
       y2="1080.0107"
       gradientTransform="matrix(0 178.4795 178.4795 0 -191829.5938 407.875)"><stop
         offset="0"
         style="stop-color:#FFFFFF"
         id="stop198" /><stop
         offset="0.2649"
         style="stop-color:#FDFDFD"
         id="stop200" /><stop
         offset="0.4177"
         style="stop-color:#F4F4F4"
         id="stop202" /><stop
         offset="0.542"
         style="stop-color:#E6E6E6"
         id="stop204" /><stop
         offset="0.651"
         style="stop-color:#D2D2D2"
         id="stop206" /><stop
         offset="0.75"
         style="stop-color:#B9B9B9"
         id="stop208" /><stop
         offset="0.8417"
         style="stop-color:#999999"
         id="stop210" /><stop
         offset="0.9261"
         style="stop-color:#747474"
         id="stop212" /><stop
         offset="1"
         style="stop-color:#4D4D4D"
         id="stop214" /></linearGradient><rect
       x="863.307"
       y="407.958"
       clip-path="url(#SVGID_26_)"
       fill="url(#SVGID_27_)"
       width="133.86"
       height="178.479"
       id="rect216" /></g><g
     id="g218"><defs
       id="defs220"><rect
         id="SVGID_28_"
         x="2"
         width="1920"
         height="1080" /></defs><clipPath
       id="SVGID_29_"><use
         xlink:href="#SVGID_28_"
         overflow="visible"
         id="use224" /></clipPath><linearGradient
       id="SVGID_30_"
       gradientUnits="userSpaceOnUse"
       x1="0"
       y1="1079.9893"
       x2="1"
       y2="1079.9893"
       gradientTransform="matrix(0 -186.479 -186.479 0 202325.5781 590.375)"><stop
         offset="0"
         style="stop-color:#333333"
         id="stop227" /><stop
         offset="0.1127"
         style="stop-color:#333333"
         id="stop229" /><stop
         offset="0.137"
         style="stop-color:#353535"
         id="stop231" /><stop
         offset="0.6544"
         style="stop-color:#585858"
         id="stop233" /><stop
         offset="0.9314"
         style="stop-color:#666666"
         id="stop235" /><stop
         offset="1"
         style="stop-color:#666666"
         id="stop237" /></linearGradient><path
       clip-path="url(#SVGID_29_)"
       fill="url(#SVGID_30_)"
       d="M915.747,407.958v-3.5c6.636,0.003,12.218,0.546,16.846,1.718l0,0   l0.003,0.001c4.336,1.106,8.054,2.298,11.188,3.615l2.693,1.133l-7.536,33.91l-3.895-1.699c-2.149-0.938-4.571-1.629-7.298-2.049   c-2.812-0.433-5.662-0.649-8.552-0.649c-3.819-0.002-6.87,0.54-9.149,1.468c-2.405,0.978-4.08,2.212-5.264,3.672l0.002-0.002   c-1.265,1.571-2.192,3.448-2.778,5.781c-0.612,2.449-0.93,5.15-0.93,8.121v2.48h42.32v35.52h-42.32v92.46h-41.27v-130.92   c-0.025-16.27,4.655-29.753,14.198-39.682c9.645-10.076,23.839-14.899,41.742-14.878V407.958v3.5   c-16.755,0.021-28.701,4.398-36.688,12.722c-8.095,8.471-12.227,19.828-12.252,34.838v123.919h27.27v-92.459h42.32v-21.52h-42.32   v-9.48c0-3.469,0.372-6.748,1.139-9.819c0.794-3.188,2.167-6.061,4.122-8.479l0.002-0.003c2.036-2.521,4.802-4.436,8.078-5.758   c3.389-1.371,7.318-1.979,11.779-1.981c3.241,0,6.449,0.243,9.617,0.731c3.254,0.5,6.271,1.346,9.033,2.551l-1.399,3.208   l-3.417-0.759l5.98-26.91l3.417,0.759l-1.357,3.226c-2.694-1.135-6.109-2.241-10.203-3.285l0,0l0.003,0.001   c-3.81-0.971-8.88-1.505-15.124-1.502V407.958z M997.167,430.498h3.5c0.044,7.018-2.403,13.186-7.272,17.454   c-4.64,4.149-10.417,6.312-16.697,6.287c-6.28,0.025-12.061-2.137-16.699-6.288c-4.872-4.267-7.315-10.437-7.271-17.453   c-0.044-7.014,2.4-13.182,7.272-17.453c4.637-4.146,10.416-6.313,16.698-6.287c6.282-0.025,12.058,2.143,16.696,6.286   c4.869,4.273,7.317,10.439,7.273,17.455H997.167h-3.5c-0.044-5.557-1.664-9.279-4.919-12.218   c-3.487-3.057-7.294-4.497-12.051-4.522c-4.758,0.025-8.567,1.467-12.053,4.524c-3.256,2.938-4.874,6.658-4.917,12.216   c0.043,5.562,1.662,9.282,4.917,12.215c3.486,3.062,7.294,4.499,12.054,4.524c4.76-0.025,8.563-1.462,12.052-4.523   c3.253-2.935,4.874-6.656,4.918-12.217H997.167z M993.947,586.438v3.501h-37.771V461.959h41.271v127.979h-3.5V586.438h-3.5V468.959   h-27.271v113.979l30.771-0.001V586.438h-3.5H993.947z"
       id="path239" /></g><g
     id="g241"><defs
       id="defs243"><path
         id="SVGID_31_"
         d="M1066.855,559.872c-2.609-0.229-4.755-0.495-6.44-0.805v-62.33c2.146-1.38,4.945-2.531,8.396-3.451    c3.448-0.92,6.936-1.379,10.466-1.379c16.249,0,24.379,11.04,24.379,33.12c0,10.58-2.38,19.089-7.13,25.53    c-4.756,6.439-11.81,9.66-21.16,9.66C1072.296,560.218,1069.46,560.102,1066.855,559.872 M1026.145,413.478v169.05    c3.065,0.92,6.593,1.804,10.58,2.645c3.985,0.844,8.164,1.57,12.535,2.185c4.37,0.611,8.815,1.11,13.34,1.495    c4.521,0.382,8.855,0.575,12.995,0.575c9.966,0,18.86-1.496,26.681-4.485c7.818-2.989,14.41-7.245,19.778-12.765    c5.366-5.521,9.468-12.19,12.307-20.01c2.835-7.82,4.255-16.56,4.255-26.221c0-9.504-1.15-18.129-3.45-25.875    c-2.3-7.74-5.675-14.374-10.12-19.895c-4.449-5.52-9.969-9.775-16.56-12.765c-6.595-2.991-14.185-4.484-22.771-4.484    c-4.755,0-9.201,0.459-13.34,1.379c-4.14,0.92-8.129,2.225-11.96,3.91v-60.26L1026.145,413.478z" /></defs><clipPath
       id="SVGID_32_"><use
         xlink:href="#SVGID_31_"
         overflow="visible"
         id="use247" /></clipPath><linearGradient
       id="SVGID_33_"
       gradientUnits="userSpaceOnUse"
       x1="9.765625e-004"
       y1="1080.0137"
       x2="1.001"
       y2="1080.0137"
       gradientTransform="matrix(0 181.4697 181.4697 0 -194907.2656 407.875)"><stop
         offset="0"
         style="stop-color:#FFFFFF"
         id="stop250" /><stop
         offset="0.2649"
         style="stop-color:#FDFDFD"
         id="stop252" /><stop
         offset="0.4177"
         style="stop-color:#F4F4F4"
         id="stop254" /><stop
         offset="0.542"
         style="stop-color:#E6E6E6"
         id="stop256" /><stop
         offset="0.651"
         style="stop-color:#D2D2D2"
         id="stop258" /><stop
         offset="0.75"
         style="stop-color:#B9B9B9"
         id="stop260" /><stop
         offset="0.8417"
         style="stop-color:#999999"
         id="stop262" /><stop
         offset="0.9261"
         style="stop-color:#747474"
         id="stop264" /><stop
         offset="1"
         style="stop-color:#4D4D4D"
         id="stop266" /></linearGradient><rect
       x="1026.145"
       y="407.958"
       clip-path="url(#SVGID_32_)"
       fill="url(#SVGID_33_)"
       width="112.471"
       height="181.47"
       id="rect268" /></g><g
     id="g270"><defs
       id="defs272"><rect
         id="SVGID_34_"
         x="2"
         width="1920"
         height="1080" /></defs><clipPath
       id="SVGID_35_"><use
         xlink:href="#SVGID_34_"
         overflow="visible"
         id="use276" /></clipPath><linearGradient
       id="SVGID_36_"
       gradientUnits="userSpaceOnUse"
       x1="-4.882813e-004"
       y1="1079.9883"
       x2="0.9995"
       y2="1079.9883"
       gradientTransform="matrix(0 -190.166 -190.166 0 206459.5469 593.25)"><stop
         offset="0"
         style="stop-color:#333333"
         id="stop279" /><stop
         offset="0.1127"
         style="stop-color:#333333"
         id="stop281" /><stop
         offset="0.137"
         style="stop-color:#353535"
         id="stop283" /><stop
         offset="0.6544"
         style="stop-color:#585858"
         id="stop285" /><stop
         offset="0.9314"
         style="stop-color:#666666"
         id="stop287" /><stop
         offset="1"
         style="stop-color:#666666"
         id="stop289" /></linearGradient><path
       clip-path="url(#SVGID_35_)"
       fill="url(#SVGID_36_)"
       d="M1138.615,525.948h3.5c0,10.001-1.472,19.158-4.465,27.413   c-2.988,8.236-7.356,15.364-13.086,21.257c-5.742,5.905-12.799,10.446-21.039,13.595c-8.286,3.168-17.617,4.716-27.932,4.716   c-4.248,0-8.679-0.199-13.288-0.587c-4.589-0.391-9.097-0.896-13.531-1.517c-4.444-0.626-8.702-1.365-12.775-2.228   c-4.063-0.856-7.679-1.763-10.859-2.716l-2.495-0.748V410.497l41.271-6.647v64.369h-3.5l-1.409-3.204   c4.041-1.778,8.251-3.154,12.61-4.123c4.416-0.981,9.118-1.463,14.099-1.463c8.988-0.001,17.097,1.569,24.216,4.797   c7.062,3.199,13.057,7.816,17.839,13.756c4.766,5.916,8.342,12.984,10.751,21.095c2.411,8.121,3.595,17.085,3.595,26.872H1138.615   h-3.5c0-9.224-1.116-17.509-3.306-24.878c-2.19-7.369-5.364-13.571-9.49-18.696c-4.116-5.099-9.159-8.991-15.28-11.773   c-6.07-2.751-13.141-4.171-21.324-4.172c-4.529,0-8.719,0.438-12.58,1.297c-3.921,0.871-7.689,2.104-11.311,3.697l-4.909,2.159   v-61.514l-27.271,4.392v166.068h-3.5l1.005-3.353c2.951,0.885,6.387,1.749,10.297,2.573c3.901,0.826,8.002,1.539,12.301,2.144   c4.304,0.602,8.687,1.094,13.149,1.474c4.432,0.374,8.668,0.563,12.697,0.563c9.619,0,18.077-1.442,25.432-4.254   c7.397-2.833,13.522-6.803,18.52-11.937c5.001-5.148,8.833-11.36,11.525-18.765c2.676-7.382,4.045-15.706,4.045-25.025H1138.615z    M1103.655,525.028h-3.5c-0.496-21.503-6.729-29.298-20.88-29.62c-3.225,0-6.401,0.419-9.564,1.262   c-3.204,0.852-5.682,1.9-7.402,3.012l-1.894-2.943h3.5v62.33h-3.5l0.631-3.442c1.52,0.279,3.576,0.538,6.114,0.76   c2.488,0.221,5.224,0.333,8.205,0.333c8.584-0.065,14.229-2.759,18.345-8.239c4.19-5.684,6.44-13.375,6.445-23.451H1103.655h3.5   c0.005,11.084-2.505,20.411-7.813,27.607c-5.395,7.4-13.858,11.148-23.977,11.083c-3.156,0-6.094-0.118-8.82-0.359   c-2.675-0.235-4.91-0.509-6.761-0.848l-2.869-0.526v-67.157l1.606-1.033c2.569-1.648,5.692-2.9,9.386-3.888   c3.736-0.997,7.534-1.499,11.368-1.499c8.877-0.065,16.387,3.208,21.103,9.705c4.721,6.458,6.763,15.469,6.777,26.915H1103.655z"
       id="path291" /></g><g
     id="g293"><defs
       id="defs295"><path
         id="SVGID_37_"
         d="M1196.457,559.412c-3.605-2.069-5.405-5.785-5.405-11.154c0-2.761,0.611-5.06,1.84-6.9    c1.226-1.839,2.91-3.294,5.061-4.37c2.146-1.07,4.636-1.8,7.475-2.185c2.836-0.38,5.865-0.575,9.084-0.575    c2.302,0,4.831,0.154,7.59,0.46c2.762,0.309,4.831,0.614,6.21,0.92v25.989c-1.839,0.31-4.294,0.539-7.358,0.69    c-3.069,0.155-6.289,0.23-9.66,0.23C1205.003,562.518,1200.057,561.482,1196.457,559.412 M1196.686,462.813    c-3.908,0.385-7.628,0.845-11.153,1.38c-3.529,0.539-6.785,1.15-9.775,1.841c-2.99,0.689-5.485,1.343-7.475,1.953l4.37,27.602    c4.14-1.532,9.046-2.721,14.72-3.566c5.671-0.841,11.421-1.265,17.25-1.265c8.74,0,14.871,1.765,18.399,5.291    c3.526,3.528,5.289,8.204,5.289,14.029v3.221c-2.147-0.612-4.943-1.111-8.394-1.496c-3.45-0.381-7.4-0.575-11.845-0.575    c-6.594,0-12.959,0.654-19.092,1.955c-6.133,1.305-11.576,3.414-16.328,6.325c-4.754,2.914-8.551,6.825-11.386,11.73    c-2.839,4.909-4.256,10.889-4.256,17.939c0,7.361,1.227,13.57,3.682,18.63c2.449,5.061,5.979,9.165,10.579,12.306    c4.601,3.145,10.082,5.405,16.445,6.785c6.361,1.381,13.455,2.07,21.275,2.07c12.42,0,23-0.729,31.738-2.186    c8.741-1.454,15.563-2.72,20.472-3.794v-71.3c0-7.511-0.845-14.336-2.53-20.47c-1.689-6.132-4.564-11.345-8.625-15.64    c-4.063-4.291-9.47-7.591-16.215-9.89c-6.749-2.3-15.18-3.45-25.3-3.45C1204.543,462.238,1200.597,462.432,1196.686,462.813" /></defs><clipPath
       id="SVGID_38_"><use
         xlink:href="#SVGID_37_"
         overflow="visible"
         id="use299" /></clipPath><linearGradient
       id="SVGID_39_"
       gradientUnits="userSpaceOnUse"
       x1="-4.882813e-004"
       y1="1080.0156"
       x2="0.9995"
       y2="1080.0156"
       gradientTransform="matrix(0 126.73 126.73 0 -135661.1406 462.3125)"><stop
         offset="0"
         style="stop-color:#FFFFFF"
         id="stop302" /><stop
         offset="0.2649"
         style="stop-color:#FDFDFD"
         id="stop304" /><stop
         offset="0.4177"
         style="stop-color:#F4F4F4"
         id="stop306" /><stop
         offset="0.542"
         style="stop-color:#E6E6E6"
         id="stop308" /><stop
         offset="0.651"
         style="stop-color:#D2D2D2"
         id="stop310" /><stop
         offset="0.75"
         style="stop-color:#B9B9B9"
         id="stop312" /><stop
         offset="0.8417"
         style="stop-color:#999999"
         id="stop314" /><stop
         offset="0.9261"
         style="stop-color:#747474"
         id="stop316" /><stop
         offset="1"
         style="stop-color:#4D4D4D"
         id="stop318" /></linearGradient><rect
       x="1157.011"
       y="462.238"
       clip-path="url(#SVGID_38_)"
       fill="url(#SVGID_39_)"
       width="104.191"
       height="126.729"
       id="rect320" /></g><g
     id="g322"><defs
       id="defs324"><rect
         id="SVGID_40_"
         x="2"
         width="1920"
         height="1080" /></defs><clipPath
       id="SVGID_41_"><use
         xlink:href="#SVGID_40_"
         overflow="visible"
         id="use328" /></clipPath><linearGradient
       id="SVGID_42_"
       gradientUnits="userSpaceOnUse"
       x1="0"
       y1="1079.9863"
       x2="1"
       y2="1079.9863"
       gradientTransform="matrix(0 -134.73 -134.73 0 146715.5156 592.9375)"><stop
         offset="0"
         style="stop-color:#333333"
         id="stop331" /><stop
         offset="0.1127"
         style="stop-color:#333333"
         id="stop333" /><stop
         offset="0.137"
         style="stop-color:#353535"
         id="stop335" /><stop
         offset="0.6544"
         style="stop-color:#585858"
         id="stop337" /><stop
         offset="0.9314"
         style="stop-color:#666666"
         id="stop339" /><stop
         offset="1"
         style="stop-color:#666666"
         id="stop341" /></linearGradient><path
       clip-path="url(#SVGID_41_)"
       fill="url(#SVGID_42_)"
       d="M1208.532,462.238v-3.5c10.384,0.003,19.172,1.169,26.429,3.637   c7.168,2.442,13.108,6.025,17.627,10.797l0.002,0.002c4.471,4.722,7.637,10.494,9.456,17.115l0,0l0.001,0.003   c1.781,6.485,2.654,13.625,2.655,21.396v74.116l-2.752,0.603c-5.007,1.097-11.869,2.368-20.645,3.829   c-9.003,1.498-19.756,2.231-32.313,2.232c-8.026-0.001-15.365-0.707-22.018-2.149c-6.729-1.458-12.651-3.88-17.679-7.316   c-5.087-3.466-9.058-8.088-11.754-13.669c-2.746-5.667-4.029-12.413-4.03-20.155c-0.003-7.511,1.516-14.144,4.726-19.692   c3.104-5.38,7.345-9.756,12.586-12.961c5.126-3.141,10.959-5.389,17.43-6.764c6.382-1.354,12.993-2.033,19.819-2.033   c4.548,0,8.619,0.199,12.229,0.597c3.58,0.4,6.536,0.917,8.97,1.608l-0.959,3.366h-3.5v-3.221c-0.031-5.141-1.46-8.71-4.266-11.554   c-2.413-2.492-7.603-4.29-15.924-4.265c-5.659,0-11.236,0.411-16.737,1.226c-5.489,0.816-10.169,1.962-14.019,3.387l-4.004,1.48   l-5.513-34.818l2.905-0.892c2.104-0.646,4.669-1.315,7.715-2.019c3.091-0.714,6.433-1.34,10.034-1.89   c3.596-0.546,7.375-1.013,11.34-1.403c4.025-0.391,8.085-0.592,12.188-0.592V462.238v3.5c-3.875,0-7.708,0.189-11.507,0.559   c-3.851,0.379-7.509,0.832-10.969,1.357c-3.453,0.527-6.624,1.123-9.512,1.791c-2.935,0.677-5.36,1.313-7.235,1.89l-1.027-3.346   l3.457-0.547l4.37,27.601l-3.457,0.547l-1.215-3.283c4.431-1.637,9.561-2.872,15.419-3.745c5.844-0.865,11.767-1.302,17.766-1.302   c9.158,0.024,16.231,1.755,20.873,6.314c4.249,4.213,6.349,9.996,6.316,16.504v7.857l-4.458-1.27   c-1.864-0.533-4.5-1.015-7.824-1.383c-3.287-0.363-7.114-0.555-11.457-0.555c-6.363,0-12.48,0.632-18.365,1.88   c-5.794,1.232-10.85,3.205-15.227,5.886c-4.269,2.623-7.616,6.067-10.184,10.496c-2.469,4.271-3.782,9.597-3.785,16.188   c-0.001,6.978,1.166,12.649,3.329,17.103c2.207,4.541,5.293,8.127,9.404,10.942c4.176,2.853,9.214,4.952,15.214,6.255   c6.07,1.317,12.918,1.99,20.533,1.99c12.282,0.001,22.688-0.725,31.163-2.138c8.707-1.449,15.487-2.708,20.298-3.762l0.749,3.419   h-3.5v-71.3c0-7.248-0.816-13.761-2.405-19.542l0.001,0.002c-1.561-5.643-4.146-10.299-7.794-14.165l0.002,0.002   c-3.611-3.811-8.48-6.827-14.804-8.985c-6.241-2.13-14.314-3.266-24.17-3.263V462.238z M1211.292,562.518v-3.5   c3.319,0,6.48-0.074,9.483-0.226c2.985-0.146,5.335-0.372,6.957-0.646l0.579,3.451h-3.5v-25.99h3.5l-0.755,3.418   c-1.151-0.257-3.151-0.56-5.844-0.859l0.005,0c-2.657-0.294-5.063-0.439-7.206-0.439c-3.078,0-5.953,0.187-8.619,0.545   c-2.522,0.341-4.634,0.977-6.379,1.848l0,0l0.004-0.002c-1.675,0.845-2.834,1.871-3.712,3.179l-0.026,0.04l0.023-0.035   c-0.767,1.153-1.245,2.697-1.251,4.956c0.094,4.67,1.314,6.704,3.648,8.12c2.82,1.637,7.176,2.648,13.092,2.64V562.518v3.5   c-6.662-0.009-12.196-1.066-16.579-3.57c-4.874-2.724-7.255-8.122-7.161-14.189c-0.006-3.264,0.738-6.317,2.43-8.844l0,0   l-0.003,0.004c1.572-2.372,3.784-4.255,6.407-5.561c2.551-1.271,5.42-2.096,8.572-2.522c3.009-0.404,6.192-0.607,9.554-0.607   c2.457,0,5.111,0.165,7.975,0.481l0,0l0.005,0c2.827,0.318,4.967,0.627,6.576,0.98l2.744,0.607v31.762l-2.92,0.49   c-2.058,0.345-4.616,0.578-7.768,0.734c-3.131,0.158-6.409,0.234-9.832,0.234V562.518z"
       id="path343" /></g><g
     id="g345"><defs
       id="defs347"><path
         id="SVGID_43_"
         d="M1292.25,586.438h34.27V465.458h-34.27V586.438z M1294.896,415.663c-4.065,3.605-6.096,8.549-6.096,14.835    c0,6.289,2.03,11.234,6.096,14.835c4.06,3.604,8.854,5.405,14.375,5.405c5.519,0,10.31-1.801,14.375-5.405    c4.06-3.601,6.094-8.546,6.094-14.835c0-6.286-2.034-11.23-6.094-14.835c-4.065-3.601-8.856-5.405-14.375-5.405    C1303.75,410.258,1298.956,412.062,1294.896,415.663" /></defs><clipPath
       id="SVGID_44_"><use
         xlink:href="#SVGID_43_"
         overflow="visible"
         id="use351" /></clipPath><linearGradient
       id="SVGID_45_"
       gradientUnits="userSpaceOnUse"
       x1="4.882813e-004"
       y1="1080.0117"
       x2="1.0005"
       y2="1080.0117"
       gradientTransform="matrix(0 176.1797 176.1797 0 -188966.8281 410.25)"><stop
         offset="0"
         style="stop-color:#FFFFFF"
         id="stop354" /><stop
         offset="0.2649"
         style="stop-color:#FDFDFD"
         id="stop356" /><stop
         offset="0.4177"
         style="stop-color:#F4F4F4"
         id="stop358" /><stop
         offset="0.542"
         style="stop-color:#E6E6E6"
         id="stop360" /><stop
         offset="0.651"
         style="stop-color:#D2D2D2"
         id="stop362" /><stop
         offset="0.75"
         style="stop-color:#B9B9B9"
         id="stop364" /><stop
         offset="0.8417"
         style="stop-color:#999999"
         id="stop366" /><stop
         offset="0.9261"
         style="stop-color:#747474"
         id="stop368" /><stop
         offset="1"
         style="stop-color:#4D4D4D"
         id="stop370" /></linearGradient><rect
       x="1288.801"
       y="410.258"
       clip-path="url(#SVGID_44_)"
       fill="url(#SVGID_45_)"
       width="40.939"
       height="176.18"
       id="rect372" /></g><g
     id="g374"><defs
       id="defs376"><rect
         id="SVGID_46_"
         x="2"
         width="1920"
         height="1080" /></defs><clipPath
       id="SVGID_47_"><use
         xlink:href="#SVGID_46_"
         overflow="visible"
         id="use380" /></clipPath><linearGradient
       id="SVGID_48_"
       gradientUnits="userSpaceOnUse"
       x1="9.765625e-004"
       y1="1079.9902"
       x2="1.001"
       y2="1079.9902"
       gradientTransform="matrix(0 -184.18 -184.18 0 200221.6406 590.625)"><stop
         offset="0"
         style="stop-color:#333333"
         id="stop383" /><stop
         offset="0.1127"
         style="stop-color:#333333"
         id="stop385" /><stop
         offset="0.137"
         style="stop-color:#353535"
         id="stop387" /><stop
         offset="0.6544"
         style="stop-color:#585858"
         id="stop389" /><stop
         offset="0.9314"
         style="stop-color:#666666"
         id="stop391" /><stop
         offset="1"
         style="stop-color:#666666"
         id="stop393" /></linearGradient><path
       clip-path="url(#SVGID_47_)"
       fill="url(#SVGID_48_)"
       d="M1329.74,430.498h3.5c0.043,7.018-2.403,13.185-7.271,17.454   c-4.641,4.149-10.418,6.312-16.697,6.287c-6.281,0.025-12.063-2.137-16.699-6.288l0,0l0.003,0.003   c-4.876-4.27-7.318-10.439-7.274-17.455c-0.044-7.013,2.399-13.182,7.272-17.454c4.636-4.145,10.415-6.312,16.698-6.287   c6.281-0.025,12.057,2.143,16.695,6.285l0,0l0.003,0.003c4.866,4.271,7.313,10.437,7.271,17.452H1329.74h-3.5   c-0.044-5.557-1.664-9.279-4.918-12.218l0,0l0.003,0.002c-3.491-3.059-7.298-4.499-12.054-4.525   c-4.76,0.025-8.568,1.467-12.053,4.524c-3.257,2.938-4.874,6.657-4.918,12.216c0.044,5.563,1.662,9.282,4.916,12.215l0,0   l0.003,0.002c3.483,3.059,7.29,4.497,12.052,4.522c4.758-0.025,8.563-1.462,12.052-4.523c3.252-2.934,4.873-6.656,4.917-12.216   H1329.74z M1326.521,586.438v3.501h-37.771V461.959h41.271v127.979h-3.5V586.438h-3.501V468.959h-27.271v113.979l30.771-0.001   V586.438h-3.501H1326.521z"
       id="path395" /></g><g
     id="g397"><defs
       id="defs399"><path
         id="SVGID_49_"
         d="M1430.707,465.458l-24.049,33.914l-23.791-33.914h-37.03c6.781,9.638,13.644,19.385,20.585,29.246    c6.939,9.861,14.171,20.132,21.692,30.819c-4.227,4.622-8.535,9.568-12.923,14.836c-4.389,5.268-8.468,10.694-12.241,16.277    c-3.773,5.586-7.237,11.006-10.399,16.261c-3.164,5.253-5.707,9.767-7.634,13.54h34.863c1.612-3.055,3.461-6.34,5.538-9.861    c2.076-3.522,4.193-7.08,6.349-10.677c2.157-3.598,4.433-6.599,6.826-9.003c2.394-2.4,4.751-4.596,7.069-6.579    c2.425,2.135,4.891,4.506,7.392,7.115c2.501,2.608,4.897,5.792,7.198,9.553c2.297,3.758,4.363,7.365,6.203,10.816    c1.836,3.45,3.378,6.328,4.629,8.636h36.753c-4.502-8.546-10.49-18.277-17.957-29.195c-7.473-10.918-16.02-21.899-25.643-32.954    l41.989-58.83H1430.707z" /></defs><clipPath
       id="SVGID_50_"><use
         xlink:href="#SVGID_49_"
         overflow="visible"
         id="use403" /></clipPath><linearGradient
       id="SVGID_51_"
       gradientUnits="userSpaceOnUse"
       x1="-4.882813e-004"
       y1="1080.0166"
       x2="0.9995"
       y2="1080.0166"
       gradientTransform="matrix(0 120.9795 120.9795 0 -129253.6094 465.5)"><stop
         offset="0"
         style="stop-color:#FFFFFF"
         id="stop406" /><stop
         offset="0.2649"
         style="stop-color:#FDFDFD"
         id="stop408" /><stop
         offset="0.4177"
         style="stop-color:#F4F4F4"
         id="stop410" /><stop
         offset="0.542"
         style="stop-color:#E6E6E6"
         id="stop412" /><stop
         offset="0.651"
         style="stop-color:#D2D2D2"
         id="stop414" /><stop
         offset="0.75"
         style="stop-color:#B9B9B9"
         id="stop416" /><stop
         offset="0.8417"
         style="stop-color:#999999"
         id="stop418" /><stop
         offset="0.9261"
         style="stop-color:#747474"
         id="stop420" /><stop
         offset="1"
         style="stop-color:#4D4D4D"
         id="stop422" /></linearGradient><rect
       x="1344.917"
       y="465.458"
       clip-path="url(#SVGID_50_)"
       fill="url(#SVGID_51_)"
       width="122.82"
       height="120.979"
       id="rect424" /></g><g
     id="g426"><defs
       id="defs428"><rect
         id="SVGID_52_"
         x="2"
         width="1920"
         height="1080" /></defs><clipPath
       id="SVGID_53_"><use
         xlink:href="#SVGID_52_"
         overflow="visible"
         id="use432" /></clipPath><linearGradient
       id="SVGID_54_"
       gradientUnits="userSpaceOnUse"
       x1="9.765625e-004"
       y1="1079.9834"
       x2="1.001"
       y2="1079.9834"
       gradientTransform="matrix(0 -128.979 -128.979 0 140701.5781 590.5625)"><stop
         offset="0"
         style="stop-color:#333333"
         id="stop435" /><stop
         offset="0.1127"
         style="stop-color:#333333"
         id="stop437" /><stop
         offset="0.137"
         style="stop-color:#353535"
         id="stop439" /><stop
         offset="0.6544"
         style="stop-color:#585858"
         id="stop441" /><stop
         offset="0.9314"
         style="stop-color:#666666"
         id="stop443" /><stop
         offset="1"
         style="stop-color:#666666"
         id="stop445" /></linearGradient><path
       clip-path="url(#SVGID_53_)"
       fill="url(#SVGID_54_)"
       d="M1406.658,499.373l-2.855-2.024l25.096-35.391h44.027l-45.939,64.364   l-2.85-2.034l2.64-2.298c9.705,11.147,18.334,22.235,25.892,33.276c7.523,11,13.577,20.833,18.166,29.54l2.703,5.132H1428.9   l-0.993-1.832c-1.258-2.32-2.804-5.205-4.642-8.659l0,0l0.001,0.002c-1.805-3.384-3.837-6.934-6.101-10.639   c-2.193-3.585-4.449-6.568-6.738-8.954c-2.439-2.545-4.835-4.849-7.179-6.911l2.313-2.628l2.276,2.659   c-2.239,1.917-4.53,4.05-6.867,6.393c-2.146,2.155-4.262,4.927-6.301,8.331c-2.152,3.591-4.265,7.142-6.337,10.655   c-2.055,3.483-3.876,6.722-5.458,9.718l-0.985,1.865h-42.69l2.601-5.092c1.98-3.876,4.56-8.451,7.753-13.755   c3.195-5.31,6.692-10.78,10.497-16.412c3.84-5.683,7.99-11.203,12.452-16.56c4.419-5.306,8.763-10.292,13.029-14.958l2.583,2.362   l-2.862,2.015c-7.521-10.687-14.753-20.959-21.692-30.82c-6.942-9.86-13.804-19.606-20.585-29.246l-3.879-5.514h45.592   l24.836,35.405L1406.658,499.373l-2.855-2.024L1406.658,499.373l-2.865,2.01l-22.746-32.425h-35.21v-3.5l2.862-2.014   c6.781,9.638,13.642,19.384,20.585,29.245c6.938,9.861,14.171,20.134,21.692,30.821l1.619,2.301l-1.899,2.076   c-4.187,4.577-8.46,9.483-12.815,14.713c-4.314,5.18-8.324,10.513-12.03,15.999c-3.741,5.537-7.173,10.906-10.301,16.104   c-3.135,5.205-5.642,9.658-7.516,13.328l-3.117-1.592v-3.5h34.863v3.5l-3.095-1.634c1.645-3.115,3.519-6.446,5.618-10.005   c2.081-3.53,4.202-7.095,6.362-10.698c2.273-3.792,4.708-7.022,7.347-9.674c2.454-2.459,4.877-4.718,7.272-6.769l2.308-1.977   l2.28,2.008c2.509,2.207,5.045,4.647,7.607,7.321c2.713,2.829,5.251,6.216,7.657,10.147c2.331,3.814,4.431,7.48,6.306,10.996   l0.001,0.003c1.834,3.445,3.372,6.316,4.617,8.612l-3.077,1.668v-3.5h36.753v3.5l-3.097,1.632   c-4.417-8.385-10.337-18.014-17.75-28.851c-7.387-10.794-15.849-21.67-25.394-32.633l-1.813-2.083l39.646-55.545h-26.813   l-25.873,36.488l-2.85-4.063L1406.658,499.373z"
       id="path447" /></g><g
     id="g449"><defs
       id="defs451"><path
         id="SVGID_55_"
         d="M1006.151,284.101c0,40.004,32.425,72.43,72.429,72.43c39.996,0,72.43-32.426,72.43-72.43    c0-39.996-32.434-72.422-72.43-72.422C1038.576,211.679,1006.151,244.105,1006.151,284.101" /></defs><clipPath
       id="SVGID_56_"><use
         xlink:href="#SVGID_55_"
         overflow="visible"
         id="use455" /></clipPath><rect
       x="1006.151"
       y="211.679"
       clip-path="url(#SVGID_56_)"
       fill="#D8191C"
       width="144.858"
       height="144.852"
       id="rect457" /></g><g
     id="g459"><defs
       id="defs461"><path
         id="SVGID_57_"
         d="M406.08,731.1c0,48.881,39.62,88.5,88.5,88.5c48.87,0,88.5-39.619,88.5-88.5    c0-48.869-39.63-88.489-88.5-88.489C445.7,642.61,406.08,682.23,406.08,731.1" /></defs><clipPath
       id="SVGID_58_"><use
         xlink:href="#SVGID_57_"
         overflow="visible"
         id="use465" /></clipPath><rect
       x="406.08"
       y="642.61"
       clip-path="url(#SVGID_58_)"
       fill="#D8191C"
       width="177"
       height="176.989"
       id="rect467" /></g><g
     id="g469"><defs
       id="defs471"><path
         id="SVGID_59_"
         d="M1103.082,725.101c0,40.595,32.904,73.498,73.498,73.498c40.585,0,73.498-32.903,73.498-73.498    c0-40.586-32.913-73.488-73.498-73.488C1135.986,651.612,1103.082,684.515,1103.082,725.101" /></defs><use
       xlink:href="#SVGID_59_"
       overflow="visible"
       fill="#D8191C"
       id="use474" /><clipPath
       id="SVGID_60_"><use
         xlink:href="#SVGID_59_"
         overflow="visible"
         id="use477" /></clipPath><rect
       x="1103.082"
       y="651.612"
       clip-path="url(#SVGID_60_)"
       fill="#D8191C"
       width="146.996"
       height="146.986"
       id="rect479" /></g></svg>