<?xml version="1.0" encoding="UTF-8" standalone="no"?>
<!-- Created with Inkscape (http://www.inkscape.org/) -->
<svg
   xmlns:svg="http://www.w3.org/2000/svg"
   xmlns="http://www.w3.org/2000/svg"
   version="1.0"
   width="180"
   height="75"
   id="svg1903">
  <defs
     id="defs1905" />
  <g
     id="layer1">
    <path
       d="M -66.11396,1078.1233 L -66.11396,1078.1233 L -66.11396,1078.1233 L -66.11396,1078.1233 z "
       style="fill:black;stroke:none;stroke-miterlimit:10"
       id="path10" />
    <g
       transform="matrix(3.816769e-2,0,0,-3.816769e-2,0.39899,84.31682)"
       style="stroke-miterlimit:10"
       id="g2027">
      <path
         d="M 4424.15,1225.63 L 4424.15,1394.82 L 4311.35,1394.82 L 4311.35,679.65 L 4424.15,679.65 L 4424.15,930.44 C 4424.15,989.109 4421.57,1047.7 4432.05,1105.63 C 4444.49,1174.51 4482.04,1241 4550.15,1267.07 C 4584.14,1280.09 4619.95,1279.62 4655.75,1279.62 L 4655.75,1411.61 C 4573.67,1411.38 4508.34,1356.8 4463.06,1292.81 C 4454.2,1280.28 4445.9,1266.84 4438.87,1253.21 C 4434.32,1244.4 4430.79,1232.97 4424.16,1225.61"
         style="fill:black;stroke:none"
         id="path14" />
      <path
         d="M 2085.44,1010.84 C 2085.44,947.65 2090.19,885.82 2058.67,828.45 C 2018.54,755.421 1905.87,702.02 1837.1,770.901 C 1782.83,825.26 1801.43,917.68 1859.85,959.35 C 1921.31,1003.18 2012.32,1010.84 2085.44,1010.84 z M 1703.86,1207.63 L 1833.45,1207.63 C 1835.11,1246.3 1843.03,1290.29 1871,1319.02 C 1915.17,1364.4 2008.19,1360.99 2049.08,1313.22 C 2071.45,1287.08 2079.89,1251.85 2083.24,1218.42 C 2088.08,1170.09 2085.44,1120.61 2085.44,1072.03 C 2007.61,1072.03 1926.28,1062.21 1851.45,1040.33 C 1806.8,1027.26 1759.19,1004.44 1728.2,968.841 C 1657.35,887.412 1673.52,755.631 1763.85,695.682 C 1819.89,658.482 1897.16,654.492 1959.44,677.312 C 1996.07,690.751 2028.79,713.552 2055.33,742.051 C 2066.49,754.031 2074.89,768.061 2085.44,780.451 L 2085.44,679.651 L 2198.24,679.651 L 2198.24,1110.43 C 2198.24,1185.54 2204.28,1270.97 2156.87,1334.82 C 2115.98,1389.9 2048.74,1407.61 1983.45,1410.47 C 1899.05,1414.17 1798.63,1400.69 1744.37,1327.63 C 1730.65,1309.16 1720.84,1288.27 1713.87,1266.43 C 1707.94,1247.83 1703.86,1227.18 1703.86,1207.63"
         style="fill:black;stroke:none"
         id="path16" />
      <path
         d="M 1457.87,1716.41 L 1457.87,1043.24 C 1457.87,1002.03 1458.52,960.74 1456.72,919.64 C 1454.62,871.631 1449.52,820.121 1410.97,785.981 C 1366.06,746.231 1293.78,746.871 1239.48,763.681 C 1214.8,771.31 1192.09,785.41 1167.48,792.441 L 1167.48,679.641 C 1189.15,675.162 1210.25,669.522 1232.28,666.782 C 1338.15,653.622 1471.05,664.102 1537.74,758.841 C 1598.48,845.131 1582.67,965.361 1582.67,1064.83 L 1582.67,1716.4 L 1457.88,1716.4"
         style="fill:black;stroke:none"
         id="path18" />
      <path
         d="M 2621.56,1338.08 C 2702.15,1347.56 2750.61,1264.97 2769.5,1199.23 C 2788.9,1131.68 2792.65,1060.19 2789.6,990.441 C 2787.72,947.451 2782.88,902.771 2768.01,862.041 C 2744.27,797.001 2701.71,744.401 2628.76,737.451 C 2579.68,732.782 2529.61,749.401 2498.59,788.841 C 2477.52,815.641 2466,848.471 2458.22,881.241 C 2433.38,986.041 2441.11,1107.98 2478.7,1208.83 C 2497.18,1258.4 2528.49,1308.86 2579.56,1329.49 C 2593.18,1334.99 2607.17,1336.39 2621.56,1338.08 M 2333.57,1716.41 L 2333.57,1132.03 C 2333.57,1026.03 2320.45,906.24 2365.14,806.84 C 2383.69,765.56 2410.57,730 2448.76,704.94 C 2495.14,674.52 2551.48,664.601 2605.95,664.051 C 2703.11,663.041 2800.23,694.441 2855.01,780.45 C 2900.25,851.46 2911.98,932.1 2915.58,1014.44 C 2919.08,1094.63 2908.78,1176.85 2879.46,1252.03 C 2836.67,1361.75 2729.51,1429.65 2611.94,1407.47 C 2558.69,1397.43 2513.2,1364.13 2480.73,1321.63 C 2472.02,1310.22 2464.4,1298.01 2457.16,1285.63 C 2453.37,1279.13 2450.94,1271.4 2445.15,1266.43 L 2445.15,1716.41 L 2333.55,1716.41"
         style="fill:black;stroke:none"
         id="path20" />
      <path
         d="M 3305.79,1338.08 C 3386.39,1347.56 3434.47,1264.86 3453.38,1199.23 C 3471.64,1135.88 3476.7,1067.96 3473.83,1002.44 C 3471.72,954.091 3468.09,904.25 3450.76,858.451 C 3426.75,795.061 3384.22,744.241 3312.99,737.461 C 3262.89,732.682 3213.13,749.821 3181.62,790.051 C 3160.91,816.5 3150.05,849.08 3142.15,881.25 C 3134.28,913.29 3132.72,945.77 3130.49,978.45 C 3125.15,1056.48 3135.25,1140.68 3164.44,1213.64 C 3183.8,1262.02 3213.53,1309.19 3263.8,1329.5 C 3277.42,1335 3291.41,1336.4 3305.8,1338.09 M 3017.8,1716.41 L 3017.8,1132.03 C 3017.8,1023.03 3005,902.72 3051.77,800.84 C 3063.1,776.161 3078.12,753.201 3097.04,733.641 C 3150.97,677.911 3231.4,662.571 3305.78,664.031 C 3356.83,665.031 3408.45,674.251 3453.37,699.881 C 3495.87,724.13 3529.35,760.361 3552.59,803.23 C 3580.85,855.36 3591.92,914.09 3597.56,972.42 C 3607.56,1075.66 3594.97,1182.4 3551.93,1277.21 C 3504.56,1381.55 3379.91,1437.56 3270.97,1400.81 C 3226.55,1385.81 3189.57,1355.5 3161.95,1318.01 C 3150.45,1302.4 3142.92,1279.82 3129.37,1266.41 L 3129.37,1716.39 L 3017.77,1716.39"
         style="fill:black;stroke:none"
         id="path22" />
      <path
         d="M 4088.16,1189.63 L 3789.37,1189.63 C 3789.5,1237.76 3813.67,1291.43 3851.77,1321.01 C 3904.47,1361.92 3997.29,1362.26 4046.15,1314.37 C 4078.7,1282.45 4088.16,1233.49 4088.16,1189.62 M 4191.36,757.649 C 4167.94,754.49 4145.17,745.22 4121.76,741.15 C 4077.87,733.53 4030.38,735.221 3987.37,746.719 C 3830.12,788.719 3786.98,981.849 3786.98,1122.44 L 4204.56,1122.44 C 4204.56,1202.61 4191.36,1284.59 4134.76,1345.62 C 4106.5,1376.09 4065.79,1394.9 4025.77,1403.73 C 3940.5,1422.57 3837.17,1411.47 3767.78,1354.68 C 3690.59,1291.49 3663.35,1183.55 3661,1087.64 C 3657.47,943.059 3693.01,766.979 3839.78,700.579 C 3923.62,662.639 4017.04,655.609 4107.37,670.759 C 4128.02,674.219 4148.43,679.579 4168.57,685.299 C 4173.96,686.839 4186.61,687.979 4190.13,692.519 C 4193.19,696.459 4191.37,706.099 4191.37,710.839 L 4191.37,757.639"
         style="fill:black;stroke:none"
         id="path24" />
    </g>
    <g
       transform="matrix(2.688812e-2,0,0,-2.688812e-2,-1.364473,98.59382)"
       style="stroke-miterlimit:10"
       id="g2035">
      <path
         d="M 719.899,2297.19 C 719.899,2332 713.47,2370 693.25,2399.19 C 652.71,2457.7 565.68,2476.31 505.1,2439.44 C 474.48,2420.79 457.45,2388.23 447.85,2354.8 C 428.79,2288.42 437.53,2212.67 450.859,2146.01 C 455.119,2124.69 459.519,2103.34 465.499,2082.41 C 467.659,2074.86 468.659,2063.89 473.569,2057.61 C 482.138,2046.63 503.059,2043.45 515.888,2045.61 C 554.378,2052.08 544.848,2115.46 543.538,2142.41 C 540.468,2205.54 521.868,2266.81 539.888,2329.6 C 547.518,2356.17 562.258,2386.05 589.088,2397.59 C 613.308,2408.02 637.748,2395.26 647.338,2371.6 C 662.867,2333.29 658.987,2289.06 668.727,2249.2 C 672.037,2235.65 675.677,2222.23 681.787,2209.6 C 683.557,2205.95 685.997,2198.36 691.127,2198.82 C 703.597,2199.96 721.327,2220.77 730.676,2228.49 C 760.876,2253.45 791.906,2280.18 826.676,2298.65 C 843.036,2307.34 869.955,2321.41 886.666,2306.63 C 890.925,2302.86 894.355,2298.36 897.405,2293.59 C 917.045,2262.82 897.545,2238.85 884.776,2209.59 C 868.246,2171.72 851.307,2134.23 827.356,2100.39 C 806.766,2071.29 778.627,2045.78 762.176,2013.99 C 751.586,1993.52 745.596,1971.09 749.976,1947.99 C 753.526,1929.31 768.006,1918.03 787.056,1922.41 C 801.316,1925.69 810.976,1937.91 819.106,1949.19 C 833.596,1969.31 847.056,1990.19 861.456,2010.39 C 889.316,2049.46 922.186,2085.99 945.616,2127.99 C 973.856,2178.62 987.476,2235.91 987.445,2293.58 C 987.426,2340.71 970.336,2412.74 915.445,2422.62 C 905.116,2424.47 893.305,2423.46 883.045,2421.67 C 870.296,2419.45 857.496,2415.3 845.846,2409.66 C 814.636,2394.56 787.646,2372.01 764.456,2346.37 C 749.987,2330.39 737.027,2310.29 719.857,2297.17"
         style="fill:#ffb400;stroke:none"
         id="path26" />
      <path
         d="M 668.3,3463.03 C 625.01,3457.34 581.01,3457.93 537.51,3451.21 C 454.181,3438.34 374.37,3412.45 296.321,3381.22 C 267.901,3369.85 239.861,3357.18 212.321,3343.85 C 202.072,3338.89 186.441,3334.92 178.201,3326.96 C 173.912,3322.81 174.352,3313.09 173.831,3307.54 C 172.382,3291.93 170.432,3276.34 168.921,3260.74 C 163.092,3200.54 158.982,3138.52 167.602,3078.35 C 170.392,3058.91 176.432,3023.65 200.322,3019.92 C 237.061,3014.17 265.601,3059.38 283.631,3084.35 C 325.741,3142.67 373.651,3196.96 442.711,3223.03 C 524.011,3253.72 617.091,3260.95 703.101,3266.85 C 944.411,3283.39 1208.11,3239.31 1385.87,3061.55 C 1411.15,3036.27 1435.08,3009.44 1455.43,2979.95 C 1535.02,2864.69 1577.11,2733.63 1597.38,2595.97 C 1606.91,2531.34 1613.42,2465.94 1598.68,2401.58 C 1573.1,2289.92 1506.03,2192.73 1428.96,2109.99 C 1376.21,2053.36 1316.85,2002.17 1255.07,1955.64 C 1220.58,1929.67 1181.9,1907.64 1149.47,1879.25 C 1112.12,1846.55 1081.05,1805.63 1057.44,1762 C 993.9,1644.52 976.861,1503.16 995.55,1372.02 C 999.38,1345.14 1002.84,1318.13 1008.93,1291.62 C 1010.75,1283.69 1011.07,1270.06 1016.2,1263.58 C 1025.8,1251.46 1052,1244.79 1066.67,1244.08 C 1081.97,1243.34 1092.15,1255.1 1095.9,1268.82 C 1102.32,1292.33 1098.48,1318.37 1094.76,1342.02 C 1087.14,1390.46 1080.16,1439.24 1082.32,1488.41 C 1086.3,1579.2 1121.4,1663.8 1184.32,1729.6 C 1248.31,1796.52 1334.74,1835.11 1407.46,1891.17 C 1554.02,2004.15 1685.32,2156.58 1735.74,2337.97 C 1753.76,2402.84 1759.73,2471.58 1751.5,2538.36 C 1741.1,2622.83 1710.21,2707.2 1681.11,2786.75 C 1592.42,3029.23 1440.28,3259.83 1198.67,3370.76 C 1102.78,3414.78 1002.51,3434.82 898.68,3449.28 C 849.99,3456.06 801.31,3460.22 752.289,3462.37 C 725.06,3463.56 695.44,3466.58 668.29,3463.01"
         style="fill:#c00;stroke:none"
         id="path28" />
      <path
         d="M 290.31,1893.49 C 243.22,1886.75 229.53,1849 238.23,1806.41 C 249.37,1751.91 292.23,1710.34 334.699,1677.6 C 443.509,1593.72 584.049,1548.38 721.079,1554.38 C 774.549,1556.72 832.799,1565.56 881.869,1588.25 C 908.179,1600.41 935.699,1644.22 899.869,1662.97 C 894.959,1665.54 888.54,1667.13 883.069,1668.03 C 867.42,1670.59 849.899,1663.93 835.07,1659.67 C 808.92,1652.16 782.79,1644.47 755.87,1640.15 C 675.44,1627.23 588.47,1645.61 521.88,1693.27 C 468.051,1731.81 424.511,1782.63 383.41,1834.01 C 358.251,1865.46 335.511,1899.97 290.291,1893.49"
         style="fill:#c00;stroke:none"
         id="path30" />
      <path
         d="M 229.11,1627.11 C 217.13,1625.53 203.39,1625.98 193.13,1618.45 C 171.73,1602.74 195.3,1571.14 206.56,1556.82 C 239.209,1515.33 282.199,1480.89 325.1,1450.53 C 444.699,1365.92 580.179,1317.11 725.88,1307.12 C 767.769,1304.25 810.439,1307.23 851.869,1314.13 C 867.018,1316.66 885.869,1317.8 899.869,1324.34 C 939.488,1342.87 928.028,1417.72 892.669,1434.36 C 877.229,1441.62 852.459,1432.03 836.269,1429.78 C 797.979,1424.44 759.579,1423.9 721.069,1424.84 C 620.139,1427.31 512.619,1458.4 424.679,1507.46 C 390.109,1526.76 358.36,1550.24 328.679,1576.37 C 310.629,1592.26 292.089,1618.26 268.68,1626.29 C 257.78,1630.03 240.419,1628.61 229.079,1627.12"
         style="fill:#c00;stroke:none"
         id="path32" />
      <path
         d="M 253.109,1402.7 C 236.05,1400.79 223.19,1391.89 211.97,1379.23 C 204.24,1370.51 196.9,1362.63 192.46,1351.63 C 167.98,1291.07 233.24,1233.9 278.31,1205.3 C 328.469,1173.48 383.269,1149.89 439.099,1130.02 C 565.019,1085.2 712.709,1056.51 843.479,1096.58 C 882.349,1108.48 920.769,1130.24 949.029,1159.65 C 964.948,1176.22 975.878,1201.31 946.679,1211.92 C 929.379,1218.2 908.369,1202.21 892.679,1195.89 C 855.639,1180.95 817.239,1169.61 777.479,1164.8 C 725.109,1158.45 677.959,1169.98 627.489,1182.61 C 584.379,1193.39 540.78,1204.17 499.099,1219.71 C 463.539,1232.97 428.219,1248.72 397.1,1270.74 C 387.8,1277.32 376.66,1283.18 369.04,1291.75 C 344.13,1319.78 325.41,1352.58 298.7,1379.24 C 287.16,1390.76 270.761,1404.68 253.1,1402.71"
         style="fill:#c00;stroke:none"
         id="path34" />
    </g>
  </g>
</svg>
