<?xml version="1.0" encoding="utf-8"?>
<!-- Generator: Adobe Illustrator 16.0.0, SVG Export Plug-In . SVG Version: 6.00 Build 0)  -->
<!DOCTYPE svg PUBLIC "-//W3C//DTD SVG 1.1//EN" "http://www.w3.org/Graphics/SVG/1.1/DTD/svg11.dtd">
<svg version="1.1" id="Layer_1" xmlns="http://www.w3.org/2000/svg" xmlns:xlink="http://www.w3.org/1999/xlink" x="0px" y="0px"
	 width="355.67px" height="105.842px" viewBox="0 0 355.67 105.842" enable-background="new 0 0 355.67 105.842"
	 xml:space="preserve">
<g>
	<path fill="#8CC254" d="M180.064,24.998c4.467-2.255,7.766-4.377,14.635-3.891c5.935,0.423,10.286,3.055,13.904,6.678
		c3.651,3.65,7.063,9.05,6.482,17.231c-0.637,9.028-6.683,16.084-13.711,18.898c-15.221,6.104-29.734-4.935-30.767-19.087
		c-0.464-6.365,0-12.693,0-19.83v-9.82c0-5.742-0.985-11.554,3.899-12.227c2.598-0.37,4.745,1.039,5.371,2.96
		c0.698,2.113,0.186,6.017,0.186,9.455V24.998z M186.732,32.043c-3.71,1.946-6.605,6.253-6.668,11.117
		c-0.055,4.495,2.439,8.619,5.556,10.752c6.811,4.645,16.253,1.252,19.095-5.562c4.008-9.621-4.191-18.611-13.166-17.603
		C189.548,30.972,187.917,31.421,186.732,32.043"/>
	<path fill="#231F20" d="M104.271,3.323c1.735-0.409,4.107,0.122,5.186,1.852c1.379,2.19,0.557,10.834,0.557,14.454v30.016
		c0,7.202,1.6,15.837-4.451,15.945c-1.212,0.011-3.157-0.793-3.887-1.861c-1.564-2.268-0.741-10.006-0.741-14.084V19.995
		c0-2.832-0.803-11.872,0.372-14.447C101.767,4.523,102.997,3.617,104.271,3.323"/>
	<path fill="#8CC254" d="M322.94,21.297h7.793c2.583,0,5.316-0.447,7.217,0.367c3.683,1.575,3.219,7.321,0,8.709
		c-3.564,1.551-10.734-0.391-15.01,0.373c0.375,6.334-0.653,11.658,0.375,15.939c1.446,6.069,8.639,11.903,17.04,8.707
		c1.13-0.422,2.53-1.271,3.715-2.22c1.32-1.066,2.235-1.996,3.892-2.04c2.862-0.075,5.168,2.036,4.807,5.375
		c-0.317,3.105-5.127,6.084-7.585,7.221c-8.597,3.987-19.285,1.401-25.021-4.255c-3.405-3.367-6.265-8.842-6.675-14.458
		c-0.466-6.457,0-12.534,0-19.646v-9.817c0-5.363-1.097-11.615,3.711-12.417C325.84,1.686,322.169,14.351,322.94,21.297"/>
	<path fill="#8CC254" d="M141.704,21.297c5.238-0.159,9.644,1.356,13.158,3.701c5.086,3.401,9.057,9.537,9.636,16.118
		c1.164,13.248-8.522,23.472-19.828,24.468c-8.683,0.768-14.986-2.714-19.272-7.597c-4.777-5.445-6.979-15.206-3.336-23.536
		c1.201-2.755,2.3-4.688,4.259-6.666C129.281,24.788,135.012,21.491,141.704,21.297 M130.401,38.525
		c-2.143,5.338-0.21,10.85,2.775,13.904c1.756,1.796,4.792,3.434,7.972,3.709c7.9,0.682,14.808-5.909,13.898-14.089
		c-0.742-6.691-6.403-12.306-14.829-11.118C135.599,31.579,131.792,35.07,130.401,38.525"/>
	<path fill="#8CC254" d="M281.243,25.188c2.925-1.911,6.267-3.715,10.747-4.081c2.882-0.231,8.817-0.603,11.118,0.379
		c3.561,1.507,3.454,7.636-0.363,8.89c-3.105,1.022-7.003-0.081-9.826,0.185c-3.017,0.282-5.65,1.799-7.229,3.15
		c-2.009,1.732-4.122,4.786-4.447,8.895c-0.213,2.739,0,6.495,0,10.191c0,6.293,1.23,13.538-5.188,12.977
		c-1.538-0.142-3.318-1.396-3.886-2.787c-0.811-1.929-0.375-7.245-0.375-9.441V33.896c0-6.245-1.033-13.033,5.197-12.6
		C279.313,21.45,280.494,23.074,281.243,25.188"/>
	<path fill="#8CC254" d="M232.132,48.538c0.119,1.988,1.567,3.082,2.604,4.072c2.857,2.735,7.982,4.784,13.336,2.782
		c1.384-0.51,2.641-1.348,3.698-2.224c1.288-1.039,2.16-1.987,3.909-2.036c2.886-0.088,4.974,2.2,4.998,4.629
		c0.039,3.63-3.8,5.55-6.492,7.042c-2.81,1.557-6.838,2.933-10.562,2.97c-8.811,0.075-15.735-4.985-19.079-10.381
		c-1.785-2.868-3.322-7.516-3.339-11.672c-0.051-11.739,8.853-21.484,20.018-22.424c7.216-0.608,13.121,2.002,17.049,5.554
		c3.211,2.919,6.373,7.16,6.666,11.492c0.323,4.783-2.839,8.678-6.491,9.631c-1.958,0.517-4.412,0.192-6.676,0.192h-6.664
		C240.822,48.166,236.549,47.859,232.132,48.538 M242.335,30.745c-4.723,0.399-9.258,3.679-10.203,7.787
		c5.379,0.332,11.752,0.183,17.237,0.183c1.913,0,3.913,0.295,5.562-0.372C253.299,33.821,248.309,30.244,242.335,30.745"/>
	<path fill="#231F20" d="M23.46,21.67c6.609-0.611,16.789,2.431,17.055,7.596c0.135,2.539-1.545,4.556-3.883,4.812
		c-2.742,0.313-4.363-1.793-6.494-2.589c-8.813-3.324-18.438,3.496-17.605,13.156c0.573,6.573,7.247,13.837,16.121,11.487
		c1.376-0.358,2.678-1.06,3.711-1.667c1.107-0.635,1.949-1.582,3.889-1.479c2.875,0.152,4.241,2.279,4.261,4.443
		c0.064,4.991-8.269,7.778-13.152,8.156c-9.945,0.766-17.379-4.626-20.942-10.562c-1.692-2.827-2.695-5.991-2.965-9.454
		C2.442,32.427,11.499,22.762,23.46,21.67"/>
</g>
<g>
	<path fill="#231F20" d="M59.42,48.35c-0.114,1.347,0.892,2.852,1.854,3.894c2.952,3.18,9.055,5.551,14.634,3.149
		c1.247-0.538,2.432-1.345,3.529-2.224c1.187-0.941,1.985-1.82,3.7-1.854c2.987-0.049,4.953,2.234,4.632,5.193
		c-0.305,2.958-4.192,5.27-6.486,6.479c-2.55,1.362-6.682,2.565-10.182,2.597c-9.444,0.087-16.875-5.511-20.017-12.04
		c-1.562-3.24-2.542-7.034-2.221-11.68c0.69-10.413,8.906-19.536,19.824-20.384c10.068-0.788,17.635,4.37,21.305,10.747
		c1.434,2.462,2.806,5.756,2.04,9.084c-0.678,2.96-3.426,5.778-6.113,6.481c-1.971,0.521-4.443,0.189-6.677,0.189h-6.661
		C68.225,47.982,63.909,47.683,59.42,48.35 M79.437,33.718c-6.633-5.736-17.976-2.792-20.197,4.628
		c1.423,0.958,3.502,0.555,5.377,0.555h12.034c2.008,0,4.09,0.289,5.758-0.368C82.073,36.563,80.779,34.878,79.437,33.718"/>
	<path fill="#231F20" d="M333.699,101.552h8.143v-1.665h-6.263v-5.474h5.664v-1.665h-5.664v-4.791h6.006v-1.664h-7.886V101.552z
		 M318.694,101.552h1.878V88.214h0.043l3.379,13.338h1.882l3.378-13.338h0.043v13.338h1.878V86.293h-3.161l-3.057,12.095h-0.043
		l-3.059-12.095h-3.161V101.552z M316.319,90.244c-0.043-2.801-1.365-4.252-4.273-4.252c-3.869,0-4.466,2.799-4.466,4.209
		c0,5.603,7.202,3.101,7.202,7.419c0,1.625-1.154,2.694-2.651,2.694c-2.758,0-2.865-1.839-2.865-3.549h-1.879
		c0,3.25,1.046,5.085,4.616,5.085c2.16,0,4.744-1.003,4.744-4.529c0-5.58-7.203-3.015-7.203-7.312c0-1.625,0.94-2.48,2.522-2.48
		c1.797,0,2.374,1.112,2.374,2.715H316.319z M303.603,101.552h1.878V86.293h-1.878V101.552z M291.719,101.552h1.878V89.196h0.043
		l4.897,12.355h2.584V86.293h-1.878v12.738H299.2l-5.047-12.738h-2.434V101.552z M285.219,88.448h0.043l1.944,7.377h-4.104
		L285.219,88.448z M279.621,101.552h1.966l1.133-4.19h4.872l1.09,4.19h1.966l-4.103-15.259h-2.522L279.621,101.552z M271.816,87.828
		h2.117c1.839,0,2.631,0.921,2.631,2.503c0,2.353-1.797,2.545-2.588,2.545h-2.16V87.828z M269.937,101.552h4.146
		c3.187,0,4.937-1.259,4.937-4.359c0-1.882-0.832-3.313-2.712-3.762v-0.043c1.388-0.405,2.22-1.795,2.22-3.186
		c0-2.971-1.921-3.909-3.909-3.909h-4.681V101.552z M271.816,94.283h2.245c1.647,0,2.994,0.813,2.994,2.909
		c0,1.476-0.684,2.823-2.673,2.823h-2.566V94.283z M260.722,87.828h2.245c1.754,0,2.759,0.941,2.759,2.438
		c0,2.951-2.031,2.951-3.143,2.951h-1.861V87.828z M258.844,101.552h1.878v-6.797h2.545c0.962,0,2.117,0.128,2.268,2.223
		l0.128,2.372c0.043,0.748,0.191,1.881,0.512,2.202h2.264c-0.449-0.278-0.726-0.705-0.812-2.395l-0.128-2.607
		c-0.085-1.305-0.833-2.394-2.157-2.542v-0.043c1.772-0.427,2.349-2.181,2.349-3.849c0-2.416-1.515-3.823-3.91-3.823h-4.936V101.552
		z M247.58,97.022c0,3.143,1.408,4.828,4.466,4.828c2.993,0,4.486-1.899,4.486-4.828V86.293h-1.878v10.729
		c0,2.138-0.599,3.292-2.608,3.292c-1.861,0-2.588-1.047-2.588-3.292V86.293h-1.878V97.022z M230.991,88.448h0.043l1.944,7.377
		h-4.103L230.991,88.448z M225.392,101.552h1.966l1.132-4.19h4.873l1.091,4.19h1.966l-4.104-15.259h-2.521L225.392,101.552z
		 M222.442,101.552h1.878V86.293h-1.878V101.552z M213.227,87.828h2.245c1.754,0,2.759,0.941,2.759,2.438
		c0,2.951-2.031,2.951-3.144,2.951h-1.86V87.828z M211.348,101.552h1.879v-6.797h2.545c0.962,0,2.117,0.128,2.268,2.223l0.128,2.372
		c0.043,0.748,0.191,1.881,0.512,2.202h2.264c-0.448-0.278-0.726-0.705-0.812-2.395l-0.128-2.607
		c-0.086-1.305-0.833-2.394-2.157-2.542v-0.043c1.773-0.427,2.349-2.181,2.349-3.849c0-2.416-1.515-3.823-3.909-3.823h-4.938
		V101.552z M201.453,101.552h8.141v-1.665h-6.263v-5.474h5.665v-1.665h-5.665v-4.791h6.007v-1.664h-7.885V101.552z M194.334,95.567
		v5.984h1.878v-5.984l4.04-9.274h-1.966l-3.014,7.138l-2.904-7.138h-2.074L194.334,95.567z M179.692,101.552h1.878V89.196h0.043
		l4.897,12.355h2.584V86.293h-1.878v12.738h-0.043l-5.047-12.738h-2.435V101.552z M175.333,101.552h1.878V86.293h-1.878V101.552z
		 M173.063,90.523c-0.021-0.792-0.128-4.531-4.508-4.531c-4.211,0-4.915,4.082-4.915,7.931c0,4.104,0.704,7.928,4.679,7.928
		c1.668,0,2.888-1.067,3.294-2.37h0.042v2.071h1.408v-7.928h-4.722v1.536h3.015c0,2.031-0.191,5.154-2.801,5.154
		s-2.952-2.866-2.952-6.392c0-3.528,0.343-6.394,2.952-6.394c1.86,0,2.459,1.391,2.545,2.994H173.063z M151.969,101.552h1.878
		V89.196h0.043l4.897,12.355h2.584V86.293h-1.878v12.738h-0.044l-5.047-12.738h-2.434V101.552z M142.072,101.552h8.141v-1.665
		h-6.263v-5.474h5.665v-1.665h-5.665v-4.791h6.007v-1.664h-7.885V101.552z M125.313,88.448h0.043l1.944,7.377h-4.103L125.313,88.448
		z M119.714,101.552h1.966l1.133-4.19h4.872l1.09,4.19h1.966l-4.103-15.259h-2.522L119.714,101.552z M111.91,87.828h2.245
		c1.754,0,2.759,0.941,2.759,2.438c0,2.951-2.032,2.951-3.144,2.951h-1.86V87.828z M110.031,101.552h1.879v-6.797h2.545
		c0.962,0,2.117,0.128,2.267,2.223l0.128,2.372c0.042,0.748,0.192,1.881,0.512,2.202h2.264c-0.449-0.278-0.727-0.705-0.812-2.395
		l-0.128-2.607c-0.086-1.305-0.833-2.394-2.157-2.542v-0.043c1.773-0.427,2.349-2.181,2.349-3.849c0-2.416-1.516-3.823-3.91-3.823
		h-4.937V101.552z M98.766,97.022c0,3.143,1.409,4.828,4.467,4.828c2.993,0,4.487-1.899,4.487-4.828V86.293h-1.878v10.729
		c0,2.138-0.599,3.292-2.609,3.292c-1.861,0-2.588-1.047-2.588-3.292V86.293h-1.879V97.022z M93.677,87.957h3.847v-1.664h-9.552
		v1.664h3.826v13.595h1.879V87.957z M85.322,96.316c-0.065,1.86-0.385,3.998-2.674,3.998c-2.609,0-2.951-2.865-2.951-6.393
		s0.342-6.393,2.951-6.393c1.947,0,2.503,1.476,2.545,3.207h1.964c-0.085-2.993-1.387-4.744-4.509-4.744
		c-4.21,0-4.915,4.081-4.915,7.93s0.577,7.929,4.915,7.929c3.335,0,4.467-2.648,4.637-5.534H85.322z M68.05,101.552h8.142v-1.665
		h-6.263v-5.474h5.664v-1.665h-5.664v-4.791h6.006v-1.664H68.05V101.552z M62.79,87.957h3.847v-1.664h-9.552v1.664h3.826v13.595
		h1.879V87.957z M53.793,101.552h1.878V86.293h-1.878V101.552z M42.529,97.022c0,3.143,1.408,4.828,4.466,4.828
		c2.993,0,4.487-1.899,4.487-4.828V86.293h-1.878v10.729c0,2.138-0.599,3.292-2.609,3.292c-1.861,0-2.588-1.047-2.588-3.292V86.293
		h-1.878V97.022z M36.906,99.95c-0.363,0.236-0.834,0.364-1.39,0.364c-2.609,0-2.951-2.865-2.951-6.393s0.342-6.393,2.951-6.393
		s2.951,2.865,2.951,6.393c0,1.945-0.106,3.678-0.577,4.832l-1.411-1.283l-1.048,1.155L36.906,99.95z M39.684,102.471l1.047-1.111
		l-1.538-1.409c1.003-1.539,1.238-3.826,1.238-6.028c0-3.849-0.704-7.93-4.915-7.93c-4.21,0-4.915,4.081-4.915,7.93
		s0.705,7.929,4.915,7.929c1.091,0,1.968-0.277,2.631-0.768L39.684,102.471z M21.6,87.828h2.245c1.754,0,2.759,0.941,2.759,2.438
		c0,2.951-2.032,2.951-3.144,2.951H21.6V87.828z M19.721,101.552H21.6v-6.797h2.545c0.962,0,2.117,0.128,2.267,2.223l0.128,2.372
		c0.043,0.748,0.192,1.881,0.512,2.202h2.264c-0.449-0.278-0.727-0.705-0.812-2.395l-0.128-2.607
		c-0.086-1.305-0.833-2.394-2.157-2.542v-0.043c1.773-0.427,2.349-2.181,2.349-3.849c0-2.416-1.516-3.823-3.91-3.823h-4.937V101.552
		z M13.222,88.448h0.043l1.944,7.377h-4.103L13.222,88.448z M7.623,101.552h1.966l1.133-4.19h4.872l1.09,4.19h1.966l-4.103-15.259
		h-2.522L7.623,101.552z"/>
</g>
</svg>
