<?xml version="1.0" encoding="UTF-8" standalone="no"?>
<!-- Created with Inkscape (http://www.inkscape.org/) -->

<svg
   xmlns:dc="http://purl.org/dc/elements/1.1/"
   xmlns:cc="http://creativecommons.org/ns#"
   xmlns:rdf="http://www.w3.org/1999/02/22-rdf-syntax-ns#"
   xmlns:svg="http://www.w3.org/2000/svg"
   xmlns="http://www.w3.org/2000/svg"
   xmlns:xlink="http://www.w3.org/1999/xlink"
   xmlns:sodipodi="http://sodipodi.sourceforge.net/DTD/sodipodi-0.dtd"
   xmlns:inkscape="http://www.inkscape.org/namespaces/inkscape"
   width="141.31931"
   height="55.250862"
   id="svg4014"
   version="1.1"
   inkscape:version="0.48.4 r9939"
   sodipodi:docname="fishes-bigeatssmall.svg">
  <defs
     id="defs4016">
    <radialGradient
       r="80.579842"
       fy="673.08447"
       fx="595.71826"
       cy="673.08447"
       cx="595.71826"
       gradientTransform="matrix(0.49287618,0,0,0.32511258,213.25606,264.74213)"
       gradientUnits="userSpaceOnUse"
       id="radialGradient50511"
       xlink:href="#linearGradient5983-6-8-6"
       inkscape:collect="always" />
    <linearGradient
       id="linearGradient5983-6-8-6">
      <stop
         id="stop5985-0-87-29"
         offset="0"
         style="stop-color:#6a4093;stop-opacity:1;" />
      <stop
         id="stop5987-0-8-0"
         offset="1"
         style="stop-color:#c22ec7;stop-opacity:1;" />
    </linearGradient>
    <radialGradient
       r="4.2458301"
       fy="540.76538"
       fx="341.96222"
       cy="540.76538"
       cx="341.96222"
       gradientTransform="matrix(1.6,0,0,1.0600656,2.400001,-73.839506)"
       gradientUnits="userSpaceOnUse"
       id="radialGradient50513"
       xlink:href="#linearGradient5983-6-8-24"
       inkscape:collect="always" />
    <linearGradient
       id="linearGradient5983-6-8-24">
      <stop
         id="stop5985-0-87-4"
         offset="0"
         style="stop-color:#994343;stop-opacity:1;" />
      <stop
         id="stop5987-0-8-54"
         offset="1"
         style="stop-color:#c7512e;stop-opacity:1;" />
    </linearGradient>
    <radialGradient
       r="4.2458301"
       fy="542.77362"
       fx="351.54797"
       cy="542.77362"
       cx="351.54797"
       gradientTransform="matrix(1.6,0,0,1.0600668,2.400001,-72.755826)"
       gradientUnits="userSpaceOnUse"
       id="radialGradient50515"
       xlink:href="#linearGradient5983-6-8-24"
       inkscape:collect="always" />
    <linearGradient
       id="linearGradient3946">
      <stop
         id="stop3948"
         offset="0"
         style="stop-color:#994343;stop-opacity:1;" />
      <stop
         id="stop3950"
         offset="1"
         style="stop-color:#c7512e;stop-opacity:1;" />
    </linearGradient>
    <radialGradient
       r="4.2458301"
       fy="534.18427"
       fx="374.22842"
       cy="534.18427"
       cx="374.22842"
       gradientTransform="matrix(1.6,0,0,1.0600668,2.400001,-77.393466)"
       gradientUnits="userSpaceOnUse"
       id="radialGradient50517"
       xlink:href="#linearGradient5983-6-8-24"
       inkscape:collect="always" />
    <linearGradient
       id="linearGradient3953">
      <stop
         id="stop3955"
         offset="0"
         style="stop-color:#994343;stop-opacity:1;" />
      <stop
         id="stop3957"
         offset="1"
         style="stop-color:#c7512e;stop-opacity:1;" />
    </linearGradient>
    <radialGradient
       r="4.2458301"
       fy="545.89008"
       fx="359.44211"
       cy="545.89008"
       cx="359.44211"
       gradientTransform="matrix(1.6,0,0,1.0600656,2.400001,-71.072496)"
       gradientUnits="userSpaceOnUse"
       id="radialGradient50519"
       xlink:href="#linearGradient5983-6-8-24"
       inkscape:collect="always" />
    <linearGradient
       id="linearGradient3960">
      <stop
         id="stop3962"
         offset="0"
         style="stop-color:#994343;stop-opacity:1;" />
      <stop
         id="stop3964"
         offset="1"
         style="stop-color:#c7512e;stop-opacity:1;" />
    </linearGradient>
    <radialGradient
       r="4.2458301"
       fy="540.65332"
       fx="367.14331"
       cy="540.65332"
       cx="367.14331"
       gradientTransform="matrix(1.6,0,0,1.0600668,2.400001,-73.900636)"
       gradientUnits="userSpaceOnUse"
       id="radialGradient50521"
       xlink:href="#linearGradient5983-6-8-24"
       inkscape:collect="always" />
    <linearGradient
       id="linearGradient3967">
      <stop
         id="stop3969"
         offset="0"
         style="stop-color:#994343;stop-opacity:1;" />
      <stop
         id="stop3971"
         offset="1"
         style="stop-color:#c7512e;stop-opacity:1;" />
    </linearGradient>
    <radialGradient
       r="4.2458301"
       fy="526.59937"
       fx="369.14502"
       cy="526.59937"
       cx="369.14502"
       gradientTransform="matrix(1.6,0,0,1.0600656,2.400001,-81.488226)"
       gradientUnits="userSpaceOnUse"
       id="radialGradient50523"
       xlink:href="#linearGradient5983-6-8-24"
       inkscape:collect="always" />
    <linearGradient
       id="linearGradient3974">
      <stop
         id="stop3976"
         offset="0"
         style="stop-color:#994343;stop-opacity:1;" />
      <stop
         id="stop3978"
         offset="1"
         style="stop-color:#c7512e;stop-opacity:1;" />
    </linearGradient>
    <radialGradient
       r="4.2458301"
       fy="528.02332"
       fx="350.81677"
       cy="528.02332"
       cx="350.81677"
       gradientTransform="matrix(1.6,0,0,1.0600656,2.400001,-80.719376)"
       gradientUnits="userSpaceOnUse"
       id="radialGradient50525"
       xlink:href="#linearGradient5983-6-8-24"
       inkscape:collect="always" />
    <linearGradient
       id="linearGradient3981">
      <stop
         id="stop3983"
         offset="0"
         style="stop-color:#994343;stop-opacity:1;" />
      <stop
         id="stop3985"
         offset="1"
         style="stop-color:#c7512e;stop-opacity:1;" />
    </linearGradient>
    <radialGradient
       r="4.2458301"
       fy="536.34064"
       fx="356.36163"
       cy="536.34064"
       cx="356.36163"
       gradientTransform="matrix(1.6,0,0,1.0600668,2.400001,-76.229186)"
       gradientUnits="userSpaceOnUse"
       id="radialGradient50527"
       xlink:href="#linearGradient5983-6-8-24"
       inkscape:collect="always" />
    <linearGradient
       id="linearGradient3988">
      <stop
         id="stop3990"
         offset="0"
         style="stop-color:#994343;stop-opacity:1;" />
      <stop
         id="stop3992"
         offset="1"
         style="stop-color:#c7512e;stop-opacity:1;" />
    </linearGradient>
    <radialGradient
       r="4.2458301"
       fy="530.30414"
       fx="360.75571"
       cy="530.30414"
       cx="360.75571"
       gradientTransform="matrix(1.6,0,0,1.0600668,2.400001,-79.488506)"
       gradientUnits="userSpaceOnUse"
       id="radialGradient50529"
       xlink:href="#linearGradient5983-6-8-24"
       inkscape:collect="always" />
    <linearGradient
       id="linearGradient3995">
      <stop
         id="stop3997"
         offset="0"
         style="stop-color:#994343;stop-opacity:1;" />
      <stop
         id="stop3999"
         offset="1"
         style="stop-color:#c7512e;stop-opacity:1;" />
    </linearGradient>
  </defs>
  <sodipodi:namedview
     id="base"
     pagecolor="#ffffff"
     bordercolor="#666666"
     borderopacity="1.0"
     inkscape:pageopacity="0.0"
     inkscape:pageshadow="2"
     inkscape:zoom="0.98994949"
     inkscape:cx="-131.21245"
     inkscape:cy="202.49783"
     inkscape:document-units="px"
     inkscape:current-layer="layer1"
     showgrid="false"
     inkscape:window-width="1680"
     inkscape:window-height="995"
     inkscape:window-x="-2"
     inkscape:window-y="-3"
     inkscape:window-maximized="1"
     fit-margin-top="0"
     fit-margin-left="0"
     fit-margin-right="0"
     fit-margin-bottom="0" />
  <metadata
     id="metadata4019">
    <rdf:RDF>
      <cc:Work
         rdf:about="">
        <dc:format>image/svg+xml</dc:format>
        <dc:type
           rdf:resource="http://purl.org/dc/dcmitype/StillImage" />
        <dc:title />
      </cc:Work>
    </rdf:RDF>
  </metadata>
  <g
     inkscape:label="Layer 1"
     inkscape:groupmode="layer"
     id="layer1"
     transform="translate(-107.3606,-904.75716)">
    <g
       style="display:inline"
       id="g4555"
       transform="translate(-359.24137,447.93787)">
      <path
         sodipodi:nodetypes="ccccsssscccsacsccccccccssscc"
         inkscape:connector-curvature="0"
         id="path5957"
         d="M 492.05947,478.88993 470.8,471.83247 c 9.95194,16.18205 12.50917,14.088 -3.39803,32.23774 l 25.61593,-9.40993 c 1.95567,1.4671 2.88599,3.48413 4.46159,5.12005 1.1387,1.18232 -9.60096,6.26931 -8.23859,7.2426 0.76772,0.54848 4.95216,1.03637 9.06593,0.4144 3.26195,-0.49316 4.00947,-0.77676 5.3408,-1.45027 0.79013,-0.39973 2.91584,-0.48955 3.70735,-1.11117 2.45641,-1.9292 5.5486,-4.82814 5.62291,-4.76868 l -6.39552,5.02782 c 0,0 12.0316,4.2096 14.49107,4.33718 4.08699,0.21199 8.26531,-0.26184 12.19806,-1.39406 2.97101,-0.85534 8.36439,-4.00794 8.36439,-4.00794 0,0 -5.66114,-4.01728 -10.262,-7.01416 -3.48459,-2.26974 -5.55061,-4.64299 -8.73211,-9.01758 l 8.9508,-5.76317 c 0,0 3.15222,6.55015 2.23131,-0.79702 -0.38455,-0.60559 2.47181,-1.59887 2.11941,-2.11727 0,0 2.83299,6.80165 1.88409,-1.13737 0,0 1.08056,-0.59896 2.03594,-0.76403 1.77603,-0.0854 1.56395,5.88153 2.24174,-1.86444 l 4.23579,-1.93299 c -17.26193,-12.57227 -21.2148,-19.70406 -33.17969,-13.37776 -0.45472,0.24043 -5.35546,-2.02795 -9.1525,-2.57176 -4.50126,-0.64467 -9.50627,2.20455 -13.69955,3.77475 -2.55542,0.95692 9.48533,5.88392 8.63637,6.82749 -4.50271,5.00464 -2.56064,7.21063 -6.88602,10.57503 z"
         style="fill:url(#radialGradient50511);fill-opacity:1;fill-rule:evenodd;stroke:#000000;stroke-width:1.60000002;stroke-linecap:butt;stroke-linejoin:miter;stroke-miterlimit:4;stroke-opacity:1;stroke-dasharray:none" />
      <path
         sodipodi:nodetypes="ccccsssscccsacsccccccccsssccaaaaa"
         inkscape:connector-curvature="0"
         id="path8171"
         d="m 547.0277,498.61367 -3.60524,-1.19682 c 1.68768,2.7442 2.12135,2.38908 -0.57624,5.46696 l 4.34402,-1.59576 c 0.33165,0.2488 0.48941,0.59085 0.75661,0.86828 0.1931,0.20049 -1.62816,1.06316 -1.39712,1.2282 0.13024,0.093 0.83979,0.17576 1.53742,0.0702 0.55317,-0.0837 0.67994,-0.13168 0.90571,-0.24595 0.13392,-0.0678 0.49447,-0.083 0.62869,-0.18843 0.41658,-0.32715 0.94095,-0.81877 0.95355,-0.80869 l -1.08457,0.85264 c 0,0 2.04035,0.71387 2.45744,0.73551 0.69309,0.0358 1.40165,-0.0445 2.06857,-0.2364 0.50384,-0.14512 1.41847,-0.67968 1.41847,-0.67968 0,0 -0.96003,-0.68127 -1.74027,-1.18948 -0.59092,-0.38491 -0.94128,-0.78737 -1.48082,-1.52923 l 1.5179,-0.97733 c 0,0 0.53458,1.11079 0.3784,-0.1352 -0.0653,-0.10272 0.41917,-0.27113 0.35941,-0.35905 0,0 0.48043,1.15344 0.31952,-0.19288 0,0 0.18323,-0.1016 0.34527,-0.1296 0.30116,-0.0144 0.2652,0.99741 0.38016,-0.31618 l 0.7183,-0.32779 c -2.92733,-2.13205 -3.59765,-3.34147 -5.62669,-2.26864 -0.0771,0.0408 -0.90819,-0.3439 -1.55211,-0.43613 -0.76333,-0.10928 -1.6121,0.37386 -2.3232,0.64013 -0.43336,0.16229 1.60854,0.99782 1.46458,1.15784 -0.76359,0.84869 -0.43424,1.22278 -1.16776,1.79333 z m 3.76777,1.10818 c 0.25211,0.0144 0.60239,-0.2189 0.59315,-0.47127 -0.008,-0.23899 -0.35656,-0.44078 -0.59288,-0.40406 -0.20542,0.032 -0.39704,0.28363 -0.38443,0.49115 0.0112,0.18077 0.20336,0.37386 0.38416,0.38418 z"
         style="fill:url(#radialGradient50513);fill-opacity:1;fill-rule:evenodd;stroke:#000000;stroke-width:0.08358322px;stroke-linecap:butt;stroke-linejoin:miter;stroke-opacity:1;display:inline" />
      <path
         sodipodi:nodetypes="ccccsssscccsacsccccccccsssccaaaaa"
         inkscape:connector-curvature="0"
         id="path8175"
         d="m 562.36488,501.82682 -3.60523,-1.19681 c 1.68768,2.74419 2.12134,2.38907 -0.57624,5.46696 l 4.34401,-1.59576 c 0.33165,0.2488 0.48941,0.59084 0.75661,0.86827 0.19311,0.20049 -1.62816,1.06317 -1.39712,1.22821 0.13024,0.093 0.83979,0.17576 1.53743,0.0702 0.55316,-0.0837 0.67993,-0.13168 0.90571,-0.24596 0.13392,-0.0678 0.49446,-0.083 0.62869,-0.18843 0.41657,-0.32715 0.94094,-0.81877 0.95355,-0.80869 l -1.08458,0.85264 c 0,0 2.04035,0.71388 2.45744,0.73551 0.69309,0.0358 1.40165,-0.0443 2.06858,-0.2364 0.50384,-0.14512 1.41846,-0.67968 1.41846,-0.67968 0,0 -0.96003,-0.68127 -1.74027,-1.18947 -0.59091,-0.38492 -0.94128,-0.78738 -1.48082,-1.52924 l 1.51791,-0.97732 c 0,0 0.53457,1.11078 0.3784,-0.1352 -0.0653,-0.10272 0.41917,-0.27114 0.35941,-0.35906 0,0 0.48043,1.15344 0.31952,-0.19288 0,0 0.18323,-0.1016 0.34526,-0.1296 0.30117,-0.0144 0.2652,0.99741 0.38016,-0.31618 l 0.7183,-0.32779 c -2.92732,-2.13205 -3.59764,-3.34147 -5.62668,-2.26864 -0.0771,0.0408 -0.9082,-0.3439 -1.55212,-0.43613 -0.76332,-0.10928 -1.61209,0.37386 -2.3232,0.64013 -0.43336,0.16229 1.60855,0.99783 1.46458,1.15784 -0.76358,0.84869 -0.43424,1.22279 -1.16776,1.79333 z m 3.76778,1.10818 c 0.25211,0.0144 0.60238,-0.2189 0.59315,-0.47127 -0.008,-0.23899 -0.35656,-0.44078 -0.59288,-0.40406 -0.20543,0.032 -0.39704,0.28363 -0.38443,0.49115 0.0112,0.18077 0.20336,0.37386 0.38416,0.38418 z"
         style="fill:url(#radialGradient50515);fill-opacity:1;fill-rule:evenodd;stroke:#000000;stroke-width:0.08358322px;stroke-linecap:butt;stroke-linejoin:miter;stroke-opacity:1;display:inline" />
      <path
         sodipodi:nodetypes="ccccsssscccsacsccccccccsssccaaaaa"
         inkscape:connector-curvature="0"
         id="path8205"
         d="m 598.6536,488.08393 -3.60523,-1.19682 c 1.68768,2.74419 2.12134,2.38907 -0.57624,5.46696 l 4.34401,-1.59576 c 0.33165,0.2488 0.48941,0.59085 0.75661,0.86827 0.19311,0.2005 -1.62816,1.06317 -1.39712,1.22821 0.13024,0.093 0.83979,0.17576 1.53743,0.0702 0.55316,-0.0837 0.67993,-0.13168 0.90571,-0.24595 0.13392,-0.0678 0.49446,-0.083 0.62869,-0.18843 0.41657,-0.32716 0.94094,-0.81877 0.95355,-0.80869 l -1.08458,0.85264 c 0,0 2.04035,0.71387 2.45744,0.7355 0.69309,0.0358 1.40165,-0.0443 2.06858,-0.2364 0.50384,-0.14512 1.41846,-0.67968 1.41846,-0.67968 0,0 -0.96003,-0.68126 -1.74027,-1.18947 -0.59091,-0.38491 -0.94128,-0.78738 -1.48082,-1.52923 l 1.51791,-0.97733 c 0,0 0.53457,1.11078 0.3784,-0.1352 -0.0653,-0.10272 0.41917,-0.27114 0.35941,-0.35906 0,0 0.48043,1.15344 0.31952,-0.19288 0,0 0.18323,-0.1016 0.34526,-0.1296 0.30117,-0.0144 0.2652,0.99741 0.38016,-0.31617 l 0.7183,-0.32779 c -2.92732,-2.13205 -3.59764,-3.34148 -5.62668,-2.26864 -0.0771,0.0408 -0.9082,-0.34391 -1.55212,-0.43613 -0.76332,-0.10928 -1.61209,0.37385 -2.3232,0.64013 -0.43336,0.16228 1.60855,0.99782 1.46458,1.15784 -0.76358,0.84868 -0.43424,1.22278 -1.16776,1.79332 z m 3.76778,1.10817 c 0.25211,0.0144 0.60238,-0.21889 0.59315,-0.47126 -0.008,-0.23899 -0.35656,-0.44079 -0.59288,-0.40407 -0.20543,0.032 -0.39704,0.28364 -0.38443,0.49116 0.0112,0.18076 0.20336,0.37385 0.38416,0.38417 z"
         style="fill:url(#radialGradient50517);fill-opacity:1;fill-rule:evenodd;stroke:#000000;stroke-width:0.08358322px;stroke-linecap:butt;stroke-linejoin:miter;stroke-opacity:1;display:inline" />
      <path
         sodipodi:nodetypes="ccccsssscccsacsccccccccsssccaaaaa"
         inkscape:connector-curvature="0"
         id="path8209"
         d="m 574.99554,506.81322 -3.60524,-1.19681 c 1.68768,2.74419 2.12135,2.38907 -0.57624,5.46696 l 4.34402,-1.59576 c 0.33165,0.2488 0.48941,0.59084 0.75661,0.86827 0.1931,0.20049 -1.62816,1.06317 -1.39712,1.22821 0.13024,0.093 0.83979,0.17576 1.53742,0.0702 0.55317,-0.0837 0.67994,-0.13168 0.90571,-0.24596 0.13392,-0.0678 0.49447,-0.083 0.62869,-0.18843 0.41658,-0.32715 0.94095,-0.81877 0.95355,-0.80869 l -1.08457,0.85264 c 0,0 2.04035,0.71388 2.45744,0.73551 0.69309,0.0358 1.40165,-0.0445 2.06857,-0.2364 0.50384,-0.14512 1.41847,-0.67968 1.41847,-0.67968 0,0 -0.96003,-0.68127 -1.74027,-1.18947 -0.59092,-0.38492 -0.94128,-0.78738 -1.48082,-1.52924 l 1.5179,-0.97732 c 0,0 0.53458,1.11078 0.3784,-0.1352 -0.0653,-0.10272 0.41917,-0.27114 0.35941,-0.35906 0,0 0.48043,1.15344 0.31952,-0.19288 0,0 0.18323,-0.1016 0.34527,-0.1296 0.30116,-0.0144 0.2652,0.99741 0.38016,-0.31618 l 0.7183,-0.32779 c -2.92733,-2.13205 -3.59765,-3.34147 -5.62669,-2.26864 -0.0771,0.0408 -0.90819,-0.3439 -1.55211,-0.43613 -0.76333,-0.10928 -1.6121,0.37386 -2.3232,0.64013 -0.43336,0.16229 1.60854,0.99783 1.46458,1.15784 -0.76359,0.84869 -0.43424,1.22279 -1.16776,1.79333 z m 3.76777,1.10818 c 0.25211,0.0144 0.60239,-0.2189 0.59315,-0.47127 -0.008,-0.23899 -0.35656,-0.44078 -0.59288,-0.40406 -0.20542,0.032 -0.39704,0.28363 -0.38443,0.49115 0.0112,0.18077 0.20336,0.37386 0.38416,0.38418 z"
         style="fill:url(#radialGradient50519);fill-opacity:1;fill-rule:evenodd;stroke:#000000;stroke-width:0.08358322px;stroke-linecap:butt;stroke-linejoin:miter;stroke-opacity:1;display:inline" />
      <path
         sodipodi:nodetypes="ccccsssscccsacsccccccccsssccaaaaa"
         inkscape:connector-curvature="0"
         id="path8213"
         d="m 587.31744,498.43433 -3.60523,-1.19682 c 1.68768,2.74419 2.12134,2.38907 -0.57624,5.46696 l 4.34401,-1.59576 c 0.33165,0.2488 0.48941,0.59085 0.75661,0.86827 0.19311,0.2005 -1.62816,1.06317 -1.39712,1.22821 0.13024,0.093 0.83979,0.17576 1.53743,0.0702 0.55316,-0.0837 0.67993,-0.13168 0.90571,-0.24595 0.13392,-0.0678 0.49446,-0.083 0.62869,-0.18843 0.41657,-0.32716 0.94094,-0.81877 0.95355,-0.80869 l -1.08458,0.85264 c 0,0 2.04035,0.71387 2.45744,0.7355 0.69309,0.0358 1.40165,-0.0443 2.06858,-0.2364 0.50384,-0.14512 1.41846,-0.67968 1.41846,-0.67968 0,0 -0.96003,-0.68126 -1.74027,-1.18947 -0.59091,-0.38491 -0.94128,-0.78738 -1.48082,-1.52923 l 1.51791,-0.97733 c 0,0 0.53457,1.11078 0.3784,-0.1352 -0.0653,-0.10272 0.41917,-0.27114 0.35941,-0.35906 0,0 0.48043,1.15344 0.31952,-0.19288 0,0 0.18323,-0.1016 0.34526,-0.1296 0.30117,-0.0144 0.2652,0.99741 0.38016,-0.31617 l 0.7183,-0.32779 c -2.92732,-2.13205 -3.59764,-3.34148 -5.62668,-2.26864 -0.0771,0.0408 -0.9082,-0.34391 -1.55212,-0.43613 -0.76332,-0.10928 -1.61209,0.37385 -2.3232,0.64013 -0.43336,0.16228 1.60855,0.99782 1.46458,1.15784 -0.76358,0.84868 -0.43424,1.22278 -1.16776,1.79332 z m 3.76778,1.10817 c 0.25211,0.0144 0.60238,-0.21889 0.59315,-0.47126 -0.008,-0.23899 -0.35656,-0.44079 -0.59288,-0.40407 -0.20543,0.032 -0.39704,0.28364 -0.38443,0.49116 0.0112,0.18076 0.20336,0.37385 0.38416,0.38417 z"
         style="fill:url(#radialGradient50521);fill-opacity:1;fill-rule:evenodd;stroke:#000000;stroke-width:0.08358322px;stroke-linecap:butt;stroke-linejoin:miter;stroke-opacity:1;display:inline" />
      <path
         sodipodi:nodetypes="ccccsssscccsacsccccccccsssccaaaaa"
         inkscape:connector-curvature="0"
         id="path8217"
         d="m 590.52019,475.94802 -3.60523,-1.19681 c 1.68768,2.74419 2.12134,2.38907 -0.57624,5.46696 l 4.34402,-1.59576 c 0.33164,0.2488 0.4894,0.59084 0.7566,0.86827 0.19311,0.20049 -1.62816,1.06317 -1.39712,1.22821 0.13024,0.093 0.8398,0.17576 1.53743,0.0702 0.55317,-0.0837 0.67993,-0.13168 0.90571,-0.24596 0.13392,-0.0678 0.49446,-0.083 0.62869,-0.18843 0.41657,-0.32715 0.94094,-0.81877 0.95355,-0.80869 l -1.08458,0.85264 c 0,0 2.04036,0.71388 2.45744,0.73551 0.69309,0.0358 1.40165,-0.0445 2.06858,-0.2364 0.50384,-0.14512 1.41846,-0.67968 1.41846,-0.67968 0,0 -0.96003,-0.68127 -1.74027,-1.18947 -0.59091,-0.38492 -0.94128,-0.78738 -1.48081,-1.52924 l 1.5179,-0.97732 c 0,0 0.53458,1.11078 0.3784,-0.1352 -0.0653,-0.10272 0.41917,-0.27114 0.35941,-0.35906 0,0 0.48043,1.15344 0.31952,-0.19288 0,0 0.18323,-0.1016 0.34526,-0.1296 0.30117,-0.0144 0.2652,0.99741 0.38016,-0.31618 l 0.71831,-0.32779 c -2.92733,-2.13205 -3.59765,-3.34147 -5.62669,-2.26864 -0.0771,0.0408 -0.90819,-0.3439 -1.55211,-0.43613 -0.76333,-0.10928 -1.6121,0.37386 -2.3232,0.64013 -0.43336,0.16229 1.60854,0.99783 1.46457,1.15784 -0.76358,0.84869 -0.43424,1.22279 -1.16776,1.79333 z m 3.76778,1.10818 c 0.25211,0.0144 0.60238,-0.2189 0.59315,-0.47127 -0.008,-0.23899 -0.35656,-0.44078 -0.59288,-0.40406 -0.20542,0.032 -0.39704,0.28363 -0.38443,0.49115 0.0112,0.18077 0.20336,0.37386 0.38416,0.38418 z"
         style="fill:url(#radialGradient50523);fill-opacity:1;fill-rule:evenodd;stroke:#000000;stroke-width:0.08358322px;stroke-linecap:butt;stroke-linejoin:miter;stroke-opacity:1;display:inline" />
      <path
         sodipodi:nodetypes="ccccsssscccsacsccccccccsssccaaaaa"
         inkscape:connector-curvature="0"
         id="path8221"
         d="m 561.19499,478.22641 -3.60523,-1.19682 c 1.68768,2.74419 2.12134,2.38907 -0.57624,5.46696 l 4.34402,-1.59576 c 0.33164,0.2488 0.4894,0.59085 0.7566,0.86827 0.19311,0.2005 -1.62816,1.06317 -1.39712,1.22821 0.13024,0.093 0.8398,0.17576 1.53743,0.0702 0.55317,-0.0837 0.67993,-0.13168 0.90571,-0.24595 0.13392,-0.0678 0.49446,-0.083 0.62869,-0.18843 0.41657,-0.32716 0.94094,-0.81877 0.95355,-0.80869 l -1.08458,0.85264 c 0,0 2.04036,0.71387 2.45744,0.7355 0.69309,0.0358 1.40165,-0.0445 2.06858,-0.2364 0.50384,-0.14512 1.41846,-0.67968 1.41846,-0.67968 0,0 -0.96003,-0.68126 -1.74027,-1.18947 -0.59091,-0.38491 -0.94128,-0.78738 -1.48081,-1.52923 l 1.5179,-0.97733 c 0,0 0.53458,1.11078 0.3784,-0.1352 -0.0653,-0.10272 0.41917,-0.27114 0.35941,-0.35906 0,0 0.48043,1.15344 0.31952,-0.19288 0,0 0.18323,-0.1016 0.34526,-0.1296 0.30117,-0.0144 0.2652,0.99741 0.38016,-0.31617 l 0.71831,-0.32779 c -2.92733,-2.13205 -3.59765,-3.34148 -5.62669,-2.26864 -0.0771,0.0408 -0.90819,-0.34391 -1.55211,-0.43613 -0.76333,-0.10928 -1.6121,0.37385 -2.3232,0.64013 -0.43336,0.16228 1.60854,0.99782 1.46457,1.15784 -0.76358,0.84868 -0.43424,1.22278 -1.16776,1.79332 z m 3.76778,1.10817 c 0.25211,0.0144 0.60238,-0.21889 0.59315,-0.47126 -0.008,-0.23899 -0.35656,-0.44079 -0.59288,-0.40407 -0.20542,0.032 -0.39704,0.28364 -0.38443,0.49116 0.0112,0.18076 0.20336,0.37385 0.38416,0.38417 z"
         style="fill:url(#radialGradient50525);fill-opacity:1;fill-rule:evenodd;stroke:#000000;stroke-width:0.08358322px;stroke-linecap:butt;stroke-linejoin:miter;stroke-opacity:1;display:inline" />
      <path
         sodipodi:nodetypes="ccccsssscccsacsccccccccsssccaaaaa"
         inkscape:connector-curvature="0"
         id="path8225"
         d="m 570.06677,491.53407 -3.60523,-1.19682 c 1.68768,2.7442 2.12134,2.38908 -0.57624,5.46696 l 4.34401,-1.59576 c 0.33165,0.2488 0.48941,0.59085 0.75661,0.86828 0.1931,0.20049 -1.62816,1.06316 -1.39712,1.2282 0.13024,0.093 0.83979,0.17576 1.53742,0.0702 0.55317,-0.0837 0.67994,-0.13168 0.90572,-0.24595 0.13392,-0.0678 0.49446,-0.083 0.62868,-0.18843 0.41658,-0.32715 0.94095,-0.81877 0.95356,-0.80869 l -1.08458,0.85264 c 0,0 2.04035,0.71387 2.45744,0.73551 0.69309,0.0358 1.40165,-0.0443 2.06858,-0.2364 0.50384,-0.14512 1.41846,-0.67968 1.41846,-0.67968 0,0 -0.96003,-0.68127 -1.74027,-1.18948 -0.59091,-0.38491 -0.94128,-0.78737 -1.48082,-1.52923 l 1.51791,-0.97733 c 0,0 0.53457,1.11079 0.3784,-0.1352 -0.0653,-0.10272 0.41916,-0.27113 0.3594,-0.35905 0,0 0.48044,1.15344 0.31952,-0.19288 0,0 0.18324,-0.1016 0.34527,-0.1296 0.30117,-0.0144 0.2652,0.99741 0.38016,-0.31618 l 0.7183,-0.32779 c -2.92733,-2.13205 -3.59765,-3.34147 -5.62669,-2.26864 -0.0771,0.0408 -0.90819,-0.3439 -1.55211,-0.43613 -0.76333,-0.10928 -1.61209,0.37386 -2.3232,0.64013 -0.43336,0.16229 1.60855,0.99782 1.46458,1.15784 -0.76359,0.84869 -0.43424,1.22278 -1.16776,1.79333 z m 3.76777,1.10818 c 0.25212,0.0144 0.60239,-0.2189 0.59316,-0.47127 -0.008,-0.23899 -0.35656,-0.44078 -0.59288,-0.40406 -0.20543,0.032 -0.39704,0.28363 -0.38444,0.49115 0.0112,0.18077 0.20336,0.37386 0.38416,0.38418 z"
         style="fill:url(#radialGradient50527);fill-opacity:1;fill-rule:evenodd;stroke:#000000;stroke-width:0.08358322px;stroke-linecap:butt;stroke-linejoin:miter;stroke-opacity:1;display:inline" />
      <path
         sodipodi:nodetypes="ccccsssscccsacsccccccccsssccaaaaa"
         inkscape:connector-curvature="0"
         id="path8229"
         d="m 577.09728,481.87564 -3.60523,-1.19682 c 1.68768,2.74419 2.12134,2.38907 -0.57624,5.46696 l 4.34401,-1.59576 c 0.33165,0.2488 0.48941,0.59085 0.75661,0.86827 0.19311,0.2005 -1.62816,1.06317 -1.39712,1.22821 0.13024,0.093 0.83979,0.17576 1.53743,0.0702 0.55316,-0.0837 0.67993,-0.13168 0.90571,-0.24595 0.13392,-0.0678 0.49446,-0.083 0.62869,-0.18843 0.41657,-0.32715 0.94094,-0.81877 0.95355,-0.80869 l -1.08458,0.85264 c 0,0 2.04035,0.71387 2.45744,0.7355 0.69309,0.0358 1.40165,-0.0443 2.06858,-0.2364 0.50384,-0.14512 1.41846,-0.67968 1.41846,-0.67968 0,0 -0.96003,-0.68126 -1.74027,-1.18947 -0.59091,-0.38491 -0.94128,-0.78737 -1.48082,-1.52923 l 1.51791,-0.97733 c 0,0 0.53457,1.11079 0.3784,-0.1352 -0.0653,-0.10272 0.41917,-0.27113 0.35941,-0.35905 0,0 0.48043,1.15344 0.31952,-0.19288 0,0 0.18323,-0.1016 0.34526,-0.1296 0.30117,-0.0144 0.2652,0.9974 0.38016,-0.31618 l 0.7183,-0.32779 c -2.92732,-2.13205 -3.59764,-3.34147 -5.62668,-2.26864 -0.0771,0.0408 -0.9082,-0.34391 -1.55212,-0.43613 -0.76332,-0.10928 -1.61209,0.37386 -2.3232,0.64013 -0.43336,0.16229 1.60855,0.99782 1.46458,1.15784 -0.76358,0.84869 -0.43424,1.22278 -1.16776,1.79333 z m 3.76778,1.10817 c 0.25211,0.0144 0.60238,-0.21889 0.59315,-0.47126 -0.008,-0.23899 -0.35656,-0.44078 -0.59288,-0.40406 -0.20543,0.032 -0.39704,0.28363 -0.38443,0.49115 0.0112,0.18077 0.20336,0.37385 0.38416,0.38417 z"
         style="fill:url(#radialGradient50529);fill-opacity:1;fill-rule:evenodd;stroke:#000000;stroke-width:0.08358322px;stroke-linecap:butt;stroke-linejoin:miter;stroke-opacity:1;display:inline" />
      <path
         sodipodi:nodetypes="aaaaa"
         inkscape:connector-curvature="0"
         id="path8183-5"
         d="m 521.56602,481.5622 c 0.39612,2.94475 -3.85965,5.89041 -6.82669,5.73173 -2.27669,-0.12176 -5.43824,-2.76157 -4.73933,-4.93175 0.98706,-3.06493 6.30494,-2.14958 9.5,-1.75 0.75213,0.0941 1.96497,0.19879 2.06602,0.95002 z"
         style="color:#000000;fill:#f2fbf1;fill-opacity:1;fill-rule:evenodd;stroke:none;stroke-width:1;marker:none;visibility:visible;display:inline;overflow:visible;enable-background:accumulate" />
      <path
         sodipodi:nodetypes="scscs"
         inkscape:connector-curvature="0"
         id="path8194-5"
         d="m 519.60302,480.93916 c 0.37376,1.03205 -0.9168,3.05669 -1.86454,3.38486 -1.23058,-0.1668 -1.25891,-1.23942 -1.81398,-2.1864 -0.55508,-0.94696 -0.061,-2.27353 0.88672,-2.60173 0.94774,-0.32817 2.44888,0.45629 2.7918,1.40327 z"
         style="color:#000000;fill:#000000;fill-opacity:1;fill-rule:evenodd;stroke:none;stroke-width:1;marker:none;visibility:visible;display:inline;overflow:visible;enable-background:accumulate" />
    </g>
  </g>
</svg>
