<?xml version="1.0" encoding="UTF-8" standalone="no"?>
<!-- Created with Inkscape (http://www.inkscape.org/) -->

<svg
   xmlns:dc="http://purl.org/dc/elements/1.1/"
   xmlns:cc="http://creativecommons.org/ns#"
   xmlns:rdf="http://www.w3.org/1999/02/22-rdf-syntax-ns#"
   xmlns:svg="http://www.w3.org/2000/svg"
   xmlns="http://www.w3.org/2000/svg"
   xmlns:xlink="http://www.w3.org/1999/xlink"
   xmlns:sodipodi="http://sodipodi.sourceforge.net/DTD/sodipodi-0.dtd"
   xmlns:inkscape="http://www.inkscape.org/namespaces/inkscape"
   id="svg2"
   version="1.1"
   inkscape:version="0.48.3.1 r9886"
   width="990"
   height="765"
   xml:space="preserve"
   sodipodi:docname="logos-somenergia-t.svg"><metadata
     id="metadata8"><rdf:RDF><cc:Work
         rdf:about=""><dc:format>image/svg+xml</dc:format><dc:type
           rdf:resource="http://purl.org/dc/dcmitype/StillImage" /></cc:Work></rdf:RDF></metadata><defs
     id="defs6"><clipPath
       clipPathUnits="userSpaceOnUse"
       id="clipPath16"><path
         d="M 0,612 792,612 792,0 0,0 0,612 z"
         id="path18" /></clipPath><clipPath
       clipPathUnits="userSpaceOnUse"
       id="clipPath24"><path
         d="m 14.27,543.64 763.46,0 0,-475.2801 -763.46,0 0,475.2801 z"
         id="path26" /></clipPath><clipPath
       clipPathUnits="userSpaceOnUse"
       id="clipPath28"><path
         d="m 777.73,68.36 -763.46,0 0,475.28 763.46,0 0,-475.28 z"
         id="path30" /></clipPath><radialGradient
       fx="0"
       fy="0"
       cx="0"
       cy="0"
       r="1"
       gradientUnits="userSpaceOnUse"
       gradientTransform="matrix(-293.00171,0,0,161.15094,474,329)"
       spreadMethod="pad"
       id="radialGradient32"><stop
         style="stop-opacity:1;stop-color:#ffffff"
         offset="0"
         id="stop34" /><stop
         style="stop-opacity:1;stop-color:#d5e20f"
         offset="1"
         id="stop36" /></radialGradient><clipPath
       clipPathUnits="userSpaceOnUse"
       id="clipPath60"><path
         d="m 382.548,462.122 231.866,0 0,-122.419 -231.866,0 0,122.419 z"
         id="path62" /></clipPath><clipPath
       clipPathUnits="userSpaceOnUse"
       id="clipPath76"><path
         d="m 537.823,378.559 c -9.405,-11.32 12.558,-16.03 13.865,-106.588 l 0,0 c 7.107,-1.622 15.922,0 26.852,0 l 0,0 c 16.548,0 37.545,7.375 40.492,25.64 l 0,0 c 7.084,-5.476 57.654,2.759 57.654,38.442 l 0,0 c 0,23.15 -20.891,49.809 -46.063,53.099 l 0,0 c -8.445,1.104 -17.5,0.772 -22.932,-3.444 l 0,0 c -4.899,6.396 -18.469,12.779 -29.151,12.779 l 0,0 c -16.053,0 -30.524,-7.661 -40.717,-19.928"
         id="path78" /></clipPath><linearGradient
       x1="0"
       y1="0"
       x2="1"
       y2="0"
       gradientUnits="userSpaceOnUse"
       gradientTransform="matrix(0,127.23633,127.23633,0,606.08691,271.25)"
       spreadMethod="pad"
       id="linearGradient84"><stop
         style="stop-opacity:1;stop-color:#3e3d40"
         offset="0"
         id="stop86" /><stop
         style="stop-opacity:1;stop-color:#87888a"
         offset="1"
         id="stop88" /></linearGradient><clipPath
       clipPathUnits="userSpaceOnUse"
       id="clipPath96"><path
         d="m 537.823,378.559 c -9.405,-11.32 12.558,-16.03 13.865,-106.588 l 0,0 c 7.107,-1.622 15.922,0 26.852,0 l 0,0 c 16.548,0 36.044,6.612 40.492,25.64 l 0,0 C 622.52,312.535 611.167,336.25 610,349 l 0,0 c -2.056,22.467 -1,21.334 -2.309,36.708 l 0,0 c -4.899,6.396 -18.469,12.779 -29.151,12.779 l 0,0 c -16.053,0 -30.524,-7.661 -40.717,-19.928"
         id="path98" /></clipPath><linearGradient
       x1="0"
       y1="0"
       x2="1"
       y2="0"
       gradientUnits="userSpaceOnUse"
       gradientTransform="matrix(0,127.23633,127.23633,0,577.5918,271.25)"
       spreadMethod="pad"
       id="linearGradient104"><stop
         style="stop-opacity:1;stop-color:#3e3d40"
         offset="0"
         id="stop106" /><stop
         style="stop-opacity:1;stop-color:#87888a"
         offset="1"
         id="stop108" /></linearGradient><clipPath
       clipPathUnits="userSpaceOnUse"
       id="clipPath116"><path
         d="M 0,612 792,612 792,0 0,0 0,612 z"
         id="path118" /></clipPath><clipPath
       clipPathUnits="userSpaceOnUse"
       id="clipPath124"><path
         d="m 587.071,339.188 32.639,0 0,-66.233 -32.639,0 0,66.233 z"
         id="path126" /></clipPath><clipPath
       clipPathUnits="userSpaceOnUse"
       id="clipPath168"><path
         d="m 299.51,240.295 -4.809,-0.932 -4.185,-1.534 -3.437,-2.135 -2.998,-2.63 -2.374,-3.122 -1.686,-3.67 -0.563,-2.137 -0.312,-2.355 0,-44.041 0.312,-2.355 0.875,-1.862 1.687,-1.151 2.373,-0.547 2.062,0.766 1.249,1.589 0.875,2.355 0.125,45.903 0.624,2.136 1.936,3.397 1.5,1.314 3.747,1.972 2.812,0.493 2.56,0 2.437,-0.383 3.873,-1.698 1.499,-1.315 2.249,-3.286 0.562,-1.972 0.313,-2.356 0,-41.959 0.624,-4.218 1.186,-1.533 1.812,-1.096 1,-0.109 1.499,0.273 1.686,1.15 1.187,1.589 0.438,2.246 -0.125,46.56 -0.5,2.246 -1.624,3.671 -3.748,4.546 -3.123,2.41 -3.749,1.917 -2.124,0.822 -5.372,1.041 -2.373,0 z m 236.129,-1.041 -3.747,-1.425 -4.497,-3.012 -2.562,-2.465 -2.061,-2.793 -1.999,-5.369 -0.125,-2.191 0.437,-1.972 1.063,-1.314 1.623,-0.932 2.436,-0.274 1.749,0.931 1.25,1.205 0.687,1.698 0.937,3.89 1.937,2.903 2.872,2.246 3.874,1.15 2.373,0.274 2.562,-0.11 1.936,-0.547 3.311,-1.698 1.499,-1.205 1.936,-2.849 0.563,-1.697 0,-11.394 -0.874,-1.589 -2.124,-0.493 -10.433,-0.165 -2.248,-0.273 -4.061,-1.151 -3.435,-1.588 -2.998,-2.082 -2.562,-2.52 -2.061,-2.738 -0.875,-1.534 -1.249,-3.67 0,-6.683 1.999,-5.368 3.248,-4.054 5.872,-4.217 5.934,-1.808 2.561,-0.547 4.498,0.273 4.309,0.932 5.123,2.464 4.185,3.396 3.874,5.917 1.062,3.779 0,34.948 -1.187,3.67 -1.687,3.177 -3.249,4.054 -4.496,3.012 -3.625,1.534 -4.185,1.095 -5.184,0.11 -4.186,-0.931 z m 4.623,-58.94 -2.561,0.547 -3.748,1.972 -2.686,3.013 -0.749,1.972 -0.438,2.356 0.563,4.71 0.937,1.699 1.312,1.588 1.498,1.26 1.812,1.205 4.811,1.15 8.931,0 2.75,-0.383 0.999,-1.534 0.187,-10.517 -0.625,-2.191 -0.875,-1.863 -1.186,-1.533 -3.436,-2.356 -2.124,-0.821 -2.561,-0.384 -2.811,0.11 z m -132.449,59.871 -4.935,-1.205 -2.999,-1.151 -3.748,-2.355 -2.248,-1.862 -4.061,-5.917 -1.187,-4.545 0,-46.725 0.313,-1.589 0.749,-1.15 1.187,-0.932 2.061,-0.93 1.062,0.109 2.687,1.479 0.75,1.15 0.624,3.287 0.125,45.026 0.313,1.589 1.373,2.574 1.937,1.972 2.498,1.589 3.186,1.04 3.998,0.165 3.311,-0.931 2.686,-1.314 1.187,-0.932 1.811,-2.082 1.811,-5.915 1.625,-2.356 1.499,-0.658 1.812,-0.273 1.623,0.548 1.188,0.767 0.936,1.205 0.438,1.424 0,1.863 -0.75,3.122 -1.187,2.738 -2.373,3.451 -1.999,2.082 -3.561,2.52 -4.373,1.917 -5.059,1.205 -4.31,0 z m -56.116,0 -2.061,-0.384 -6.122,-1.698 -4.623,-2.902 -2.748,-2.357 -2.935,-4.436 -1.375,-3.561 -0.437,-4.327 0.312,-32.318 1.062,-3.78 0.687,-1.753 3.311,-4.163 2.561,-2.355 3.123,-1.972 5.809,-1.972 2.562,-0.383 4.622,0 6.122,1.698 3.248,1.698 2.999,2.081 2.56,2.52 2.687,4.71 1.187,3.944 0,1.917 -0.75,1.863 -1.187,1.151 -1.812,0.931 -2.061,-0.11 -1.811,-0.931 -1.062,-1.314 -0.75,-1.699 -0.249,-2.081 -0.626,-1.699 -0.874,-1.588 -1.187,-1.424 -2.998,-1.973 -1.811,-0.767 -2.375,-0.547 -2.124,-0.11 -2.373,0.22 -2.061,0.547 -3.311,1.808 -1.312,1.205 -1.811,3.013 -0.625,1.808 0,11.283 1.187,1.315 2.249,0.383 26.611,0 2.248,0.384 0.875,1.698 0,18.735 -0.313,1.971 -1.186,3.67 -1.937,3.013 -2.374,2.629 -4.185,3.287 -5.56,2.191 -4.746,0.931 -2.25,0 z m -8.932,-29.853 -1.499,1.314 -0.313,2.355 0,7.998 0.438,2.356 0.874,1.807 1.249,1.588 3.124,2.465 2.061,0.932 2.561,0.547 2.998,0 2.374,-0.547 2.061,-0.767 1.812,-1.041 1.623,-1.315 1.251,-1.588 0.874,-1.863 0.438,-2.191 -0.125,-10.462 -1.376,-1.479 -2.56,-0.384 -15.179,0 -2.686,0.275 z m -96.503,29.853 -2.062,-0.384 -6.122,-1.698 -4.622,-2.902 -2.749,-2.357 -2.936,-4.436 -1.374,-3.561 -0.438,-4.327 0.313,-32.318 1.062,-3.78 0.687,-1.753 3.31,-4.163 2.562,-2.355 3.123,-1.972 5.809,-1.972 2.562,-0.383 4.622,0 6.121,1.698 3.249,1.698 2.998,2.081 2.561,2.52 2.687,4.71 1.186,3.944 0,1.917 -0.75,1.863 -1.186,1.151 -1.812,0.931 -2.061,-0.11 -1.811,-0.931 -1.062,-1.314 -0.75,-1.699 -0.25,-2.081 -0.625,-1.699 -0.875,-1.588 -1.186,-1.424 -2.998,-1.973 -1.811,-0.767 -2.375,-0.547 -2.124,-0.11 -2.374,0.22 -2.061,0.547 -3.311,1.808 -1.311,1.205 -1.812,3.013 -0.624,1.808 0,11.283 1.187,1.315 2.248,0.383 26.611,0 2.249,0.384 0.874,1.698 0,18.735 -0.312,1.971 -1.187,3.67 -1.936,3.013 -2.374,2.629 -4.185,3.287 -5.56,2.191 -4.747,0.931 -2.248,0 z m -8.934,-29.853 -1.499,1.314 -0.313,2.355 0,7.998 0.438,2.356 0.875,1.807 1.249,1.588 3.123,2.465 2.062,0.932 2.56,0.547 2.999,0 2.373,-0.547 2.062,-0.767 1.812,-1.041 1.624,-1.315 1.25,-1.588 0.874,-1.863 0.437,-2.191 -0.125,-10.462 -1.374,-1.479 -2.562,-0.384 -15.179,0 -2.686,0.275 z m 266.512,28.729 -1.749,-0.931 -1.25,-1.425 -0.687,-1.917 0,-59.165 0.501,-2.081 0.936,-1.644 1.748,-0.985 1.251,-0.274 1.312,0.164 1.873,0.822 1.25,1.369 0.811,2.356 0,58.89 -0.437,2.082 -1.124,1.534 -2.249,1.205 -2.186,0 z M 460.897,239 l -6.059,-1.205 -5.122,-2.027 -3.997,-2.848 -1.687,-1.698 -2.686,-3.834 -0.937,-2.247 -0.438,-3.122 0.125,-14.296 0.625,-2.41 2.186,-4.328 3.249,-3.341 4.06,-2.849 0.437,-0.822 -0.312,-1.588 -1.686,-4.656 0,-2.739 0.749,-2.355 1.437,-1.808 1.999,-1.533 2.311,-1.206 2.811,-0.876 9.432,-1.424 2.499,-1.205 1.874,-1.37 1.562,-1.808 1.248,-3.122 0,-1.917 -0.624,-2.355 -1.25,-2.027 -1.686,-1.699 -2.186,-1.314 -2.499,-0.931 -3.436,-0.383 -3.56,0.273 -2.936,0.713 -2.186,1.205 -1.999,1.534 -1.249,1.917 -1.562,4.655 -1.499,1.808 -2.811,0.931 -2.937,-0.712 -1.561,-1.807 -0.5,-1.315 0,-1.315 1.562,-4.765 2.937,-3.725 1.747,-1.644 2,-1.424 4.685,-2.301 5.684,-1.534 3.436,-0.273 3.561,0.273 5.746,1.534 4.81,2.301 2,1.424 3.248,3.452 2.373,4.162 0.625,2.52 0,2.904 -0.625,2.465 -2.186,4.272 -3.248,3.342 -4.185,2.903 -4.998,2.027 -9.432,1.533 -1.562,1.808 0.624,2.52 1.688,1.643 2.31,1.095 6.372,1.096 4.998,2.026 2.311,1.315 3.685,3.068 2.686,3.834 1.562,4.766 0,14.845 -0.625,2.519 -1.562,3.67 0.126,0.986 c 0.624,0.548 1.352,0.931 2.186,1.15 l 0,0 2.623,0.986 1.749,1.644 0.125,1.698 -0.437,0.821 -1.749,1.699 -2.749,0.821 -23.3,0 z m -2.498,-36.919 -2.749,0.876 -1.249,0.657 -2.811,2.247 -1.249,1.971 -0.437,2.574 0.124,12.709 1.749,3.123 2.936,2.19 5.873,1.753 1.999,0 3.622,-0.328 3.873,-1.534 1.999,-1.424 1.561,-1.699 0.75,-2.41 0,-14.078 -1.687,-3.067 -2.935,-2.136 -1.25,-0.658 -2.935,-0.766 -3.561,-0.329 -3.623,0.329 z"
         id="path170" /></clipPath><clipPath
       clipPathUnits="userSpaceOnUse"
       id="clipPath176"><path
         d="m -32767,32767 65534,0 0,-65534 -65534,0 0,65534 z"
         id="path178" /></clipPath><radialGradient
       fx="0"
       fy="0"
       cx="0"
       cy="0"
       r="1"
       gradientUnits="userSpaceOnUse"
       gradientTransform="matrix(-101.3335,-166.6665,-166.6665,101.3335,453.3335,286.6665)"
       spreadMethod="pad"
       id="radialGradient180"><stop
         style="stop-opacity:1;stop-color:#ffffff"
         offset="0"
         id="stop182" /><stop
         style="stop-opacity:0;stop-color:#ffffff"
         offset="0.644165"
         id="stop184" /><stop
         style="stop-opacity:0;stop-color:#ffffff"
         offset="1"
         id="stop186" /></radialGradient><mask
       maskUnits="userSpaceOnUse"
       x="0"
       y="0"
       width="1"
       height="1"
       id="mask188"><g
         id="g190"><g
           clip-path="url(#clipPath176)"
           id="g192"><g
             id="g194"><g
               id="g196"><path
                 d="m -32767,32767 65534,0 0,-65534 -65534,0 0,65534 z"
                 style="fill:url(#radialGradient180);stroke:none"
                 id="path198" /></g></g></g></g></mask><radialGradient
       fx="0"
       fy="0"
       cx="0"
       cy="0"
       r="1"
       gradientUnits="userSpaceOnUse"
       gradientTransform="matrix(-101.3335,-166.6665,-166.6665,101.3335,453.3335,286.6665)"
       spreadMethod="pad"
       id="radialGradient204"><stop
         style="stop-opacity:1;stop-color:#d5e20f"
         offset="0"
         id="stop206" /><stop
         style="stop-opacity:1;stop-color:#d5e20f"
         offset="1"
         id="stop208" /></radialGradient><clipPath
       clipPathUnits="userSpaceOnUse"
       id="clipPath216"><path
         d="M 0,612 792,612 792,0 0,0 0,612 z"
         id="path218" /></clipPath><clipPath
       clipPathUnits="userSpaceOnUse"
       id="clipPath228"><path
         d="M 390.229,383.984 C 378.628,372.944 372.83,359.66 372.83,344.133 l 0,0 0,-60.06 c 0,-6.547 1.777,-11.695 5.332,-15.437 l 0,0 c 3.742,-3.735 8.234,-5.607 13.472,-5.607 l 0,0 c 5.237,0 9.635,1.872 13.19,5.607 l 0,0 c 3.554,3.742 5.331,8.89 5.331,15.437 l 0,0 0,50.515 c 0,19.835 7.113,29.748 21.33,29.748 l 0,0 c 13.845,0 20.769,-9.913 20.769,-29.748 l 0,0 0,-50.515 c 0,-6.547 1.777,-11.695 5.332,-15.437 l 0,0 c 3.554,-3.735 7.952,-5.607 13.19,-5.607 l 0,0 c 5.237,0 9.635,1.872 13.189,5.607 l 0,0 c 3.742,3.742 5.614,8.89 5.614,15.437 l 0,0 0,50.515 c 0,19.647 6.83,29.47 20.486,29.47 l 0,0 c 8.797,0 14.967,-4.026 18.526,-12.067 l 0,0 c 1.495,-3.371 2.244,-9.168 2.244,-17.403 l 0,0 0,-50.515 c 0,-6.547 1.777,-11.695 5.332,-15.437 l 0,0 c 3.554,-3.735 7.951,-5.607 13.188,-5.607 l 0,0 c 5.243,0 9.636,1.872 13.19,5.607 l 0,0 c 3.743,3.742 5.615,8.89 5.615,15.437 l 0,0 0,57.811 c 0,16.277 -5.799,30.126 -17.4,41.538 l 0,0 c -11.601,11.413 -25.539,17.117 -41.816,17.117 l 0,0 c -13.845,0 -26.662,-5.048 -38.447,-15.155 l 0,0 c -12.911,10.291 -26.477,15.438 -40.695,15.438 l 0,0 c -14.782,0 -27.972,-5.614 -39.573,-16.838"
         id="path230" /></clipPath><clipPath
       clipPathUnits="userSpaceOnUse"
       id="clipPath236"><path
         d="m -32768,32767 65535,0 0,-65534 -65535,0 0,65534 z"
         id="path238" /></clipPath><linearGradient
       x1="0"
       y1="0"
       x2="1"
       y2="0"
       gradientUnits="userSpaceOnUse"
       gradientTransform="matrix(0,-137.79199,-137.79199,0,470.49512,400.82178)"
       spreadMethod="pad"
       id="linearGradient240"><stop
         style="stop-opacity:1;stop-color:#ffffff"
         offset="0"
         id="stop242" /><stop
         style="stop-opacity:0;stop-color:#ffffff"
         offset="1"
         id="stop244" /></linearGradient><mask
       maskUnits="userSpaceOnUse"
       x="0"
       y="0"
       width="1"
       height="1"
       id="mask246"><g
         id="g248"><g
           clip-path="url(#clipPath236)"
           id="g250"><g
             id="g252"><g
               id="g254"><path
                 d="m -32768,32767 65535,0 0,-65534 -65535,0 0,65534 z"
                 style="fill:url(#linearGradient240);stroke:none"
                 id="path256" /></g></g></g></g></mask><linearGradient
       x1="0"
       y1="0"
       x2="1"
       y2="0"
       gradientUnits="userSpaceOnUse"
       gradientTransform="matrix(0,-137.79199,-137.79199,0,470.49512,400.82178)"
       spreadMethod="pad"
       id="linearGradient262"><stop
         style="stop-opacity:1;stop-color:#d5e20f"
         offset="0"
         id="stop264" /><stop
         style="stop-opacity:1;stop-color:#d5e20f"
         offset="1"
         id="stop266" /></linearGradient><clipPath
       clipPathUnits="userSpaceOnUse"
       id="clipPath274"><path
         d="M 0,612 792,612 792,0 0,0 0,612 z"
         id="path276" /></clipPath><clipPath
       clipPathUnits="userSpaceOnUse"
       id="clipPath286"><path
         d="m 244.3,379.622 c -14.621,-13.12 -21.928,-30.835 -21.928,-53.141 l 0,0 c 0,-18.934 6.839,-35.052 20.525,-48.361 l 0,0 c 13.871,-13.124 30.457,-19.681 49.769,-19.681 l 0,0 c 19.117,0 35.425,6.651 48.923,19.96 l 0,0 c 13.682,13.308 20.525,29.432 20.525,48.36 l 0,0 c 0,22.121 -7.312,39.743 -21.932,52.863 l 0,0 c -12.936,11.622 -28.866,17.431 -47.8,17.431 l 0,0 c -18.933,0 -34.958,-5.809 -48.082,-17.431 m 19.875,-80.1 c -7.785,7.57 -11.674,16.737 -11.674,27.507 l 0,0 c 0,12.686 4.156,22.762 12.472,30.224 l 0,0 c 7.465,6.612 16.579,9.915 27.348,9.915 l 0,0 c 10.769,0 19.83,-3.303 27.188,-9.915 l 0,0 c 8.316,-7.462 12.474,-17.484 12.474,-30.066 l 0,0 c 0,-10.767 -3.893,-19.938 -11.674,-27.508 l 0,0 c -7.677,-7.569 -16.952,-11.351 -27.827,-11.351 l 0,0 c -10.984,0 -20.417,3.728 -28.307,11.194"
         id="path288" /></clipPath><clipPath
       clipPathUnits="userSpaceOnUse"
       id="clipPath294"><path
         d="m -32767,32767 65534,0 0,-65534 -65534,0 0,65534 z"
         id="path296" /></clipPath><radialGradient
       fx="0"
       fy="0"
       cx="0"
       cy="0"
       r="1"
       gradientUnits="userSpaceOnUse"
       gradientTransform="matrix(-137.89693,1.53e-5,1.53e-5,137.89693,360.91797,328.91504)"
       spreadMethod="pad"
       id="radialGradient298"><stop
         style="stop-opacity:0.8;stop-color:#ffffff"
         offset="0"
         id="stop300" /><stop
         style="stop-opacity:0;stop-color:#ffffff"
         offset="0.67485"
         id="stop302" /><stop
         style="stop-opacity:0;stop-color:#ffffff"
         offset="0.67485"
         id="stop304" /><stop
         style="stop-opacity:0;stop-color:#ffffff"
         offset="1"
         id="stop306" /></radialGradient><mask
       maskUnits="userSpaceOnUse"
       x="0"
       y="0"
       width="1"
       height="1"
       id="mask308"><g
         id="g310"><g
           clip-path="url(#clipPath294)"
           id="g312"><g
             id="g314"><g
               id="g316"><path
                 d="m -32767,32767 65534,0 0,-65534 -65534,0 0,65534 z"
                 style="fill:url(#radialGradient298);stroke:none"
                 id="path318" /></g></g></g></g></mask><radialGradient
       fx="0"
       fy="0"
       cx="0"
       cy="0"
       r="1"
       gradientUnits="userSpaceOnUse"
       gradientTransform="matrix(-137.89693,1.53e-5,1.53e-5,137.89693,360.91797,328.91504)"
       spreadMethod="pad"
       id="radialGradient324"><stop
         style="stop-opacity:1;stop-color:#d5e20f"
         offset="0"
         id="stop326" /><stop
         style="stop-opacity:1;stop-color:#d5e20f"
         offset="0.67485"
         id="stop328" /><stop
         style="stop-opacity:1;stop-color:#d5e20f"
         offset="1"
         id="stop330" /></radialGradient><clipPath
       clipPathUnits="userSpaceOnUse"
       id="clipPath338"><path
         d="M 0,612 792,612 792,0 0,0 0,612 z"
         id="path340" /></clipPath><clipPath
       clipPathUnits="userSpaceOnUse"
       id="clipPath346"><path
         d="m 396.959,451.829 231.866,0 0,-122.42 -231.866,0 0,122.42 z"
         id="path348" /></clipPath><clipPath
       clipPathUnits="userSpaceOnUse"
       id="clipPath366"><path
         d="m 639.643,385.128 c -6.783,-5.897 -5.383,-16.601 4.325,-27.77 l 0,0 c 9.708,-11.168 17.747,-15.174 25.153,-10.996 l 0,0 c 7.828,4.417 7.311,19.375 -2.398,30.543 l 0,0 c -6.435,7.402 -13.255,11.195 -19.098,11.194 l 0,0 c -2.973,0 -5.694,-0.982 -7.982,-2.971"
         id="path368" /></clipPath><radialGradient
       fx="0"
       fy="0"
       cx="0"
       cy="0"
       r="1"
       gradientUnits="userSpaceOnUse"
       gradientTransform="matrix(-16.163086,-12.823731,-12.823731,16.163086,663.78809,375.05518)"
       spreadMethod="pad"
       id="radialGradient374"><stop
         style="stop-opacity:1;stop-color:#c6c7c8"
         offset="0"
         id="stop376" /><stop
         style="stop-opacity:1;stop-color:#707173"
         offset="1"
         id="stop378" /></radialGradient><clipPath
       clipPathUnits="userSpaceOnUse"
       id="clipPath386"><path
         d="M 0,612 792,612 792,0 0,0 0,612 z"
         id="path388" /></clipPath><clipPath
       clipPathUnits="userSpaceOnUse"
       id="clipPath418"><path
         d="m 396.954,401.161 231.871,0 0,-75.869 -231.871,0 0,75.869 z"
         id="path420" /></clipPath><clipPath
       clipPathUnits="userSpaceOnUse"
       id="clipPath434"><path
         d="m 648.798,384.8 10.62,0 0,-8.002 -10.62,0 0,8.002 z"
         id="path436" /></clipPath><radialGradient
       inkscape:collect="always"
       xlink:href="#radialGradient32"
       id="radialGradient4364"
       gradientUnits="userSpaceOnUse"
       gradientTransform="matrix(-293.00171,0,0,161.15094,474,329)"
       spreadMethod="pad"
       cx="0"
       cy="0"
       fx="0"
       fy="0"
       r="1" /><radialGradient
       inkscape:collect="always"
       xlink:href="#radialGradient32"
       id="radialGradient4386"
       gradientUnits="userSpaceOnUse"
       gradientTransform="matrix(-293.00171,0,0,161.15094,474,329)"
       spreadMethod="pad"
       cx="0"
       cy="0"
       fx="0"
       fy="0"
       r="1" /></defs><sodipodi:namedview
     pagecolor="#ffffff"
     bordercolor="#666666"
     borderopacity="1"
     objecttolerance="10"
     gridtolerance="10"
     guidetolerance="10"
     inkscape:pageopacity="0"
     inkscape:pageshadow="2"
     inkscape:window-width="1680"
     inkscape:window-height="995"
     id="namedview4"
     showgrid="false"
     inkscape:zoom="1.2339869"
     inkscape:cx="495"
     inkscape:cy="382.5"
     inkscape:window-x="-2"
     inkscape:window-y="-3"
     inkscape:window-maximized="1"
     inkscape:current-layer="g10" /><g
     id="g10"
     inkscape:groupmode="layer"
     inkscape:label="logos-somenergia-t"
     transform="matrix(1.25,0,0,-1.25,0,765)"><g
       id="g20"><g
         id="g22" /><g
         id="g38"><g
           clip-path="url(#clipPath24)"
           id="g40"><g
             id="g42"><g
               clip-path="url(#clipPath28)"
               id="g44"><g
                 id="g46"><g
                   id="g48"><path
                     d="m 777.73,68.36 -763.46,0 0,475.28 763.46,0 0,-475.28 z"
                     style="fill:url(#radialGradient4386);stroke:none"
                     id="path50"
                     inkscape:connector-curvature="0" /></g></g></g></g></g></g></g><g
       id="g52"
       transform="translate(222.3721,326.481)"><path
         d="m 0,0 c 0,22.306 7.307,40.021 21.928,53.141 13.124,11.622 29.149,17.432 48.082,17.432 18.934,0 34.864,-5.81 47.8,-17.432 14.621,-13.12 21.932,-30.741 21.932,-52.862 0,-18.929 -6.844,-35.052 -20.526,-48.361 -13.497,-13.309 -29.805,-19.959 -48.923,-19.959 -19.311,0 -35.897,6.556 -49.768,19.681 C 6.839,-35.052 0,-18.934 0,0 m 30.129,0.548 c 0,-10.77 3.89,-19.938 11.674,-27.507 7.889,-7.465 17.323,-11.194 28.307,-11.194 10.874,0 20.15,3.783 27.827,11.352 7.782,7.57 11.674,16.74 11.674,27.507 0,12.582 -4.158,22.605 -12.474,30.066 -7.358,6.611 -16.419,9.916 -27.188,9.916 -10.769,0 -19.883,-3.305 -27.348,-9.916 C 34.285,23.311 30.129,13.234 30.129,0.548"
         style="fill:#4c4c4c;fill-opacity:1;fill-rule:evenodd;stroke:none"
         id="path54"
         inkscape:connector-curvature="0" /></g><g
       id="g56"><g
         id="g58" /><g
         id="g64"><g
           clip-path="url(#clipPath60)"
           id="g66"
           style="opacity:0.75"><g
             transform="translate(397.3467,454.4795)"
             id="g68"><path
               d="m 0,0 c 0,0 18.881,25.496 130.293,-16.648 118.129,-44.685 82.052,-81.603 80.059,-83.685 -1.992,-2.081 -45.316,-29.586 -152.818,-2.782 C -58.637,-74.149 0,0 0,0"
               style="fill:#e6e6e6;fill-opacity:1;fill-rule:evenodd;stroke:none"
               id="path70"
               inkscape:connector-curvature="0" /></g></g></g></g><g
       id="g72"><g
         id="g74"
         clip-path="url(#clipPath76)"><g
           id="g80"><g
             id="g82"><path
               d="m 537.823,378.559 c -9.405,-11.32 12.558,-16.03 13.865,-106.588 l 0,0 c 7.107,-1.622 15.922,0 26.852,0 l 0,0 c 16.548,0 37.545,7.375 40.492,25.64 l 0,0 c 7.084,-5.476 57.654,2.759 57.654,38.442 l 0,0 c 0,23.15 -20.891,49.809 -46.063,53.099 l 0,0 c -8.445,1.104 -17.5,0.772 -22.932,-3.444 l 0,0 c -4.899,6.396 -18.469,12.779 -29.151,12.779 l 0,0 c -16.053,0 -30.524,-7.661 -40.717,-19.928"
               style="fill:url(#linearGradient84);stroke:none"
               id="path90" /></g></g></g></g><g
       id="g92"><g
         id="g94"
         clip-path="url(#clipPath96)"><g
           id="g100"><g
             id="g102"><path
               d="m 537.823,378.559 c -9.405,-11.32 12.558,-16.03 13.865,-106.588 l 0,0 c 7.107,-1.622 15.922,0 26.852,0 l 0,0 c 16.548,0 36.044,6.612 40.492,25.64 l 0,0 C 622.52,312.535 611.167,336.25 610,349 l 0,0 c -2.056,22.467 -1,21.334 -2.309,36.708 l 0,0 c -4.899,6.396 -18.469,12.779 -29.151,12.779 l 0,0 c -16.053,0 -30.524,-7.661 -40.717,-19.928"
               style="fill:url(#linearGradient104);stroke:none"
               id="path110" /></g></g></g></g><g
       id="g112"><g
         id="g114"
         clip-path="url(#clipPath116)"><g
           id="g120"><g
             id="g122" /><g
             id="g128"><g
               clip-path="url(#clipPath124)"
               id="g130"
               opacity="0.100006"><g
                 transform="translate(587.0713,272.9546)"
                 id="g132"><path
                   d="M 0,0 C 0,0 44.908,2.622 29.37,50.188 L 24.705,66.234 C 34.36,19.405 0,25.17 0,0"
                   style="fill:#000000;fill-opacity:1;fill-rule:evenodd;stroke:none"
                   id="path134" /></g></g></g></g><g
           id="g136"
           transform="translate(503.8398,239.061)"><path
             d="m 0,0 2.186,0 2.249,-1.205 1.125,-1.534 0.437,-2.081 0,-58.891 -0.812,-2.356 -1.249,-1.37 -1.874,-0.821 -1.312,-0.164 -1.25,0.274 -1.749,0.985 -0.937,1.643 -0.5,2.082 0,59.166 0.687,1.917 1.25,1.424 L 0,0 z"
             style="fill:#4c4c4c;fill-opacity:1;fill-rule:evenodd;stroke:none"
             id="path138" /></g><g
           id="g140"
           transform="translate(245.8237,231.6943)"><path
             d="m 0,0 -2.561,-0.547 -2.062,-0.932 -3.123,-2.465 -1.249,-1.588 -0.875,-1.808 -0.437,-2.355 0,-7.998 0.312,-2.355 1.5,-1.315 2.685,-0.274 15.18,0 2.561,0.384 1.374,1.479 0.125,10.462 -0.437,2.191 -0.874,1.863 -1.25,1.588 L 9.245,-2.355 7.434,-1.314 5.372,-0.547 2.999,0 0,0 z m 0.438,8.491 2.248,0 4.748,-0.931 5.559,-2.192 4.185,-3.286 2.374,-2.629 1.936,-3.014 1.187,-3.669 0.312,-1.972 0,-18.734 -0.874,-1.698 -2.249,-0.384 -26.611,0 -2.248,-0.383 -1.187,-1.315 0,-11.284 0.625,-1.807 1.811,-3.013 1.312,-1.205 3.31,-1.808 2.062,-0.547 2.374,-0.22 2.124,0.11 2.374,0.548 1.811,0.766 2.998,1.972 1.187,1.425 0.875,1.588 0.624,1.698 0.25,2.082 0.75,1.698 1.062,1.315 1.811,0.931 2.062,0.11 1.811,-0.932 1.187,-1.15 0.749,-1.863 0,-1.917 -1.186,-3.944 -2.686,-4.711 -2.562,-2.52 -2.998,-2.081 -3.248,-1.698 -6.122,-1.698 -4.622,0 -2.562,0.384 -5.809,1.971 -3.123,1.973 -2.561,2.355 -3.311,4.163 -0.687,1.753 -1.062,3.779 -0.312,32.319 0.437,4.327 1.374,3.561 2.936,4.436 2.749,2.356 4.622,2.903 6.122,1.698 2.062,0.384 z"
             style="fill:#4c4c4c;fill-opacity:1;fill-rule:evenodd;stroke:none"
             id="path142" /></g><g
           id="g144"
           transform="translate(299.5103,240.2944)"><path
             d="m 0,0 2.374,0 5.372,-1.041 2.124,-0.821 3.748,-1.918 3.123,-2.409 3.748,-4.547 1.624,-3.67 0.5,-2.246 0.125,-46.56 -0.438,-2.246 -1.187,-1.589 -1.686,-1.15 -1.499,-0.274 -1,0.11 -1.811,1.095 -1.187,1.534 -0.625,4.217 0,41.96 -0.312,2.355 -0.562,1.972 -2.249,3.287 -1.499,1.315 -3.873,1.697 -2.436,0.384 -2.562,0 -2.811,-0.493 -3.748,-1.972 -1.499,-1.315 -1.936,-3.396 -0.625,-2.136 -0.125,-45.903 -0.874,-2.356 -1.25,-1.588 -2.061,-0.767 -2.374,0.548 -1.686,1.15 -0.875,1.862 -0.312,2.356 0,44.04 0.312,2.356 0.562,2.136 1.687,3.67 2.374,3.123 2.998,2.629 3.436,2.136 4.185,1.534 L 0,0 z"
             style="fill:#4c4c4c;fill-opacity:1;fill-rule:evenodd;stroke:none"
             id="path146" /></g><g
           id="g148"
           transform="translate(351.2598,231.6943)"><path
             d="m 0,0 -2.561,-0.547 -2.061,-0.932 -3.124,-2.465 -1.249,-1.588 -0.874,-1.808 -0.438,-2.355 0,-7.998 0.313,-2.355 1.499,-1.315 2.686,-0.274 15.179,0 2.561,0.384 1.375,1.479 0.125,10.462 -0.438,2.191 -0.874,1.863 -1.25,1.588 L 9.245,-2.355 7.434,-1.314 5.372,-0.547 2.999,0 0,0 z m 0.438,8.491 2.249,0 4.747,-0.931 5.559,-2.192 4.185,-3.286 2.374,-2.629 1.937,-3.014 1.186,-3.669 0.313,-1.972 0,-18.734 -0.875,-1.698 -2.248,-0.384 -26.611,0 -2.249,-0.383 -1.187,-1.315 0,-11.284 0.625,-1.807 1.811,-3.013 1.312,-1.205 3.311,-1.808 2.061,-0.547 2.374,-0.22 2.124,0.11 2.374,0.548 1.811,0.766 2.999,1.972 1.186,1.425 0.875,1.588 0.625,1.698 0.249,2.082 0.75,1.698 1.062,1.315 1.811,0.931 2.062,0.11 1.811,-0.932 1.187,-1.15 0.75,-1.863 0,-1.917 -1.187,-3.944 -2.686,-4.711 -2.561,-2.52 -2.999,-2.081 -3.248,-1.698 -6.121,-1.698 -4.623,0 -2.561,0.384 -5.81,1.971 -3.123,1.973 -2.561,2.355 -3.311,4.163 -0.687,1.753 -1.062,3.779 -0.312,32.319 0.437,4.327 1.375,3.561 2.935,4.436 2.749,2.356 4.622,2.903 6.122,1.698 2.062,0.384 z"
             style="fill:#4c4c4c;fill-opacity:1;fill-rule:evenodd;stroke:none"
             id="path150" /></g><g
           id="g152"
           transform="translate(407.813,240.1851)"><path
             d="m 0,0 4.31,0 5.06,-1.205 4.372,-1.918 3.561,-2.519 1.999,-2.082 2.373,-3.45 1.187,-2.74 0.75,-3.122 0,-1.862 -0.437,-1.424 -0.937,-1.205 -1.187,-0.767 -1.624,-0.548 -1.812,0.274 -1.499,0.657 -1.624,2.355 -1.812,5.916 -1.811,2.082 -1.187,0.931 -2.686,1.315 -3.311,0.931 -3.998,-0.164 -3.186,-1.041 -2.498,-1.588 -1.937,-1.972 -1.374,-2.575 -0.312,-1.589 -0.125,-45.026 -0.625,-3.287 -0.749,-1.15 -2.686,-1.479 -1.062,-0.11 -2.062,0.931 -1.186,0.931 -0.75,1.151 -0.312,1.589 0,46.724 1.186,4.547 4.061,5.916 2.249,1.862 3.747,2.356 2.999,1.15 L 0,0 z"
             style="fill:#4c4c4c;fill-opacity:1;fill-rule:evenodd;stroke:none"
             id="path154" /></g><g
           id="g156"
           transform="translate(460.5854,230.1812)"><path
             d="m 0,0 -5.872,-1.753 -2.936,-2.191 -1.749,-3.122 -0.125,-12.708 0.437,-2.575 1.25,-1.972 2.81,-2.246 1.25,-0.657 2.748,-0.877 3.624,-0.328 3.56,0.328 2.936,0.767 1.249,0.658 2.936,2.136 1.687,3.067 0,14.078 -0.75,2.41 -1.561,1.698 L 9.495,-1.862 5.622,-0.329 1.999,0 0,0 z m 0.312,8.819 23.3,0 L 26.36,7.998 28.11,6.299 28.547,5.478 28.422,3.78 26.673,2.136 24.049,1.15 C 23.216,0.931 22.488,0.548 21.863,0 l -0.125,-0.986 1.562,-3.67 0.624,-2.52 0,-14.845 -1.561,-4.765 -2.686,-3.835 -3.686,-3.067 L 13.68,-35.002 8.683,-37.029 2.311,-38.125 0,-39.22 l -1.687,-1.644 -0.625,-2.519 1.562,-1.808 9.433,-1.534 4.997,-2.026 4.185,-2.904 3.248,-3.341 2.187,-4.273 0.624,-2.465 0,-2.903 -0.624,-2.52 -2.374,-4.163 -3.248,-3.451 -1.999,-1.424 -4.81,-2.301 -5.747,-1.533 -3.56,-0.274 -3.436,0.274 -5.685,1.533 -4.685,2.301 -1.999,1.424 -1.748,1.644 -2.936,3.725 -1.562,4.765 0,1.315 0.5,1.315 1.561,1.807 2.936,0.712 2.811,-0.931 1.499,-1.808 1.562,-4.656 1.249,-1.917 1.999,-1.533 2.186,-1.206 2.936,-0.712 3.561,-0.274 3.436,0.384 2.499,0.931 2.186,1.314 1.686,1.699 1.25,2.027 0.624,2.355 0,1.917 -1.249,3.122 -1.562,1.808 -1.874,1.369 -2.498,1.205 -9.433,1.425 -2.811,0.876 -2.311,1.205 -1.999,1.534 -1.437,1.808 -0.749,2.355 0,2.739 1.686,4.656 0.313,1.588 -0.438,0.822 -4.06,2.848 -3.248,3.342 -2.186,4.327 -0.625,2.411 -0.125,14.296 0.437,3.122 0.937,2.247 2.686,3.834 1.687,1.698 3.998,2.848 5.122,2.027 6.059,1.205 z"
             style="fill:#4c4c4c;fill-opacity:1;fill-rule:evenodd;stroke:none"
             id="path158" /></g><g
           id="g160"
           transform="translate(541.0122,201.7866)"><path
             d="m 0,0 -4.81,-1.15 -1.812,-1.206 -1.499,-1.26 -1.312,-1.588 -0.937,-1.698 -0.562,-4.711 0.437,-2.355 0.75,-1.972 2.686,-3.013 3.748,-1.972 2.561,-0.548 2.811,-0.11 2.561,0.384 2.124,0.822 3.436,2.355 1.187,1.534 0.874,1.863 0.625,2.19 L 12.68,-1.917 11.681,-0.384 8.932,0 0,0 z m -1.187,38.398 5.185,-0.109 4.185,-1.096 3.623,-1.533 4.497,-3.013 3.249,-4.054 1.686,-3.176 1.187,-3.671 0,-34.948 -1.062,-3.779 -3.873,-5.916 -4.185,-3.396 -5.122,-2.465 -4.31,-0.931 -4.498,-0.274 -2.561,0.547 -5.934,1.808 -5.872,4.218 -3.248,4.054 -1.999,5.368 0,6.682 1.249,3.67 0.875,1.534 2.061,2.739 2.561,2.52 2.998,2.081 3.436,1.589 4.06,1.15 2.249,0.274 10.432,0.164 2.124,0.493 0.874,1.589 0,11.394 -0.562,1.697 -1.936,2.849 -1.499,1.205 -3.311,1.698 -1.936,0.548 -2.561,0.11 -2.375,-0.274 -3.873,-1.151 -2.873,-2.246 -1.936,-2.903 -0.937,-3.889 -0.687,-1.698 -1.25,-1.205 -1.749,-0.931 -2.436,0.274 -1.624,0.931 -1.062,1.315 -0.437,1.971 0.125,2.191 1.999,5.368 2.061,2.794 2.561,2.465 4.498,3.013 3.747,1.424 4.186,0.931 z"
             style="fill:#4c4c4c;fill-opacity:1;fill-rule:evenodd;stroke:none"
             id="path162" /></g></g></g><g
       id="g164"><g
         id="g166"
         clip-path="url(#clipPath168)"><g
           id="g172"><g
             id="g174" /><g
             id="g200"
             mask="url(#mask188)"><g
               id="g202"><path
                 d="m 299.51,240.295 -4.809,-0.932 -4.185,-1.534 -3.437,-2.135 -2.998,-2.63 -2.374,-3.122 -1.686,-3.67 -0.563,-2.137 -0.312,-2.355 0,-44.041 0.312,-2.355 0.875,-1.862 1.687,-1.151 2.373,-0.547 2.062,0.766 1.249,1.589 0.875,2.355 0.125,45.903 0.624,2.136 1.936,3.397 1.5,1.314 3.747,1.972 2.812,0.493 2.56,0 2.437,-0.383 3.873,-1.698 1.499,-1.315 2.249,-3.286 0.562,-1.972 0.313,-2.356 0,-41.959 0.624,-4.218 1.186,-1.533 1.812,-1.096 1,-0.109 1.499,0.273 1.686,1.15 1.187,1.589 0.438,2.246 -0.125,46.56 -0.5,2.246 -1.624,3.671 -3.748,4.546 -3.123,2.41 -3.749,1.917 -2.124,0.822 -5.372,1.041 -2.373,0 z m 236.129,-1.041 -3.747,-1.425 -4.497,-3.012 -2.562,-2.465 -2.061,-2.793 -1.999,-5.369 -0.125,-2.191 0.437,-1.972 1.063,-1.314 1.623,-0.932 2.436,-0.274 1.749,0.931 1.25,1.205 0.687,1.698 0.937,3.89 1.937,2.903 2.872,2.246 3.874,1.15 2.373,0.274 2.562,-0.11 1.936,-0.547 3.311,-1.698 1.499,-1.205 1.936,-2.849 0.563,-1.697 0,-11.394 -0.874,-1.589 -2.124,-0.493 -10.433,-0.165 -2.248,-0.273 -4.061,-1.151 -3.435,-1.588 -2.998,-2.082 -2.562,-2.52 -2.061,-2.738 -0.875,-1.534 -1.249,-3.67 0,-6.683 1.999,-5.368 3.248,-4.054 5.872,-4.217 5.934,-1.808 2.561,-0.547 4.498,0.273 4.309,0.932 5.123,2.464 4.185,3.396 3.874,5.917 1.062,3.779 0,34.948 -1.187,3.67 -1.687,3.177 -3.249,4.054 -4.496,3.012 -3.625,1.534 -4.185,1.095 -5.184,0.11 -4.186,-0.931 z m 4.623,-58.94 -2.561,0.547 -3.748,1.972 -2.686,3.013 -0.749,1.972 -0.438,2.356 0.563,4.71 0.937,1.699 1.312,1.588 1.498,1.26 1.812,1.205 4.811,1.15 8.931,0 2.75,-0.383 0.999,-1.534 0.187,-10.517 -0.625,-2.191 -0.875,-1.863 -1.186,-1.533 -3.436,-2.356 -2.124,-0.821 -2.561,-0.384 -2.811,0.11 z m -132.449,59.871 -4.935,-1.205 -2.999,-1.151 -3.748,-2.355 -2.248,-1.862 -4.061,-5.917 -1.187,-4.545 0,-46.725 0.313,-1.589 0.749,-1.15 1.187,-0.932 2.061,-0.93 1.062,0.109 2.687,1.479 0.75,1.15 0.624,3.287 0.125,45.026 0.313,1.589 1.373,2.574 1.937,1.972 2.498,1.589 3.186,1.04 3.998,0.165 3.311,-0.931 2.686,-1.314 1.187,-0.932 1.811,-2.082 1.811,-5.915 1.625,-2.356 1.499,-0.658 1.812,-0.273 1.623,0.548 1.188,0.767 0.936,1.205 0.438,1.424 0,1.863 -0.75,3.122 -1.187,2.738 -2.373,3.451 -1.999,2.082 -3.561,2.52 -4.373,1.917 -5.059,1.205 -4.31,0 z m -56.116,0 -2.061,-0.384 -6.122,-1.698 -4.623,-2.902 -2.748,-2.357 -2.935,-4.436 -1.375,-3.561 -0.437,-4.327 0.312,-32.318 1.062,-3.78 0.687,-1.753 3.311,-4.163 2.561,-2.355 3.123,-1.972 5.809,-1.972 2.562,-0.383 4.622,0 6.122,1.698 3.248,1.698 2.999,2.081 2.56,2.52 2.687,4.71 1.187,3.944 0,1.917 -0.75,1.863 -1.187,1.151 -1.812,0.931 -2.061,-0.11 -1.811,-0.931 -1.062,-1.314 -0.75,-1.699 -0.249,-2.081 -0.626,-1.699 -0.874,-1.588 -1.187,-1.424 -2.998,-1.973 -1.811,-0.767 -2.375,-0.547 -2.124,-0.11 -2.373,0.22 -2.061,0.547 -3.311,1.808 -1.312,1.205 -1.811,3.013 -0.625,1.808 0,11.283 1.187,1.315 2.249,0.383 26.611,0 2.248,0.384 0.875,1.698 0,18.735 -0.313,1.971 -1.186,3.67 -1.937,3.013 -2.374,2.629 -4.185,3.287 -5.56,2.191 -4.746,0.931 -2.25,0 z m -8.932,-29.853 -1.499,1.314 -0.313,2.355 0,7.998 0.438,2.356 0.874,1.807 1.249,1.588 3.124,2.465 2.061,0.932 2.561,0.547 2.998,0 2.374,-0.547 2.061,-0.767 1.812,-1.041 1.623,-1.315 1.251,-1.588 0.874,-1.863 0.438,-2.191 -0.125,-10.462 -1.376,-1.479 -2.56,-0.384 -15.179,0 -2.686,0.275 z m -96.503,29.853 -2.062,-0.384 -6.122,-1.698 -4.622,-2.902 -2.749,-2.357 -2.936,-4.436 -1.374,-3.561 -0.438,-4.327 0.313,-32.318 1.062,-3.78 0.687,-1.753 3.31,-4.163 2.562,-2.355 3.123,-1.972 5.809,-1.972 2.562,-0.383 4.622,0 6.121,1.698 3.249,1.698 2.998,2.081 2.561,2.52 2.687,4.71 1.186,3.944 0,1.917 -0.75,1.863 -1.186,1.151 -1.812,0.931 -2.061,-0.11 -1.811,-0.931 -1.062,-1.314 -0.75,-1.699 -0.25,-2.081 -0.625,-1.699 -0.875,-1.588 -1.186,-1.424 -2.998,-1.973 -1.811,-0.767 -2.375,-0.547 -2.124,-0.11 -2.374,0.22 -2.061,0.547 -3.311,1.808 -1.311,1.205 -1.812,3.013 -0.624,1.808 0,11.283 1.187,1.315 2.248,0.383 26.611,0 2.249,0.384 0.874,1.698 0,18.735 -0.312,1.971 -1.187,3.67 -1.936,3.013 -2.374,2.629 -4.185,3.287 -5.56,2.191 -4.747,0.931 -2.248,0 z m -8.934,-29.853 -1.499,1.314 -0.313,2.355 0,7.998 0.438,2.356 0.875,1.807 1.249,1.588 3.123,2.465 2.062,0.932 2.56,0.547 2.999,0 2.373,-0.547 2.062,-0.767 1.812,-1.041 1.624,-1.315 1.25,-1.588 0.874,-1.863 0.437,-2.191 -0.125,-10.462 -1.374,-1.479 -2.562,-0.384 -15.179,0 -2.686,0.275 z m 266.512,28.729 -1.749,-0.931 -1.25,-1.425 -0.687,-1.917 0,-59.165 0.501,-2.081 0.936,-1.644 1.748,-0.985 1.251,-0.274 1.312,0.164 1.873,0.822 1.25,1.369 0.811,2.356 0,58.89 -0.437,2.082 -1.124,1.534 -2.249,1.205 -2.186,0 z M 460.897,239 l -6.059,-1.205 -5.122,-2.027 -3.997,-2.848 -1.687,-1.698 -2.686,-3.834 -0.937,-2.247 -0.438,-3.122 0.125,-14.296 0.625,-2.41 2.186,-4.328 3.249,-3.341 4.06,-2.849 0.437,-0.822 -0.312,-1.588 -1.686,-4.656 0,-2.739 0.749,-2.355 1.437,-1.808 1.999,-1.533 2.311,-1.206 2.811,-0.876 9.432,-1.424 2.499,-1.205 1.874,-1.37 1.562,-1.808 1.248,-3.122 0,-1.917 -0.624,-2.355 -1.25,-2.027 -1.686,-1.699 -2.186,-1.314 -2.499,-0.931 -3.436,-0.383 -3.56,0.273 -2.936,0.713 -2.186,1.205 -1.999,1.534 -1.249,1.917 -1.562,4.655 -1.499,1.808 -2.811,0.931 -2.937,-0.712 -1.561,-1.807 -0.5,-1.315 0,-1.315 1.562,-4.765 2.937,-3.725 1.747,-1.644 2,-1.424 4.685,-2.301 5.684,-1.534 3.436,-0.273 3.561,0.273 5.746,1.534 4.81,2.301 2,1.424 3.248,3.452 2.373,4.162 0.625,2.52 0,2.904 -0.625,2.465 -2.186,4.272 -3.248,3.342 -4.185,2.903 -4.998,2.027 -9.432,1.533 -1.562,1.808 0.624,2.52 1.688,1.643 2.31,1.095 6.372,1.096 4.998,2.026 2.311,1.315 3.685,3.068 2.686,3.834 1.562,4.766 0,14.845 -0.625,2.519 -1.562,3.67 0.126,0.986 c 0.624,0.548 1.352,0.931 2.186,1.15 l 0,0 2.623,0.986 1.749,1.644 0.125,1.698 -0.437,0.821 -1.749,1.699 -2.749,0.821 -23.3,0 z m -2.498,-36.919 -2.749,0.876 -1.249,0.657 -2.811,2.247 -1.249,1.971 -0.437,2.574 0.124,12.709 1.749,3.123 2.936,2.19 5.873,1.753 1.999,0 3.622,-0.328 3.873,-1.534 1.999,-1.424 1.561,-1.699 0.75,-2.41 0,-14.078 -1.687,-3.067 -2.935,-2.136 -1.25,-0.658 -2.935,-0.766 -3.561,-0.329 -3.623,0.329 z"
                 style="fill:url(#radialGradient204);stroke:none"
                 id="path210" /></g></g></g></g></g><g
       id="g212"><g
         id="g214"
         clip-path="url(#clipPath216)"><g
           id="g220"
           transform="translate(489.5791,334.5874)"><path
             d="m 0,0 0,-50.514 c 0,-6.548 -1.872,-11.695 -5.614,-15.438 -3.554,-3.735 -7.952,-5.606 -13.19,-5.606 -5.237,0 -9.635,1.871 -13.189,5.606 -3.555,3.743 -5.332,8.89 -5.332,15.438 l 0,50.514 c 0,19.835 -6.925,29.749 -20.769,29.749 -14.218,0 -21.33,-9.914 -21.33,-29.749 l 0,-50.514 c 0,-6.548 -1.778,-11.695 -5.332,-15.438 -3.554,-3.735 -7.952,-5.606 -13.189,-5.606 -5.238,0 -9.73,1.871 -13.472,5.606 -3.555,3.743 -5.332,8.89 -5.332,15.438 l 0,60.059 c 0,15.528 5.798,28.811 17.399,39.851 11.601,11.225 24.79,16.838 39.573,16.838 14.217,0 27.784,-5.147 40.695,-15.437 11.785,10.106 24.602,15.155 38.446,15.155 16.278,0 30.217,-5.704 41.818,-17.117 11.6,-11.412 17.399,-25.261 17.399,-41.538 l 0,-57.811 c 0,-6.548 -1.872,-11.695 -5.615,-15.438 -3.554,-3.735 -7.947,-5.606 -13.189,-5.606 -5.237,0 -9.635,1.871 -13.19,5.606 -3.554,3.743 -5.331,8.89 -5.331,15.438 l 0,50.514 c 0,8.235 -0.75,14.033 -2.244,17.403 -3.559,8.042 -9.73,12.068 -18.526,12.068 C 6.83,29.471 0,19.647 0,0"
             style="fill:#8ed300;fill-opacity:1;fill-rule:evenodd;stroke:none"
             id="path222" /></g></g></g><g
       id="g224"><g
         id="g226"
         clip-path="url(#clipPath228)"><g
           id="g232"><g
             id="g234" /><g
             id="g258"
             mask="url(#mask246)"><g
               id="g260"><path
                 d="M 390.229,383.984 C 378.628,372.944 372.83,359.66 372.83,344.133 l 0,0 0,-60.06 c 0,-6.547 1.777,-11.695 5.332,-15.437 l 0,0 c 3.742,-3.735 8.234,-5.607 13.472,-5.607 l 0,0 c 5.237,0 9.635,1.872 13.19,5.607 l 0,0 c 3.554,3.742 5.331,8.89 5.331,15.437 l 0,0 0,50.515 c 0,19.835 7.113,29.748 21.33,29.748 l 0,0 c 13.845,0 20.769,-9.913 20.769,-29.748 l 0,0 0,-50.515 c 0,-6.547 1.777,-11.695 5.332,-15.437 l 0,0 c 3.554,-3.735 7.952,-5.607 13.19,-5.607 l 0,0 c 5.237,0 9.635,1.872 13.189,5.607 l 0,0 c 3.742,3.742 5.614,8.89 5.614,15.437 l 0,0 0,50.515 c 0,19.647 6.83,29.47 20.486,29.47 l 0,0 c 8.797,0 14.967,-4.026 18.526,-12.067 l 0,0 c 1.495,-3.371 2.244,-9.168 2.244,-17.403 l 0,0 0,-50.515 c 0,-6.547 1.777,-11.695 5.332,-15.437 l 0,0 c 3.554,-3.735 7.951,-5.607 13.188,-5.607 l 0,0 c 5.243,0 9.636,1.872 13.19,5.607 l 0,0 c 3.743,3.742 5.615,8.89 5.615,15.437 l 0,0 0,57.811 c 0,16.277 -5.799,30.126 -17.4,41.538 l 0,0 c -11.601,11.413 -25.539,17.117 -41.816,17.117 l 0,0 c -13.845,0 -26.662,-5.048 -38.447,-15.155 l 0,0 c -12.911,10.291 -26.477,15.438 -40.695,15.438 l 0,0 c -14.782,0 -27.972,-5.614 -39.573,-16.838"
                 style="fill:url(#linearGradient262);stroke:none"
                 id="path268" /></g></g></g></g></g><g
       id="g270"><g
         id="g272"
         clip-path="url(#clipPath274)"><g
           id="g278"
           transform="translate(113.3203,356.5649)"><path
             d="m 0,0 c 0,14.811 6.749,26.15 20.242,34.023 7.688,4.5 17.058,6.748 28.119,6.748 11.996,0 22.4,-2.437 31.212,-7.31 9.559,-5.436 14.339,-12.374 14.339,-20.809 0,-3.372 -1.686,-6.748 -5.063,-10.121 -3.188,-3.187 -7.028,-4.779 -11.528,-4.779 -4.312,0 -9.932,1.969 -16.87,5.903 -6.749,3.939 -11.622,5.904 -14.621,5.904 -4.874,0 -7.311,-1.965 -7.311,-5.904 0,-3.56 2.063,-6.371 6.187,-8.434 2.81,-1.686 8.246,-3.561 16.307,-5.625 11.623,-2.999 19.684,-5.809 24.181,-8.435 12.184,-7.122 18.277,-17.805 18.277,-32.053 0,-13.871 -4.969,-25.211 -14.901,-34.023 -9.747,-8.619 -22.494,-12.927 -38.24,-12.927 -15.746,0 -29.337,3.93 -40.771,11.803 -10.872,7.311 -16.308,15.651 -16.308,25.026 0,5.062 1.78,9.464 5.342,13.214 3.56,3.75 7.594,5.625 12.09,5.625 5.813,0 12.374,-3.188 19.684,-9.559 8.808,-7.688 15.93,-11.528 21.366,-11.528 3.75,0 6.938,0.841 9.563,2.527 2.81,1.875 4.218,4.127 4.218,6.748 0,4.69 -4.123,8.062 -12.373,10.126 -17.995,4.307 -31.119,9.653 -39.365,16.024 C 4.591,-20.714 0,-11.434 0,0"
             style="fill:#4c4c4c;fill-opacity:1;fill-rule:evenodd;stroke:none"
             id="path280" /></g></g></g><g
       id="g282"><g
         id="g284"
         clip-path="url(#clipPath286)"><g
           id="g290"><g
             id="g292" /><g
             id="g320"
             mask="url(#mask308)"><g
               id="g322"><path
                 d="m 244.3,379.622 c -14.621,-13.12 -21.928,-30.835 -21.928,-53.141 l 0,0 c 0,-18.934 6.839,-35.052 20.525,-48.361 l 0,0 c 13.871,-13.124 30.457,-19.681 49.769,-19.681 l 0,0 c 19.117,0 35.425,6.651 48.923,19.96 l 0,0 c 13.682,13.308 20.525,29.432 20.525,48.36 l 0,0 c 0,22.121 -7.312,39.743 -21.932,52.863 l 0,0 c -12.936,11.622 -28.866,17.431 -47.8,17.431 l 0,0 c -18.933,0 -34.958,-5.809 -48.082,-17.431 m 19.875,-80.1 c -7.785,7.57 -11.674,16.737 -11.674,27.507 l 0,0 c 0,12.686 4.156,22.762 12.472,30.224 l 0,0 c 7.465,6.612 16.579,9.915 27.348,9.915 l 0,0 c 10.769,0 19.83,-3.303 27.188,-9.915 l 0,0 c 8.316,-7.462 12.474,-17.484 12.474,-30.066 l 0,0 c 0,-10.767 -3.893,-19.938 -11.674,-27.508 l 0,0 c -7.677,-7.569 -16.952,-11.351 -27.827,-11.351 l 0,0 c -10.984,0 -20.417,3.728 -28.307,11.194"
                 style="fill:url(#radialGradient324);stroke:none"
                 id="path332" /></g></g></g></g></g><g
       id="g342"><g
         id="g344" /><g
         id="g350"><g
           clip-path="url(#clipPath346)"
           id="g352"
           style="opacity:0.80000299"><g
             transform="translate(411.7578,444.1855)"
             id="g354"><path
               d="m 0,0 c 0,0 18.88,25.497 130.292,-16.648 118.13,-44.685 82.052,-81.602 80.06,-83.684 -1.992,-2.082 -45.316,-29.587 -152.818,-2.783 C -58.637,-74.149 0,0 0,0"
               style="fill:#ffffff;fill-opacity:1;fill-rule:evenodd;stroke:none"
               id="path356"
               inkscape:connector-curvature="0" /></g></g></g></g><g
       id="g358"
       transform="translate(642.1079,356.3667)"><path
         d="m 0,0 c -9.708,11.168 -11.108,21.873 -4.325,27.769 6.783,5.897 17.371,2.945 27.08,-8.223 C 32.463,8.377 32.981,-6.58 25.153,-10.997 17.747,-15.175 9.708,-11.168 0,0"
         style="fill:#4c4c4c;fill-opacity:1;fill-rule:evenodd;stroke:none"
         id="path360"
         inkscape:connector-curvature="0" /></g><g
       id="g362"><g
         id="g364"
         clip-path="url(#clipPath366)"><g
           id="g370"><g
             id="g372"><path
               d="m 639.643,385.128 c -6.783,-5.897 -5.383,-16.601 4.325,-27.77 l 0,0 c 9.708,-11.168 17.747,-15.174 25.153,-10.996 l 0,0 c 7.828,4.417 7.311,19.375 -2.398,30.543 l 0,0 c -6.435,7.402 -13.255,11.195 -19.098,11.194 l 0,0 c -2.973,0 -5.694,-0.982 -7.982,-2.971"
               style="fill:url(#radialGradient374);stroke:none"
               id="path380" /></g></g></g></g><g
       id="g390"
       transform="translate(630.2007,389.0596)"><path
         d="M 0,0 C 0,0 6.053,46.445 51.18,35.575"
         style="fill:none;stroke:#666666;stroke-width:1;stroke-linecap:butt;stroke-linejoin:miter;stroke-miterlimit:3.86400008;stroke-opacity:1;stroke-dasharray:none"
         id="path392"
         inkscape:connector-curvature="0" /></g><g
       id="g394"
       transform="translate(630.2007,389.0596)"><path
         d="M 0,0 C 0,0 6.053,46.445 51.18,35.575"
         style="fill:none;stroke:#666666;stroke-width:2.05800009;stroke-linecap:butt;stroke-linejoin:miter;stroke-miterlimit:3.86400008;stroke-opacity:1;stroke-dasharray:none"
         id="path396"
         inkscape:connector-curvature="0" /></g><g
       id="g398"
       transform="translate(626.3711,385.2305)"><path
         d="M 0,0 C 0,0 -4.612,48.421 40.845,29.646"
         style="fill:none;stroke:#666666;stroke-width:2.05800009;stroke-linecap:butt;stroke-linejoin:miter;stroke-miterlimit:3.86400008;stroke-opacity:1;stroke-dasharray:none"
         id="path400"
         inkscape:connector-curvature="0" /></g><g
       id="g402"
       transform="translate(626.3711,385.2305)"><path
         d="M 0,0 C 0,0 -4.612,48.421 40.845,29.646"
         style="fill:none;stroke:#666666;stroke-width:2.05800009;stroke-linecap:butt;stroke-linejoin:miter;stroke-miterlimit:3.86400008;stroke-opacity:1;stroke-dasharray:none"
         id="path404"
         inkscape:connector-curvature="0" /></g><g
       id="g406"
       transform="translate(679.7729,424.6665)"><path
         d="M 0,0 C 0,1.562 1.266,2.828 2.828,2.828 4.39,2.828 5.656,1.562 5.656,0 5.656,-1.562 4.39,-2.828 2.828,-2.828 1.266,-2.828 0,-1.562 0,0"
         style="fill:#666666;fill-opacity:1;fill-rule:evenodd;stroke:none"
         id="path408"
         inkscape:connector-curvature="0" /></g><g
       id="g410"
       transform="translate(664.9658,414.7544)"><path
         d="M 0,0 C 0,1.848 1.498,3.346 3.346,3.346 5.194,3.346 6.692,1.848 6.692,0 6.692,-1.848 5.194,-3.346 3.346,-3.346 1.498,-3.346 0,-1.848 0,0"
         style="fill:#666666;fill-opacity:1;fill-rule:evenodd;stroke:none"
         id="path412"
         inkscape:connector-curvature="0" /></g><g
       id="g414"><g
         id="g416" /><g
         id="g422"><g
           clip-path="url(#clipPath418)"
           id="g424"
           style="opacity:0.10000598"><g
             transform="translate(628.7827,357.8311)"
             id="g426"><path
               d="m 0,0 c 0.622,-10.602 -5.86,-17.246 -6.673,-18.095 -1.992,-2.082 -45.316,-29.587 -152.818,-2.783 -59.655,14.875 -73.279,41.663 -72.288,64.208 0.833,-38.126 46.933,-56.438 98.231,-65.725 70.765,-12.811 109.107,-2.706 126.27,7.69 C -1.02,-8.679 0,0 0,0"
               style="fill:#000000;fill-opacity:1;fill-rule:evenodd;stroke:none"
               id="path428"
               inkscape:connector-curvature="0" /></g></g></g></g><g
       id="g430"><g
         id="g432" /><g
         id="g438"><g
           clip-path="url(#clipPath434)"
           id="g440"
           style="opacity:0.14999402"><g
             transform="translate(650.7334,384.7642)"
             id="g442"><path
               d="m 0,0 c 0,0 4.964,-0.529 8.112,-5.761 3.147,-5.231 -7.608,0.12 -9.362,2.956 C -3.335,0.569 0,0 0,0"
               style="fill:#ffffff;fill-opacity:1;fill-rule:evenodd;stroke:none"
               id="path444"
               inkscape:connector-curvature="0" /></g></g></g></g></g></svg>