<?xml version="1.0" encoding="UTF-8" standalone="no"?>
<!-- Created with Inkscape (http://www.inkscape.org/) -->

<svg
   xmlns:dc="http://purl.org/dc/elements/1.1/"
   xmlns:cc="http://creativecommons.org/ns#"
   xmlns:rdf="http://www.w3.org/1999/02/22-rdf-syntax-ns#"
   xmlns:svg="http://www.w3.org/2000/svg"
   xmlns="http://www.w3.org/2000/svg"
   xmlns:sodipodi="http://sodipodi.sourceforge.net/DTD/sodipodi-0.dtd"
   xmlns:inkscape="http://www.inkscape.org/namespaces/inkscape"
   width="1140"
   height="418"
   id="svg2"
   version="1.1"
   inkscape:version="0.48.4 r9939"
   sodipodi:docname="logo-desconexionibex35.svg">
  <defs
     id="defs4" />
  <sodipodi:namedview
     id="base"
     pagecolor="#ffffff"
     bordercolor="#666666"
     borderopacity="1.0"
     inkscape:pageopacity="0.0"
     inkscape:pageshadow="2"
     inkscape:zoom="0.35"
     inkscape:cx="174.17537"
     inkscape:cy="614.08519"
     inkscape:document-units="px"
     inkscape:current-layer="layer1"
     showgrid="true"
     inkscape:snap-grids="false"
     inkscape:window-width="1680"
     inkscape:window-height="995"
     inkscape:window-x="-2"
     inkscape:window-y="-3"
     inkscape:window-maximized="1"
     fit-margin-top="0"
     fit-margin-left="0"
     fit-margin-right="0"
     fit-margin-bottom="0">
    <inkscape:grid
       type="xygrid"
       id="grid3101"
       empspacing="5"
       visible="true"
       enabled="true"
       snapvisiblegridlinesonly="true"
       originx="-162px"
       originy="-140px" />
  </sodipodi:namedview>
  <metadata
     id="metadata7">
    <rdf:RDF>
      <cc:Work
         rdf:about="">
        <dc:format>image/svg+xml</dc:format>
        <dc:type
           rdf:resource="http://purl.org/dc/dcmitype/StillImage" />
        <dc:title />
      </cc:Work>
    </rdf:RDF>
  </metadata>
  <g
     inkscape:label="bitmap"
     inkscape:groupmode="layer"
     id="layer1"
     style="display:inline"
     transform="translate(-162,-494.36218)">
    <text
       xml:space="preserve"
       style="font-size:126.28848267px;font-style:normal;font-variant:normal;font-weight:normal;font-stretch:normal;text-align:end;line-height:125%;letter-spacing:0px;word-spacing:0px;text-anchor:end;fill:#000000;fill-opacity:1;stroke:none;font-family:Ubuntu;-inkscape-font-specification:Ubuntu"
       x="1290.2333"
       y="655.48486"
       id="text2992"
       sodipodi:linespacing="125%"><tspan
         sodipodi:role="line"
         id="tspan2994"
         x="1290.2333"
         y="655.48486">Desconexión</tspan><tspan
         sodipodi:role="line"
         x="1290.2333"
         y="813.34546"
         id="tspan2996">IBEX35.org</tspan></text>
  </g>
  <g
     inkscape:groupmode="layer"
     id="layer2"
     inkscape:label="vector"
     style="display:inline"
     transform="translate(-162,-494.36218)">
    <g
       id="g4726">
      <g
         id="g3913">
        <path
           style="fill:#1c171d;fill-opacity:1;stroke:#1c171d;stroke-width:3;stroke-linecap:butt;stroke-linejoin:round;stroke-miterlimit:4;stroke-opacity:1;stroke-dasharray:none"
           d="m 366.1803,728.35576 -44.95179,-25.00129 -49.75002,47.22464 12.12184,11.61675 40.65863,-39.39594 37.37565,21.71828 -18.68782,34.34518 33.33504,68.94291 14.89974,-7.07107 -29.54696,-62.37691 74.24622,-145.20943 -17.1726,-8.33377 -91.16627,28.53682 6.06091,13.8896 76.01399,-23.73859 c 0,0 -42.93148,85.10536 -43.43656,84.85282 z"
           id="path3889"
           inkscape:connector-curvature="0"
           sodipodi:nodetypes="cccccccccccccccc" />
        <path
           style="fill:none;stroke:#000000;stroke-width:3;stroke-linecap:butt;stroke-linejoin:miter;stroke-miterlimit:4;stroke-opacity:1;stroke-dasharray:none;display:inline"
           d="m 413.44825,676.8813 c 0,0 8.94176,5.37913 13.97755,16.2937 5.03578,10.91458 8.24227,15.58514 12.92951,27.7592 8.13724,21.13469 7.50616,34.33583 0.4791,31.83109 -15.05937,-5.36779 -34.85225,-24.38991 -55.97919,-46.30917 -13.12696,-13.61927 -25.8603,-27.2607 -39.19922,-44.54328 -6.3807,-8.26715 -8.76945,-13.97769 -17.23882,-21.16318 -6.12387,-5.19554 -13.93556,-1.6117 -17.47403,8.32706 -3.12484,8.77698 -6.34518,15.04817 -10.93836,19.48876 -7.37745,7.13236 -29.64106,2.61205 -34.93692,-18.42784"
           inkscape:connector-curvature="0"
           sodipodi:nodetypes="czsssssssc"
           id="path3883" />
        <rect
           style="color:#000000;fill:#000000;fill-opacity:1;fill-rule:nonzero;stroke:#000000;stroke-width:2.33700585;stroke-linecap:round;stroke-linejoin:bevel;stroke-miterlimit:4;stroke-opacity:1;stroke-dasharray:none;stroke-dashoffset:0;marker:none;visibility:visible;display:inline;overflow:visible;enable-background:accumulate"
           id="rect3885"
           width="14.176294"
           height="14.285297"
           x="-390.70532"
           y="575.32947"
           transform="matrix(0.56945416,-0.82202309,0.82202309,0.56945416,0,0)"
           inkscape:transform-center-x="7.0624041"
           inkscape:transform-center-y="-4.8152783" />
        <path
           style="fill:none;stroke:#000000;stroke-width:2;stroke-linecap:butt;stroke-linejoin:miter;stroke-miterlimit:4;stroke-opacity:1;stroke-dasharray:none"
           d="m 245.71961,642.61906 5.80837,4.54568 m 0,-11.99556 5.05077,4.04061"
           id="path3887"
           inkscape:connector-curvature="0" />
        <path
           transform="translate(385.9235,-26.594452)"
           style="color:#000000;fill:#1c171d;fill-opacity:1;fill-rule:evenodd;stroke:none;stroke-width:2.20000005;marker:none;visibility:visible;display:inline;overflow:visible;enable-background:accumulate"
           d="M 55.252537,622.82394 C 55.03319,636.18691 44.903928,649.04331 30,648.79077 16.613223,648.56394 4.0516606,639.24467 4.4949253,623.07648 4.9229285,607.46496 16.106225,597.61473 29.494924,597.61473 c 13.388699,0 26.010151,9.82414 25.757613,25.20921 z m -39.387862,10.15034 31.567267,-6.31344 c 0,0 0.197298,12.9178 -13.637059,15.40482 -12.868362,2.31335 -17.930208,-9.09138 -17.930208,-9.09138 z"
           id="path3910"
           inkscape:connector-curvature="0"
           sodipodi:nodetypes="sssssccsc" />
      </g>
      <path
         transform="translate(-11.847809,-16.028442)"
         sodipodi:open="true"
         sodipodi:end="6.2825531"
         sodipodi:start="0"
         d="m 558.72946,719.39062 a 175.88165,175.45337 0 1 1 -3e-5,-0.11092"
         sodipodi:ry="175.45337"
         sodipodi:rx="175.88165"
         sodipodi:cy="719.39062"
         sodipodi:cx="382.84781"
         id="path3920"
         style="color:#000000;fill:none;stroke:#000000;stroke-width:20;stroke-linecap:round;stroke-linejoin:round;stroke-miterlimit:4;stroke-opacity:1;stroke-dasharray:none;stroke-dashoffset:0;marker:none;visibility:visible;display:inline;overflow:visible;enable-background:accumulate"
         sodipodi:type="arc" />
    </g>
  </g>
</svg>
